
<svg version="1.1" id="Layer_1" xmlns="http://www.w3.org/2000/svg" xmlns:xlink="http://www.w3.org/1999/xlink" x="0px" y="0px"
	 viewBox="0 0 727.5 221" style="enable-background:new 0 0 727.5 221;" xml:space="preserve">
<style type="text/css">
	.st0{fill-rule:evenodd;clip-rule:evenodd;fill:#FFFFFF;}
	.st1{fill:#FFFFFF;}
</style>
<path class="st0" d="M513.9,182.4v4c-3.4-0.2-6.7-4-10.1-4c-3.3,0-6.4,4.3-10.1,4.6c-4.4,0.3-8.6-4.8-12.8-4.6
	c-4.6,0.2-5.9,4.8-11.6,4.3c-3.8-0.3-7.1-4.6-11.3-4.6c-3.5,0-5.9,4.4-9.4,4.9c-5,0.7-9.3-4.6-13.7-4.3c-3,0.2-5.6,4.6-8.5,4.9
	c-3.7,0.4-7.8-4.8-12.2-4.9c-3.2,0-6.5,4-10.1,4.3c-4.3,0.4-8.4-4.9-12.5-4.9c-4.2,0-6.6,5.1-12.2,4.6c-3.6-0.3-6.8-4.6-10.4-4.6
	c-4.2,0-7.8,5-11.6,4.9c-4.1-0.1-7.4-4.8-11.3-4.6c-3.2,0.2-6.3,4.1-9.5,4.3c-3.7,0.1-7.1-4.6-10.7-4.6c-3.6,0-6.9,4.6-10.4,4.9
	c-3.7,0.3-7.7-4.4-11.6-4.6c-3.7-0.1-7.7,4.5-11.6,4.6c-3.9,0.1-7.8-4.8-11.3-4.9c-3.4-0.1-6.4,4.4-10.7,4.9c-5.3,0.6-9.9-4.5-14-4
	c-3.3,0.4-5.6,4.9-9.8,4.6c-3.2-0.2-5.7-4.6-8.8-4.9c-3.8-0.3-8.1,4.5-12.8,4.3c-4-0.2-7.7-4.9-11.3-4.9c-3.8,0.1-7.4,4.9-11.3,4.9
	c-3.4,0-6.6-4.2-10.4-4.6c-4.3-0.4-8.5,4.6-12.8,4.6c-3.7-0.1-6.8-4.5-10.4-4.6c-3.6-0.1-7,4.2-10.7,4c-1.2-4.1,2.3-4.3,4-5.2
	c1.9-1,3.6-2.9,6.1-3c4.8-0.3,8,4.6,11.9,4.6c3.4,0,6.7-4.7,10.4-4.9c4.1-0.2,8,4.6,12.5,4.3c3.6-0.3,7.5-4.5,10.7-4.6
	c4.6-0.1,7.3,5.1,11.9,5.2c4.6,0.1,7.3-5.2,11.9-5.2c4.6,0,6.1,5.7,9.8,5.8c3.6,0.1,4.9-5.4,9.5-5.8c5-0.4,8,5,12.2,5.2
	c4.7,0.3,7.9-5.8,13.7-4.9c3.4,0.5,6.2,4.4,9.8,4.6c3.3,0.1,6.5-4.5,11-4.6c3.8-0.1,9,5.1,12.2,4.9c3.8-0.2,7.1-4.8,10.4-4.9
	c3.6-0.1,6.9,4.8,10.4,4.9c3.2,0,6.6-4.7,9.8-4.9c3.4-0.2,7.6,4.9,11.9,4.9c3.8,0,7.8-4.9,11.3-4.9c3.7,0,6.9,4.5,10.4,4.6
	c4.7,0.2,6.8-5.2,13.1-4.6c3.4,0.3,6.9,4.8,10.1,4.9c4,0.1,7.8-5.1,11.9-5.2c2.2,0,4.5,1.5,5.8,2.4c1.5,1.2,2.9,3.6,4.6,3.7
	c2.5,0.1,5.5-4.8,7.9-5.5c6.9-1.9,8.5,4.3,13.7,4.6c4.8,0.2,7.6-5.4,12.8-5.2c3.6,0.2,6.5,4.7,10.4,4.9c3.5,0.2,6.9-4.4,10.7-4.6
	c3.7-0.2,7.7,4.7,11.6,4.9c3.7,0.1,8.2-4.7,12.2-4.6C508.5,178.3,510.1,182.6,513.9,182.4"/>
<path class="st0" d="M514.2,192.5c-0.1,1.1,0.3,2.7-0.3,3.4c-3.1,0.2-6.1-3.8-9.1-4c-4-0.2-8.1,5-12.2,4.9c-3.6-0.1-7-4.9-10.7-4.9
	c-5.5,0-8.5,6.6-15.5,3.7c-2.5-1-4.2-4-8.8-3.4c-3.7,0.5-6.9,4.5-10.1,4.6c-4.2,0-7-4.6-11.3-4.6c-3.8,0-7.4,5.3-11.3,5.2
	c-3.1-0.1-6-4.9-9.1-5.2c-3.8-0.4-8.8,4.8-12.8,4.6c-3.3-0.2-6.2-4.6-10.1-4.9c-3.9-0.2-9.2,4.7-13.4,4.6c-3.6-0.1-7.2-4.5-10.1-4.6
	c-4.5-0.2-7.9,5.4-13.4,4.3c-4-0.8-6.4-4.2-10.1-4c-3,0.2-5.6,4-8.8,4.3c-3.1,0.2-6.8-4.3-11-4.3c-4.4,0-8.6,4.6-12.5,4.3
	c-3.6-0.3-6.1-4.4-9.1-4.6c-3.6-0.2-8.3,5-13.1,4.6c-3.3-0.3-6.4-4.5-9.8-4.6c-4.1-0.1-8.1,4.9-12.2,4.9c-3.6,0-7.3-4.5-10.7-4.6
	c-3.9-0.1-7.9,5.2-11.9,4.9c-3.3-0.3-6.4-4.8-9.8-4.9c-3.8,0-7.3,4.3-11,4.3c-3.5,0-5.8-3.6-9.1-4.3c-5.3-1.1-9.1,4-13.4,4.3
	c-4,0.3-8.8-4.5-12.2-4.6c-3.6-0.1-7.6,4.4-11,4.6c-3.9,0.2-7.4-4.5-11.3-4.6c-3.8-0.1-6.9,4.9-10.7,4.3c0.2-1-0.3-2.3,0-3
	c0.4-1.3,3.5-2,4.6-2.7c2.4-1.6,3.3-2.8,7-2.4c3.5,0.3,7.3,4.2,10.1,4.3c3.9,0.1,7.9-5,11.9-4.9c4.2,0.1,6.8,4.7,11.6,4.3
	c3.3-0.3,5.5-4,8.8-4.6c5.8-0.9,8,5.9,14.6,5.2c4.2-0.4,6.5-6.2,12.5-4.9c3.1,0.7,5,5.5,8.2,5.5c3.4,0,5.5-5.6,10.4-5.5
	c3.2,0.1,7.6,5.2,11.3,5.2c4.6,0,8.5-5.8,12.8-5.5c3.5,0.2,6.5,5,10.1,5.2c5.2,0.2,8.1-6.3,14.6-4c2.7,1,4.5,3.9,7.3,4
	c4.2,0.1,8.6-4.9,13.1-4.6c3.1,0.3,6.2,4.5,9.1,4.6c3.6,0.1,6.7-4.9,10.4-4.9c3.8,0,7.3,4.9,11,4.9c3.3,0,6.5-4.4,10.7-4.6
	c3.9-0.1,9,4.7,12.8,4.3c3.4-0.4,6.1-4.7,9.4-4.9c4.7-0.3,7.8,5.6,13.4,5.2c4-0.3,7.3-5.5,12.2-4.9c3.5,0.5,5,5.6,8.5,5.8
	c3.3,0.2,6.3-5.4,9.5-5.8c4.7-0.7,8.2,5.1,13.1,5.2c4.1,0.1,7.7-5.4,11.3-5.5c4.5-0.1,6.9,5,11.3,5.2c4.8,0.2,7.7-5.4,12.8-4.6
	c2.4,0.4,4.8,3.8,7.6,4.3c4.7,0.8,8.7-4.4,13.4-4.3C508.3,187.7,510,191.7,514.2,192.5"/>
<path class="st1" d="M713.8,126.1c-0.2-0.5-0.8-0.9-1.4-0.9c-0.1,0-0.3,0.1-0.5,0.1c-0.2,0-0.5,0.1-0.7,0.1c0,0,0.1-0.1,0.1-0.1
	c0.2-0.2,0.6-0.5,0.6-0.9l0-0.6l-0.6,0.1c-0.3,0.1-0.7,0.1-1.1,0c-0.4,0-0.8,0-1.2,0c-0.1,0-0.2,0-0.3,0c-0.3,0-0.6,0-0.9,0.2
	c-0.2,0.1-0.4,0.2-0.6,0.2c-0.2,0-0.3,0-0.5,0c0,0,0.2-0.1,0.3-0.2c0.4-0.2,0.9-0.4,1-1l0-0.4l-0.4-0.1c-0.4-0.1-0.7,0.1-1,0.3
	c0,0-0.1,0.1-0.1,0.1c-0.2,0.1-0.4,0.1-0.6,0.2c-0.1,0-0.2,0.1-0.3,0.1c-0.2,0.1-0.4,0.1-0.6,0.1c-0.3,0-0.5,0.1-0.8,0.1
	c-0.2,0.1-0.3,0.1-0.5,0.2c-0.2,0.1-0.3,0.2-0.4,0.2c-0.4,0-1-0.2-1.6-0.8c-0.2-0.1-0.3-0.4-0.4-0.6c-0.3-0.4-0.6-0.9-1.2-1.1
	c-0.4-0.1-0.8-0.4-0.9-0.7c0,0,0-0.1,0.1-0.3c0.2-0.2,0.5-0.4,0.7-0.6c-0.1,1,0.8,1.7,1.4,2.2l0.1,0.1c0.7,0.5,1.9,0.6,2.8,0.6
	l0.3,0c0.2,0,0.7,0,0.9-0.3c0.2-0.3,0.1-0.6,0-0.8c0,0,0,0,0,0c0.1-0.2,0.3-0.6-0.1-1c-0.5-0.6-1.2-0.5-1.8-0.4
	c-0.3,0-0.6,0.1-0.7,0c-0.6-0.2-0.6-0.4-0.9-1l-0.1-0.1c0.2,0,0.6,0.1,0.8,0.2c0.2,0.1,0.4,0.1,0.5,0.1c0.1,0,0.3,0,0.4,0
	c0.4,0,0.7,0,1,0.1c0.2,0.1,0.4,0.2,0.6,0.3c0.2,0.1,0.4,0.2,0.6,0.3c0.3,0.1,0.5,0.2,0.8,0.3c0.5,0.2,0.9,0.3,1.3,0.6l0.1,0.1
	c0.8,0.6,1.3,1,1.8,0.9c0.2-0.1,0.4-0.2,0.5-0.5l0-0.2c0-0.5-0.4-0.7-0.8-1c-0.1,0-0.1-0.1-0.2-0.1c0,0,0.1,0,0.1,0
	c0.1,0,0.3,0,0.4,0c0.2,0,0.3,0,0.5,0c0.6,0,1.4-0.6,1.5-1.2l0.1-0.3l-0.3-0.2c0,0-0.1,0-0.1,0c0.2-0.1,0.4-0.2,0.6-0.5l0.2-0.3
	l-0.2-0.3c-0.6-0.7-1.6-0.4-2.3-0.2c-0.2,0-0.3,0.1-0.4,0.1c-0.1,0-0.2,0-0.3,0c0.1,0,0.1-0.1,0.2-0.1c0.2-0.2,0.7-0.6,0.7-1
	c0-0.3-0.2-0.5-0.4-0.7c-0.3-0.2-0.6-0.2-0.9-0.2c-0.2,0-0.3,0-0.4-0.1c-0.1-0.1-0.3-0.1-0.4-0.2c-0.2-0.1-0.3-0.1-0.5-0.2
	c0.1-0.2,0.2-0.5-0.1-0.8l-0.1-0.1c-0.3-0.2-0.6-0.2-0.8-0.2c-0.2,0-0.2,0-0.3-0.1c-0.2-0.2-0.3-0.5-0.4-0.9c0-0.4-0.1-0.6-0.3-0.9
	c0.1,0,0.1,0.1,0.2,0.2c0.4,0.3,0.8,0.3,1.2,0.3l0.2,0c0,0,0.1,0.1,0.1,0.1l0.1,0.1c0.3,0.3,0.5,0.4,0.8,0.4l0.6,0.2
	c0.4,0.1,0.7,0.2,1.1,0.3c0.3,0.1,2.1,0.4,2.9-0.3c0.4-0.4,0.4-0.7,0.2-1c-0.3-0.4-1-0.4-1.4-0.2c-0.3,0.2-0.5,0.2-0.8,0.1
	c-0.2,0-0.5-0.1-0.8-0.1c-0.2,0-0.4,0-0.7-0.1c0.3,0,0.6,0,0.9-0.1c0.2,0,0.3-0.1,0.5-0.1c0.5,0,2-0.2,2.8-1
	c0.3-0.4,0.2-0.7,0.1-0.8c-0.4-0.6-1.5-0.3-1.5-0.3c-0.1,0-0.1,0-0.2,0.1c0,0,0,0,0,0c0.2-0.2,0.4-0.3,0.5-0.6l0.3-0.5l-0.6-0.2
	c-0.4-0.1-0.8-0.1-1.2-0.1c0.3-0.2,0.6-0.5,0.6-1l0-0.5l-0.5-0.1c-0.6-0.1-1.2,0.1-1.8,0.3c-0.3,0.1-0.6,0.2-0.8,0.2
	c0,0-0.1,0-0.1,0c0.4-0.2,0.7-0.4,0.8-0.8c0.2-0.4,0-0.7-0.1-0.9c-0.3-0.4-1-0.4-1.5-0.3c-0.1-0.2-0.2-0.3-0.2-0.5
	c-0.5-0.6-1.5-0.6-2.2-0.5c-0.3,0-0.5,0-0.8,0c0.2-0.1,0.4-0.3,0.5-0.5c0.1-0.2,0-0.5-0.1-0.7c-0.3-0.4-0.8-0.5-1.3-0.5
	c-0.2,0-0.3,0-0.4-0.1c0.1-0.2,0.2-0.4,0-0.7l-0.1-0.2l-0.2-0.1c-0.4-0.2-0.7-0.2-1-0.1c0.1-0.2,0.1-0.3,0.1-0.4
	c0-0.2-0.2-0.4-0.4-0.6c0.1,0,0.2,0.1,0.4,0.1c0.1,0.2,0.2,0.4,0.4,0.6c0.2,0.2,0.5,0.3,0.9,0.4c0,0,0,0.1,0.1,0.1
	c0.1,0.1,0.1,0.2,0.2,0.3c0.4,0.4,0.8,0.3,1,0.3c0.1,0,0.1,0,0.2,0c0.2,0,0.5,0.1,0.8,0.2l0.3,0.1c0.4,0.2,0.9,0.4,1.4,0.5
	c0.8,0.1,1.5,0.1,2.2,0c0.4,0,0.8-0.1,1.3-0.1c0.2,0,0.4,0,0.6,0c0.4,0,0.8,0.1,1.3,0c0.8-0.1,1.1-0.3,1.2-0.6
	c0-0.1,0.1-0.4-0.3-0.7c-0.1-0.1-0.2-0.1-0.3-0.1c0,0,0,0-0.1,0c0.2-0.4,0.1-0.6-0.1-1c0-0.1-0.1-0.2-0.2-0.3c0-0.1,0-0.2-0.1-0.4
	c0-0.3,0-0.8-0.5-1.2c-0.4-0.3-1.1-0.6-1.6-0.6l-0.4,0c-0.9-0.1-1.5-0.2-2.2-0.7c-0.5-0.4-0.9-0.4-1.3-0.3c0.2-0.4,0-0.9-0.2-1.4
	c-0.1-0.2-0.2-0.4-0.2-0.6l0-0.3l-0.2-0.1c-0.2-0.1-0.5-0.2-0.6-0.2c-0.1,0-0.2,0-0.2,0c-0.1-0.1-0.6-0.4-0.7-0.5
	c-0.2-0.3-0.4-0.4-0.7-0.4c0-0.1,0-0.3-0.1-0.5c0,0,0,0,0,0c0.1,0,0.2,0,0.3,0.1c0.1,0.1,0.3,0.1,0.5,0.2c0.3,0.1,0.5,0,0.8,0
	c0.1,0,0.2,0,0.2,0c0.1,0,0.1,0,0.3,0.1c0.1,0.1,0.3,0.2,0.6,0.2c0.2,0,0.3,0,0.4-0.2l0.2,0.1l0.2-0.4c0,0,0-0.1,0-0.1l0.3-0.5
	l-0.6-0.2c0,0-0.1,0-0.1,0c0.2-0.1,0.4-0.2,0.6-0.3c0.2-0.1,0.4-0.2,0.8-0.2c0.4,0,1.2-0.3,1.4-0.8c0.1-0.2,0.2-0.6-0.2-1
	c-0.1-0.1-0.2-0.2-0.3-0.3c-0.1,0-0.1-0.1-0.1-0.1c0,0,0,0,0,0c0.1-0.3,0.4-1.1-0.3-1.5c-0.4-0.2-0.8-0.2-1.1-0.1
	c-0.4,0.1-0.4,0-0.5,0c-0.1-0.2-0.1-0.3,0-0.6c0.1-0.3,0.2-0.7-0.1-1.1c-0.2-0.4-0.6-0.5-0.9-0.5c0-0.1,0.1-0.1,0.1-0.2
	c0.1-0.1,0.1-0.4-0.2-0.8c-0.2-0.2-0.3-0.3-0.5-0.3c0,0-0.1,0-0.1-0.1l0.1-0.3l-0.3-0.2c-0.2-0.1-0.3-0.2-0.5-0.3c0,0,0,0,0,0
	c0.1,0,0.2,0.1,0.3,0.1c0.2,0.1,0.3,0.1,0.5,0.2c1.7,0.4,2.2,0.1,2.4-0.3l0.2-0.3l-0.1-0.2c0.3-0.1,0.4-0.4,0.4-0.5
	c0-0.4-0.3-0.7-0.7-0.8c-0.3-0.1-0.6-0.2-0.9-0.3c-0.1,0-0.2-0.1-0.4-0.1c0.3-0.1,0.7-0.3,0.8-0.6c0-0.1,0.1-0.6-0.5-0.9
	c-0.4-0.2-0.8-0.3-1.1-0.3c-0.2,0-0.5-0.1-0.7-0.2c0.2-0.1,0.4-0.3,0.4-0.5l0.1-0.3l-0.3-0.2c-0.3-0.2-0.6-0.2-0.9-0.2
	c0,0-0.1,0-0.1,0c0.1-0.1,0.1-0.1,0.2-0.2c0.3-0.3,0.4-0.7,0.2-1.2c-0.2-0.5-0.5-0.9-1-1c-0.2,0-0.3-0.1-0.5-0.1
	c-0.3-0.1-0.6-0.2-0.9-0.2c-0.1-0.1-0.1-0.3-0.1-0.3c0.1,0,0.5,0.1,0.6,0.2c0.1,0,0.1,0.1,0.2,0.1c0.2,0.1,0.4,0.3,0.9,0.3
	c0.2,0,0.3,0,0.4,0.1c0.5,0.2,1.3,0.2,1.8,0c0.6-0.2,0.6-0.6,0.6-0.8c-0.1-0.6-1.1-0.7-1.1-0.7c-0.1,0-0.1,0-0.2-0.1c0,0,0,0,0,0
	c0.1,0,0.2-0.1,0.3-0.2l0.1-0.2c0.1-0.2,0-0.4-0.1-0.6c-0.1-0.2-0.3-0.3-0.5-0.4c0.5-0.2,0.5-0.5,0.5-0.6c0-0.4-0.5-0.6-0.8-0.7
	c0.2-0.2,0.4-0.5,0.3-0.8c-0.2-0.5-0.8-0.3-1-0.3c0,0-0.1-0.1-0.1-0.1c-0.2-0.2-0.5-0.6-1.1-0.3c-0.1,0-0.1,0.1-0.2,0.1
	c0-0.4,0-1-0.6-1.2c-0.7-0.2-1.4,0-2.2,0.1c-0.3,0.1-0.6,0.1-0.9,0.1c-0.3,0-0.5,0-0.8-0.1c0.2,0,0.3,0,0.5,0c0.2,0,0.5,0,0.7,0
	c0.4,0,0.5-0.1,0.6-0.2c0.1-0.1,0.2-0.3,0.2-0.6l0-0.2l-0.1-0.1c-0.3-0.3-0.7-0.2-0.9-0.2l-0.1,0c0,0-0.1-0.1-0.1-0.2
	c-0.1-0.2-0.2-0.4-0.4-0.6c0.6,0.2,1.2,0.3,1.7,0.2l0,0.1c-0.1,0.8,0.7,1,1,1.1l0.1,0c0.2,0.1,0.3,0.1,0.5,0.2
	c0.4,0.2,0.8,0.4,1.5,0.3c0.2,0,0.3-0.1,0.5-0.1c0.4-0.1,0.8-0.2,1.2-0.1l0.7,0.1l-0.2-0.7c-0.1-0.3-0.1-0.6-0.2-0.8
	c-0.2-0.6-0.7-0.6-0.9-0.6c0,0-0.1,0-0.1,0c0.1,0,0.2,0,0.2-0.1l0.4-0.2l-0.2-0.5l-0.2-0.4l-0.3,0c-0.3,0-0.6,0-0.9,0
	c0.2-0.1,0.5-0.1,0.6-0.3c0.1-0.1,0.2-0.3,0.2-0.6l0-0.4l-0.4-0.1c-0.1,0-0.3,0-0.4,0c0.1-0.1,0.1-0.2,0.2-0.3l0.1-0.3l-0.3-0.2
	c-0.6-0.4-1.3-0.3-1.7-0.2c0.1-0.5,0.1-1-0.3-1.3c-0.1-0.1-0.6-0.4-1.2,0.1c-0.1,0.1-0.3,0.2-0.4,0.4c-0.1,0.1-0.2,0.2-0.3,0.2
	c0,0,0-0.1-0.1-0.1c-0.2-0.4-0.7-0.5-0.9-0.5c-0.1,0-0.2,0-0.3-0.1c0,0,0-0.1,0-0.2c0,0,0-0.1,0-0.1c0.6-0.6,1-0.8,1.9-0.8
	c0,0,0,0,0,0c0.3,0,0.7,0,1,0c0.6,0,1.1-0.1,1.6,0c0.9,0.1,1.6,0.1,2.5-0.1c0.7-0.1,0.7-0.6,0.6-0.7c-0.1-0.5-0.7-0.6-1-0.6
	c-0.4,0-0.8,0.1-1.1,0.2c0-0.1,0-0.1,0-0.2c0-0.5-0.5-0.6-0.8-0.7c0,0,0,0,0,0c0-0.1-0.1-0.4-0.1-0.5c-0.1-0.6-0.2-1.1-0.7-1.3
	c-0.1,0-0.4-0.1-0.7,0.1c-0.1,0.1-0.1,0.1-0.4,0c-0.3-0.1-0.9-0.2-1.4,0.3c-0.3-0.5-0.8-0.4-1.1-0.4c-0.1,0-0.1,0-0.2,0
	c-0.1,0-0.2,0-0.4-0.1c0.3-0.3,0.4-0.6,0.4-1c0-0.4-0.2-0.7-0.5-0.8c0,0-0.1,0-0.1,0c0.2,0,0.3-0.1,0.5-0.2c0.3-0.2,0.7-0.4,1-0.5
	c0.2,0,0.3,0,0.5,0c0.1,0,0.3,0.1,0.4,0.1c0.3,0,0.6,0,0.9,0c0.2,0,0.3,0,0.5,0c0,0,0,0,0,0c0.5,0,0.9-0.2,0.9-0.6
	c0-0.2,0-0.6-0.6-0.8c-0.4-0.2-0.9-0.2-1.3-0.2c-0.4,0-0.7,0-1.1-0.2c-0.9-0.4-1.4-0.1-1.7,0.2c-0.1,0-0.1,0.1-0.2,0.1
	c-0.1-0.2-0.2-0.4-0.4-0.5c-0.3-0.2-0.7-0.3-1-0.4c0,0-0.1,0-0.1,0l0.1-0.1l0-0.3c0-0.2-0.1-0.3-0.2-0.5l0.1,0c0.1,0,0.2,0,0.3,0
	c0.7,0.7,1.6,1,2.5,0.8c0.5-0.1,0.9-0.4,1.3-0.7c0.3-0.2,0.5-0.4,0.8-0.5c0.3-0.1,1-0.3,1.1-0.8c0-0.1,0.1-0.4-0.1-0.8
	c-0.4-0.5-1-0.5-1.4-0.5c-0.1,0-0.3,0-0.5,0c0.1,0,0.2-0.1,0.3-0.1l0.2,0c0.2,0,0.4-0.1,0.6-0.2l0.2-0.1l0.1-0.2
	c0.1-0.2,0.1-0.4,0.1-0.5c0,0,0,0,0.1-0.1l0.9-1.1c0.2-0.2,0.5-0.5,0.3-0.9c-0.1-0.1-0.2-0.4-0.7-0.3c-0.3,0-0.5,0.1-0.7,0.2
	c-0.1,0-0.2,0.1-0.3,0.1c0,0-0.1-0.2-0.1-0.3c-0.1-0.3-0.2-0.7-0.5-0.9c-0.1-0.1-0.4-0.1-0.7,0c-0.2,0.1-0.4,0.2-0.5,0.3
	c0,0-0.1,0.1-0.1,0.1c0-0.1-0.1-0.1-0.1-0.2c-0.2-0.3-0.5-0.4-0.7-0.3c0.1-0.2,0.1-0.3,0.1-0.6l-0.1-0.4l-0.4,0c0,0-0.1,0-0.1,0
	c0.3-0.2,0.6-0.5,0.6-1c0-0.2,0.1-0.5,0.2-0.6c0.1-0.1,0.3-0.3,0.5-0.4c0.3-0.2,0.7-0.5,0.9-0.9c0.1-0.4,0-0.6-0.1-0.7
	c-0.2-0.2-0.5-0.2-0.8-0.1c0.2-0.9,0.3-1.3-0.1-1.6c-0.1-0.1-0.4-0.2-0.8,0.1c-0.1,0.1-0.2,0.2-0.2,0.3c-0.1-0.1-0.1-0.2-0.2-0.3
	c-0.3-0.2-0.8-0.2-1.3,0.4c-0.2,0.2-0.3,0.2-0.6,0.2c-0.1,0-0.3,0-0.5,0c0-0.3-0.1-0.6-0.4-0.7c-0.3-0.2-0.7-0.1-1,0
	c0,0-0.1,0-0.1,0c0.1-0.2,0.2-0.5,0-0.8c-0.2-0.3-0.7-0.3-0.8-0.2c-0.5,0.1-0.8,0.1-1.1-0.1c-0.3-0.2-0.6-0.1-0.8,0c0,0,0-0.1,0-0.1
	c-0.2-0.5-0.3-0.9-0.7-1.1c-0.1,0-0.3,0-0.4,0c0,0,0-0.1,0-0.1c0-0.4-0.1-0.8-0.4-1c-0.1-0.1-0.3-0.1-0.6,0
	c-0.2,0.1-0.3,0.2-0.4,0.3c0,0,0,0,0,0c-0.1-0.1-0.2-0.2-0.3-0.3c-0.1-0.2-0.3-0.3-0.5-0.5c-0.8-0.5-1.7-1-2.3-0.8
	c-0.2,0.1-0.5,0.3-0.5,0.8c0,0.1,0,0.3,0,0.5c0,0.2,0,0.8-0.1,1.1c-0.1,0-0.1,0-0.2,0c-0.3,0-0.8-0.1-1,0.3
	c-0.1,0.2-0.1,0.4-0.1,0.5c-0.1-0.1-0.2-0.1-0.2-0.2c-0.1,0-0.1-0.1-0.2-0.2c-0.1-0.2-0.3-0.4-0.5-0.5c-0.2-0.1-0.4-0.1-0.6-0.1
	c-0.3,0.1-0.4,0.3-0.5,0.5c-0.2-0.5-0.3-0.9-0.7-1c-0.2-0.1-0.4,0-0.6,0.1c-0.2,0.2-0.4,0.4-0.4,0.7c-0.1,0.7,0.7,1.6,1.5,2.4
	c0.1,0.1,0.2,0.2,0.3,0.4c0.4,0.5,0.4,0.6,0.4,0.6c0,0.1-0.1,0.1-0.1,0.2c-0.1-0.1-0.2-0.1-0.3-0.2c-0.3-0.1-0.5,0-0.9,0.2
	c-0.1,0.1-0.2,0.1-0.2,0.1c0,0-0.1-0.1-0.1-0.3c-0.2-0.5-0.4-1-0.8-1c-0.2,0-0.3,0.1-0.4,0.1c0,0,0,0,0,0c-0.2-0.7-0.4-1.5-1-1.7
	c-0.2-0.1-0.5-0.1-0.9,0.3c-0.2,0.2-0.3,0.4-0.3,0.7c-0.3-0.4-0.5-0.7-0.9-0.6c-0.2,0-0.4,0.2-0.5,0.7c0,0.7,0.4,1.4,0.6,1.6
	c0.1,0.2,0.3,0.3,0.4,0.3c0.1,0,0.1,0.1,0.2,0.1c0.1,0.1,0.1,0.1,0.1,0.2c0.1,0.1,0.2,0.3,0.3,0.5c0.1,0.1,0.2,0.2,0.3,0.3
	c0.1,0.1,0.2,0.2,0.3,0.3c0.3,0.3,0.5,0.3,0.7,0.4c0.1,0,0.1,0,0.2,0.1c0.3,0.1,0.8,0.4,1.2,0.7c-0.1,0-0.2,0-0.3,0
	c-0.3,0-0.5,0-0.8-0.1c-0.6-0.2-0.9,0-1,0.2c-0.3,0.6,0.5,1.3,0.5,1.3c0.1,0.1,0.2,0.2,0.3,0.3c0.2,0.3,0.5,0.7,1.1,0.7c0,0,0,0,0,0
	c-0.1,0-0.1,0-0.2,0.1c-0.1,0-0.3-0.2-0.5-0.3c-0.2-0.2-0.4-0.3-0.7-0.4l-0.2-0.1l-0.2,0.1c-0.1,0.1-0.2,0.1-0.3,0.2
	c-0.1,0-0.1,0.1-0.1,0.1c0,0-0.1,0-0.3-0.2c-0.5-0.3-0.8-0.1-0.9,0c-0.2,0.2-0.1,0.5,0,0.8c-0.2-0.1-0.4-0.1-0.6,0
	c-0.2,0-0.5,0.2-0.6,0.6l0,0.2c0,0.2,0,0.3,0.1,0.5c-0.2-0.1-0.5-0.3-0.9-0.3l-0.4,0l-0.1,0.4c-0.1,0.3,0.1,0.7,0.3,1
	c0.3,0.4,0.9,0.7,1.4,0.8c0.1,0,0.3,0,0.5,0.1c0.3,0,0.6,0.1,0.9,0.1c0.3,0,0.5-0.1,0.7-0.2c0.1,0,0.2-0.1,0.3-0.1
	c0.3-0.1,0.7,0,1.1,0c0.4,0.1,0.9,0.1,1.4,0c0.3-0.1,0.7,0,1,0c0.4,0,0.8,0,1.2,0l0.3,0c0.4-0.1,0.8-0.1,1.1-0.1
	c-0.2,0-0.3,0.1-0.4,0.2c-0.1,0.1-0.2,0.1-0.3,0.2c-0.4,0.2-0.8,0.4-0.9,0.9c0,0.2,0,0.4,0.2,0.7c-0.2-0.1-0.4-0.1-0.5-0.1
	c0,0,0,0,0,0l-0.6,0l0.1,0.6c0,0.3,0.2,0.5,0.4,0.6c-0.1,0-0.2,0-0.3,0c-0.4,0-0.7,0-1.1-0.1c0,0-0.1-0.1-0.2-0.1
	c-0.3-0.1-0.7-0.4-1.1-0.1l-0.3,0.2l0.1,0.3c0,0,0,0.1,0,0.1c-0.2,0-0.3,0.1-0.4,0.3c0,0-0.1-0.1-0.1-0.1c-0.4-0.3-1-0.8-1.6-0.7
	c-0.2,0-0.5,0.1-0.7,0.5c-0.1,0.2-0.2,0.3-0.2,0.3c0,0-0.2,0-0.3-0.1c-0.2-0.1-0.4-0.1-0.6-0.2c-0.4-0.1-0.7,0.1-0.8,0.2
	c-0.3,0.4,0,0.8,0.1,1c0,0,0.1,0.1,0.1,0.1l0.1,0.2l0.2,0.1c0.2,0.1,0.4,0.2,0.5,0.3c0.1,0.1,0.3,0.2,0.4,0.2c0.5,0.3,1,0.2,1.4,0.2
	c0.3,0,0.6,0,0.9,0.1c0.7,0.3,1.7,0.8,2.8,0.7c0.2,0,0.3,0,0.5-0.1c0.3-0.1,0.6-0.1,0.9,0c0.1,0,0.2,0.1,0.3,0.1
	c0.3,0.1,0.6,0.2,1,0.2c0.3,0,0.9,0.3,1.3,0.6c-0.2-0.1-0.5-0.2-0.8-0.2l-0.2,0l-0.1,0.2c-0.1,0.3-0.1,0.5,0,0.7
	c-0.4-0.2-0.7-0.4-1.1-0.4l-0.7,0l0.2,0.6c0,0.1,0.1,0.2,0.3,0.4c0.1,0.1,0.2,0.2,0.3,0.3c-0.2-0.1-0.4-0.3-0.6-0.4
	c-0.1-0.1-0.1-0.1-0.2-0.2c-0.3-0.2-0.6-0.5-1-0.6l-0.7-0.2l0.2,0.7c0,0.2,0.2,0.5,0.4,0.8c0,0,0.1,0.1,0.1,0.1
	c-0.4-0.1-0.7,0-1,0.1c-0.1,0-0.1,0-0.2,0.1c-0.1,0-0.1,0-0.2,0c-0.3,0-0.6,0-0.9,0.5c0,0-0.1,0-0.2-0.1c-0.2-0.1-0.4-0.3-0.5-0.4
	c-0.2-0.2-0.5-0.4-0.8-0.6c-0.7-0.4-1.1,0-1.2,0.1c-0.4,0.5-0.1,1.3,0.3,1.7c0.5,0.5,1.3,0.9,2,1c0.3,0,0.7,0,1.1,0
	c0.9,0,2.2,0,2.6,0.5c0,0-0.2,0.1-0.4,0.1c0,0,0,0,0,0c0,0-0.1,0-0.2,0c-0.2,0-0.7-0.1-1,0.3c-0.1,0.2-0.2,0.2-0.4,0.3
	c-0.1,0-0.2,0.1-0.3,0.1c-0.5,0.2-1.5,0.8-1.8,1.5c-0.1,0.2-0.5,0.2-0.8,0.1l-0.1,0l-0.1,0c-0.4,0.1-0.4,0.1-0.8-0.2
	c-0.1-0.1-0.5-0.5-1-0.4c-0.2,0-0.5,0.1-0.7,0.5l-0.2,0.3l0.2,0.3c0.1,0.2,0.2,0.4,0.3,0.6c0.3,0.5,0.6,1,1.1,1.5
	c0.1,0,0.1,0.1,0.2,0.1c-0.2,0-0.3,0-0.5,0.1l-0.2,0.1l-0.1,0.2c-0.1,0.2-0.1,0.5,0,0.7c-0.8-0.3-1.5-0.5-1.9-0.1
	c-0.1,0.1-0.3,0.4-0.1,0.8c0.3,0.8,1,1.2,1.8,1.6c0.6,0.3,1.4,0.6,2.2,0.5c0.4,0,0.6-0.3,0.6-0.4c0.1-0.2,0-0.3,0-0.4
	c0.2,0,0.5,0.1,0.7,0.2c0.5,0.2,1,0.1,1.4-0.1c0.3-0.1,0.6-0.1,0.8-0.1c0.3,0,0.6,0.1,1,0.1c0.6,0,1.3,0.1,1.7,0.3
	c0.7,0.4,1.2,0.3,1.8,0.3c0.1,0,0.3,0,0.5,0c0.6,0,1.1,0.3,1.2,0.6c0,0.1-0.1,0.2-0.4,0.4l-0.1,0.1c0,0,0,0,0,0
	c-0.2-0.3-0.4-0.4-0.7-0.4c-0.1,0-0.4,0.1-0.5,0.4c-0.2-0.1-0.5-0.1-0.8,0.1c-0.2,0.1-0.6,0.4-0.7,0.8c0,0,0,0,0,0
	c-0.2-0.1-0.5-0.3-1-0.2c-0.1,0-0.3,0-0.5-0.1l-0.6-0.2l-0.2,0.4c-0.1,0.2-0.1,0.3,0,0.5c0,0,0-0.1-0.1-0.1l-0.1-0.1
	c-0.3-0.4-0.7-0.8-1.1-0.7c-0.1,0-0.4,0.1-0.5,0.5c-0.1,0.2,0,0.5,0,0.7c0,0,0,0,0,0c-0.2-0.2-0.4-0.4-0.6-0.6
	c-0.3-0.2-0.6-0.2-0.8-0.2c-0.1,0-0.1,0-0.2,0c-0.2-0.1-0.4-0.2-0.7-0.1c-0.2,0.1-0.3,0.3-0.4,0.6c-0.1,0.3,0,0.6,0.2,0.9
	c-0.3,0-0.5,0-0.6-0.1c-0.1-0.1-0.2-0.1-0.3-0.2c-0.3-0.2-0.7-0.4-1.2-0.4c-0.3,0-0.6,0.2-0.7,0.5c-0.3,0.7,0.4,1.6,0.4,1.6
	c0.4,0.5,0.8,0.9,1.1,1.2c0,0,0,0,0,0c-0.4,0.1-0.5,0.3-0.6,0.5c0,0,0,0.1-0.1,0.1c-0.1,0-0.1-0.1-0.2-0.2c-0.2-0.2-0.5-0.4-0.9-0.4
	c-0.1,0-0.4,0.1-0.5,0.3c-0.2,0.3-0.3,0.5-0.4,0.8c-0.5-0.3-1.1-0.4-1.7-0.4c-0.3,0-0.6-0.1-0.8-0.1c-0.1,0-0.2-0.1-0.3-0.2
	c-0.3-0.2-0.6-0.4-1-0.4c0-0.3,0-0.5-0.1-0.6c0-0.1-0.1-0.2-0.1-0.3c-0.1-0.2-0.1-0.3-0.1-0.4l0-0.3l-0.2-0.1
	c-0.2-0.1-0.4-0.1-0.5-0.2c-0.1,0-0.2,0-0.3-0.1c-0.2-0.2-0.4-0.4-0.6-0.5l-0.1,0c0,0-0.1,0-0.1,0c0,0,0-0.1,0-0.1
	c0.2,0,0.3,0,0.5,0c0.4,0,0.7,0.1,1,0.2c0.2,0.1,0.7,0.3,1.2-0.4l0.4-0.6l-0.4-0.1c0.1,0,0.1-0.1,0.2-0.1c0.2-0.1,0.4-0.2,0.6-0.2
	c0.5,0,1-0.3,1.2-0.8c0.1-0.2,0.1-0.6-0.3-1l-0.1-0.1c0,0,0,0-0.1-0.1l0-0.1c0.2-0.6,0.1-0.9-0.4-1.2c-0.3-0.2-0.7-0.1-0.9-0.1
	c-0.1,0-0.2,0-0.3,0c-0.1-0.1-0.1-0.1,0-0.4c0.1-0.3,0.1-0.6,0-1c-0.2-0.3-0.4-0.4-0.7-0.5c0,0,0-0.1,0-0.1c0-0.1,0-0.5-0.5-0.8
	l-0.1-0.1c0,0,0,0,0,0c0-0.1,0-0.3-0.1-0.4c0.8,0.2,1.6,0.4,2-0.2l0.2-0.3l-0.1-0.1c0.1-0.1,0.2-0.2,0.3-0.4c0-0.2,0-0.5-0.4-0.7
	c-0.3-0.1-0.5-0.2-0.8-0.3c0.2-0.1,0.3-0.3,0.3-0.5c0-0.3-0.2-0.7-0.8-0.9l-0.2,0c-0.2,0-0.5-0.1-0.7-0.1c0.1-0.1,0.2-0.2,0.2-0.4
	l0.1-0.3l-0.3-0.2c-0.2-0.1-0.4-0.1-0.6-0.2c0.4-0.5,0.2-0.9,0-1.3c-0.1-0.1-0.1-0.2-0.2-0.3c0.1,0,0.2,0,0.2,0
	c1.1,0.2,1.5-0.2,1.7-0.6l0.1-0.2l0-0.2c-0.1-0.3-0.3-0.5-0.6-0.5l0.3,0l-0.6-0.8c-0.1-0.1-0.3-0.2-0.4-0.3c0.3-0.2,0.4-0.3,0.4-0.6
	c0-0.3-0.2-0.4-0.4-0.5c0.1-0.1,0.1-0.3,0.1-0.4l0-0.3l-0.2-0.1c-0.3-0.2-0.5-0.1-0.7-0.1c-0.3-0.3-0.6-0.4-1-0.3l0,0
	c0-0.3-0.1-0.5-0.2-0.6c0.1,0,0.2,0,0.4,0c0.2,0,0.3,0,0.5-0.1c0.3-0.1,0.6-0.1,0.9-0.1l0.7,0.1l-0.1-0.7c-0.1-0.6-0.2-0.9-0.7-1.1
	l0.5-0.2l-0.4-0.4l0-0.4l-0.5,0c-0.1,0-0.2,0-0.3,0c0.1-0.1,0.2-0.3,0.3-0.5l0.1-0.5l-0.5-0.1c0,0-0.1,0-0.1,0c0,0,0-0.1,0-0.1
	l0.1-0.3l-0.3-0.2c-0.3-0.2-0.6-0.2-1-0.2c-0.1,0-0.1,0-0.2,0c0.1-0.3,0.1-0.8-0.2-1.1c-0.2-0.1-0.5-0.3-1,0
	c-0.1,0.1-0.2,0.2-0.3,0.3c0,0-0.1,0.1-0.2,0.2c-0.1-0.4-0.4-0.4-0.8-0.5c-0.1,0-0.2,0-0.2-0.1c0-0.1,0.3-0.4,0.6-0.5
	c0.4-0.2,1.1-0.2,1.6-0.2c0.1,0,0.2,0,0.4,0c2.2,0.2,3,0.1,3.3-0.3c0.1-0.2,0.2-0.4,0.1-0.6l-0.1-0.3l-0.3,0c-0.4,0-0.7,0-1,0.1
	c-0.1,0-0.2,0-0.3,0c0-0.1,0-0.2,0-0.3l0-0.3l-0.3-0.1c-0.1,0-0.2-0.1-0.3-0.1c0,0,0,0,0,0c0-0.2-0.1-0.4-0.1-0.6l-0.1-0.3
	c-0.1-0.3-0.2-0.4-0.4-0.5c-0.3-0.1-0.6,0-0.7,0.1c0,0-0.1,0-0.2-0.1c-0.2-0.1-0.7-0.2-1.1,0.1c-0.1,0-0.1,0.1-0.2,0.2
	c-0.1-0.1-0.3-0.3-0.7-0.3c-0.1,0-0.3,0-0.5,0c0.2-0.2,0.3-0.5,0.2-0.7c0-0.2-0.1-0.5-0.3-0.6c0.1,0,0.2-0.1,0.3-0.2
	c0.2-0.1,0.4-0.2,0.6-0.3c0.1,0,0.4,0,0.6,0c1.1,0.1,2.1,0.2,2.2-0.6l0-0.2l-0.1-0.2c-0.3-0.5-0.9-0.5-1.4-0.5
	c-0.4,0-0.7-0.1-1.1-0.2c-0.5-0.2-0.9,0-1.3,0.2c-0.2-0.3-0.6-0.5-1-0.7l0-0.2c0-0.1,0-0.2-0.1-0.2c0,0,0,0,0.1,0
	c0.5,0.5,1.3,0.7,1.9,0.6c0.5-0.1,0.8-0.4,1.1-0.6c0.2-0.2,0.4-0.3,0.6-0.4c0.3-0.1,0.7-0.2,0.9-0.7c0.1-0.2,0.1-0.5-0.1-0.7
	c-0.2-0.4-0.6-0.5-1-0.5c0.4-0.2,0.5-0.5,0.6-0.7c0-0.1,0-0.1,0.1-0.2l0.1-0.1c0.6-0.7,1-1.2,0.7-1.6c0-0.1-0.2-0.3-0.6-0.3
	c-0.2,0-0.4,0.1-0.5,0.2c0,0-0.1,0-0.1,0.1c0-0.1,0-0.1-0.1-0.2c-0.1-0.2-0.2-0.6-0.5-0.7c-0.4-0.1-0.7,0.1-0.9,0.2c0,0,0,0,0,0
	c-0.1-0.1-0.2-0.2-0.3-0.3l-0.1-0.1l-0.1,0c0,0,0,0,0,0c0-0.1,0-0.2,0-0.3L661,32l-0.2,0c0.2-0.3,0.3-0.5,0.4-0.8
	c0.1-0.2,0.1-0.4,0.2-0.5c0,0,0.1-0.1,0.2-0.1c0.3-0.3,0.9-0.6,0.8-1.2l0-0.2l-0.1-0.1c-0.1-0.1-0.3-0.1-0.5-0.1
	c0.1-0.3,0.1-0.6,0-0.8c-0.1-0.2-0.2-0.3-0.5-0.4l-0.1,0l-0.1,0c-0.2,0-0.3,0.1-0.4,0.2l-0.1-0.1l-0.2,0c-0.6-0.2-1,0.3-1.2,0.4
	c-0.1,0.1-0.5,0.2-0.7,0.2c0-0.5-0.3-0.6-0.5-0.7c-0.2-0.1-0.5-0.1-0.7,0c0-0.2,0-0.3-0.1-0.5c-0.2-0.3-0.7-0.3-1-0.2
	c-0.1,0-0.2,0-0.3-0.1c-0.2,0-0.4-0.1-0.7-0.1c-0.1,0-0.1,0-0.1,0c0,0,0,0,0,0c0-0.2-0.1-0.4-0.2-0.6c-0.1-0.1-0.2-0.3-0.5-0.4
	c-0.1,0-0.1,0-0.2,0c0,0,0,0,0,0c0-0.2,0-0.5-0.4-0.7c-0.3-0.1-0.6,0-0.8,0.1c-0.2-0.1-0.4-0.3-0.6-0.4c-0.7-0.5-1.3-1-1.9-0.8
	c-0.2,0.1-0.5,0.3-0.5,0.8c0,0.1,0,0.3,0,0.5c0,0.2,0,0.4,0,0.6c-0.2-0.1-0.7-0.1-1,0.3l-0.1,0.1l0,0.1c-0.4-0.4-0.7-0.6-1-0.6
	l-0.2,0l-0.1,0.1c0,0-0.1,0.1-0.1,0.1c-0.1-0.2-0.2-0.4-0.4-0.6l-0.1-0.1l-0.2,0c-0.5,0-0.6,0.3-0.7,0.5c-0.2,0.6,0.4,1.4,0.5,1.5
	c0.1,0.1,0.2,0.2,0.3,0.4c0.3,0.3,0.6,0.6,0.7,0.9c0,0,0,0,0,0.1c0,0,0,0,0,0c-0.3-0.1-0.6,0-0.7,0.1c-0.1,0-0.1,0.1-0.2,0.1
	c0-0.1-0.1-0.1-0.1-0.2c-0.1-0.2-0.2-0.7-0.7-0.7c-0.1,0-0.2,0-0.3,0.1c-0.1-0.5-0.2-1.3-1.1-1.3c-0.5,0-0.7,0.3-0.8,0.6
	c-0.2-0.2-0.5-0.3-0.8-0.2c-0.2,0.1-0.5,0.3-0.3,1c0.1,0.5,0.5,1,0.8,1.3l0.2,0.2c0.4,0.5,0.8,0.8,1.4,1c0.2,0.1,0.5,0.2,0.7,0.3
	c0,0-0.1,0-0.1,0c-0.6,0-1.1-0.1-1.4,0.3c-0.1,0.2-0.1,0.4,0,0.6c0.1,0.2,0.3,0.5,0.5,0.7l-0.1,0l-0.2,0.1c-0.1,0.1-0.2,0.1-0.3,0.2
	c-0.4-0.2-0.9-0.3-1.1,0c-0.1,0.1-0.1,0.2-0.1,0.5c-0.1,0-0.2,0-0.3,0c-0.2,0-0.4,0.2-0.5,0.5l0,0.2c0,0.1,0,0.1,0,0.2
	c-0.2-0.1-0.3-0.1-0.6-0.1l-0.4,0l-0.1,0.4c-0.1,0.4,0.1,0.8,0.4,1.1c0.8,0.7,2.5,0.4,2.9,0.2c0.2-0.1,0.5,0,0.7,0
	c0.2,0,0.4,0.1,0.6,0.1c0.2,0,0.4,0,0.5-0.1c0.2,0,0.3-0.1,0.4,0c0.4,0.1,0.7,0,1.1,0c0.1,0,0.3,0,0.4-0.1c0.1,0,0.2,0,0.4-0.1
	c-0.3,0.2-0.6,0.4-0.7,0.8c0,0.2,0,0.3,0,0.5c-0.1,0-0.2,0-0.2,0l-0.6,0l0.1,0.6c0,0.2,0.1,0.3,0.2,0.4c0,0,0,0,0,0
	c-0.3,0-0.5,0-0.8-0.1c0,0-0.1,0-0.1-0.1c-0.2-0.1-0.6-0.3-1-0.1l-0.3,0.2l0.1,0.3c0,0,0,0.1,0,0.1c-0.1,0-0.1,0.1-0.2,0.1
	c-0.1-0.1-0.2-0.2-0.3-0.2c-0.1-0.1-0.2-0.2-0.3-0.2c-0.3-0.2-1-0.4-1.5,0.4c-0.1,0-0.1-0.1-0.2-0.1c-0.1,0-0.2-0.1-0.3-0.1
	c-0.5-0.1-0.7,0.1-0.8,0.2c-0.2,0.2-0.1,0.6,0.1,0.9c0.2,0.3,0.4,0.4,0.6,0.5l0.2,0.1c0.5,0.3,1,0.4,1.6,0.4c0.3,0,0.6,0.1,0.9,0.2
	c0.2,0.1,0.4,0.2,0.7,0.2c0.6,0.1,1,0.1,1.5,0l0.2,0c0.2,0,0.4,0,0.7,0.1c0.3,0.1,0.5,0.1,0.7,0.1c0.1,0,0.1,0,0.2,0
	c0.1,0.1,0.1,0.1,0.2,0.1l-0.2,0l-0.1,0.2c-0.1,0.1-0.1,0.2-0.1,0.3c-0.2-0.1-0.5-0.2-0.7-0.1l-0.7,0l0.2,0.5
	c-0.2-0.2-0.5-0.3-0.8-0.4l-0.7-0.2l0.2,0.7c0,0.2,0.1,0.4,0.3,0.5c-0.2,0-0.5,0.1-0.7,0.1c0,0-0.1,0-0.1,0c-0.2,0-0.5,0-0.8,0.4
	c0,0,0,0,0,0c-0.1-0.1-0.3-0.2-0.4-0.3c-0.2-0.2-0.3-0.3-0.5-0.4c-0.7-0.4-1.1-0.1-1.2,0.1c-0.3,0.4-0.1,1.1,0.3,1.5
	c0.3,0.3,0.8,0.7,1.4,0.8c0.4,0.1,0.8,0.1,1.2,0.1c0.6,0,1.2,0,1.6,0.2c0,0,0,0,0,0c-0.3,0-0.7-0.1-1,0.4c-0.1,0.1-0.3,0.2-0.5,0.2
	c-0.3,0.1-0.5,0.2-0.7,0.4c-0.2,0.1-0.3,0.3-0.4,0.5c-0.1,0.1-0.2,0.3-0.3,0.3c-0.1,0-0.1,0-0.2,0c-0.2,0-0.4,0-0.7,0.1c0,0,0,0,0,0
	c0,0-0.1-0.1-0.1-0.1c-0.2-0.2-0.8-0.8-1.4-0.4c-0.2,0.1-0.3,0.3-0.3,0.6c0,0.5,0.4,1.1,1.2,1.8c-0.1,0-0.2,0-0.3,0.1l-0.2,0.1
	l-0.1,0.2c-0.1,0.1-0.1,0.3-0.1,0.4c-0.6-0.2-1.2-0.3-1.5,0.1c-0.2,0.3-0.2,0.6,0.1,1c0.4,0.5,0.9,0.8,1.4,1l0.2,0.1
	c0,0,1.2,0.5,1.8,0.2c0.3-0.2,0.3-0.4,0.3-0.5c0,0,0,0,0,0c0.1,0,0.1,0,0.2,0c0.1,0,0.2,0.1,0.3,0.1c0.4,0.1,0.7,0,1-0.1
	c0.2-0.1,0.5-0.1,0.6-0.1c0.2,0,0.5,0.1,0.8,0.1c0.4,0,0.9,0,1.1,0.2c0.6,0.3,1,0.3,1.4,0.2l0.3,0c0.3,0,0.9,0.3,1,0.3
	c0,0,0,0.1-0.2,0.1l-0.1,0.1c0,0,0,0,0,0c-0.1-0.2-0.3-0.3-0.6-0.3c-0.1,0-0.3,0.1-0.4,0.3c0,0-0.1,0-0.1,0l-0.1,0l-0.1,0.1
	c-0.4,0.2-0.7,0.4-0.8,0.7c-0.3-0.2-0.4-0.2-0.8-0.1c-0.1,0-0.2,0-0.3-0.1l-0.6-0.2l-0.2,0.4c0,0.1,0,0.1,0,0.2
	c-0.7-0.7-1-0.5-1.2-0.4c-0.2,0.1-0.2,0.3-0.2,0.5c-0.1-0.1-0.3-0.3-0.5-0.4l-0.3-0.1l-0.2,0.1c-0.5-0.2-0.8,0-0.9,0.1
	c-0.1,0.1-0.3,0.4-0.1,0.9c0,0,0,0,0,0c-0.1,0-0.3-0.1-0.4-0.2c-0.5-0.2-1-0.5-1.4-0.2c-0.1,0.1-0.3,0.3-0.3,0.7
	c0,0.8,0.6,1.3,1.2,1.7c-0.2,0.1-0.3,0.2-0.4,0.4c0,0-0.1,0-0.1-0.1c-0.1-0.1-0.5-0.3-0.9-0.2c-0.3,0.1-0.5,0.4-0.6,0.7
	c-0.2,0-0.4-0.1-0.6-0.1c-0.1,0-0.2-0.1-0.3-0.2c-0.2-0.1-0.4-0.3-0.7-0.3c-0.1,0-0.1,0-0.2,0c0-0.3-0.1-0.5-0.2-0.7
	c0-0.1-0.1-0.1-0.1-0.2c-0.1-0.4-0.5-0.6-0.9-0.8c-0.1-0.1-0.2-0.1-0.3-0.1c-0.1,0-0.1-0.1-0.2-0.1c0.3,0.1,0.5,0.1,0.6,0.1
	c0.1,0,0.1,0,0.2,0c0.2,0.1,0.8,0.2,1.1-0.4l0.3-0.5l-0.2-0.1c0,0,0.1,0,0.1-0.1c0.1,0,0.2,0,0.2,0c0.2,0,0.5,0,0.7-0.2
	c0.3-0.2,0.4-0.5,0.4-0.6c0-0.4-0.2-0.7-0.4-0.8c0,0,0,0,0,0c0-0.1,0.1-0.2,0.1-0.4l0-0.2l-0.1-0.2c-0.3-0.4-0.8-0.3-1.1-0.3
	c-0.1,0-0.1,0-0.1,0c0-0.1,0-0.2,0-0.3c0-0.3,0.1-1-0.5-1.2c0,0,0,0,0,0c0-0.1,0-0.4-0.4-0.7c0,0-0.1-0.1-0.2-0.1c0,0,0,0,0,0
	c0-0.1,0-0.1,0-0.1c0.5,0.2,1.2,0.3,1.6-0.2l0.2-0.3l-0.1-0.1l0.1-0.1l0.1-0.4l-0.1-0.2c-0.2-0.2-0.5-0.4-0.7-0.5
	c0.1-0.2,0.1-0.4,0.1-0.5c-0.1-0.4-0.6-0.6-1.2-0.8c0-0.1,0.1-0.1,0.1-0.2l0.1-0.3l-0.3-0.2c-0.1-0.1-0.3-0.1-0.4-0.1
	c0.1-0.3,0.2-0.5,0.1-0.7c0-0.2-0.1-0.3-0.2-0.4c0.2,0,0.4,0.1,0.7,0.1c0.2,0,0.8-0.2,0.8-0.6c0-0.2,0-0.3-0.2-0.5l0.1,0l-0.6-0.8
	c-0.1-0.1-0.1-0.1-0.2-0.2c0.2-0.2,0.2-0.4,0.2-0.5c0-0.2-0.1-0.3-0.3-0.4c0-0.1,0.1-0.2,0.1-0.3l0-0.3l-0.2-0.1
	c-0.3-0.2-0.5-0.1-0.6-0.2c-0.1-0.1-0.4-0.3-0.7-0.2c0-0.1,0-0.2-0.1-0.3c0.2,0,0.4,0,0.6-0.1c0.2,0,0.5-0.1,0.6-0.1l0.7,0.1
	l-0.1-0.7c-0.1-0.4-0.2-0.7-0.4-0.9l1-0.4l-0.9-0.3l0.2-0.3l-0.9,0c0,0,0,0,0,0c0-0.1,0.1-0.2,0.1-0.3l0.1-0.5l-0.5-0.1c0,0,0,0,0,0
	l0.1-0.3l-0.3-0.2c-0.2-0.1-0.4-0.1-0.7-0.1c-0.1,0-0.1,0-0.2,0c0-0.2,0.1-0.5-0.2-0.7c-0.1-0.1-0.4-0.3-0.8-0.2
	c-0.3,0.1-0.4,0.2-0.6,0.4c0-0.1-0.1-0.1-0.1-0.2l-0.2-0.2l-0.2,0c0,0-0.1,0-0.1,0c0.1-0.1,0.2-0.2,0.3-0.2c0.3-0.2,0.8-0.2,1.2-0.2
	c0.1,0,0.2,0,0.3,0c1.8,0.1,2.4,0.1,2.7-0.3c0.1-0.2,0.2-0.4,0.1-0.6l-0.1-0.3l-0.3,0c-0.3,0-0.5,0-0.8,0.1c0,0-0.1,0-0.1,0
	c0,0,0-0.1,0-0.1c-0.1-0.3-0.4-0.4-0.5-0.4c0-0.1,0-0.1,0-0.2c0-0.3,0-0.7-0.4-0.9c-0.3-0.1-0.5,0-0.7,0.1c0,0,0,0-0.1,0
	c-0.1-0.1-0.4-0.1-0.6-0.1c-0.1,0-0.3,0.1-0.4,0.2c-0.1-0.1-0.2-0.1-0.3-0.2l-0.1,0l-0.2,0c0,0-0.1,0-0.1,0c0.1-0.1,0.1-0.3,0.1-0.5
	c0-0.2-0.1-0.4-0.1-0.5c0,0,0.1,0,0.1-0.1c0.1-0.1,0.2-0.1,0.3-0.1c0.1,0,0.4,0,0.6,0c0.9,0.1,1.7,0.1,1.9-0.5l0.1-0.2l-0.1-0.2
	c-0.3-0.4-0.9-0.4-1.3-0.4c-0.1,0-0.1,0-0.2,0c-0.1,0-0.2,0-0.3-0.1c-0.1,0-0.2-0.1-0.3-0.1c0.3-0.1,0.6-0.3,0.9-0.5
	c0.2-0.1,0.4-0.3,0.5-0.3c0.5-0.2,0.6-0.5,0.6-0.7c0-0.4-0.3-0.6-0.7-0.7l0.2-0.1l0.1-0.2c0.1-0.3,0.1-0.4,0.4-0.7
	c0.2-0.3,0.6-0.6,0.4-1.1l-0.1-0.2l-0.2-0.1c-0.3-0.1-0.6,0-0.8,0.1c0-0.2-0.1-0.5-0.4-0.7l-0.1-0.1l-0.1,0c-0.2,0-0.4,0.1-0.6,0.2
	c-0.1-0.1-0.2-0.2-0.3-0.2c0,0,0,0,0,0c0-0.1,0-0.1,0-0.2l-0.1-0.4l0,0c0.1-0.2,0.2-0.4,0.2-0.5c0-0.1,0.1-0.2,0.1-0.3
	c0,0,0.1-0.1,0.2-0.1c0.3-0.2,0.7-0.5,0.7-1l0-0.2l-0.1-0.1c-0.1-0.1-0.2-0.1-0.4-0.1c0-0.3,0-0.7-0.3-0.9c0,0-0.3-0.2-0.6,0.1
	l-0.1,0c-0.6-0.2-0.9,0.2-1,0.4c0,0-0.1,0.1-0.1,0.1c0,0,0,0,0,0c-0.1,0-0.2,0-0.4,0c0-0.1-0.1-0.3-0.2-0.4
	c-0.2-0.2-0.5-0.2-0.7-0.2c0-0.1-0.1-0.2-0.1-0.2c-0.2-0.4-0.8-0.4-1.4-0.3c-0.1,0-0.2,0-0.3,0c-0.1-0.3-0.2-0.6-0.5-0.7
	c-0.1,0-0.1,0-0.2,0c0,0,0,0,0,0c0-0.2-0.1-0.4-0.2-0.5l-0.2-0.2l-0.3,0c-0.2,0-0.4,0.1-0.5,0.2c-0.3-0.4-0.8-0.6-1.3-0.8
	c-0.3-0.1-0.6-0.1-0.8,0c-0.4,0.2-0.3,0.7-0.3,1.1c0,0.1,0,0.2,0,0.3c-0.3,0-0.5,0.1-0.6,0.2c-0.1,0.1-0.1,0.1-0.1,0.2c0,0,0,0,0,0
	c-0.1-0.1-0.3-0.5-0.7-0.4c-0.1,0-0.3,0.1-0.3,0.2c-0.1-0.2-0.1-0.3-0.3-0.4L622,18l-0.2,0c-0.4,0-0.6,0.3-0.6,0.4
	c-0.2,0.5,0.2,1.1,0.6,1.5c0.1,0.1,0.1,0.1,0.2,0.2c0.1,0.1,0.4,0.4,0.5,0.6c-0.2,0-0.3,0-0.5,0.1c-0.1-0.4-0.4-0.9-0.8-0.8
	c-0.1-0.4-0.2-0.9-0.9-0.9c-0.4,0-0.6,0.2-0.7,0.4c-0.1-0.1-0.3-0.2-0.5-0.2l-0.3,0l-0.1,0.3c-0.3,0.7,0.2,1.2,0.5,1.5
	c0.1,0.1,0.2,0.2,0.2,0.3c0.3,0.6,0.9,0.9,1.3,1.1l0,0c-0.2,0-0.4,0-0.5,0.1l-0.2,0.2l0,0.3c0,0.4,0.2,0.6,0.4,0.7l-0.1,0
	c-0.1,0-0.2,0.1-0.2,0.1c0,0,0,0,0,0c-0.1-0.1-0.3-0.2-0.6-0.1l-0.3,0.1l-0.1,0.2c0,0.1,0,0.1,0,0.2c0,0-0.1,0-0.1,0
	c-0.1,0-0.4,0.2-0.5,0.4l0,0.2c0,0,0,0,0,0c-0.1,0-0.2,0-0.3,0l-0.4,0l-0.1,0.4c0,0.3,0,0.5,0.2,0.8c0.3,0.3,0.7,0.5,1.1,0.5
	c0.1,0,0.2,0,0.2,0c0.2,0,0.4,0.1,0.6,0c0.2,0,0.4-0.1,0.5-0.1c0.1,0,0.2-0.1,0.2-0.1c0.3,0,0.6,0,1,0c0.5,0,0.9,0.1,1.4,0
	c0.1,0,0.3,0,0.4-0.1c-0.1,0.1-0.3,0.3-0.3,0.5c0,0.1,0,0.1,0,0.2c0,0,0,0,0,0l-0.6,0l0.1,0.6c0,0.1,0,0.1,0,0.1
	c-0.1,0-0.2,0-0.3-0.1c-0.6-0.2-0.9-0.2-1.2-0.1l-0.3,0.2l0.1,0.3c0,0,0,0-0.1,0c0,0,0,0,0,0c-0.2-0.2-0.5-0.4-0.9-0.4
	c-0.4,0-0.6,0.2-0.7,0.4c-0.3-0.1-0.7-0.3-1,0c-0.2,0.1-0.2,0.4-0.2,0.6c0.3,1,1.3,1,1.9,1.1c0.2,0,0.4,0,0.5,0
	c0.2,0,0.3,0.1,0.5,0.2c0.2,0.1,0.5,0.2,0.8,0.3c0.3,0,0.6,0,0.8,0c0.2,0,0.3,0,0.5,0c0.3,0,0.6,0.1,0.9,0.2l-0.1,0.2
	c0,0.1,0,0.1-0.1,0.2c-0.2-0.1-0.3-0.1-0.5-0.1l-0.7,0l0.1,0.3c-0.1-0.1-0.3-0.1-0.4-0.2l-0.7-0.2l0.2,0.7c0,0.1,0.1,0.2,0.1,0.3
	c-0.1,0-0.1,0-0.2,0c0,0-0.1,0-0.1,0c-0.2,0-0.5,0-0.7,0.3c-0.1-0.1-0.2-0.1-0.2-0.2c-0.1-0.1-0.2-0.2-0.3-0.3
	c-0.5-0.3-0.9-0.3-1.2,0c-0.2,0.2-0.3,0.7,0,1.2c0.3,0.4,0.9,0.8,1.4,0.8c0.3,0,0.6,0.1,0.9,0.1c0.2,0,0.4,0,0.6,0l-0.1,0.1
	c-0.1,0.1-0.1,0.2-0.2,0.2c-0.5,0.1-0.8,0.4-1.1,0.6c-0.2,0.1-0.3,0.3-0.3,0.4c0,0-0.1,0.1-0.2,0.1c-0.2,0-0.3,0-0.4,0
	c-0.1,0-0.1,0-0.2,0c-0.2-0.2-0.5-0.5-0.9-0.4c-0.2,0-0.4,0.1-0.6,0.4l-0.2,0.3l0.2,0.3c0.1,0.1,0.1,0.2,0.2,0.3
	c0.2,0.3,0.3,0.5,0.6,0.8c0,0,0,0,0,0l-0.2,0.1L618,37c0,0.1,0,0.1,0,0.2c-0.4-0.1-0.9-0.2-1.2,0.1l-0.2,0.2l0,0.2
	c0.1,0.5,0.4,0.9,1,1.2c0.4,0.2,0.7,0.3,1.1,0.4c0.1,0,0.2,0.1,0.3,0.1c0.2,0,0.6,0.2,0.8-0.2c0-0.1,0-0.1,0.1-0.2c0,0,0,0,0,0
	c0.4,0.2,0.8,0.1,1.1,0c0.1,0,0.3-0.1,0.4-0.1c0.3,0,0.6,0.1,1,0.2c0.7,0.1,1.4,0.3,2.1,0.2l-0.1,0.1c-0.1,0-0.1,0.1-0.2,0.1l-0.1,0
	l-0.3,0.1c-0.3,0.1-0.5,0.4-0.6,0.6c-0.2-0.1-0.4-0.1-0.5-0.1c-0.1,0-0.3,0-0.4-0.1l-0.5-0.2l-0.1,0.3c-0.2-0.2-0.3-0.3-0.6-0.3
	l-0.3,0l-0.2,0.2c-0.1,0.1-0.1,0.2-0.1,0.2c-0.2-0.1-0.4-0.3-0.7-0.2c-0.4-0.2-0.6-0.1-0.8,0.1c-0.2,0.2-0.2,0.4-0.1,0.7
	c0,0,0,0-0.1,0c-0.4-0.2-1.1-0.5-1.5,0c-0.3,0.3-0.2,0.7,0.2,1.2c0.2,0.2,0.4,0.4,0.5,0.6c-0.1,0-0.1,0.1-0.2,0.2
	c-0.2-0.1-0.4-0.3-0.7-0.2c-0.1,0-0.3,0.1-0.5,0.4c-0.3,0.5-0.4,0.9-0.3,1.3c0.1,0.2,0.3,0.5,0.8,0.7c0.1,0.1,0.3,0.1,0.4,0.2
	c-0.4,0.4-0.2,0.9-0.1,1.1c0,0,0,0,0,0c-0.2,0-0.5,0.1-0.6,0.3c0,0,0,0,0,0c-0.1-0.1-0.3-0.2-0.5-0.2c-0.1,0-0.3,0-0.5,0.3
	c-0.6,0.8,0.3,1.5,0.7,1.8l0.1,0.1c0.5,0.4,1.6,0.9,2.3,0.9c0.2,0,0.4,0,0.7,0c0.5,0,1,0.1,1.5,0c0.1,0,0.2,0,0.3-0.1
	c0.2,0,0.4-0.1,0.6,0c0.1,0,0.1,0.1,0.2,0.1c-0.1,0-0.2,0-0.3,0l-0.3,0l-0.2,0.2c-0.1,0.1-0.2,0.2-0.2,0.3c-0.1,0-0.3,0-0.4,0
	c-0.1,0-0.3,0-0.4,0l-0.4-0.1l-0.2,0.2c-0.1,0.1-0.1,0.2-0.2,0.4c-0.2-0.2-0.5-0.4-0.8-0.3c-0.1,0-0.4,0.1-0.4,0.6
	c-0.1,0-0.3,0-0.4,0.1c-0.1,0.1-0.2,0.2-0.3,0.4c-0.2-0.2-0.5-0.4-0.8-0.3c-0.3,0.1-0.4,0.3-0.5,0.6l-0.1-0.1
	c-0.3-0.2-0.6-0.5-1-0.7l-0.3-0.1l-0.2,0.2c-0.2,0.2-0.4,0.4-0.4,0.7c0,0.2,0.1,0.5,0.5,0.9c0.5,0.4,1.3,1.1,2.2,1l0.3,0
	c0.3-0.1,0.5-0.1,0.8,0.1c0.1,0,0.2,0.1,0.3,0.2c0.3,0.2,0.6,0.5,1.1,0.5c0.1,0,0.2,0,0.2,0c0.1,0,0.2,0,0.2,0
	c0.1,0.2,0.3,0.4,0.8,0.4l0.2-0.1c0.1-0.1,0.2-0.1,0.3-0.2c0.1,0,0.3,0,0.4,0c0.2,0,0.2,0,0.3,0c0.1,0,0.2,0,0.3,0.1
	c0.1,0,0.2,0,0.3,0.1c-0.2,0.1-0.3,0.2-0.4,0.4c0,0,0,0.1,0,0.1c-0.2,0-0.3-0.1-0.5-0.1c-0.3-0.1-0.6-0.1-0.9-0.1l-0.2,0
	c-0.3,0-0.8,0-1-0.2c-0.4-0.3-1.2-0.5-1.7-0.5l-0.7-0.1l0.1,0.2c-0.2,0-0.3,0-0.5,0.1l0,0c-0.2-0.2-0.5-0.3-0.7-0.5l-0.3-0.2
	l-0.2,0.1c0,0,0,0-0.1,0c-0.4-0.3-0.8-0.2-1,0.1c-0.6,0.7,0.2,1.4,0.5,1.7c0.6,0.5,1.3,0.7,1.9,0.8c0.3,0.1,0.6,0.1,0.9,0.3
	c0.2,0.1,0.4,0.1,0.8,0.2c0.2,0,0.6,0.1,0.9,0.2c-0.1,0.1-0.3,0.2-0.4,0.2c0,0-0.1,0-0.2,0c-0.2,0-0.5,0-0.8,0.1
	c-0.2-0.2-0.5-0.3-0.8-0.4l-0.3,0l-0.2,0.2c-0.1,0.1-0.1,0.2-0.2,0.3c-0.2-0.1-0.4-0.2-0.6-0.2l-0.5,0l0,0.5c0,0.4,0.2,0.6,0.3,0.8
	c0,0.1,0.1,0.1,0.1,0.1c0,0,0,0,0,0.1c-0.3-0.1-0.6-0.1-0.8,0c-0.1,0-0.2,0-0.3,0c-0.1,0-0.6-0.1-0.9,0.2c-0.1,0.1-0.2,0.4-0.1,0.8
	c0.2,0.7,1,1,1.5,1.2l0.1,0c0.2,0.1,0.5,0.1,0.9,0.2c0.2,0,0.7,0.1,0.9,0.2c0.1,0.6,0.3,1.1,0.5,1.6c0,0,0,0-0.1-0.1
	c-0.5-0.5-0.9-0.4-1.2-0.2l-0.2,0.1v0c-0.1-0.1-0.3-0.1-0.5-0.1c0,0,0,0,0,0l-0.4,0l-0.1,0.3c-0.1,0.1-0.1,0.4,0.1,0.7
	c0.1,0.1,0.1,0.1,0.1,0.2c-0.1,0.1-0.3,0.2-0.4,0.3l-0.1,0.1c-0.1,0.1-0.2,0.1-0.4,0c-0.2,0-0.4-0.1-0.6,0c-0.3,0.1-0.4,0.2-0.5,0.4
	c0,0.1-0.1,0.1-0.1,0.2c-0.3,0.1-0.4,0.3-0.5,0.4c-0.1,0.2-0.1,0.7,0.7,1c0.6,0.3,1.3,0.6,2.2,0.7c0.3,0,0.7,0.1,1,0.2
	c0,0,0.1,0,0.1,0c0,0.1-0.1,0.1-0.1,0.2c0,0.1,0,0.3,0,0.4c0,0-0.1-0.1-0.1-0.1c-0.3-0.1-0.5-0.3-0.8-0.4c0,0-0.1,0-0.1,0
	c-0.2-0.1-0.5-0.2-0.8-0.1c-0.1,0.1-0.3,0.2-0.4,0.5c-0.7-0.1-1.1,0-1.3,0.3c-0.1,0.1-0.2,0.4,0.1,0.8c0,0,0,0.1,0,0.1
	c0.1,0.2,0.1,0.5,0.5,0.7c0.8,0.4,1.6,0.8,2.5,0.6c0.3-0.1,0.6-0.1,1-0.1c0.3,0,0.5,0,0.8-0.1l-0.3,0.2l0.5,0.2l-0.3,0.4l1.1-0.1
	c0.3,0,0.6-0.1,0.9-0.2c0.1,0,0.3-0.1,0.4-0.1c0.1,0.1,0.1,0.1,0.1,0.1c-0.1,0.1-0.5,0.3-0.6,0.3c0,0-0.1,0-0.1,0
	c-0.5-0.2-0.9,0-1.1,0.4c0,0.1-0.3,0.2-0.5,0.2c-0.3,0-0.4,0.2-0.6,0.3c0,0-0.1,0.1-0.1,0.1c-0.1,0-0.2,0-0.3-0.1
	c-0.1-0.1-0.3-0.1-0.5-0.2c-0.1-0.1-0.4-0.4-0.8-0.3l-0.4,0.1l0,0.4c-0.1,0-0.3,0-0.4,0c-0.2,0.1-0.4,0.3-0.5,0.5
	c0,0.2,0,0.5,0.3,0.8c-0.3,0-0.6,0.1-0.8,0.4c-0.2,0.3-0.3,0.6-0.1,0.8c0.2,0.3,0.6,0.5,1,0.5c0,0,0,0,0,0l-0.2,0.2l0.1,0.6l0.4,0
	c0.1,0,0.3,0.1,0.5,0.2c0.2,0.1,0.4,0.3,0.7,0.3c0.1,0,0.3,0.1,0.4,0.2c0.2,0.1,0.5,0.3,0.8,0.4c0.2,0,0.4,0.1,0.7,0.1
	c1,0.2,2.2,0.4,3.1,0.1c0.3-0.1,0.7-0.2,1.1-0.3c0.6-0.1,1.3-0.2,1.9-0.6c0.1-0.1,0.3-0.1,0.4-0.2c0.3-0.1,0.6-0.2,0.9-0.4
	c0.1-0.1,0.2-0.3,0.3-0.4c0,0,0,0,0,0c0,0.2-0.1,0.4-0.1,0.7c0,1,0,2-0.1,3.1c0,0.6,0,1.1,0,1.6c0,0.2,0,0.5,0,0.7
	c0,0.4,0,0.8,0,1.2c0,0.4-0.1,0.8-0.1,1.3c0,0.6,0.1,1.2,0.1,1.8c0.1,1,0.1,2.1,0.1,3.2c0,0.4,0,0.7,0,1.1c0,0.4,0,0.8,0,1.2
	c0,0.2,0,0.5,0,0.7c0,0.6-0.1,1.3,0.1,1.9c0,0.2,0,0.5,0,0.7c0,0.2,0,0.3,0,0.5l0,0.3c0,0.3,0,0.6,0,0.9c0,0.3,0,0.6,0,0.9
	c0,0.5,0,1.1-0.1,1.6c-0.1,0.5-0.1,1.1-0.1,1.6c0,0.4,0,0.8-0.1,1.3c0,0.4-0.1,0.8-0.1,1.1c0,0.5,0,1-0.1,1.4c0,0.1,0,0.1-0.1,0.2
	c-0.2,0.4-0.3,0.8-0.1,1.2c0.1,0.1,0.2,0.3,0.6,0.4c0.2,0,0.4,0.1,0.6,0.1c0.3,0.1,0.5,0.1,0.8,0.1l0.1,0c0.5,0,1.1,0.1,1.7,0.2
	c0.1,0,0.2,0.1,0.3,0.1c0.2,0.1,0.4,0.2,0.6,0.2c0.1,0,0.3,0,0.4-0.2c0.3-0.3,0.2-0.8,0.1-1c-0.5-1.8-0.8-4.1-0.7-6.7
	c0-1.1,0.1-2.4-0.1-3.4c-0.1-0.4-0.1-0.9-0.1-1.4c0-0.4,0-0.9,0-1.3c-0.1-0.5-0.1-1-0.1-1.5c0-0.5,0-1.1-0.1-1.6
	c-0.1-0.5,0-0.9,0-1.4c0-0.6,0.1-1.2,0-1.8c-0.1-1-0.1-2.1-0.1-3c0-0.5,0-1,0-1.5c0-0.4,0-0.8,0-1.2c0-0.9,0-1.9-0.1-2.9
	c0-0.9-0.1-1.7-0.1-2.6c0-0.1,0-0.1,0-0.2c0-0.1,0-0.2,0-0.4c0.2,0.2,0.2,0.2,0.2,0.3c-0.1,0.3-0.1,0.5,0,0.8c0.3,0.6,1,0.8,1.6,1
	c0.2,0.1,0.5,0.2,0.5,0.2c1.3,0.9,2.3,1.6,3.4,2.1c0.6,0.3,1.2,0.5,1.7,0.4c0.1,0,0.2,0,0.4,0.1c0.2,0.1,0.5,0.3,0.8,0.3l0.7,0
	l-0.1-0.2c0.6,0.3,1.3,0.4,2.1,0.5c0.1,0,0.2,0,0.2,0c0,0,0.1,0,0.2,0c0,0.2,0.1,0.3,0.1,0.4c0,0.1,0.1,0.2,0.1,0.2
	c0,0.6,0.2,1,0.4,1.4c0.1,0.1,0.1,0.3,0.2,0.4c0,0.1,0,0.2,0,0.2c-0.1,0-0.2-0.1-0.3-0.2c-0.1-0.1-0.3-0.3-0.5-0.4
	c-0.5-0.3-0.8-0.2-0.9,0c-0.1,0.1-0.2,0.3-0.2,0.4c-0.3-0.3-0.6-0.4-0.9-0.3c-0.2,0.1-0.4,0.2-0.4,0.5c-0.1,0.4,0.2,0.7,0.3,0.8
	c0,0,0,0,0,0c-0.1,0.1-0.4,0.3-0.8,0.5c-0.1,0.1-0.2,0-0.5,0c-0.2,0-0.5-0.1-0.9,0c-0.2,0.1-0.3,0.2-0.4,0.3c0,0.1-0.1,0.2-0.1,0.3
	c-0.2,0-0.5,0.1-0.6,0.3c-0.2,0.2-0.2,0.6,0.1,0.9c0.7,0.7,2.1,1.2,2.9,1.2c0.5,0,1,0.1,1.5,0.2c0.2,0,0.4,0.1,0.6,0.1
	c-0.1,0.1-0.2,0.2-0.2,0.3l0,0.1l0,0.1c0,0.1,0.1,0.2,0.1,0.3c-0.3-0.1-0.7-0.3-1-0.4c-0.7-0.3-1.1-0.4-1.4-0.3
	c-0.3,0.2-0.4,0.5-0.4,0.7c0,0.1,0,0.1-0.4,0c-0.2,0-0.4-0.1-0.7,0c-0.3,0.1-0.6,0.2-0.7,0.4c-0.2,0.3,0,0.7,0.1,0.9
	c0,0.1,0.1,0.2,0.1,0.2c0.1,0.6,0.8,0.9,1.3,1.2c0.1,0,0.2,0.1,0.3,0.1c0.9,0.5,2,0.3,2.9,0.2c0.3,0,0.5-0.1,0.8-0.1
	c0.1,0,0.4,0,0.7-0.1c0.2,0,0.4-0.1,0.7-0.1l-0.1,0.1l0.1,0.3l-0.4,0.7l1-0.1c0.4,0,0.7-0.1,1.1-0.2c0.2-0.1,0.4-0.1,0.6-0.1
	c0.1,0.1,0.2,0.3,0.2,0.4c0,0.1-0.2,0.2-0.8,0.4c0,0-0.1,0-0.1-0.1c-0.2-0.1-0.6-0.3-1,0.1c-0.2,0.1-0.2,0.3-0.3,0.4
	c-0.1,0-0.1,0.1-0.2,0.1c-0.1,0.1-0.2,0.1-0.3,0.2c-0.2,0.1-0.3,0.2-0.5,0.3c-0.2,0.1-0.4,0.2-0.5,0.2c-0.2,0-0.3,0-0.6-0.2
	c-0.1,0-0.2-0.1-0.3-0.1c-0.1,0-0.1-0.1-0.2-0.1c-0.3-0.2-0.6-0.4-0.9-0.3l-0.4,0.1l0,0.4c0,0,0,0,0,0c-0.1,0-0.3-0.1-0.4,0
	c-0.5,0.1-0.7,0.4-0.7,0.6c-0.1,0.5,0.4,1,0.8,1.3c-0.7-0.2-1.4,0.2-1.5,0.7c-0.1,0.4,0.1,0.9,0.9,1.1c0.2,0,0.3,0.1,0.5,0.1
	c0,0,0,0,0,0c-0.2,0.2-0.2,0.4-0.2,0.6l0.1,0.4l0.4,0c0.1,0,0.3,0.1,0.5,0.2c0.2,0.1,0.4,0.3,0.7,0.4c0.3,0.1,0.5,0.2,0.7,0.4
	c0.2,0.1,0.4,0.3,0.7,0.4l0.1,0l0.1,0c0.6,0,1.4,0.1,2.1,0.2c0.4,0.1,0.8,0.1,1.2,0.2c0.7,0.1,1.2,0.1,1.9-0.2
	c0.2-0.1,0.4-0.1,0.7-0.1c0.2,0,0.5-0.1,0.8-0.1c0.3-0.1,0.8-0.3,1.3-0.3l0.1,0c0.2-0.1,0.4-0.2,0.6-0.4c0.2-0.1,0.3-0.2,0.5-0.3
	l0.3-0.1c0.5-0.1,0.8-0.2,1.1-0.8c0.1-0.1,0.1-0.2,0.2-0.3c0.1,0.4,0.1,0.7,0.1,0.9c-0.1,0.5,0,1.2,0,1.6c0,0.2,0,0.5-0.1,0.8
	c-0.1,0.3-0.1,0.6-0.1,0.9c0,0.6,0,1.2,0,1.8c0,0.5,0,1,0,1.5c0,0.5,0,0.9-0.1,1.3c-0.1,0.4,0,0.8,0,1.2c0,0.2,0.1,0.3,0.1,0.5
	c0,0.4,0,0.8,0,1.3c0,0.4-0.1,0.9,0,1.3l0,0.6c0,1.8,0.1,3.5,0.2,5.3c0,0.2,0,0.4,0,0.6c0,0.3,0,0.6,0,0.9c0,0.1,0,0.2,0,0.4
	c0,0.4-0.1,0.9,0,1.2c0.1,0.3,0.1,0.8,0.1,1.3c0,0.4-0.1,0.9,0,1.3c0.1,0.3,0.1,0.9,0,1.1c-0.1,0.3-0.1,0.6,0,0.8c0,0.2,0,0.3,0,0.5
	c-0.1,0.6-0.1,1.1-0.1,1.7c0,0.5,0,0.9,0,1.3c0,0.3,0,0.5,0,0.7c0,0.2,0,0.3,0,0.4l0,0.1c-0.1,0.3-0.1,0.6,0,0.9
	c0,0.3,0,0.8-0.1,1.2c0,0.1-0.1,0.3-0.1,0.4c-0.1,0.4-0.1,0.7,0,1c0,0.2,0,0.4,0,0.6c0,0.1,0,0.1-0.1,0.2c-0.1,0.2-0.1,0.4-0.1,0.7
	c0,0.2,0,0.3,0,0.4c-0.1,0.1-0.6,1-0.2,1.6c0.1,0.3,0.4,0.5,0.8,0.5c0.2,0,0.4,0.1,0.7,0.1c0.3,0.1,0.5,0.1,0.8,0.2l0.4,0
	c0.5,0,1,0.1,1.6,0.2c0.3,0,0.6,0.1,0.8,0.2c0,0,0,0,0.1,0.1c0.1,0.1,0.2,0.2,0.4,0.3c0.1,0,0.2,0,0.2,0c0.2,0,0.3-0.1,0.4-0.2
	c0.4-0.3,0.3-1,0-2.1c0-0.1,0-0.1,0-0.2c0-0.3-0.1-0.6-0.2-0.9c-0.1-0.3-0.1-0.5-0.1-0.8l-0.1-0.5c-0.1-0.9-0.3-1.8-0.2-2.7
	c0.1-0.8,0-1.6,0-2.4c0-0.5-0.1-1-0.1-1.5c0-0.2,0-0.5,0-0.7c0-0.4,0-0.7,0-1.1c0-0.3,0-0.6,0-0.9c0-0.2,0-0.3,0-0.5
	c0-0.2,0-0.5,0-0.7c0-0.2,0-0.5,0-0.7c0-0.2,0-0.4,0-0.6c0-0.3,0-0.5,0-0.7l0-0.3c0-0.5,0.1-1,0-1.5c0-0.1,0-0.3,0-0.5
	c0-0.3,0.1-0.7-0.1-1c-0.2-0.6-0.2-2-0.1-2.7c0.1-0.4,0-0.7,0-1.1c0-0.2,0-0.4,0-0.5c0-0.4,0-0.8,0-1.2c0-0.2,0-0.5,0-0.7
	c0-0.2,0-0.4-0.1-0.6c0-0.1-0.1-0.3-0.1-0.4c0-0.1,0-0.1,0-0.2c0-0.1,0.1-0.3,0.1-0.5c0-0.2,0-0.4-0.1-0.6c0-0.3-0.1-0.5,0-0.7
	c0.1-0.5,0-0.9,0-1.4c-0.1-0.4-0.1-0.8,0-1c0.1-0.4,0.1-0.9,0-1.3c0-0.2,0-0.4,0-0.5c0-0.2,0-0.4,0-0.6c0-0.3,0-0.6,0-0.9
	c0.1-0.6,0-1.2,0-1.8c0-0.4,0-0.8,0-1.3c0-0.1,0-0.4-0.1-0.7c0-0.3-0.1-1.2,0-1.6c0.3,0.2,0.5,0.3,0.5,0.5c0,0.1,0,0.2,0,0.3
	c-0.1,0.3-0.1,0.6,0.3,1c0.3,0.4,0.8,0.6,1.3,0.8l0.2,0.1c0.1,0,0.2,0.1,0.3,0.1c0.3,0.1,0.6,0.2,0.9,0.5c0.6,0.5,1.2,0.8,1.9,1.2
	c0.4,0.2,0.7,0.4,1.1,0.6c0.6,0.4,1.3,0.7,1.9,0.9c0.3,0.1,0.7,0.2,1,0.2c0.3,0,0.5,0,0.7,0.1c0.1,0,0.1,0.1,0.2,0.1
	c0.3,0.2,0.6,0.4,1,0.2c0.1-0.1,0.3-0.3,0.3-0.6c0,0,0,0,0,0c0,0,0,0,0,0c0,0,0,0,0.1,0.1c1.1,0.9,2.2,1.3,3.4,1.5
	c0.1,0,0.3,0,0.5,0c0.2,0,0.8,0,0.9,0.1c0,0.1,0.1,0.3,0.1,0.4c0.1,0.3,0.1,0.6,0.1,1c0,0.5,0.3,0.9,0.6,1.4
	c0.1,0.2,0.2,0.3,0.3,0.5c0,0,0,0.1-0.1,0.3c-0.1,0.1-0.1,0.1-0.1,0.1c-0.1,0-0.3-0.2-0.4-0.4c-0.1-0.1-0.3-0.3-0.5-0.4
	c-0.5-0.3-0.9-0.2-1.1,0c-0.1,0.2-0.2,0.4-0.2,0.7c-0.1-0.1-0.2-0.2-0.3-0.3l-0.1-0.1c-0.3-0.3-0.7-0.4-1-0.2
	c-0.2,0.1-0.4,0.4-0.3,0.8c0.1,0.2,0.2,0.4,0.3,0.5l0.1,0.2c0,0.1-0.1,0.1-0.2,0.2c-0.3,0.1-0.5,0.2-0.7,0.4
	c-0.2,0.1-0.4,0.3-0.6,0.3c-0.1,0-0.3,0-0.5,0c-0.3-0.1-0.7-0.1-1.1,0c-0.3,0.1-0.4,0.3-0.4,0.7c-0.2,0-0.4,0-0.6,0.1
	c-0.1,0.1-0.3,0.3-0.4,0.6c-0.1,0.9,1.2,1.3,1.9,1.6c0.1,0,0.2,0.1,0.2,0.1l0.2,0.1c0.5,0.2,1,0.4,1.6,0.4l0.5,0
	c0.4,0,0.7,0,1.1,0.1c0.2,0,0.4,0.1,0.6,0.2c0.3,0.1,0.6,0.2,0.9,0.2c0.8,0.1,1.4,0.1,2.1,0.1c0.2,0,0.4,0,0.6-0.1c0,0,0,0,0,0
	c-0.1,0.1-0.1,0.3-0.1,0.5l-0.1,0c0,0-0.2,0-0.3-0.1c-1.9-0.4-2.4-0.5-2.7-0.1c-0.1,0.2-0.2,0.4,0,0.7c0.1,0.3,0.4,0.4,0.5,0.6
	c0,0,0,0,0,0c0,0-0.1,0-0.1,0c-0.2-0.1-0.4-0.2-0.6-0.2c-0.4-0.1-0.7-0.2-0.9-0.4c-0.3-0.3-0.9-0.5-1.3-0.6l-0.1,0
	c-0.3-0.1-0.5,0-0.6,0c-0.3,0.2-0.4,0.5-0.5,0.7c0,0.1,0,0.2,0,0.1c-0.2,0.1-0.2,0.1-0.6,0.1c-0.1,0-0.3,0-0.5,0
	c-0.6,0-0.9,0.1-1.1,0.4c-0.2,0.3-0.1,0.7,0.2,1.1c0.1,0.1,0.1,0.2,0.2,0.4c0.1,0.4,0.3,0.6,0.9,0.9c0.2,0.1,0.4,0.2,0.6,0.3
	c0.3,0.2,0.7,0.4,1.1,0.5c0.5,0.1,1,0.1,1.4,0.1c0.2,0,0.3,0,0.5,0c1.1,0,2.2-0.1,3.3-0.3c0.4-0.1,0.8-0.1,1.1-0.1
	c-0.1,0-0.2,0.1-0.3,0.1l-0.4,0.2l0.1,0.3l-0.4,0.7l1-0.1c0.5-0.1,0.9-0.2,1.4-0.3c0.3-0.1,0.5-0.1,0.8-0.2c0.1,0,0.1,0,0.2,0.1
	c0.2,0.2,0.2,0.5,0.2,0.6c-0.1,0.2-0.6,0.4-0.9,0.5l-0.2,0.1c-0.1,0-0.1,0-0.3-0.1c-0.2-0.1-0.4-0.2-0.8-0.1
	c-0.5,0.1-0.7,0.4-0.8,0.8c-0.1,0.1-0.2,0.1-0.3,0.2c-0.1,0-0.2,0.1-0.2,0.1c-0.1,0-0.2,0.1-0.3,0.1c-0.2,0-0.3,0.1-0.5,0.2
	c-0.2,0.1-0.3,0.2-0.4,0.3c-0.1,0.1-0.1,0.1-0.2,0.1c-0.2,0.1-0.5,0-0.9-0.2c-0.1-0.1-0.2-0.1-0.3-0.1c-0.1,0-0.2-0.1-0.3-0.2
	c-0.4-0.2-0.7-0.5-1.1-0.4l-0.4,0.1l0,0.4c0,0.1,0,0.2,0.1,0.3c-0.2-0.1-0.5-0.2-0.8-0.2c-0.2,0-0.5,0.2-0.8,0.7l-0.1,0.2l0.1,0.2
	c0.3,0.6,0.8,1,1.4,1.3c0.3,0.2,0.6,0.4,0.8,0.6l0.1,0.1c-0.1,0-0.3-0.1-0.4-0.2c-0.2-0.2-0.5-0.3-0.8-0.4c-0.4-0.1-1.2-0.2-1.7,0.2
	c-0.2,0.2-0.4,0.5-0.3,0.8c0,0.3,0.2,0.6,0.6,0.8c0.5,0.3,1.1,0.4,1.6,0.4h0c-0.2,0-0.4,0.1-0.5,0.4c-0.2,0.3-0.1,0.5,0,0.6
	c0.2,0.3,0.5,0.4,0.7,0.4c0,0,0.1,0,0.1,0c0.2,0.1,0.3,0.2,0.4,0.3c0.3,0.2,0.6,0.4,1,0.5c0.3,0.1,0.5,0.2,0.8,0.4
	c0.2,0.2,0.5,0.3,0.8,0.5l0.1,0l0.1,0c0.3,0,0.7,0.1,1.1,0.1c0.3,0.1,0.6,0.1,0.8,0.1c0.4,0,0.8,0.1,1.1,0.1c0.4,0,0.7,0.1,1.1,0.1
	c0.1,0,0.2,0,0.4,0c0.5,0.1,1,0.1,1.6-0.1c0.1-0.1,0.3-0.1,0.5-0.2c0.4-0.2,0.9-0.4,1.2-0.3c0.5,0.1,1.1-0.1,1.5-0.2l0.1,0
	c0.5-0.2,1-0.4,1.4-0.6c0.5-0.2,1-0.5,1.5-0.6c0.7-0.2,1.3-1.1,1.4-1.7c0,0.2,0,0.3,0.1,0.5c0,0.1,0.1,0.2,0.1,0.4
	c0,0.1,0.1,0.2,0.1,0.2c0,0.1,0,0.2-0.1,0.4c0,0.2-0.1,0.4-0.1,0.6c0,0.3,0,0.6,0.1,0.9c0,0.3,0,0.6,0.1,0.8c0,0.3,0,0.6-0.1,0.9
	c-0.1,0.3-0.1,0.6-0.1,0.8c0,0.2,0,0.5,0,0.7c0,0.5-0.1,1-0.1,1.5c0,0.2,0,0.3,0.1,0.5c0,0.1,0,0.2,0,0.3c0,0.1,0,0.2-0.1,0.3
	c0,0.2-0.1,0.4-0.1,0.7c0,0.3,0,0.5,0.1,0.8c0.1,0.3,0.1,0.7,0.1,0.9c0,0.1,0,0.2-0.1,0.3c-0.1,0.2-0.1,0.5-0.1,0.8
	c0,0.2,0,0.3,0.1,0.4c0,0.1,0,0.2,0,0.2c-0.1,0.3,0,0.6,0,0.8c0,0.2,0.1,0.4,0,0.5c-0.1,0.5-0.1,0.9-0.1,1.4c0,0.1,0,0.3,0,0.4
	c0,0.3,0,0.6,0.1,0.9c0,0.3,0,0.5,0.1,0.8c0,0.1,0,0.1,0,0.2c0,0.2-0.1,0.4,0,0.8c0,0.1,0,0.2,0,0.6c-0.1,0.4,0,0.7,0.1,1
	c0,0.2,0.1,0.3,0.1,0.5c0,0.2,0,0.4,0,0.6c0,0.4,0,0.8,0.1,1.3c0.1,0.3,0,0.5,0,0.7c-0.1,0.3,0,0.5,0,0.7c0,0.1,0,0.2,0,0.2l0,0.4
	c0,0.4,0,0.8,0,1.2c0,0.4,0,0.9,0.1,1.3c0,0.6,0.1,1.2,0,1.8c-0.1,1.1,0,2.2,0,3.3l0,0.7c0,0.2,0,0.3,0.1,0.4c0,0.1,0,0.1,0,0.2
	l0,0.1c-0.1,0.3-0.1,0.6-0.1,1c0,0.2,0,0.4,0,0.7c-0.1,0.3-0.1,0.7,0,1.1c0,0.1,0,0.2,0,0.4c0,0.2-0.1,0.3-0.1,0.5
	c0,0.2,0,0.3,0.1,0.5c0,0.1,0,0.3,0,0.4c-0.1,0.7-0.1,1.2-0.1,1.8v0.1c0,0.2,0,0.4-0.1,0.6c-0.1,0.3-0.1,0.7,0,1.2
	c0.1,0.3,0,0.7-0.1,1.1c0,0.2-0.1,0.4-0.1,0.6c0,0.2-0.1,0.3-0.1,0.5c-0.1,0.5-0.2,1.1-0.1,1.6c0,0.2,0,0.3-0.1,0.6
	c-0.1,0.2-0.1,0.5-0.1,0.8c0,0.1,0,0.2,0,0.2c0,0.2,0,0.3,0,0.4c0,0.1-0.1,0.2-0.1,0.3c-0.1,0.2-0.2,0.4-0.2,0.6
	c0,0.1,0,0.2-0.1,0.3c-0.1,0.3-0.2,0.7,0,1c0.1,0.2,0.4,0.3,0.7,0.4c0.6,0.1,1.1,0.2,1.7,0.3c0.6,0.1,1.3,0.2,1.9,0.3l0.2,0
	c0.6,0.1,1.1,0.1,1.7,0.3c0.1,0,0.2,0.1,0.3,0.2c0.2,0.1,0.5,0.3,0.8,0.3c0.1,0,0.2,0,0.3-0.1c0.2-0.1,0.4-0.2,0.4-0.6
	c0.1-0.5-0.1-1.2-0.2-1.7c-0.1-0.3-0.1-0.5-0.2-0.7c0-0.3-0.1-0.6-0.2-1c-0.1-0.3-0.1-0.5-0.2-0.8c-0.1-0.6-0.2-1.2-0.2-1.7
	c0-0.3,0-0.5-0.1-0.7c-0.1-0.3-0.1-0.5,0-0.7c0.1-0.4,0-0.8,0-1.1c0-0.3-0.1-0.5-0.1-0.8c0.1-0.5,0-1,0-1.5c0-0.1,0-0.3,0-0.4
	c0-0.2,0-0.5,0-0.7c0-0.3,0-0.6,0-0.9c0-0.3,0-0.5,0-0.8c0-0.4,0.1-0.7,0-1.1c0-0.4-0.1-0.7-0.1-1.1c0-0.4,0-0.7-0.1-1.1
	c0-0.2,0-0.4,0-0.7c0-0.4,0.1-0.8-0.1-1.2c-0.1-0.3-0.1-1,0-1.3c0.1-0.4,0-0.9,0-1.3c0-0.1,0-0.3-0.1-0.4c0-0.2,0-0.5,0-0.7
	c0-0.4,0-0.7-0.1-1.2c0-0.2,0-0.4,0-0.7c0-0.2,0-0.5,0-0.8l-0.1-0.8c0-0.3,0-0.6-0.1-0.9l0-0.2c0-0.4-0.1-0.9,0-1.2
	c0.1-0.5,0.1-0.9,0-1.4c0-0.2,0-0.5,0-0.8c0-0.6,0-1.3-0.1-1.9c0.1-0.6,0.1-1.4-0.1-2c-0.1-0.1,0-0.2,0-0.5l0-0.1
	c0.1-0.3,0-0.5,0-0.7c0-0.1,0-0.2,0-0.2c0-1.2,0-2.5-0.1-3.7c0-1-0.1-2-0.1-3c0-1.2,0-2.6-0.1-3.9c0-0.2,0-0.5,0-0.8
	c0-0.3,0-0.6,0-0.9c0-0.1,0-0.3-0.1-0.4c0-0.1,0-0.2,0-0.3c0-0.1,0-0.2,0-0.2c0-0.2,0.1-0.4,0-0.8c-0.1-0.4-0.1-1.1,0-1.4
	c0,0,0-0.1,0-0.1c0,0,0.1,0.1,0.2,0.1c0.4,0.3,0.6,0.5,0.6,0.7c0,0.1,0,0.2,0,0.3c-0.1,0.3-0.1,0.6,0.2,1.1c0.5,0.7,1.3,0.9,2,1.1
	c0.4,0.1,0.8,0.3,1.1,0.5c0.2,0.1,0.4,0.3,0.6,0.4c0.2,0.2,0.5,0.4,0.7,0.5c0.3,0.2,0.6,0.3,0.9,0.4c0.2,0.1,0.5,0.2,0.7,0.3
	c0.2,0.2,0.5,0.3,0.7,0.5c0.8,0.6,1.7,1.2,2.7,1.5c0.1,0,0.2,0.1,0.3,0.1c0.2,0.1,0.3,0.1,0.5,0.2c0.3,0.1,0.5,0.1,0.7,0
	c0.1,0,0.2,0,0.3,0c0.2,0,0.4,0.1,0.7,0.3c0.3,0.2,0.7,0.4,1.2,0.4l0.4,0l0-0.3l0.2-0.3l-0.1-0.2c0,0,0.1,0,0.1-0.1
	c0.2-0.2,0.9-0.7,0.4-1.5c-0.4-0.6-0.9-0.5-1.3-0.4c-0.1,0-0.1,0-0.2,0c0,0,0-0.1-0.1-0.2c0-0.1-0.1-0.3-0.2-0.4
	c-0.3-0.5-0.9-0.4-1.4-0.3c-0.1,0-0.2,0-0.3,0c0.2-0.2,0.4-0.5,0.2-0.8c-0.2-0.4-0.7-0.3-0.9-0.3c-0.2,0-0.4,0.1-0.6,0.1
	c-0.3,0.1-0.5,0.1-0.7,0.1c-0.3-0.1-0.8-0.2-1.2-0.4c-0.2-0.1-0.2-0.2-0.2-0.3c0.2-0.5,0.1-0.8,0-1.1c0-0.1,0-0.2-0.1-0.3
	c0,0,0.1-0.1,0.3-0.1c0.3,0,0.5,0.1,0.5,0.1c0,0,0.1,0.1,0.1,0.2c0.1,0.2,0.2,0.5,0.6,0.7c0.3,0.1,0.7,0.2,1.1,0
	c0.2-0.1,0.4-0.3,0.4-0.6c0.1-0.4-0.2-0.7-0.4-0.9c0,0-0.1-0.1-0.1-0.1c0.1-0.2,0.2-0.4,0.4-0.4c0,0.1,0,0.1,0,0.2
	c-0.1,0.3-0.1,0.6,0.3,1c0.1,0.1,0.1,0.2,0.2,0.3c0.3,0.3,0.5,0.6,0.7,0.7c0.5,0.3,1,0.2,1.4,0.1l0.2,0c0.2,0,0.3,0,0.5,0
	c0.2,0,0.5,0.1,0.8,0c0.4-0.1,0.9-0.1,1.4-0.1c0.8,0,1.3,0,2-0.2c0.2,0,0.3-0.1,0.5-0.1c0.4,0,0.8-0.1,1.2-0.3
	C713.8,127.1,713.9,126.5,713.8,126.1z M624.5,39.3C624.5,39.3,624.5,39.4,624.5,39.3L624.5,39.3C624.5,39.3,624.5,39.3,624.5,39.3z
	 M625.1,39.5C625,39.5,625,39.6,625.1,39.5c-0.1,0-0.3-0.1-0.4-0.2C624.8,39.4,624.9,39.5,625.1,39.5z M672.5,107.6L672.5,107.6
	L672.5,107.6L672.5,107.6z"/>
<path class="st0" d="M172,17c-1.8-1.9-3.6-3.9-5.3-6.3c-0.5,2.6,3.1,5.1,3.9,7.6c-2.7-2.2-5.2-5.2-8.2-6.1c1.9,3.2,4.6,3.5,6.5,6.6
	c-2.7-1.6-6.2-3.2-8.8-3.3c3,2.5,7.4,3,9.8,5.9c-3.3,0.7-6.9-2.6-10.4-3.1c0.7,1.9,3.9,2.4,4.8,3.6c-2.1,0.3-3.8-1-5.8-1.1
	c1.1,1.8,2.8,1.7,4.1,2.8c-0.7,0.4-1.8,0.1-2.1,0.7c0.8,1.1,1.8,1.4,2.7,2.1c-0.2,0.5-0.5,0.3-0.9,0.5c1.5,2.6,3.9,4.7,3.4,7.2
	c0.6,0.4,1.4,0.3,2,0.5c-0.2,0.5-1,0.8-1.3,1.2c0.6,0.9,1.6,0.3,2.3,0.9c-0.2,0.6-0.3,1.2-1.1,1.6c0.4,0.8,1.2,0.1,1.7,0.8
	c0.5,0.7-0.5,0.9-0.4,1.5c0.6,0.4,1.4,0.1,2,0.5c0.2,0.5,0.2,0.9,0.3,1.3c0.5,0.2,1.1-0.1,1.5,0.4c0.3,0.6-0.3,1.1,0,1.7
	c1.2-0.2,1.3,1.2,2.7,0.9c-0.1,0.6-0.7,1.1-0.2,1.8c0.5,0,1.2-0.7,1.6-0.2c0.4,0.6-0.1,0.9,0.4,1.5c0.6-0.3,1.2-0.4,1.7-0.5
	c-0.3,1.2,1.3,2.1,2.5,2.2c0.3,0.5,0.1,1,0.4,1.5c1.7-0.7,4-0.4,4.7,0.5c-2.9-0.1-6.5,2.3-9.8,3.2c-1.4,0.4-3.3-0.2-3.8,1.5
	c0.7,0.7,1.7,0.4,2.4,0.8c-0.1,0.5-0.6,0.9-0.7,1.4c0.4,0.3,1,0.1,1.5,0.4c-0.1,0.5-1.2,0.8-0.9,1.5c0.1,0.9,0.8-0.4,1.1,0.1
	c-1,1,0.2,1.5,1.2,1.3c-0.2,0.5-1,0.9-0.6,1.6c0.5-0.3,0.9-0.4,1.3-0.3c-0.1,0.4-0.3,0.8,0,1.2c0.5-0.1,0.9,0.1,1.5-0.4
	c0.2,0.5-0.7,1.2,0.1,1.4c0.4,0.7,1.3-0.4,1.8,0.2c-0.3,0.4-0.7,0.8-0.1,1.5c0.8-0.1,0.9-1.2,1.5-0.9c0.1,0.7-0.5,1.5,0.4,2
	c0.6-0.4,0.9-1.3,1.6-1.1c0.2,0.7-0.5,1.9,0.3,2.3c0.7,0.2,1.1-1.5,1.7-1.3c0.2,0.8,0.1,1.3,0.9,2c0.8,0.3,0.5-1.2,1.2-0.9
	c0.3,0.5,0.6,1.3,1,1.4c0.7-0.3,0.2-0.9,0.8-1.2c0.8,0.6,1.6,1.2,2.4,1.6c0.1-4.2-3.1-9.3,0.1-12.6c0.3,1.9,1.7,3.8,3.3,4
	c0.2,0.7-0.6,1.1-0.2,1.8c0.4,0.1,1-0.1,1.3,0.2c-0.1,0.3-0.1,0.7-0.4,1c0.8,0.3,1.7,0.6,1.5,1.8c0.6-0.3,1.1-0.5,1.5-0.4
	c0,0.4-0.1,0.8,0,1.2c0.5,0.4,1.2-0.1,1.6,0.6c-1.3,0.8,1.2,2.2,1.1,3.6c1.6-1.1,1.2,1.5,2.6,1.5c0.4-0.1,1-0.9,1.2-0.5
	c0.3,0.7-0.1,1.1,0.7,1.6c0.4-0.1,0.6-1.1,1.1-0.6c0.2,0.7-0.2,1.7,0.4,2c1-0.2,1.2-1.4,2-1.2c0.3,0.6-0.1,1.1,0.3,1.8
	c1.6-0.1,3.3-0.4,4.6,1.1c0.3-0.7,0.6-1.4,1.6-1.9c0.6,0.6,1.1,1.8,1.8,2.2c0.2-0.5,0.4-1,0.9-1.5c0.6,0.6,1.3,1,2,1.3
	c0-0.2,0-1.1,0.3-0.7c0.5,1.1,1.2,1.8,1.8,2.7c0.8-0.7,0.1-1.9,0.4-2.7c1.5,1.4,2.9,3.3,4.3,4.9c0.8-1.8-1.7-4.4-1.7-6.4
	c2.1,2.5,3.8,6.8,6.5,7.1c-1.6-2.8-4.1-5.4-5.1-8.4c2,2.4,4,5.1,6.7,4.8c-2-3-5.1-5-6.6-8c2.6,2.2,5,5.3,8.3,5.3
	c-2.5-3.1-5.5-4.9-8.2-7.3c3.1,0.4,5.2,4.4,8.5,4c-2.5-3.5-5.5-5-8.6-6.4c2-0.4,4,2.5,5.7,1.4c-4.8-3.7-9.2-9.1-14.3-12
	c-1.1-0.4-2.3-0.7-3.5-0.9c-3.6-1.1-5.5-5-8.7-6.6c-1.7-0.8-3.9-0.1-4.6-2.5c0.1-2.7,3.3-5.2,6.1-4.3c-3.2-6.8-9.5-1.3-14.1-2.7
	c-2.9-0.9-4.6-3-7.2-5.7c-0.6-0.8-1-2.4-1.8-2.7c-3.2-4.9-7.1-6.9-10.4-11.2l-2.6-4.4c-1-1-0.4-2.4-1.4-2.9c-1.1,1.8,2.5,4.9,2,7
	c-0.3-0.4-0.7-0.5-0.9-1.2C172.8,18.2,172.6,17,172,17"/>
<g>
	<polygon class="st1" points="552.3,192.1 548.2,174.9 543.8,174.9 539.6,192.1 535.6,174.9 530.7,174.9 536.8,196 542.1,196 
		544.9,184.7 545.9,179.7 545.9,179.7 546.9,184.7 549.8,196 555,196 561.1,174.9 556.4,174.9 	"/>
	<path class="st1" d="M576.3,192v-6.4c0-1.3-0.3-2.4-0.9-3.3c-0.6-0.9-1.4-1.5-2.5-2c-1.1-0.4-2.3-0.7-3.7-0.7c-2.1,0-3.8,0.4-5,1.3
		c-1.2,0.9-2,2-2.4,3.5l3.9,1.1c0.3-0.9,0.7-1.6,1.2-2s1.2-0.6,2-0.6c0.8,0,1.5,0.2,2,0.7c0.5,0.5,0.8,1.2,0.8,2.1v0.6l-5.5,1.1
		c-1.4,0.3-2.5,0.8-3.3,1.6c-0.8,0.8-1.1,1.7-1.1,2.9c0,1,0.2,1.8,0.6,2.4c0.4,0.6,1,1.1,1.8,1.5s1.7,0.5,2.8,0.5
		c0.9,0,1.8-0.1,2.6-0.4c0.8-0.3,1.5-0.7,2.1-1.3c0.2-0.2,0.3-0.4,0.4-0.6c0.1,0.3,0.2,0.5,0.3,0.7c0.4,0.5,0.8,0.9,1.4,1.2
		s1.3,0.4,2.1,0.4c0.8,0,1.5-0.1,2.1-0.4l0.3-2.8c-0.3,0.1-0.7,0.2-1,0.2C576.6,193.2,576.3,192.8,576.3,192z M571.4,191.5
		c-0.2,0.4-0.4,0.7-0.8,0.9c-0.3,0.2-0.7,0.4-1.1,0.5c-0.4,0.1-0.8,0.1-1.3,0.1c-0.5,0-1-0.1-1.4-0.4c-0.4-0.3-0.6-0.7-0.6-1.2
		c0-0.6,0.2-1,0.5-1.2c0.4-0.2,0.9-0.4,1.6-0.6l3.2-0.7v1C571.7,190.6,571.6,191.1,571.4,191.5z"/>
	<path class="st1" d="M590.2,186.6l-3.2-0.7c-0.8-0.1-1.4-0.3-1.6-0.6c-0.3-0.2-0.4-0.5-0.4-0.8c0-0.3,0.1-0.6,0.3-0.8
		c0.2-0.2,0.5-0.4,0.9-0.5s0.9-0.2,1.5-0.2c0.8,0,1.6,0.2,2.4,0.6c0.8,0.4,1.4,0.9,1.8,1.7l2.6-2.7c-0.7-0.9-1.6-1.7-2.8-2.2
		c-1.2-0.5-2.6-0.8-4.2-0.8c-1.6,0-2.9,0.2-4,0.7c-1.1,0.5-1.9,1.1-2.4,1.9c-0.5,0.8-0.8,1.6-0.8,2.5c0,1.3,0.4,2.3,1.2,3.1
		c0.8,0.8,2.1,1.4,4,1.8l2.7,0.5c0.7,0.1,1.1,0.3,1.4,0.6c0.2,0.2,0.4,0.5,0.4,0.8c0,0.5-0.2,0.9-0.7,1.1s-1.1,0.3-1.9,0.3
		c-1.2,0-2.2-0.2-3-0.7c-0.9-0.5-1.5-1.1-2-1.8l-2.5,2.7c0.8,1,1.9,1.8,3.3,2.4c1.3,0.6,2.8,0.8,4.4,0.8c1.6,0,2.9-0.2,4-0.7
		s1.9-1.1,2.4-1.9c0.5-0.8,0.8-1.7,0.8-2.7c0-1.1-0.3-2-1-2.8C592.9,187.4,591.8,186.9,590.2,186.6z"/>
	<path class="st1" d="M610.7,180.3c-0.9-0.4-1.8-0.6-2.9-0.6c-1.2,0-2.2,0.3-3.1,0.8c-0.9,0.5-1.6,1.3-2.1,2.3V173H598V196h4.6v-8.4
		c0-1,0.2-1.8,0.5-2.5c0.3-0.6,0.8-1.1,1.3-1.4c0.5-0.3,1.1-0.4,1.7-0.4c0.8,0,1.5,0.3,2,0.8c0.5,0.5,0.8,1.4,0.8,2.8v9.2h4.6v-10.5
		c0-1.3-0.3-2.4-0.8-3.2C612.2,181.4,611.5,180.7,610.7,180.3z"/>
	<rect x="617.8" y="180" class="st1" width="4.6" height="16"/>
	<path class="st1" d="M620.1,173c-0.9,0-1.6,0.2-2.1,0.6c-0.5,0.4-0.7,1-0.7,1.8c0,0.8,0.2,1.4,0.7,1.8c0.5,0.4,1.2,0.6,2.1,0.6
		c0.9,0,1.6-0.2,2.1-0.6c0.5-0.4,0.7-1,0.7-1.8c0-0.8-0.2-1.4-0.7-1.8C621.8,173.2,621.1,173,620.1,173z"/>
	<path class="st1" d="M639.6,180.3c-0.9-0.4-1.8-0.6-2.9-0.6c-1,0-1.9,0.2-2.7,0.5c-0.8,0.4-1.5,0.9-2,1.6c-0.3,0.4-0.6,0.8-0.8,1.3
		L631,180h-4.1v16h4.6v-8.5c0-1,0.2-1.9,0.5-2.5c0.3-0.6,0.8-1.1,1.3-1.4c0.5-0.3,1.1-0.4,1.7-0.4c0.8,0,1.4,0.3,2,0.8
		c0.5,0.5,0.8,1.4,0.8,2.7v9.2h4.6v-10.5c0-1.3-0.3-2.4-0.8-3.2C641.1,181.4,640.4,180.7,639.6,180.3z"/>
	<path class="st1" d="M661.4,176.1c-0.1,0-0.1,0-0.2,0c-1,0-1.8,0.2-2.4,0.7c-0.7,0.5-1.2,1.1-1.5,1.8c-0.2,0.5-0.4,1-0.4,1.6
		c-1-0.3-2.1-0.5-3.5-0.5c-1.5,0-2.8,0.2-3.9,0.7c-1.1,0.4-2,1.1-2.6,1.9s-0.9,1.8-0.9,2.9c0,1.7,0.6,3,1.9,4
		c0.2,0.2,0.4,0.3,0.7,0.4c-0.5,0.2-1,0.4-1.3,0.7c-0.8,0.6-1.2,1.5-1.2,2.4c0,1,0.3,1.8,0.9,2.3c0.3,0.3,0.8,0.6,1.3,0.8
		c-0.8,0.2-1.5,0.4-1.9,0.8c-0.7,0.6-1,1.3-1,2.2c0,1.2,0.6,2.2,1.9,3c1.3,0.8,3.3,1.2,6.1,1.2c1.7,0,3.2-0.2,4.4-0.6
		c1.3-0.4,2.3-1.1,3-1.9c0.7-0.8,1.1-1.9,1.1-3.1c0-1.4-0.5-2.5-1.4-3.2c-0.9-0.7-2.3-1.1-4-1.1h-5c-0.7,0-1.2-0.1-1.5-0.3
		c-0.3-0.2-0.5-0.5-0.5-1c0-0.4,0.2-0.7,0.6-1c0.2-0.1,0.4-0.2,0.7-0.3c0.8,0.2,1.7,0.3,2.8,0.3c1.5,0,2.9-0.2,4-0.7
		c1.1-0.4,2-1.1,2.5-1.9c0.6-0.8,0.9-1.8,0.9-2.9c0-1.2-0.3-2.1-0.9-2.9c-0.3-0.4-0.7-0.8-1.2-1.2c0.1-0.4,0.3-0.8,0.7-1.1
		c0.5-0.4,1.2-0.7,2.2-0.7c0.1,0,0.2,0,0.3,0c0.1,0,0.2,0,0.3,0l-0.5-3.2C661.6,176.1,661.5,176.1,661.4,176.1z M650.6,196.5h5.5
		c0.8,0,1.3,0.1,1.6,0.4c0.3,0.2,0.4,0.5,0.4,0.9c0,0.4-0.2,0.7-0.5,1c-0.4,0.3-0.9,0.5-1.6,0.7c-0.7,0.2-1.6,0.3-2.7,0.3
		c-1.4,0-2.4-0.2-3.2-0.5c-0.8-0.3-1.2-0.8-1.2-1.3c0-0.4,0.2-0.7,0.5-1C649.7,196.6,650.1,196.5,650.6,196.5z M655.4,187
		c-0.5,0.5-1.2,0.7-2,0.7c-0.8,0-1.5-0.2-2-0.7c-0.5-0.5-0.8-1.1-0.8-1.9c0-0.8,0.3-1.4,0.8-1.9s1.2-0.7,2-0.7c0.8,0,1.5,0.2,2,0.7
		c0.5,0.5,0.8,1.1,0.8,1.9C656.2,185.9,655.9,186.5,655.4,187z"/>
	<path class="st1" d="M673.8,192.6c-0.4,0.1-0.9,0.2-1.4,0.2c-0.7,0-1.2-0.2-1.6-0.5c-0.4-0.4-0.6-0.9-0.6-1.7v-7.3h5.1V180h-5.1
		V175l-4.6,1.3v3.6h-2.9v3.4h2.9v8.1c0,1.2,0.3,2.2,0.7,2.9c0.5,0.7,1.1,1.2,1.9,1.6c0.8,0.3,1.8,0.5,2.9,0.5c0.9,0,1.7-0.1,2.4-0.3
		c0.8-0.2,1.4-0.5,1.9-0.9l-0.6-3C674.6,192.3,674.2,192.5,673.8,192.6z"/>
	<path class="st1" d="M689.9,180.6c-1.2-0.7-2.7-1-4.3-1c-1.6,0-3.1,0.3-4.3,1c-1.2,0.7-2.2,1.6-2.9,2.8s-1,2.7-1,4.5
		c0,1.7,0.3,3.2,1,4.5s1.7,2.2,2.9,2.9s2.7,1,4.3,1c1.6,0,3.1-0.3,4.3-1c1.2-0.7,2.2-1.6,2.9-2.9c0.7-1.2,1-2.7,1-4.5
		c0-1.7-0.3-3.2-1-4.5C692.1,182.3,691.1,181.3,689.9,180.6z M688.7,190.7c-0.3,0.7-0.7,1.3-1.2,1.6s-1.2,0.6-2,0.6s-1.4-0.2-2-0.6
		s-1-0.9-1.2-1.6c-0.3-0.7-0.4-1.6-0.4-2.8c0-1.1,0.1-2,0.4-2.8c0.3-0.7,0.7-1.3,1.2-1.6c0.5-0.4,1.2-0.5,2-0.5s1.4,0.2,2,0.5
		c0.5,0.4,0.9,0.9,1.2,1.6c0.3,0.7,0.4,1.7,0.4,2.8C689.2,189.1,689,190,688.7,190.7z"/>
	<path class="st1" d="M712.1,182.2c-0.5-0.9-1.2-1.5-2-1.9c-0.9-0.4-1.8-0.6-2.9-0.6c-1,0-1.9,0.2-2.7,0.5c-0.8,0.4-1.5,0.9-2,1.6
		c-0.3,0.4-0.6,0.8-0.8,1.3l-0.2-3.1h-4.1v16h4.6v-8.5c0-1,0.2-1.9,0.5-2.5c0.3-0.6,0.8-1.1,1.3-1.4c0.5-0.3,1.1-0.4,1.7-0.4
		c0.8,0,1.4,0.3,2,0.8c0.5,0.5,0.8,1.4,0.8,2.7v9.2h4.6v-10.5C712.8,184.1,712.6,183.1,712.1,182.2z"/>
</g>
<path class="st1" d="M116.9,150.1c0,0.1,0,0.3,0,0.4c1.2-0.8,3.2-2.4,6.5-5.8c2-2.1,4-4.4,5.7-6.5c-1.4-2.8-3-5.6-4.9-8.5
	C120,137.3,116.9,145.6,116.9,150.1z"/>
<path class="st1" d="M130.3,156.5c0-0.7,0-1.4,0.1-2.1c-0.3,0.3-0.6,0.6-0.8,0.8c-0.2,0.2-0.4,0.4-0.5,0.5l-0.1,0.1l-0.1,0.1
	c-2.7,2.6-6.1,5.5-9.6,7.7c0.4,2,0.7,4.1,0.7,6c0,4.1-1.4,14.4-10,21.1c-7.9,6.1-20.1,8.5-33.5,8.5c-40.2,0-59.8-25.6-59.8-37.2
	c0-5.9,4.1-8.5,7.7-8.5c4.3,0,6.7,2.8,8.9,5.5c1.6-1.4,5.1-4.5,5.1-10c0-5.5-4.5-10-10.2-10c-9.4,0-17.7,11.6-17.7,28.6
	c0,23.8,21.1,43.7,55.1,43.7c19.7,0,40.7-6.3,54.1-18.5c7.8-7,13.2-16.3,14.7-26.6C132.1,164.7,130.3,161.6,130.3,156.5z"/>
<path class="st1" d="M103.8,134.2c3-6.1,6.9-11.9,11.4-17c-3-3.8-6.2-7.8-9.5-11.8c-17.5-21.3-25-30.7-25-42.7
	c0-9.3,6.3-24.4,25.2-24.4c2.2,0,10,0,16.3,6.5c4.5,4.6,5.2,11.2,5.2,16.8c0,1.3,0,2.5-0.1,3.7l6.3,0.4c1.2-16.1,2-19.5,4.3-29.5
	c-6.3-2.6-13.8-5.7-27-5.7c-33.1,0-42.5,27.2-42.5,41.6c0,16.1,9.1,27.8,17.9,39.2C90,115.8,97.8,125.9,103.8,134.2z"/>
<path class="st1" d="M245.5,106.2c0-3.8-2.6-4.6-4.6-4.6c-3.3,0-9.1,2.6-16.2,9.2c-6.3,5.9-11.3,13-16.6,20.6
	c2.1-5.9,5.4-15.7,6.5-21.2c0.2-1.2,0.5-2.4,0.5-3.7c0-2.9-1.2-4.7-3.9-4.7c-3,0-10.7,2.1-22.5,17.7c-0.7,0.9-7.5,10.3-8.6,12
	c2-5.4,3.9-10.8,5.4-16.5c1.4-5,1.6-7.1,1.6-8.6c0-3.2-1.6-4.6-4.1-4.6c-6.6,0-14,9.1-19.7,16.1l2.6,2.4c5.3-6.7,8.6-9,10.1-9
	c0.9,0,1.1,1.1,1.1,1.8c0,4.9-5.5,20.7-8.9,29.5l-7,18.6l0.2,0.7c4.4-0.7,5.2-0.8,9.2-1.2c2.1-6.6,4.7-15.4,13.4-28.6
	c8.9-13.3,17.3-20.8,19.9-20.8c0.9,0,1.1,0.4,1.1,1.4c0,6.2-12.7,39-16.4,48.4l0.5,0.8c3.4-0.7,5-0.9,9.1-1.2
	c1.4-5.1,2.5-8.8,7.8-18.6c10.9-20,24.6-31.6,28-31.6c0.4,0,1.2,0.1,1.2,1.2c0,0.8-0.6,4.9-6.3,17.7c-6.2,14.1-8.1,18.7-9.5,23.5
	c-0.2,0.8-0.9,2.9-0.9,4.9c0,3.7,2.7,4.6,4.7,4.6c6.3,0,14.6-8.7,20.3-15.4l-2.5-2.5c-3.4,4-8.7,10-11.6,10c-0.6,0-1-0.1-1-1.2
	c0-1.8,3.8-10.7,4.9-13.3C242.7,118.6,245.5,111.6,245.5,106.2z"/>
<path class="st1" d="M335.2,106.2c0-3.8-2.6-4.6-4.6-4.6c-3.3,0-9.1,2.6-16.2,9.2c-6.3,5.9-11.3,13-16.6,20.6
	c2.1-5.9,5.4-15.7,6.5-21.2c0.2-1.2,0.5-2.4,0.5-3.7c0-2.9-1.2-4.7-3.9-4.7c-3,0-10.7,2.1-22.5,17.7c-0.7,0.9-7.5,10.3-8.6,12
	c2-5.4,3.9-10.8,5.4-16.5c1.4-5,1.6-7.1,1.6-8.6c0-3.2-1.6-4.6-4.1-4.6c-6.6,0-14,9.1-19.7,16.1l2.6,2.4c5.3-6.7,8.6-9,10.1-9
	c0.9,0,1.1,1.1,1.1,1.8c0,4.9-5.5,20.7-8.9,29.5l-7,18.6l0.2,0.7c4.4-0.7,5.2-0.8,9.2-1.2c2.1-6.6,4.7-15.4,13.4-28.6
	c8.9-13.3,17.3-20.8,19.9-20.8c0.9,0,1.1,0.4,1.1,1.4c0,6.2-12.7,39-16.4,48.4l0.5,0.8c3.4-0.7,5-0.9,9.1-1.2
	c1.4-5.1,2.5-8.8,7.8-18.6c10.9-20,24.6-31.6,28-31.6c0.4,0,1.2,0.1,1.2,1.2c0,0.8-0.6,4.9-6.3,17.7c-6.2,14.1-8.1,18.7-9.5,23.5
	c-0.2,0.8-0.9,2.9-0.9,4.9c0,3.7,2.7,4.6,4.7,4.6c6.3,0,14.6-8.7,20.3-15.4l-2.5-2.5c-3.4,4-8.7,10-11.6,10c-0.6,0-1-0.1-1-1.2
	c0-1.8,3.8-10.7,4.9-13.3C332.4,118.6,335.2,111.6,335.2,106.2z"/>
<path class="st1" d="M397.1,99.9l-0.4-0.4l-8.2,0.9l-1.6,4.6c-2.1-0.4-3.9-0.7-6-0.7c-4.4,0-11.2,1.1-21.7,11.9
	c-12.2,12.6-18.2,28.3-18.2,37c0,4.7,1.7,8.8,6,8.8c5.5,0,12.8-6.1,17.1-10.3c1-1.1,5.7-5.8,10.2-11.9c-1,4.1-2.6,10.3-2.6,15.3
	c0,1.2,0,7,4.6,7c6.6,0,16.6-11.5,20.3-16.1l-2.3-2.4c-2.7,3-9,10-11.4,10c-1.2,0-1.6-1.4-1.6-2.5c0-2.1,0.6-5.1,1.2-7.6
	C386,128.7,391.1,115.4,397.1,99.9z M372.5,136.2c-3.6,4.9-14,17.5-18.3,17.5c-1.6,0-2.7-1.4-2.7-4.9c0-11.1,14.3-38.6,25.5-39.9
	c1.2-0.1,6-0.3,6,3.8C382.9,116.5,378,128.6,372.5,136.2z"/>
<path class="st1" d="M483.8,106.2c0-3.8-2.6-4.6-4.6-4.6c-3.3,0-9.1,2.6-16.2,9.2c-6.3,5.9-11.3,13-16.6,20.6
	c2.1-5.9,5.4-15.7,6.5-21.2c0.2-1.2,0.5-2.4,0.5-3.7c0-2.9-1.2-4.7-3.9-4.7c-3,0-10.7,2.1-22.5,17.7c-0.7,0.9-7.5,10.3-8.6,12
	c2-5.4,3.9-10.8,5.4-16.5c1.4-5,1.6-7.1,1.6-8.6c0-3.2-1.6-4.6-4.1-4.6c-6.6,0-14,9.1-19.7,16.1l2.6,2.4c5.3-6.7,8.6-9,10.1-9
	c0.9,0,1.1,1.1,1.1,1.8c0,4.9-5.5,20.7-8.9,29.5l-7,18.6l0.2,0.7c4.4-0.7,5.2-0.8,9.2-1.2c2.1-6.6,4.7-15.4,13.4-28.6
	c8.9-13.3,17.3-20.8,19.9-20.8c0.9,0,1.1,0.4,1.1,1.4c0,6.2-12.7,39-16.4,48.4l0.5,0.8c3.4-0.7,5-0.9,9.1-1.2
	c1.4-5.1,2.5-8.8,7.8-18.6c10.9-20,24.6-31.6,28-31.6c0.4,0,1.2,0.1,1.2,1.2c0,0.8-0.6,4.9-6.3,17.7c-6.2,14.1-8.1,18.7-9.5,23.5
	c-0.2,0.8-0.9,2.9-0.9,4.9c0,3.7,2.7,4.6,4.7,4.6c6.3,0,14.6-8.7,20.3-15.4l-2.5-2.5c-3.4,4-8.7,10-11.6,10c-0.6,0-1-0.1-1-1.2
	c0-1.8,3.8-10.7,4.9-13.3C481,118.6,483.8,111.6,483.8,106.2z"/>
<path class="st1" d="M513.5,102c-3,0-9.1,1.8-19.8,13l2.3,2.5c3-3,7.3-7.5,9.2-7.5c0.2,0,1.1,0,1.1,1.1c0,4.5-12.8,35.4-14.5,42.3
	c-0.4,1.4-0.6,2.8-0.6,4.2c0,0.9,0,4.3,4.1,4.3c7.8,0,16.1-8.7,20.7-13.6l-2.3-2.4c-4.9,5.3-9.5,9-10.9,9c-0.9,0-1.4-0.5-1.4-1.4
	c0-1.2,1.5-7.2,4.8-16.3c1.6-4.2,8.6-22.7,10-26.5c0.6-1.8,1.1-3.4,1.1-4.7C517.2,102,514,102,513.5,102z"/>
<path class="st1" d="M517.2,77.8c-4.6,0-6.6,4.3-6.6,7.5c0,3.7,2.6,5.4,5,5.4c4.3,0,6.5-4.3,6.5-7.5
	C522.1,80.7,520.9,77.8,517.2,77.8z"/>
<path class="st1" d="M550.6,101.6c-10.3,0-18.1,9.4-18.1,17.7c0,3.8,1.2,6.2,7,17.8c1.7,3.6,3.7,7.5,3.7,11.5c0,6.2-5.3,9-8.5,9
	c-3.4,0-3.3-2.4-3.2-4.5c0.1-2.8-1.5-4.7-4.4-4.7c-3.4,0-5,2.5-5,5.1c0,4.7,4.3,8.3,10.8,8.3c11.2,0,18.3-10.3,18.3-18.3
	c0-5-1.7-8.3-5.7-15.8c-1.8-3.7-5.2-9.9-5.2-14.4c0-4.9,3.9-7.2,6.3-7.2c2,0,2,1.1,2.1,1.8c0,0.8,0.2,4.6,4.3,4.6
	c2.7,0,4.8-2.2,4.8-5.1C557.9,104,555.7,101.6,550.6,101.6z"/>
<path class="st1" d="M607,101.7c-5.3,0-13.8,5.1-22,15.7c-1.2,1.4-6,8-7,9.4l8.1-27.3c6.2-20.7,7.5-24.6,11.3-35l-1.6-1.1
	c-6.9,3-10.7,3.7-20.4,4.3l-0.9,3.7c7.1,0,8.9,0.1,8.9,4.1c0,2.2-0.6,5.5-2.3,11.3l-16,54.5c-1.7,5.8-2.8,9.5-6,19.8l0.4,0.7
	c4.4-0.7,5.2-0.8,9.1-0.9c2.5-10.8,5-22.3,15.5-36.8c6.3-8.7,13.5-14.5,16.2-14.5c2.1,0,2.6,2.4,2.6,5.4c0,7.8-2.8,16.6-4.2,20.7
	c-2.1,6.5-6.9,18.8-11.1,18.8l-0.7-0.1c-0.9-0.1-1.6-0.7-2.5-1.1c-0.5-0.1-1-0.3-1.5-0.3c-1.7,0-2.8,1.1-2.8,2.9
	c0,1.7,1.4,6.1,4.9,6.1c3.2,0,6.8-3.3,10-6.9c13.4-15.3,17.8-36.1,17.8-45.1C612.7,106.9,612.3,101.7,607,101.7z"/>
<path class="st1" d="M160.8,99.9l-0.4-0.4l-8.6,0.9l-1.7,4.7c-2.2-0.4-4.1-0.7-6.3-0.7c-4.6,0-11.7,1.1-22.7,12.1
	c-12.7,13-19,29-19,37.9c0,4.9,1.8,9,6.3,9c5.8,0,13.4-6.2,17.9-10.5c1-1.1,5.9-5.9,10.7-12.1c-0.3,1.1-0.6,2.4-0.9,3.8
	c-0.4,1.5-0.7,3.1-1,4.7c-0.4,2.4-0.8,4.9-0.8,7.1c0,1.2,0,7.2,4.8,7.2c6.9,0,17.4-11.7,21.2-16.5l-2.4-2.4
	c-2.8,3.1-9.4,10.3-12,10.3c-1.3,0-1.7-1.5-1.7-2.6c0-2.2,0.6-5.3,1.3-7.8C149.2,129.4,154.5,115.8,160.8,99.9z M135,137.1
	c-3.7,5-14.7,17.9-19.2,17.9c-1.7,0-2.8-1.5-2.8-5c0-11.3,14.9-39.5,26.7-40.9c0.2,0,0.6,0,1,0c1.9,0,5.3,0.5,5.3,4
	C146,116.9,140.8,129.3,135,137.1z"/>
<g>
	<path class="st1" d="M319.4,62c-1.3,1-2.9,1.5-4.7,1.5c-1.9,0-3.6-0.5-4.9-1.4c-1.4-0.9-2.4-2.2-3.1-3.9c-0.7-1.7-1-3.8-1-6.3
		c0-2.5,0.4-4.6,1.1-6.3c0.7-1.7,1.8-3,3.1-3.9c1.4-0.9,3-1.4,4.8-1.4c1.9,0,3.4,0.4,4.6,1.3c1.2,0.9,2,2.4,2.6,4.5l6.8-2.8
		c-0.6-2-1.6-3.7-3-5.1c-1.4-1.3-3-2.3-4.9-3c-1.9-0.7-4.1-1-6.4-1c-3.4,0-6.3,0.7-8.8,2.1c-2.5,1.4-4.4,3.4-5.7,6.1
		c-1.4,2.6-2,5.8-2,9.5c0,3.7,0.7,6.8,2,9.5c1.4,2.6,3.3,4.7,5.7,6.1c2.5,1.4,5.4,2.1,8.8,2.1c2.4,0,4.5-0.4,6.5-1.1
		c2-0.7,3.6-1.8,5.1-3.3c1.4-1.5,2.5-3.4,3.2-5.6l-7-2.1C321.6,59.5,320.7,61.1,319.4,62z"/>
	<rect x="334.3" y="43.1" class="st1" width="7.5" height="26"/>
	<path class="st1" d="M338,31.7c-1.5,0-2.7,0.3-3.4,1c-0.8,0.6-1.1,1.6-1.1,2.9c0,1.3,0.4,2.3,1.1,2.9c0.8,0.7,1.9,1,3.4,1
		c1.5,0,2.7-0.3,3.4-1c0.7-0.7,1.1-1.6,1.1-2.9c0-1.3-0.4-2.3-1.1-2.9C340.7,32,339.5,31.7,338,31.7z"/>
	<path class="st1" d="M364.4,63.7c-0.6,0.2-1.4,0.4-2.3,0.4c-1.1,0-2-0.3-2.7-0.9c-0.6-0.6-0.9-1.5-0.9-2.7V48.5h8.2v-5.5h-8.2v-8
		l-7.5,2.1v5.9h-4.7v5.5h4.7v13.1c0,1.9,0.4,3.5,1.2,4.7c0.7,1.2,1.8,2,3.1,2.5c1.4,0.5,2.9,0.8,4.7,0.8c1.4,0,2.7-0.2,4-0.5
		c1.3-0.4,2.3-0.9,3.1-1.5l-1-4.9C365.6,63.1,365,63.4,364.4,63.7z"/>
	<path class="st1" d="M384.1,58.2l-1.6,5.6l-1.4-5.3l-4.7-15.4h-8.3l7.9,19.6l2.9,6.8l-0.9,2.1c-0.5,1.2-1,2-1.7,2.4
		c-0.7,0.4-1.5,0.6-2.5,0.6c-1,0-1.8-0.1-2.5-0.3c-0.7-0.2-1.4-0.6-2-1.1l-1.6,5.3c0.9,0.5,1.9,0.9,3,1.3c1.1,0.3,2.4,0.5,3.8,0.5
		c1.9,0,3.6-0.3,4.9-1c1.4-0.6,2.6-1.7,3.6-3.1c1-1.4,2-3.4,2.9-5.8l10.2-27.3h-7.5L384.1,58.2z"/>
	<path class="st1" d="M433.5,44.2c-2-1.1-4.3-1.6-7-1.6c-2.6,0-5,0.5-7,1.6c-2,1.1-3.6,2.6-4.7,4.6c-1.1,2-1.7,4.4-1.7,7.3
		c0,2.8,0.6,5.2,1.7,7.3c1.1,2,2.7,3.6,4.7,4.7c2,1.1,4.4,1.6,7,1.6c2.6,0,5-0.5,7-1.6c2-1.1,3.6-2.6,4.7-4.7c1.1-2,1.7-4.4,1.7-7.3
		c0-2.8-0.6-5.3-1.7-7.3C437.1,46.8,435.5,45.3,433.5,44.2z M431.7,60.6c-0.5,1.2-1.1,2.1-2,2.7c-0.9,0.6-1.9,0.9-3.2,0.9
		s-2.3-0.3-3.2-0.9c-0.9-0.6-1.6-1.5-2-2.7c-0.5-1.2-0.7-2.7-0.7-4.5c0-1.8,0.2-3.3,0.7-4.5c0.5-1.2,1.1-2.1,2-2.7
		c0.9-0.6,2-0.9,3.2-0.9s2.3,0.3,3.2,0.9c0.9,0.6,1.5,1.5,2,2.7c0.5,1.2,0.7,2.7,0.7,4.5C432.4,57.9,432.2,59.4,431.7,60.6z"/>
	<path class="st1" d="M454.4,40.6c0-1.5,0.4-2.5,1.2-3.1c0.8-0.6,1.8-0.9,3.1-0.9c0.7,0,1.2,0.1,1.7,0.2c0.5,0.1,0.9,0.3,1.4,0.6
		l0.9-4.9c-0.5-0.4-1.2-0.7-2.2-1c-1-0.3-2.1-0.4-3.4-0.4c-1.4,0-2.7,0.2-3.9,0.5c-1.2,0.4-2.3,0.9-3.1,1.7
		c-0.9,0.7-1.6,1.7-2.1,2.8c-0.5,1.1-0.7,2.4-0.7,3.9v3h-4.5v5.5h4.5v20.5h7.4V48.5h7.8v-5.5h-8.1V40.6z"/>
</g>
</svg>
