<?xml version="1.0" encoding="UTF-8"?><svg id="a" xmlns="http://www.w3.org/2000/svg" width="24" height="24" viewBox="0 0 24 24"><defs><style>.b{fill:#e8e8e8;}.c{fill:#ccc;}.d{fill:#f7f7f7;}</style></defs><path class="d" d="M20.8,3H3.2c-1.21,0-2.19,.97-2.2,2.18,0,0,0,.01,0,.02v13.6c0,1.21,.97,2.19,2.18,2.2,0,0,.01,0,.02,0H20.8c1.21,0,2.19-.97,2.2-2.18,0,0,0-.01,0-.02h0V5.2c0-1.21-.97-2.19-2.18-2.2,0,0-.01,0-.02,0Z"/><rect class="b" x="11.5" y="-.81" width="1" height="25.61" transform="translate(-4.87 13.87) rotate(-51.34)"/><rect class="b" x="-.81" y="11.5" width="25.61" height="1" transform="translate(-4.87 10.13) rotate(-38.66)"/><path class="c" d="M12,10.82c-.72,0-1.44-.21-2.05-.65L1.71,4.41l.57-.82,8.23,5.76c.89,.62,2.07,.62,2.96,0L21.71,3.59l.57,.82-8.23,5.76c-.61,.43-1.33,.65-2.05,.65Z"/><path class="c" d="M20.82,3s-.01,0-.02,0H3.2c-1.21,0-2.19,.97-2.2,2.18v13.62c0,1.21,.97,2.19,2.18,2.2H20.8c1.21,0,2.19-.97,2.2-2.18,0,0,0-.01,0-.02V5.2c0-1.21-.97-2.19-2.18-2.2Zm1.18,15.8c0,.67-.54,1.2-1.19,1.2H3.2c-.67,0-1.2-.54-1.2-1.2V5.2c0-.67,.54-1.2,1.19-1.2H20.8c.67,0,1.2,.54,1.2,1.2v13.6Z"/></svg>