<?xml version="1.0" encoding="UTF-8"?><svg id="a" xmlns="http://www.w3.org/2000/svg" width="24" height="24" viewBox="0 0 24 24"><defs><style>.b{fill:#1da1f2;}</style></defs><path class="b" d="M7.55,21.47c7.36,.25,13.53-5.52,13.77-12.88,0-.08,0-.16,0-.25v-.58c.94-.68,1.76-1.5,2.43-2.44-.88,.38-1.82,.64-2.77,.77,1-.56,1.75-1.49,2.1-2.58-.95,.53-1.98,.9-3.04,1.1-.97-.91-2.24-1.41-3.57-1.42-2.58-.06-4.72,1.97-4.8,4.54v.06c0,.34,.02,.69,.07,1.03-3.85-.2-7.45-1.94-10-4.83-.4,.71-.61,1.51-.61,2.32,0,1.58,.82,3.04,2.16,3.86-.77-.06-1.53-.25-2.23-.58h0c.02,2.27,1.68,4.19,3.92,4.54-.42,.13-.85,.19-1.28,.19l-.91-.06c.66,1.94,2.49,3.24,4.54,3.22-1.73,1.3-3.84,2.01-6.01,2H.19c2.25,1.34,4.81,2.05,7.43,2.06"/></svg>