<?xml version="1.0" encoding="UTF-8"?><svg id="a" xmlns="http://www.w3.org/2000/svg" width="24" height="24" viewBox="0 0 24 24"><defs><style>.b{fill:#0077b5;}</style></defs><path class="b" d="M20.8,1H3.2c-1.21,0-2.19,.97-2.2,2.18,0,0,0,.01,0,.02V20.8c0,1.21,.97,2.19,2.18,2.2,0,0,.01,0,.02,0H20.8c1.21,0,2.19-.97,2.2-2.18,0,0,0-.01,0-.02h0V3.2c0-1.21-.97-2.19-2.18-2.2,0,0-.01,0-.02,0ZM8,18h-3V9h3v9Zm-1.43-10.12c-.82,.17-1.62-.35-1.8-1.16-.18-.81,.34-1.62,1.15-1.8h0c.21-.05,.43-.05,.64,0,.79-.08,1.49,.49,1.57,1.28v.02s0,.09,0,.14c0,.84-.67,1.51-1.51,1.52h-.06Zm12.43,10.12h-3v-5.22c0-1-.29-1.74-1-2-.84-.22-1.69,.28-1.92,1.11-.03,.21-.03,.42,0,.63v5.48h-3.08v-6s-.2-2.13-.27-3h2.61l.14,1h.28c.62-.96,1.7-1.53,2.85-1.49,2,0,3.39,1.29,3.39,4v5.49Z"/></svg>