<?xml version="1.0" encoding="UTF-8"?> <svg xmlns="http://www.w3.org/2000/svg" width="20.88" height="14.681" viewBox="0 0 20.88 14.681"><path id="Icon_awesome-youtube" data-name="Icon awesome-youtube" d="M21.493,6.8a2.624,2.624,0,0,0-1.846-1.858C18.019,4.5,11.49,4.5,11.49,4.5s-6.529,0-8.158.439A2.624,2.624,0,0,0,1.486,6.8a27.522,27.522,0,0,0-.436,5.058,27.522,27.522,0,0,0,.436,5.058,2.584,2.584,0,0,0,1.846,1.828c1.628.439,8.158.439,8.158.439s6.529,0,8.158-.439a2.584,2.584,0,0,0,1.846-1.828,27.522,27.522,0,0,0,.436-5.058A27.522,27.522,0,0,0,21.493,6.8ZM9.354,14.96V8.751l5.457,3.1-5.457,3.1Z" transform="translate(-1.05 -4.5)" fill="#2d3036"></path></svg> 