<svg xmlns="http://www.w3.org/2000/svg" width="25.238" height="25.119" viewBox="0 0 25.238 25.119">
  <path id="search" d="M30.134,29.867l1.257,1.257a7.464,7.464,0,0,1,.829-.354,1.736,1.736,0,0,1,1.837.471q2.121,2.132,4.236,4.268a1.931,1.931,0,0,1,.127,2.542,2.174,2.174,0,0,1-2.118.986,1.791,1.791,0,0,1-1.074-.549q-2.1-2.1-4.2-4.2a1.908,1.908,0,0,1-.175-2.46c.036-.061.077-.119.12-.185-.031-.038-.053-.071-.08-.1l-1.175-1.2a8.833,8.833,0,0,1-7.972,2.231,8.614,8.614,0,0,1-5.385-3.518,8.9,8.9,0,1,1,13.772.8ZM15.34,23.827a8.286,8.286,0,1,0,8.3-8.279,8.272,8.272,0,0,0-8.3,8.279ZM38.2,36.742a1.148,1.148,0,0,0-.378-.88c-1.383-1.393-2.762-2.789-4.152-4.176a1.324,1.324,0,0,0-.522-.325,1.738,1.738,0,0,0-1.916,1.033,1.241,1.241,0,0,0,.24,1.447q2.089,2.092,4.186,4.177a1.308,1.308,0,0,0,.571.333,1.692,1.692,0,0,0,1.969-1.61Z" transform="translate(-14.173 -14.437)" fill="#fff" stroke="#fff" stroke-width="1"/>
</svg>
