<?xml version="1.0" encoding="UTF-8"?> <svg xmlns="http://www.w3.org/2000/svg" width="16.631" height="16.63" viewBox="0 0 16.631 16.63"><path id="Icon_awesome-linkedin-in" data-name="Icon awesome-linkedin-in" d="M3.723,16.631H.275V5.528H3.723ZM2,4.013A2.006,2.006,0,1,1,3.994,2,2.014,2.014,0,0,1,2,4.013Zm14.63,12.618H13.187V11.226c0-1.288-.026-2.94-1.793-2.94-1.793,0-2.067,1.4-2.067,2.847v5.5H5.882V5.528H9.189V7.042h.048A3.623,3.623,0,0,1,12.5,5.249c3.49,0,4.131,2.3,4.131,5.283v6.1Z" transform="translate(0 -0.001)" fill="#2d3036"></path></svg> 