<?xml version="1.0" encoding="UTF-8"?> <svg xmlns="http://www.w3.org/2000/svg" width="17.146" height="13.926" viewBox="0 0 17.146 13.926"><path id="Icon_awesome-twitter" data-name="Icon awesome-twitter" d="M15.384,6.851c.011.152.011.3.011.457a9.93,9.93,0,0,1-10,10A9.931,9.931,0,0,1,0,15.729a7.27,7.27,0,0,0,.849.044,7.038,7.038,0,0,0,4.363-1.5,3.52,3.52,0,0,1-3.286-2.437,4.432,4.432,0,0,0,.664.054,3.717,3.717,0,0,0,.925-.12A3.515,3.515,0,0,1,.7,8.32V8.277a3.539,3.539,0,0,0,1.588.446A3.519,3.519,0,0,1,1.2,4.023,9.989,9.989,0,0,0,8.443,7.7a3.967,3.967,0,0,1-.087-.805,3.518,3.518,0,0,1,6.082-2.4,6.919,6.919,0,0,0,2.23-.849,3.5,3.5,0,0,1-1.545,1.937,7.045,7.045,0,0,0,2.024-.544,7.554,7.554,0,0,1-1.762,1.817Z" transform="translate(0 -3.381)" fill="#2d3036"></path></svg> 