<svg width="323" height="113" viewBox="0 0 323 113" fill="none" xmlns="http://www.w3.org/2000/svg">
<g clip-path="url(#clip0_27_549)">
<path d="M138.71 39.698C137.031 39.7301 135.377 39.2953 133.931 38.442C132.548 37.6084 131.419 36.4135 130.664 34.986C129.848 33.4254 129.439 31.6846 129.473 29.924C129.438 28.1654 129.841 26.4256 130.647 24.862C131.392 23.436 132.512 22.2409 133.887 21.406C135.319 20.5545 136.96 20.1198 138.625 20.151C139.742 20.1481 140.851 20.3543 141.892 20.759C142.921 21.1549 143.872 21.7305 144.7 22.459C145.506 23.1592 146.159 24.0185 146.617 24.983L144.646 25.983C144.29 25.2321 143.785 24.5615 143.161 24.012C142.539 23.4586 141.827 23.0156 141.055 22.702C140.284 22.3877 139.458 22.2274 138.625 22.23C137.376 22.2119 136.148 22.5543 135.088 23.216C134.039 23.8781 133.193 24.8169 132.644 25.929C132.038 27.1736 131.737 28.5449 131.766 29.929C131.739 31.3218 132.045 32.7009 132.657 33.952C133.211 35.0769 134.066 36.0256 135.128 36.692C136.202 37.355 137.443 37.6972 138.705 37.678C139.552 37.6814 140.391 37.5017 141.162 37.151C141.94 36.7976 142.648 36.3086 143.254 35.707C143.87 35.1018 144.369 34.3878 144.725 33.601L146.725 34.601C146.253 35.5963 145.599 36.4939 144.795 37.247C143.98 38.0165 143.029 38.6278 141.99 39.05C140.95 39.4794 139.835 39.6996 138.71 39.698ZM150.212 39.374V20.474H152.512V39.374H150.212ZM161.336 39.374V22.553H155.315V20.474H169.625V22.553H163.604V39.374H161.336ZM179.183 31.517L177.212 30.574L183.368 20.474H185.987L179.183 31.517ZM176.942 39.374V30.302H179.21V39.374H176.942ZM176.973 31.517L170.165 20.474H172.811L178.94 30.574L176.973 31.517ZM203.456 39.698C201.762 39.7303 200.092 39.301 198.623 38.456C197.224 37.6337 196.083 36.4367 195.329 35C194.515 33.4338 194.107 31.6887 194.141 29.924C194.104 28.1565 194.507 26.4076 195.315 24.835C196.061 23.4076 197.189 22.2156 198.573 21.392C200.029 20.5461 201.69 20.1164 203.373 20.15C205.064 20.1166 206.732 20.5509 208.192 21.405C209.577 22.2317 210.704 23.4286 211.445 24.861C212.244 26.4273 212.643 28.1663 212.609 29.924C212.643 31.6855 212.244 33.4285 211.448 35C210.716 36.4309 209.599 37.6282 208.221 38.456C206.778 39.3017 205.129 39.7316 203.456 39.698ZM203.456 37.619C204.715 37.6444 205.953 37.3017 207.02 36.633C208.057 35.9647 208.892 35.0268 209.437 33.92C210.044 32.6754 210.345 31.3042 210.315 29.92C210.341 28.5402 210.036 27.1742 209.424 25.937C208.872 24.823 208.027 23.8802 206.98 23.21C205.9 22.5408 204.65 22.1984 203.38 22.224C202.113 22.2012 200.867 22.5435 199.789 23.21C198.736 23.877 197.886 24.8203 197.332 25.937C196.721 27.1742 196.415 28.5402 196.441 29.92C196.411 31.3057 196.717 32.678 197.332 33.92C197.894 35.0364 198.753 35.9754 199.816 36.633C200.912 37.2991 202.174 37.6409 203.456 37.619ZM216.362 39.374V20.474H227.594V22.553H218.657V29.006H226.541V31.085H218.657V39.374H216.362Z" fill="white"/>
<path d="M130.397 84.374V50.774H142.873C145.05 50.7309 147.206 51.2081 149.161 52.166C150.907 53.0239 152.384 54.3437 153.433 55.982C154.478 57.6744 155.012 59.6332 154.969 61.622C155.002 63.6195 154.442 65.5821 153.361 67.262C152.277 68.9206 150.758 70.2491 148.969 71.102C146.993 72.0418 144.825 72.5114 142.637 72.474H136.973V84.374H130.397ZM148.873 84.374L141.097 70.886L146.137 67.286L156.317 84.374H148.873ZM136.973 66.474H142.925C143.851 66.4895 144.766 66.275 145.589 65.85C146.355 65.4503 147.002 64.8539 147.461 64.122C147.931 63.3736 148.174 62.5054 148.161 61.622C148.181 60.9588 148.052 60.2995 147.782 59.6935C147.511 59.0874 147.108 58.5502 146.601 58.122C145.475 57.1938 144.047 56.7138 142.589 56.774H136.973V66.474ZM161.357 84.374V50.774H182.621V56.774H167.933V64.406H180.605V70.262H167.933V78.374H182.813V84.374H161.357ZM189.629 84.374V50.774H196.493L212.909 73.334V50.774H219.437V84.374H212.909L196.209 61.382V84.374H189.629ZM233.837 84.374V56.774H223.757V50.774H250.445V56.774H240.413V84.374H233.837ZM270.125 84.95C266.981 85.0123 263.876 84.2423 261.125 82.718C258.559 81.2719 256.441 79.1459 255.005 76.574C253.5 73.834 252.739 70.7476 252.797 67.622C252.731 64.465 253.492 61.3456 255.005 58.574C256.427 56.0155 258.527 53.8981 261.073 52.454C263.793 50.9458 266.864 50.184 269.973 50.246C273.105 50.1768 276.198 50.9461 278.933 52.474C281.479 53.9311 283.578 56.0555 285.005 58.618C286.514 61.3737 287.276 64.4767 287.213 67.618C287.272 70.742 286.52 73.828 285.029 76.574C283.616 79.1387 281.523 81.2644 278.981 82.718C276.281 84.238 273.223 85.0086 270.125 84.95ZM270.125 78.95C272.028 78.9898 273.903 78.4816 275.525 77.486C277.082 76.504 278.343 75.1172 279.173 73.474C280.081 71.6577 280.534 69.6481 280.493 67.618C280.537 65.5707 280.075 63.5443 279.149 61.718C278.3 60.0729 277.021 58.6881 275.449 57.71C273.801 56.712 271.903 56.2042 269.977 56.246C268.075 56.2148 266.203 56.7224 264.577 57.71C262.996 58.683 261.71 60.0687 260.857 61.718C259.931 63.5443 259.469 65.5707 259.513 67.618C259.473 69.6512 259.936 71.6627 260.861 73.474C261.718 75.1281 263.013 76.5146 264.605 77.482C266.272 78.4776 268.184 78.9862 270.125 78.95ZM292.541 84.374V50.774H299.405L315.821 73.334V50.774H322.349V84.374H315.821L299.121 61.382V84.374H292.541Z" fill="white"/>
<path d="M56.1081 0.561035C45.1219 0.560837 34.3823 3.81844 25.2475 9.92191C16.1128 16.0254 8.99301 24.7006 4.78863 34.8504C0.58426 45.0003 -0.515899 56.169 1.62728 66.9441C3.77046 77.7192 9.06072 87.6169 16.8291 95.3853C24.5974 103.154 34.4949 108.444 45.27 110.588C56.0451 112.731 67.2138 111.631 77.3638 107.427C87.5137 103.223 96.189 96.1031 102.293 86.9684C108.396 77.8337 111.654 67.0942 111.654 56.108C111.654 41.3763 105.802 27.248 95.3848 16.831C84.968 6.41403 70.8398 0.561566 56.1081 0.561035Z" fill="white"/>
<path d="M56.1081 0.561035C45.1219 0.560837 34.3823 3.81844 25.2475 9.92191C16.1128 16.0254 8.99301 24.7006 4.78863 34.8504C0.58426 45.0003 -0.515899 56.169 1.62728 66.9441C3.77046 77.7192 9.06072 87.6169 16.8291 95.3853C24.5974 103.154 34.4949 108.444 45.27 110.588C56.0451 112.731 67.2138 111.631 77.3638 107.427C87.5137 103.223 96.189 96.1031 102.293 86.9684C108.396 77.8337 111.654 67.0942 111.654 56.108C111.654 41.3762 105.802 27.2478 95.3851 16.8307C84.9682 6.41367 70.8399 0.5613 56.1081 0.561035ZM56.1081 91.054C49.1961 91.0542 42.4394 89.0048 36.6922 85.1648C30.945 81.3249 26.4656 75.8669 23.8205 69.4811C21.1753 63.0954 20.4831 56.0686 21.8315 49.2895C23.1799 42.5103 26.5083 36.2833 31.3958 31.3958C36.2833 26.5083 42.5104 23.1799 49.2895 21.8315C56.0687 20.4831 63.0954 21.1752 69.4812 23.8204C75.867 26.4656 81.3249 30.945 85.1649 36.6921C89.0048 42.4393 91.0543 49.1961 91.0541 56.108C91.0541 65.3763 87.3723 74.2649 80.8186 80.8186C74.265 87.3722 65.3763 91.054 56.1081 91.054Z" fill="#003B80"/>
<path d="M69.146 58.7461C69.746 58.7671 70.34 58.7641 70.936 58.7461C73.322 58.747 75.643 57.9681 77.5456 56.5281C79.4481 55.088 80.8279 53.0657 81.475 50.7691C82.181 48.3375 82.1441 45.7505 81.369 43.3401C81.22 42.881 81.0447 42.4309 80.844 41.9921C80.1795 40.5747 79.2395 39.3037 78.079 38.2531C77.7774 37.9862 77.4601 37.7374 77.129 37.5081C76.0007 36.7234 74.7293 36.1679 73.387 35.8731C71.9066 35.584 70.3985 35.4619 68.891 35.5091C66.797 35.5311 64.704 35.6171 62.61 35.6371C60.5493 35.6537 58.4873 35.6417 56.424 35.6011C55.6993 35.5871 54.9747 35.5684 54.25 35.5451C53.566 35.5237 52.8823 35.5004 52.199 35.4751C51.887 35.4641 51.573 35.4431 51.262 35.4271C50.25 35.3751 49.237 35.3271 48.223 35.2951C47.917 35.2861 47.61 35.2771 47.305 35.2771C46.88 35.2771 46.323 35.0771 46.447 35.7521C46.691 37.8831 46.775 40.0521 46.87 42.1801C46.8933 42.7181 46.9153 43.2557 46.936 43.7931C46.9533 44.2597 46.9687 44.7287 46.982 45.2001C47.007 46.0741 47.032 46.9461 47.052 47.8191C47.07 48.6561 47.17 51.0521 47.162 51.7691C47.162 51.8871 47.131 51.8691 47.1 51.8561C47.0896 51.8502 47.0779 51.8467 47.066 51.8461H29.355V59.4631C29.388 59.5011 32.121 59.3361 32.504 59.3031C32.859 59.2721 33.214 59.2451 33.567 59.2221C34.3797 59.1694 35.1916 59.1207 36.003 59.0761C38.843 58.9251 43.614 58.8521 47.069 58.8201H47.138C47.127 59.4651 47.045 60.0631 47.038 60.7091C46.999 62.9201 46.956 65.1321 46.896 67.3431C46.83 69.7331 46.749 72.1191 46.615 74.5061C46.562 75.2831 46.645 74.1791 46.507 75.8801C46.676 75.8661 54.864 75.8661 55.265 75.8661C55.182 74.9061 55.143 73.9411 55.087 72.9781C54.982 71.2291 54.887 69.4781 54.807 67.7261C54.7757 67.0747 54.7483 66.4234 54.725 65.7721L54.719 65.6281C54.696 64.9751 54.68 64.3211 54.654 63.6671C54.603 62.0671 54.574 58.7881 54.566 58.7541V58.7381C54.602 58.7381 62.266 66.1661 62.366 66.2691C62.603 66.5111 62.844 66.7551 63.075 67.0051L63.531 67.4811C63.7976 67.7631 64.0673 68.0424 64.34 68.3191C64.607 68.5901 64.868 68.8681 65.132 69.1421C65.3606 69.3787 65.5883 69.6161 65.815 69.8541C66.746 70.8351 67.691 71.8001 68.628 72.7721C69.0866 73.2474 69.545 73.7234 70.003 74.2001C70.403 74.6131 74.616 79.1001 74.671 79.0421C74.764 78.9491 74.854 78.8511 74.946 78.7541L75.225 78.4611L76.492 77.1321C77.148 76.4431 77.792 75.7391 78.462 75.0641C78.809 74.7121 79.146 74.3481 79.485 73.9871C79.685 73.7781 80.058 73.5931 80.166 73.3061C80.289 72.9781 79.847 72.8211 79.652 72.6351C79.288 72.2871 78.936 71.9241 78.571 71.5771C78.0697 71.0998 77.5666 70.6257 77.062 70.1551C75.291 68.5001 73.562 66.7961 71.81 65.1221C70.41 63.7887 69.014 62.4524 67.622 61.1131C67.4001 60.9561 67.2219 60.7452 67.1042 60.5002C66.9864 60.2553 66.933 59.9844 66.949 59.7131C67.158 58.5191 68.329 58.7201 69.149 58.7481M58.491 52.6051V52.5961C58.397 52.6021 58.303 52.6051 58.207 52.6051C56.8692 52.5028 55.6193 51.8991 54.7074 50.9148C53.7955 49.9306 53.2889 48.6383 53.2889 47.2966C53.2889 45.9548 53.7955 44.6626 54.7074 43.6783C55.6193 42.6941 56.8692 42.0904 58.207 41.9881C58.339 41.9881 58.47 41.9951 58.599 42.0061H69.986C70.091 41.9991 70.198 41.9941 70.306 41.9941C71.6416 42.0995 72.8884 42.7045 73.7977 43.6884C74.7071 44.6723 75.2121 45.9628 75.2121 47.3026C75.2121 48.6423 74.7071 49.9329 73.7977 50.9168C72.8884 51.9007 71.6416 52.5057 70.306 52.6111C70.233 52.6111 70.161 52.6111 70.087 52.6051H58.491Z" fill="#BC9000"/>
<path d="M56.107 20.5331C49.071 20.5329 42.1928 22.6191 36.3424 26.528C30.4921 30.4369 25.9322 35.9928 23.2394 42.4932C20.5466 48.9936 19.8419 56.1465 21.2144 63.0474C22.5869 69.9483 25.9749 76.2873 30.95 81.2627C35.9251 86.2381 42.2639 89.6265 49.1647 90.9993C56.0655 92.3722 63.2185 91.6679 69.7191 88.9755C76.2196 86.2831 81.7758 81.7235 85.685 75.8733C89.5942 70.0232 91.6808 63.1452 91.681 56.1091C91.681 46.6741 87.9331 37.6255 81.2618 30.9538C74.5904 24.282 65.542 20.5336 56.107 20.5331ZM80.252 80.2541C74.666 85.8409 67.3156 89.318 59.4533 90.0929C51.591 90.8677 43.7032 88.8925 37.134 84.5036C30.5648 80.1148 25.7206 73.5839 23.4269 66.0238C21.1332 58.4637 21.5318 50.3421 24.5548 43.043C27.5779 35.7438 33.0383 29.7187 40.0057 25.9942C46.9731 22.2698 55.0164 21.0764 62.765 22.6175C70.5137 24.1586 77.4883 28.3387 82.5003 34.4457C87.5124 40.5527 90.2519 48.2087 90.252 56.1091C90.2582 60.594 89.3779 65.036 87.6618 69.1796C85.9456 73.3232 83.4275 77.0868 80.252 80.2541Z" fill="#BC9000"/>
<path d="M9.9941 57.4021L11.3741 61.5121L12.7391 57.4021L16.8491 56.0221L12.7361 54.6591L11.3711 50.5491L9.9911 54.6591L5.8811 56.0241L9.9941 57.4021Z" fill="#BC9000"/>
<path d="M99.427 57.402L100.807 61.512L102.172 57.402L106.282 56.022L102.172 54.657L100.807 50.547L99.427 54.657L95.317 56.022L99.427 57.402Z" fill="#BC9000"/>
<path d="M56.1081 1.908C66.8278 1.908 77.3068 5.08678 86.22 11.0423C95.1331 16.9979 102.08 25.4628 106.182 35.3666C110.285 45.2703 111.358 56.1681 109.267 66.6819C107.175 77.1957 102.013 86.8532 94.4332 94.4332C86.8532 102.013 77.1957 107.175 66.6819 109.267C56.1682 111.358 45.2704 110.285 35.3666 106.182C25.4628 102.08 16.998 95.133 11.0424 86.2199C5.08682 77.3068 1.90805 66.8277 1.90805 56.108C1.92446 41.7383 7.64007 27.9619 17.801 17.8009C27.9619 7.64002 41.7384 1.92441 56.1081 1.908ZM56.1081 8.91551e-09C45.0109 -0.000197773 34.1629 3.29031 24.9358 9.45542C15.7088 15.6205 8.51714 24.3833 4.2703 34.6357C0.0234675 44.8881 -1.0878 56.1696 1.07703 67.0535C3.24185 77.9375 8.58554 87.935 16.4323 95.782C24.2792 103.629 34.2766 108.973 45.1606 111.138C56.0445 113.303 67.326 112.192 77.5784 107.945C87.8309 103.698 96.5938 96.507 102.759 87.28C108.924 78.0531 112.215 67.2052 112.215 56.108C112.215 48.7398 110.764 41.4438 107.944 34.6365C105.125 27.8291 100.992 21.6438 95.782 16.4337C90.572 11.2236 84.3868 7.09069 77.5795 4.27099C70.7722 1.45128 63.4762 7.74521e-09 56.1081 8.91551e-09Z" fill="#BC9000"/>
<path d="M24.7371 24.474L24.7211 24.455C24.153 23.735 23.8083 22.8643 23.7297 21.9505C23.651 21.0368 23.8419 20.12 24.2786 19.3135C24.7153 18.507 25.3787 17.8461 26.1869 17.4126C26.9951 16.979 27.9126 16.7918 28.8261 16.874L28.7961 18.751C27.9545 18.6522 27.1079 18.8901 26.4411 19.413C26.1785 19.6423 25.9647 19.9221 25.8124 20.2357C25.6601 20.5493 25.5725 20.8903 25.5546 21.2385C25.5368 21.5867 25.5892 21.9349 25.7087 22.2624C25.8281 22.5899 26.0123 22.8901 26.2501 23.145L26.2661 23.164C26.4729 23.447 26.7345 23.6855 27.0355 23.8653C27.3364 24.045 27.6705 24.1623 28.0177 24.2102C28.365 24.258 28.7183 24.2355 29.0566 24.1439C29.395 24.0523 29.7114 23.8935 29.9871 23.677C30.3177 23.3966 30.5867 23.0508 30.777 22.6613C30.9674 22.2718 31.075 21.8471 31.0931 21.414L32.8311 21.592C32.8091 22.5227 32.5053 23.4249 31.9597 24.1793C31.4141 24.9336 30.6524 25.5047 29.7754 25.817C28.8983 26.1293 27.9471 26.1681 27.0476 25.9283C26.148 25.6885 25.3423 25.1814 24.7371 24.474Z" fill="#BC9000"/>
<path d="M34.8248 12.141L33.113 13.015L37.1268 20.8755L38.8386 20.0015L34.8248 12.141Z" fill="#BC9000"/>
<path d="M42.903 10.934L40.336 11.634L39.868 9.90596L46.858 8.01196L47.326 9.73996L44.759 10.44L46.598 17.229L44.742 17.729L42.903 10.934Z" fill="#BC9000"/>
<path d="M54.8741 12.6271L51.4291 7.33607L53.6751 7.30107L55.8171 10.8101L57.8801 7.23507L60.0641 7.20007L56.7951 12.5601L56.8531 16.0761L54.9311 16.1061L54.8741 12.6271Z" fill="#BC9000"/>
<path d="M69.8411 13.597L69.8511 13.574C70.3595 12.4676 71.282 11.6052 72.42 11.1724C73.5581 10.7395 74.8206 10.771 75.9357 11.2599C77.0508 11.7488 77.9293 12.6561 78.382 13.7864C78.8347 14.9166 78.8254 16.1795 78.3561 17.303L78.3461 17.326C77.8236 18.4093 76.9012 19.2477 75.773 19.6647C74.6448 20.0816 73.3989 20.0446 72.2975 19.5614C71.196 19.0782 70.325 18.1865 69.8678 17.074C69.4106 15.9616 69.4028 14.7151 69.8461 13.597M76.5021 16.537L76.5121 16.514C76.6694 16.1928 76.7605 15.8433 76.7801 15.4862C76.7997 15.1291 76.7473 14.7717 76.626 14.4352C76.5047 14.0987 76.3171 13.7901 76.0742 13.5276C75.8313 13.265 75.5381 13.054 75.2121 12.907C74.8871 12.7641 74.5367 12.6885 74.1817 12.6848C73.8268 12.681 73.4747 12.7491 73.1469 12.8851C72.819 13.0211 72.522 13.222 72.2739 13.4758C72.0257 13.7297 71.8316 14.0311 71.7031 14.362L71.6941 14.385C71.5368 14.7061 71.4457 15.0556 71.4261 15.4126C71.4066 15.7697 71.459 16.127 71.5803 16.4634C71.7015 16.7998 71.8892 17.1083 72.1321 17.3708C72.3749 17.6332 72.6681 17.8441 72.9941 17.991C73.319 18.134 73.6695 18.2098 74.0245 18.2136C74.3795 18.2174 74.7316 18.1493 75.0595 18.0133C75.3874 17.8774 75.6844 17.6763 75.9325 17.4224C76.1806 17.1685 76.3747 16.867 76.5031 16.536" fill="#BC9000"/>
<path d="M85.273 16.776L90.361 21.06L89.224 22.41L85.606 19.363L84.396 20.799L87.584 23.483L86.447 24.833L83.259 22.146L81.059 24.758L79.588 23.52L85.273 16.776Z" fill="#BC9000"/>
<path d="M26.617 83.396L29.569 86.084C29.9306 86.3741 30.2303 86.7339 30.4501 87.1421C30.67 87.5502 30.8057 87.9984 30.849 88.46C30.8544 88.8289 30.7865 89.1953 30.6491 89.5378C30.5118 89.8802 30.3078 90.192 30.049 90.455L30.032 90.474C29.6516 90.936 29.1303 91.2607 28.5479 91.3983C27.9654 91.5359 27.354 91.4789 26.807 91.236L26.263 95.002L24.603 93.489L25.12 90.142L25.102 90.125L24.002 89.125L22.102 91.212L20.682 89.918L26.617 83.396ZM26.592 89.168C26.7065 89.311 26.8504 89.4275 27.0141 89.5098C27.1777 89.592 27.3572 89.638 27.5402 89.6445C27.7232 89.6511 27.9055 89.6181 28.0746 89.5477C28.2437 89.4774 28.3956 89.3714 28.52 89.237L28.537 89.218C29.097 88.603 28.961 87.9 28.27 87.27L26.859 85.985L25.153 87.858L26.592 89.168Z" fill="#BC9000"/>
<path d="M35.9071 90.824L41.8421 93.696L41.0901 95.251L36.8741 93.211L36.0941 94.822L39.8031 96.617L39.0511 98.171L35.3421 96.376L34.5351 98.044L38.8071 100.111L38.0551 101.665L32.0641 98.765L35.9071 90.824Z" fill="#BC9000"/>
<path d="M46.4941 95.183L48.2481 95.438L51.5161 101.407L52.3001 96.029L54.1781 96.303L52.9041 105.038L51.2861 104.802L47.9081 98.639L47.0981 104.192L45.2201 103.918L46.4941 95.183Z" fill="#BC9000"/>
<path d="M60.894 97.701L58.261 98.0601L58.019 96.287L65.19 95.3101L65.432 97.0831L62.799 97.442L63.751 104.41L61.851 104.67L60.894 97.701Z" fill="#BC9000"/>
<path d="M69.9271 98.681L69.9171 98.658C69.6677 98.1034 69.5322 97.5043 69.5187 96.8964C69.5052 96.2884 69.6139 95.6839 69.8384 95.1187C70.0628 94.5536 70.3985 94.0392 70.8255 93.6062C71.2525 93.1732 71.7621 92.8304 72.3241 92.598C72.8696 92.3362 73.4625 92.1872 74.067 92.16C74.6716 92.1329 75.2754 92.2281 75.8422 92.44C76.4091 92.6519 76.9273 92.9761 77.3658 93.3931C77.8043 93.8102 78.154 94.3115 78.3941 94.867L78.4041 94.89C78.6533 95.4447 78.7887 96.0437 78.8021 96.6517C78.8156 97.2596 78.7069 97.864 78.4824 98.4291C78.2579 98.9943 77.9223 99.5086 77.4954 99.9416C77.0685 100.375 76.559 100.718 75.9971 100.95C75.4515 101.212 74.8587 101.361 74.2541 101.388C73.6496 101.415 73.0458 101.32 72.4789 101.108C71.9121 100.896 71.3939 100.572 70.9554 100.155C70.5169 99.7379 70.1671 99.2365 69.9271 98.681ZM76.5781 95.728L76.5681 95.705C76.4361 95.3729 76.2387 95.0706 75.9876 94.8163C75.7366 94.5619 75.4369 94.3606 75.1065 94.2243C74.7761 94.088 74.4217 94.0196 74.0643 94.0229C73.7069 94.0263 73.3538 94.1015 73.0261 94.244C72.702 94.3885 72.4104 94.5971 72.1691 94.8573C71.9278 95.1175 71.7416 95.4238 71.6218 95.7578C71.502 96.0919 71.4511 96.4467 71.4721 96.8009C71.4931 97.1552 71.5856 97.5015 71.7441 97.819L71.7541 97.842C71.8859 98.1742 72.0832 98.4764 72.3342 98.7307C72.5852 98.9851 72.8847 99.1864 73.2151 99.3227C73.5454 99.459 73.8998 99.5274 74.2571 99.5241C74.6144 99.5207 74.9674 99.4455 75.2951 99.303C75.6194 99.1587 75.9111 98.9501 76.1527 98.6899C76.3942 98.4297 76.5805 98.1233 76.7004 97.7891C76.8203 97.4549 76.8713 97.0999 76.8503 96.7455C76.8292 96.3911 76.7366 96.0457 76.5781 95.728Z" fill="#BC9000"/>
<path d="M79.7211 88.7261L81.0501 87.5541L87.7141 88.9201L84.1191 84.8461L85.5421 83.5911L91.3801 90.2071L90.1541 91.2891L83.2701 89.882L86.9811 94.0881L85.5591 95.3461L79.7211 88.7261Z" fill="#BC9000"/>
<path d="M74.719 47.311C74.719 47.04 74.151 46.85 73.498 46.664C72.7529 46.4334 71.978 46.3135 71.198 46.308H67.862C67.862 46.308 67.545 45.893 67.197 45.393C67.3521 45.4176 67.509 45.4297 67.666 45.429C67.9148 45.4312 68.1627 45.3996 68.403 45.335V44.365C68.1626 44.3009 67.9148 44.2693 67.666 44.271C67.2997 44.2599 66.9361 44.336 66.605 44.493C66.535 44.376 66.473 44.265 66.422 44.166C66.043 43.414 65.322 42.08 64.709 40.922C64.4246 40.3007 64.0985 39.6993 63.733 39.122C63.5744 38.9703 63.3736 38.8699 63.157 38.834C63.0186 38.7902 62.8741 38.7689 62.729 38.771C62.802 38.8888 62.8633 39.0134 62.912 39.143C62.961 39.332 63.664 41.292 63.923 42.303C64.182 43.314 64.523 44.641 64.523 44.641V46.327C64.523 46.327 61.896 46.32 61.082 46.32C60.3757 46.3191 59.6705 46.3776 58.974 46.495C58.474 46.586 57.682 46.79 57.598 46.79C57.533 46.7798 57.4734 46.7477 57.429 46.699C57.3487 46.4787 57.2369 46.2712 57.097 46.083C56.879 45.809 56.497 45.254 56.205 44.812C56.0179 44.4967 55.8038 44.1983 55.565 43.92C55.4589 43.8249 55.3318 43.7564 55.194 43.72C55.109 43.713 55.025 43.705 55.046 43.839C55.067 43.973 55.312 44.991 55.482 45.658C55.652 46.325 55.854 46.992 55.861 47.069C55.868 47.146 55.889 47.312 55.889 47.315C55.889 47.318 55.868 47.484 55.861 47.561C55.854 47.638 55.651 48.305 55.482 48.972C55.313 49.639 55.068 50.658 55.046 50.791C55.024 50.924 55.109 50.917 55.194 50.91C55.3318 50.8737 55.4589 50.8051 55.565 50.71C55.8035 50.4316 56.0176 50.1331 56.205 49.818C56.5 49.375 56.879 48.818 57.097 48.547C57.2382 48.3607 57.3517 48.1549 57.434 47.936C57.4784 47.8874 57.538 47.8553 57.603 47.845C57.687 47.845 58.48 48.045 58.979 48.14C59.6755 48.2574 60.3807 48.316 61.087 48.315C61.901 48.315 64.528 48.308 64.528 48.308V49.983C64.528 49.983 64.191 51.31 63.928 52.322C63.665 53.334 62.966 55.293 62.917 55.482C62.8684 55.6118 62.8071 55.7364 62.734 55.854C62.8792 55.8566 63.0237 55.8353 63.162 55.791C63.3784 55.7546 63.579 55.6543 63.738 55.503C64.1035 54.9257 64.4296 54.3243 64.714 53.703C65.324 52.544 66.048 51.21 66.427 50.459C66.477 50.359 66.54 50.248 66.61 50.131C66.941 50.2883 67.3047 50.3644 67.671 50.353C67.9197 50.3545 68.1676 50.3229 68.408 50.259V49.283C68.1677 49.2186 67.9198 49.187 67.671 49.189C67.514 49.1889 67.3572 49.2009 67.202 49.225C67.55 48.725 67.867 48.311 67.867 48.311H71.197C71.977 48.3055 72.7519 48.1856 73.497 47.955C74.15 47.769 74.718 47.579 74.718 47.308L74.719 47.311Z" fill="#003B80"/>
<path d="M37.09 75.66C37.042 75.612 37.29 75.294 37.353 75.177C37.563 74.6049 37.7217 74.0152 37.827 73.415C37.9197 73.1927 37.9907 72.962 38.039 72.726C38.039 72.294 37.703 72.28 37.544 71.702C37.3575 71.0853 37.1207 70.4849 36.836 69.907C36.802 69.821 36.73 69.642 36.751 69.6C36.772 69.558 36.951 69.632 37.031 69.644C37.4486 69.6983 37.8492 69.8433 38.2049 70.0687C38.5606 70.2941 38.8626 70.5946 39.09 70.949C39.224 71.14 39.417 71.377 39.566 71.556C40.027 72.108 40.606 72 41.231 71.848C41.5429 71.7394 41.819 71.547 42.0289 71.2919C42.2388 71.0369 42.3744 70.729 42.421 70.402C42.4659 70.0663 42.3968 69.7252 42.225 69.4333C42.0531 69.1414 41.7883 68.9156 41.473 68.792C41.232 68.685 40.996 68.626 40.667 68.517C40.827 68.865 40.926 69.131 40.752 69.412C40.609 69.641 40.52 69.712 40.328 69.518C40.1198 69.3309 39.9499 69.105 39.828 68.853C39.7748 68.7125 39.7539 68.5617 39.767 68.412C39.767 68.412 39.662 68.384 39.583 68.369C39.146 68.287 38.711 68.263 38.273 68.187C37.858 68.115 37.44 67.993 37.025 67.923C36.965 67.913 36.825 67.894 36.797 67.937C36.769 67.98 36.862 68.755 36.797 68.768C36.5947 68.6681 36.4139 68.5295 36.265 68.36C36.1042 68.1799 35.9581 67.9873 35.828 67.784C35.7468 67.6572 35.6247 67.562 35.482 67.514C34.4135 67.2526 33.3826 66.8564 32.414 66.335C31.9877 66.1526 31.5369 66.034 31.076 65.983C30.666 65.9678 30.2753 65.8047 29.976 65.524C29.8791 65.3928 29.8032 65.2474 29.751 65.093C29.751 65.06 29.816 64.998 29.851 64.987C29.886 64.976 30.051 65.087 30.137 65.123C30.315 65.2314 30.5127 65.3033 30.7188 65.3344C30.9248 65.3655 31.135 65.3551 31.337 65.304C31.458 65.267 31.556 65.214 31.577 65.138C31.598 65.062 31.551 64.996 31.484 64.913C31.3541 64.7519 31.1954 64.6162 31.016 64.513C30.5744 64.2815 30.0803 64.1689 29.582 64.186C29.305 64.193 29.308 64.103 29.442 63.871C29.5479 63.684 29.6925 63.5217 29.866 63.395C30.4668 63.0444 31.1308 62.8157 31.82 62.722C32.248 62.622 32.586 62.575 33.02 62.514C34.0682 62.3569 35.1292 62.3016 36.188 62.349C37.011 62.393 37.649 62.48 38.428 62.57C38.5438 62.5711 38.657 62.5361 38.752 62.47C39.3814 62.0739 40.0736 61.7878 40.799 61.624C41.012 61.581 41.289 61.905 41.409 62.13C41.6928 62.5663 41.9301 63.0312 42.117 63.517C42.017 63.525 41.705 63.465 41.666 63.466C41.627 63.467 41.605 63.531 41.63 63.561C41.6857 63.6016 41.7461 63.6352 41.81 63.661C42.8404 64.1656 43.7206 64.9314 44.363 65.882C44.8984 66.8243 45.1986 67.8819 45.238 68.965C45.3214 69.8706 45.048 70.773 44.476 71.48C43.9118 72.1745 43.1413 72.6714 42.276 72.899C41.1606 73.1121 40.1584 73.7177 39.451 74.606C39.0785 75.002 38.609 75.294 38.089 75.453C37.88 75.532 37.664 75.597 37.448 75.653C37.37 75.675 37.118 75.701 37.073 75.653" fill="#6C645C"/>
<path d="M42.745 41.8981C42.5214 41.6673 42.3322 41.4056 42.183 41.1211L42.169 41.094C42.0539 40.8382 41.8886 40.608 41.683 40.417L41.618 40.361C41.3966 40.1998 41.1527 40.0721 40.894 39.9821L40.712 39.9051C40.4026 39.7816 40.1132 39.6131 39.853 39.4051C39.5004 39.1185 39.1122 38.8788 38.698 38.692C38.53 38.6352 38.348 38.6352 38.18 38.692C38.2264 38.7589 38.2528 38.8377 38.256 38.9191C38.2568 39.0102 38.2249 39.0985 38.166 39.1681L38.249 39.2171C38.2795 39.195 38.3157 39.1825 38.3533 39.181C38.3909 39.1796 38.428 39.1894 38.46 39.209C38.619 39.309 38.777 39.4091 38.933 39.5091L39.08 39.3431C39.1024 39.3179 39.1339 39.3026 39.1676 39.3006C39.2013 39.2987 39.2343 39.3101 39.2595 39.3326C39.2847 39.355 39.3 39.3865 39.3019 39.4201C39.3039 39.4538 39.2924 39.4869 39.27 39.512L39.145 39.653C39.263 39.734 39.38 39.816 39.496 39.901L39.65 39.7281C39.6611 39.7155 39.6745 39.7052 39.6896 39.6978C39.7046 39.6904 39.721 39.6861 39.7377 39.6851C39.7545 39.684 39.7712 39.6863 39.7871 39.6918C39.8029 39.6973 39.8175 39.7059 39.83 39.7171C39.8552 39.7395 39.8705 39.7711 39.8726 39.8048C39.8747 39.8385 39.8633 39.8717 39.841 39.8971L39.702 40.053C39.816 40.138 39.93 40.2251 40.043 40.3141L40.199 40.137C40.2101 40.1245 40.2236 40.1143 40.2386 40.1069C40.2537 40.0996 40.27 40.0953 40.2867 40.0943C40.3035 40.0932 40.3202 40.0955 40.336 40.101C40.3519 40.1064 40.3665 40.115 40.379 40.126C40.3916 40.1371 40.4018 40.1506 40.4091 40.1657C40.4165 40.1807 40.4208 40.1971 40.4218 40.2138C40.4228 40.2305 40.4205 40.2472 40.4151 40.2631C40.4096 40.2789 40.4011 40.2935 40.39 40.306L40.243 40.473C40.3523 40.563 40.462 40.6544 40.572 40.747L40.737 40.5621C40.7481 40.5495 40.7615 40.5392 40.7766 40.5318C40.7916 40.5244 40.808 40.5201 40.8247 40.5191C40.8415 40.518 40.8582 40.5203 40.8741 40.5258C40.8899 40.5313 40.9045 40.5399 40.917 40.5511C40.9419 40.5738 40.9568 40.6054 40.9587 40.639C40.9605 40.6727 40.9492 40.7057 40.927 40.7311L40.764 40.914C40.784 40.931 40.804 40.9471 40.822 40.9651C40.9073 41.0397 40.9917 41.1154 41.075 41.192L41.239 41.0081C41.2501 40.9955 41.2635 40.9852 41.2786 40.9778C41.2936 40.9704 41.31 40.9661 41.3267 40.9651C41.3435 40.964 41.3602 40.9663 41.3761 40.9718C41.3919 40.9773 41.4065 40.9859 41.419 40.997C41.4442 41.0195 41.4595 41.0511 41.4616 41.0848C41.4637 41.1185 41.4523 41.1517 41.43 41.1771L41.262 41.3661C41.362 41.4661 41.468 41.566 41.569 41.666L41.726 41.486C41.737 41.4735 41.7504 41.4633 41.7654 41.4559C41.7804 41.4485 41.7967 41.4442 41.8134 41.4431C41.8301 41.4421 41.8468 41.4443 41.8626 41.4497C41.8784 41.4551 41.893 41.4635 41.9055 41.4746C41.9181 41.4856 41.9283 41.499 41.9357 41.514C41.943 41.529 41.9474 41.5453 41.9484 41.5619C41.9495 41.5786 41.9473 41.5953 41.9419 41.6111C41.9365 41.6269 41.928 41.6415 41.917 41.654L41.751 41.8401C41.851 41.9401 41.951 42.046 42.051 42.15L42.199 41.9821C42.2101 41.9695 42.2236 41.9593 42.2386 41.9519C42.2537 41.9446 42.27 41.9403 42.2867 41.9393C42.3035 41.9383 42.3202 41.9405 42.336 41.946C42.3519 41.9514 42.3665 41.96 42.379 41.971C42.3916 41.9821 42.4018 41.9956 42.4091 42.0107C42.4165 42.0257 42.4208 42.0421 42.4218 42.0588C42.4228 42.0755 42.4205 42.0922 42.4151 42.1081C42.4096 42.1239 42.4011 42.1385 42.39 42.151L42.222 42.3381C42.322 42.4451 42.414 42.5531 42.507 42.6611L42.648 42.5021C42.6704 42.4767 42.702 42.4613 42.7357 42.4593C42.7695 42.4572 42.8027 42.4686 42.828 42.4911C42.8533 42.5135 42.8687 42.545 42.8708 42.5788C42.8729 42.6125 42.8614 42.6457 42.839 42.6711L42.674 42.8571C42.7573 42.9577 42.8393 43.0577 42.92 43.1571C42.9435 43.1866 42.9576 43.2224 42.9606 43.26C42.9636 43.2975 42.9554 43.3352 42.937 43.3681L42.983 43.428C43.0314 43.3917 43.0875 43.3671 43.147 43.3561C43.2322 43.3393 43.3206 43.3516 43.398 43.3911C43.4386 43.2202 43.4344 43.0418 43.386 42.873C43.2409 42.5079 43.0243 42.1754 42.749 41.8951" fill="#8D4A1F"/>
<path d="M42.817 43.462C42.7865 43.47 42.7544 43.4704 42.7237 43.4631C42.693 43.4557 42.6646 43.4409 42.641 43.42C42.6327 43.4123 42.625 43.4039 42.618 43.395C42.553 43.311 42.484 43.227 42.418 43.144L42.291 43.287C42.2799 43.2995 42.2665 43.3097 42.2514 43.3169C42.2364 43.3242 42.2201 43.3285 42.2034 43.3294C42.1868 43.3304 42.1701 43.3281 42.1543 43.3226C42.1385 43.3171 42.124 43.3086 42.1115 43.2975C42.099 43.2864 42.0889 43.273 42.0816 43.2579C42.0743 43.2429 42.0701 43.2266 42.0691 43.2099C42.0681 43.1933 42.0704 43.1766 42.0759 43.1608C42.0814 43.145 42.0899 43.1305 42.101 43.118L42.253 42.947C42.1603 42.8377 42.0657 42.7297 41.969 42.623L41.841 42.767C41.8186 42.7923 41.787 42.8077 41.7533 42.8098C41.7195 42.8119 41.6863 42.8004 41.661 42.778C41.6357 42.7556 41.6203 42.724 41.6182 42.6903C41.6162 42.6565 41.6276 42.6233 41.65 42.598L41.796 42.434C41.696 42.334 41.596 42.226 41.496 42.123L41.367 42.269C41.3446 42.2943 41.313 42.3097 41.2793 42.3118C41.2455 42.3139 41.2123 42.3024 41.187 42.28C41.1617 42.2576 41.1463 42.226 41.1442 42.1923C41.1422 42.1585 41.1536 42.1253 41.176 42.1L41.317 41.941C41.217 41.841 41.117 41.741 41.01 41.641L40.882 41.785C40.8596 41.8103 40.828 41.8257 40.7943 41.8278C40.7605 41.8299 40.7273 41.8184 40.702 41.796C40.6767 41.7736 40.6613 41.742 40.6592 41.7083C40.6572 41.6745 40.6686 41.6413 40.691 41.616L40.823 41.468C40.7397 41.392 40.6553 41.3163 40.57 41.241L40.512 41.19L40.379 41.34C40.3683 41.3536 40.3549 41.3648 40.3397 41.373C40.3246 41.3812 40.3079 41.3862 40.2907 41.3877C40.2735 41.3892 40.2561 41.3872 40.2397 41.3819C40.2233 41.3765 40.2082 41.3678 40.1953 41.3563C40.1824 41.3449 40.1719 41.331 40.1645 41.3153C40.1572 41.2997 40.1531 41.2828 40.1525 41.2655C40.1519 41.2483 40.1548 41.2311 40.1611 41.215C40.1674 41.1989 40.1769 41.1843 40.189 41.172L40.32 41.024C40.211 40.932 40.101 40.84 39.99 40.751L39.843 40.917C39.8319 40.9295 39.8185 40.9397 39.8034 40.9469C39.7884 40.9542 39.7721 40.9585 39.7554 40.9594C39.7388 40.9604 39.7221 40.9581 39.7063 40.9526C39.6905 40.9471 39.676 40.9386 39.6635 40.9275C39.651 40.9164 39.6409 40.903 39.6336 40.8879C39.6263 40.8729 39.6221 40.8566 39.6211 40.8399C39.6201 40.8233 39.6224 40.8066 39.6279 40.7908C39.6334 40.775 39.6419 40.7605 39.653 40.748L39.791 40.593C39.6783 40.5044 39.565 40.4177 39.451 40.333L39.294 40.509C39.2829 40.5216 39.2695 40.5318 39.2544 40.5391C39.2393 40.5465 39.223 40.5508 39.2063 40.5518C39.1896 40.5528 39.1728 40.5505 39.157 40.5451C39.1411 40.5396 39.1265 40.5311 39.114 40.52C39.1015 40.5089 39.0912 40.4955 39.0839 40.4804C39.0766 40.4654 39.0722 40.449 39.0712 40.4323C39.0702 40.4156 39.0725 40.3988 39.0779 40.383C39.0834 40.3672 39.0919 40.3526 39.103 40.34L39.244 40.181C39.127 40.097 39.01 40.015 38.891 39.934L38.723 40.124C38.7006 40.1492 38.6691 40.1645 38.6354 40.1664C38.6018 40.1684 38.5687 40.1569 38.5435 40.1345C38.5183 40.1121 38.5031 40.0806 38.5011 40.0469C38.4991 40.0133 38.5106 39.9802 38.533 39.955L38.678 39.79C38.539 39.699 38.401 39.61 38.261 39.525C38.2293 39.5054 38.2041 39.477 38.1885 39.4432C38.1728 39.4095 38.1674 39.3718 38.173 39.335L38.055 39.265C37.9725 39.3209 37.8781 39.3567 37.7793 39.3696C37.6805 39.3824 37.58 39.372 37.486 39.339C37.4484 39.4614 37.4607 39.5936 37.52 39.707C37.5655 39.778 37.6215 39.8417 37.686 39.896C37.841 40.024 38.0047 40.1409 38.176 40.246L38.337 40.352C38.432 40.415 38.515 40.469 38.59 40.516C38.7563 40.6154 38.9136 40.7292 39.06 40.856C39.2716 41.0551 39.4549 41.2822 39.605 41.531C39.633 41.574 39.66 41.617 39.686 41.659C39.776 41.8133 39.8823 41.9574 40.003 42.089C40.028 42.115 40.059 42.142 40.091 42.171C40.2633 42.3256 40.4529 42.4598 40.656 42.571L40.782 42.635C40.9139 42.6947 41.0389 42.7685 41.155 42.855C41.3718 43.0487 41.575 43.2572 41.763 43.479C41.8779 43.6091 41.9998 43.733 42.128 43.85C42.182 43.8993 42.2398 43.9441 42.301 43.984C42.3941 44.0464 42.5001 44.0871 42.611 44.103C42.675 44.1029 42.7387 44.0935 42.8 44.075C42.7922 44.0498 42.7862 44.0241 42.782 43.998C42.7663 43.9189 42.7664 43.8375 42.7821 43.7584C42.7979 43.6793 42.8291 43.604 42.874 43.537L42.815 43.461" fill="#8D4A1F"/>
<path d="M41.7791 39.831C38.6231 37.031 33.9691 36.561 32.7791 37.909C31.4421 39.416 32.7321 44.129 35.7131 46.773C38.6941 49.417 43.5241 50.073 44.8321 48.598C46.1401 47.123 44.9391 42.63 41.7831 39.832M43.5071 43.532L43.4751 43.632L43.3981 43.567C43.3681 43.5396 43.3322 43.5196 43.2932 43.5085C43.2541 43.4974 43.213 43.4955 43.1731 43.503C43.0774 43.5351 42.9979 43.603 42.9513 43.6926C42.9047 43.7821 42.8946 43.8862 42.9231 43.983C42.9308 44.0238 42.9429 44.0637 42.9591 44.102L42.9871 44.169L42.9181 44.193C42.8184 44.2293 42.7132 44.2482 42.6071 44.249C42.4731 44.2308 42.3449 44.1826 42.2321 44.108C42.1652 44.0642 42.102 44.015 42.0431 43.961C41.9108 43.8404 41.785 43.7128 41.6661 43.579C41.4822 43.363 41.2845 43.1593 41.0741 42.969C40.9648 42.8908 40.8479 42.8238 40.7251 42.769L40.5991 42.705C40.3862 42.5894 40.1869 42.4502 40.0051 42.29C39.9701 42.259 39.9391 42.229 39.9111 42.201C39.7826 42.0628 39.6702 41.9105 39.5761 41.747L39.4961 41.622C39.3526 41.3837 39.1773 41.166 38.9751 40.975C38.8327 40.851 38.6798 40.7395 38.5181 40.642C38.4431 40.595 38.3601 40.542 38.2631 40.477C38.2111 40.441 38.1581 40.406 38.1031 40.371C37.9263 40.2617 37.7573 40.1405 37.5971 40.008C37.5213 39.9445 37.4559 39.8696 37.4031 39.786C37.359 39.7007 37.3343 39.6068 37.3307 39.5108C37.327 39.4149 37.3446 39.3194 37.3821 39.231L37.4111 39.167L37.4751 39.197C37.5663 39.2393 37.6679 39.2539 37.7672 39.2389C37.8666 39.224 37.9594 39.1802 38.0341 39.113C38.0608 39.0882 38.0824 39.0584 38.0975 39.0253C38.1126 38.9922 38.121 38.9564 38.1221 38.92C38.1133 38.8413 38.0781 38.768 38.0221 38.712L37.9581 38.642L38.0381 38.596C38.1464 38.5435 38.264 38.5129 38.3841 38.506C38.5043 38.4992 38.6246 38.5161 38.7381 38.556C39.1694 38.7459 39.573 38.9931 39.9381 39.291C40.1884 39.492 40.4671 39.6548 40.7651 39.774L40.9471 39.851C41.2181 39.9456 41.4733 40.0804 41.7041 40.251L41.7741 40.31C41.9925 40.5122 42.1682 40.756 42.2911 41.027L42.3041 41.053C42.4464 41.328 42.6288 41.5804 42.8451 41.802C43.1335 42.0975 43.3599 42.4477 43.5111 42.832C43.5745 43.0594 43.5713 43.3003 43.5021 43.526" fill="#8D4A1F"/>
</g>
<defs>
<clipPath id="clip0_27_549">
<rect width="322.349" height="112.216" fill="white"/>
</clipPath>
</defs>
</svg>
