<?xml version="1.0" encoding="utf-8"?>
<!-- Generator: Adobe Illustrator 16.2.0, SVG Export Plug-In . SVG Version: 6.00 Build 0)  -->
<!DOCTYPE svg PUBLIC "-//W3C//DTD SVG 1.1//EN" "http://www.w3.org/Graphics/SVG/1.1/DTD/svg11.dtd" [
	<!ENTITY ns_flows "http://ns.adobe.com/Flows/1.0/">
	<!ENTITY ns_extend "http://ns.adobe.com/Extensibility/1.0/">
	<!ENTITY ns_ai "http://ns.adobe.com/AdobeIllustrator/10.0/">
	<!ENTITY ns_graphs "http://ns.adobe.com/Graphs/1.0/">
]>
<svg version="1.1" id="Layer_1" xmlns:x="&ns_extend;" xmlns:i="&ns_ai;" xmlns:graph="&ns_graphs;"
	 xmlns="http://www.w3.org/2000/svg" xmlns:xlink="http://www.w3.org/1999/xlink" xmlns:a="http://ns.adobe.com/AdobeSVGViewerExtensions/3.0/"
	 x="0px" y="0px" width="114px" height="114px" viewBox="0 0 114 114" enable-background="new 0 0 114 114" xml:space="preserve">
<g>
	<rect x="89.443" y="23.885" fill="#006699" width="1.393" height="7.581"/>
	<polygon fill="#006699" points="89.229,21.396 87.982,14.317 78.096,25.198 88.605,22.646 	"/>
	<polygon fill="#006699" points="91.682,22.752 98.868,25.743 88.334,14.317 90.093,21.25 	"/>
	<polygon fill="#006699" points="89.203,22.697 90.923,22.697 89.792,21.545 	"/>
	<polygon fill="#006699" points="89.01,32.555 89.01,31.75 78.064,34.054 78.326,34.76 	"/>
	<polygon fill="#006699" points="90.792,31.725 89.422,31.725 89.443,32.523 90.814,32.542 	"/>
	<polygon fill="#006699" points="91.248,31.78 91.248,32.562 98.781,35.273 99.021,34.716 99.021,34.494 	"/>
	<polygon fill="#006699" points="78.646,35.824 89.01,33.793 89.038,33.173 78.298,35.279 	"/>
	<polygon fill="#006699" points="89.385,33.768 90.836,33.768 90.836,33.173 89.414,33.173 	"/>
	<polygon fill="#006699" points="91.27,33.818 98.411,36.343 98.702,35.874 91.27,33.199 	"/>
	<polygon fill="#006699" points="78.719,37.668 78.674,38.003 78.818,37.807 88.98,35.949 88.98,35.576 78.762,37.483 	"/>
	<polygon fill="#006699" points="91.327,35.924 98.236,38.4 98.221,38.078 91.327,35.602 	"/>
	<polygon fill="#006699" points="89.43,35.899 90.809,35.936 90.822,35.588 89.443,35.576 	"/>
	<rect x="89.438" y="36.469" fill="#006699" width="1.277" height="24.502"/>
	<path fill="#006699" d="M91.945,28.66c0,0,0.131-0.91,0.697-0.466c0,0,0.35,0.168,0.369,1.042l0.021,2.905l0.627,0.226
		l-0.103-3.038c0,0,0.045-0.836,0.502-0.689c0.457,0.151,0.5,0.54,0.5,0.801v3.252l0.672,0.243l-0.041-3.216
		c0,0,0.349-1.041,0.957-0.039v3.587l2.004,0.725l-0.088-7.283l-6.881-2.75l0.059,7.532l0.705,0.255V28.66z"/>
	<polygon fill="#006699" points="84.027,43.216 84.404,43.336 85.198,42.187 84.329,42.949 82.303,42.726 84.039,43.205 	"/>
	<path fill="#006699" d="M78.878,60.982H88.98V36.517l-10.248,1.858L78.878,60.982z M81.96,42.377
		c0.455-1.306,1.856-2.103,3.136-1.778c1.278,0.323,1.946,1.642,1.492,2.948c-0.453,1.304-1.855,2.101-3.134,1.777
		C82.176,45.002,81.508,43.681,81.96,42.377z"/>
	<path fill="#006699" d="M91.27,36.567l-0.022,24.404h6.969L98.21,38.894L91.27,36.567z M94.795,45.491
		c-0.932,0.148-1.917-0.8-2.204-2.118c-0.288-1.317,0.232-2.505,1.161-2.653c0.93-0.148,1.916,0.802,2.203,2.118
		C96.243,44.156,95.725,45.344,94.795,45.491z"/>
	<polygon fill="#006699" points="93.1,42.776 94.338,43.254 94.33,43.264 94.6,43.384 95.165,42.235 94.546,43 	"/>
	<path fill="#006699" d="M87.288,28.194l0.063,3.617l1.658-0.345v-7.581L78.82,26.262l-0.174,7.36l2.736-0.57l-0.123-3.61
		c0,0,0.676-1.078,1.416-0.056v3.398l1.08-0.225l-0.125-3.639c0,0,0.676-1.077,1.414-0.056v3.427l1.107-0.23l-0.105-3.792
		C86.047,28.269,86.678,27.416,87.288,28.194z"/>
</g>
<path opacity="0.6" fill="#006699" enable-background="new    " d="M84.615,70.379c0,0-6.113-0.318-8.406,1.592
	c0,0,7.77,3.693,11.016,16.62c0,0,2.484,9.935,1.146,18.021c0,0,8.598-6.176,11.08-10.188c0,0,0.445-9.169-4.202-18.147
	C95.249,78.275,90.854,71.079,84.615,70.379z"/>
<path fill="#006699" d="M0.597,67.473c0.716,3.773,0.74,3.463,0.74,3.463c9.679,1.211,19.979,15.045,19.979,15.045
	c6.941,8.789,6.178,21.461,6.178,21.461c5.444,3.438,12.417,5.604,13.246,5.857c0.827,0.256,2.61,0.701,2.61,0.701
	c11.08-32.73,28.019-40.691,28.019-40.691c7.896-4.395,12.418-3.631,12.418-3.631c16.304,1.465,16.621,25.982,16.621,25.982
	c4.139-4.861,6.977-9.911,8.917-14.42l0.38-10.479c0,0,1.172-4.8,3.634-3.504c0.068-0.524,0.093-0.812,0.093-0.812h-0.064
	l0.542-4.154h-3.347l-0.062-2.389c0.159-0.764-0.509-0.987-0.509-0.987l-3.949-0.126c-1.241,0-1.367,0.7-1.367,0.7v2.802H91.674
	l0.072-2.197c0.097-1.051-1.146-1.433-1.146-1.433l-2.197-0.095c-0.764-0.191-1.719,1.05-1.719,1.05l-0.179,2.675H40.261v-5.54
	c-0.669-2.866-3.678-2.675-3.678-2.675l-3.486,0.047c-2.627-0.095-2.866,2.053-2.866,2.053l-0.089,6.114H19.673
	c-0.616-0.364-1.159-0.923-1.159-0.923l-0.159-3.534c-0.127-2.133-2.387-2.167-2.387-2.167h-2.739
	c-2.07-0.222-2.675,1.657-2.675,1.657l-0.126,3.407c0.02,0.672-0.735,1.246-1.25,1.56L0,62.314c0.207,2.795,0.453,4.18,0.453,4.18
	 M10.746,62.195c0,0,0.859-0.445,0.859-1.146l0.032-1.847c0,0,0.891-1.719,1.496-0.382v0.128l0.096,2.93
	c0,0,0.159,0.158,0.414,0.224L10.746,62.195z M15.299,62.26v-2.93c0,0,0.7-1.4,1.463-0.159l0.033,3.024L15.299,62.26z M8.581,71.686
	c0,0-0.51-0.319-1.37-0.766c0,0,1.115-2.833,4.744-2.195c0,0,3.248,0.635,3.757,3.438c0,0,0.573,2.484,0.382,3.758l-5.413-3.186
	 M26.729,74.518l-0.191,9.489c0,0-5.54-5.095-8.214-6.623c0,0-0.064-3.184,0.254-4.841c0,0,0.446-3.12,2.802-3.757
	c0,0,2.102-0.828,3.885,0.573C25.265,69.359,27.048,70.123,26.729,74.518z M33.24,59.521c-0.143-0.191-0.047-0.717-0.429-0.336
	c0,0-0.524,0.383-0.382,3.152h-1.051l0.048-3.678c0,0,0.526-1.337,1.719-0.43C33.145,58.232,33.403,59.738,33.24,59.521z
	 M35.916,62.102l0.095-5.159c0,0,0.047-1.003,1.05-0.86c0,0,0.86-0.286,1.099,0.717l0.048,5.205L35.916,62.102z M87.415,59.761
	c0,0,0.655-1.104,1.374-0.125l0.029,2.384l-1.403,0.049V59.761z M41.057,108.777l-0.763-40.118c0,0,0.254-0.892,2.229-0.19
	c0,0,1.783,0.7,1.783,5.604l0.127,26.936L41.057,108.777z M51.755,88.209l-4.966,9.17V71.396c0,0,0.574-5.03,3.184-3.502
	c0,0,1.336,0.638,1.782,5.285V88.209z M53.729,86.234l-0.127-12.99c0.127-4.585,0.955-5.413,0.955-5.413
	c3.312-1.465,3.886,2.93,3.886,2.93l0.063,9.044C57.041,80.759,53.729,86.234,53.729,86.234z M64.428,73.816
	c0,0-2.42,1.527-4.457,4.14l-0.063-7.769c0,0,0.892-4.141,3.438-2.356c0,0,1.147,1.21,1.147,2.356L64.428,73.816z M69.968,69.807
	c-1.272,0.316-4.139,2.928-4.139,2.928v-2.547c0.19-3.438,2.292-3.185,2.292-3.185C70.35,66.939,69.968,69.807,69.968,69.807z
	 M91.428,69.997c-0.826-0.446-2.291-1.147-2.291-1.147l0.256-1.719c1.336-1.211,2.035,0.573,2.035,0.573V69.997z M92.255,70.889
	l-0.063-2.738c0,0,0.83-2.993,2.549-0.765l0.128,5.73C94.867,73.116,93.083,71.334,92.255,70.889z M97.986,77.191
	c-0.317-0.827-2.355-3.119-2.355-3.119v-5.286c-0.128-2.42,1.273-2.356,1.273-2.356c1.082,0,1.082,1.975,1.082,1.975V77.191z
	 M98.561,78.083l0.063-9.358c0.128-2.677,0.892-2.484,0.892-2.484c1.655-0.191,1.401,2.609,1.401,2.609l0.063,13.564
	C100.725,81.714,98.561,78.083,98.561,78.083z M103.209,87.189c-0.191-0.573-1.593-3.885-1.593-3.885l-0.063-12.609
	c0-3.118,0.51-3.883,0.51-3.883c1.465-1.274,1.656,1.592,1.656,1.592L103.209,87.189z M106.934,61.209v0.979l-1.209,0.008v-1.112
	c0,0,0.414-0.767,1.307-0.319c0,0,0.668,0.414,0.732,1.115C107.764,61.878,107.157,60.922,106.934,61.209z M109.546,62.251
	l-0.01-1.584c0.397-0.312,0.796,0.118,0.796,0.118l0.041,1.458L109.546,62.251z"/>
<g>
	<path fill="#006699" d="M56.34,104.318c0,0,4.014,1.021,8.152-0.254c0,0,5.794-0.828,7.576,0.637c0,0-1.719-2.036-8.469-1.273
		C63.602,103.428,59.461,104.384,56.34,104.318z"/>
	<path fill="#006699" d="M66.848,104.639c0,0,5.478-0.255,7.643,0.764c0,0,2.929,0.957,5.667,0.129c0,0,4.841-1.083,5.795,0.063
		c0,0-1.146-0.699-7.832,0.956c0,0-3.375,0.319-5.095-0.637C73.025,105.912,71.307,104.766,66.848,104.639z"/>
	<path fill="#006699" d="M49.208,107.25c0,0,4.585-2.994,11.78-0.32c0,0,2.166,1.529,10.316-0.254c0,0-6.24,4.648-13.883,0.955
		C57.423,107.631,55.321,105.467,49.208,107.25z"/>
	<path fill="#006699" d="M56.34,101.773c0,0,0.924,0.945,4.648,0.422c0,0,1.339-0.387,2.962-0.168c1.6,0.215,2.86,0.279,4.489-0.318
		c0,0,2.166-0.637,4.267,0.637c0,0,1.584,1.139,5.142-0.461c0,0,2.055-0.431,3.264,0.906c0,0-0.971-2.173-3.819-1.273
		c0,0-1.281,0.924-3.573,0.416c0,0-3.152-1.744-5.779-0.692c0,0-2.125,0.477-3.317,0.342c0,0-2.149-0.558-4.269,0.063
		C60.354,101.646,59.525,102.154,56.34,101.773z"/>
	<path fill="#006699" d="M65.383,112.854c0,0,7.833-0.381,16.174-4.14c0,0-3.883,0.638-7.387,1.783
		c-3.501,1.146-12.416,0.827-14.646,0C59.523,110.497,60.033,112.917,65.383,112.854z"/>
	<path fill="#006699" d="M46.597,109.605c0,0,2.547-1.211,5.477,0.445c0,0,3.63,1.846,5.095,0.317c0,0-1.465,0.192-3.567-1.209
		c0,0-1.592-1.339-4.267-0.829C49.335,108.331,48.572,108.204,46.597,109.605z"/>
	<path fill="#006699" d="M49.923,103.335c0,0,2.334-0.94,4.505,0.026c2.172,0.969,5.161-0.11,5.161-0.11s-2.212,0.69-4.751-0.442
		C54.837,102.809,51.848,101.398,49.923,103.335z"/>
	<path fill="#006699" d="M54.225,113.627c0,0,1.458-0.587,2.815,0.018c1.354,0.604,3.226-0.067,3.226-0.067s-1.383,0.432-2.97-0.277
		C57.295,113.299,55.428,112.418,54.225,113.627z"/>
	<path fill="#006699" d="M54.354,100.3c0,0,1.096-0.44,2.112,0.013c1.018,0.455,2.419-0.052,2.419-0.052s-1.035,0.324-2.227-0.206
		C56.659,100.055,55.257,99.393,54.354,100.3z"/>
</g>
<g>
	<path fill="#006699" d="M36.83,34.213c-8.384,0.338-14.431,1.815-14.998,5.339c-0.398,2.477,6.98,4.265,15.364,3.926
		c8.384-0.336,14.878-2.643,14.999-5.148C52.345,35.217,45.215,33.876,36.83,34.213z M37.262,42.709
		c-8.123,0.327-14.586-1.297-14.672-3.433c-0.086-2.136,6.239-3.977,14.362-4.304c8.123-0.326,13.826,1.068,13.912,3.205
		C50.95,40.314,45.385,42.382,37.262,42.709z"/>
	<path fill="#006699" d="M3.677,60.482c0,0,11.271-9.505,14.806-14.807c0,0,4.632-5.636,2.866-7.259c0,0-1.721-2.197,0.811-3.63
		c0,0-1.099,1.529-0.287,2.436c0,0,1.798,2.882-1.513,7.658c0,0-3.947,6.305-16.157,15.602H3.677L3.677,60.482z"/>
	<path fill="#006699" d="M24.214,33.594c0,0,10.03-6.974,10.698-7.595c0,0,2.006,0.479,2.961-0.143l11.128,6.447
		c0,0-8.119-3.82-11.08-5.636c0,0-1.863,0.622-2.674,0.047C35.247,26.715,27.365,31.826,24.214,33.594z"/>
	<path fill="#006699" d="M51.915,38.513c0,0,13.468,17.448,26.22,21.682c0,0-7.849-1.049-17.527-10.937
		c0,0-8.213-8.119-9.217-10.077L51.915,38.513z"/>
	<path fill="#006699" d="M29.702,32.278c0,0,4.317-3.831,5.802-5.974l-0.02,0.559C35.483,26.862,34.08,28.891,29.702,32.278z"/>
	<polygon fill="#006699" points="41.766,31.181 37.789,26.611 38.234,26.603 	"/>
	<path fill="#006699" d="M38.081,26.699c0,0,5.014,3.854,6.733,4.745l-6.049-4.966L38.081,26.699z"/>
	<path fill="#006699" d="M34.752,26.667c0,0-4.203,3.344-7.195,5.796c0,0,6.654-4.554,7.69-5.749L34.752,26.667z"/>
	<polygon fill="#006699" points="37.506,26.568 40.064,31.062 40.277,31.028 37.806,26.397 	"/>
	<polygon fill="#006699" points="35.645,26.763 32.492,31.349 32.587,31.349 35.994,26.795 	"/>
	<path fill="#006699" d="M36.25,26.7l-2.197,4.68l0.158-0.031c0,0,2.198-4.108,2.229-4.554L36.25,26.7z"/>
	<path fill="#006699" d="M37.236,26.795c0,0,1.019,3.693,1.273,4.234c0,0-0.827-1.497-1.463-4.139L37.236,26.795z"/>
	
		<rect x="37.925" y="26.327" transform="matrix(-0.9974 0.0717 -0.0717 -0.9974 79.6921 84.457)" fill="#006699" width="0.81" height="34.664"/>
	
		<rect x="34.899" y="26.469" transform="matrix(-0.9993 -0.0383 0.0383 -0.9993 68.9963 88.2688)" fill="#006699" width="0.891" height="34.006"/>
	<path fill="#006699" d="M44.559,34.979c0,0,9.266,20.632,23.976,26.458c0,0-13.755-6.399-23.498-26.458H44.559z"/>
	<path fill="#006699" d="M42.745,34.692c0,0,7.928,21.683,14.806,26.458h0.668c0,0-5.731-2.197-15.092-26.458H42.745z"/>
	<path fill="#006699" d="M39.974,34.597c0,0,3.344,16.333,7.26,26.459h0.477c0,0-2.817-5.494-7.164-26.557L39.974,34.597z"/>
	<path fill="#006699" d="M29.563,35.296c0,0-0.812,10.906-14.52,25.409h0.446c0,0,13.071-13.262,14.711-25.6L29.563,35.296z"/>
	<path fill="#006699" d="M27.017,35.997c0,0-3.71,11.542-19.933,24.517h0.573c0,0,16.318-12.974,19.995-24.771L27.017,35.997z"/>
	<path fill="#006699" d="M34.238,34.665c0,0-2.038,16.548-5.141,26.952l-0.476,0.037c0,0,2.373-5.697,5.037-27.04L34.238,34.665z"/>
	<path fill="#006699" d="M31.76,35.121c0,0-1.768,13.277-9.79,25.695h0.286c0,0,8.167-12.274,9.886-25.743L31.76,35.121z"/>
	<path fill="#006699" d="M52.32,36.092c0.057-0.122,0.104-0.244,0.13-0.367c0.163-0.517,0.132-0.746,0.132-0.746
		c-0.811-2.723-5.921-3.343-5.921-3.343C41.455,30.06,32.429,31.3,32.429,31.3c-2.782,0.375-4.887,0.906-6.474,1.467
		c-2.923,0.849-4.771,2.12-5.077,3.94c-0.416,2.464,7.264,4.243,15.991,3.908c6.722-0.259,12.272-1.679,14.528-3.457l0.23,0.305
		C51.961,36.903,52.177,36.451,52.32,36.092z M36.939,39.847c-8.456,0.326-14.802-1.29-14.891-3.414
		c-0.036-0.869,0.979-1.689,2.768-2.377c1.494-0.55,2.883-0.75,2.883-0.75c2.072-0.455,4.028-0.762,5.834-0.964
		c0.987-0.086,2.016-0.151,3.082-0.191c8.454-0.325,14.391,1.063,14.48,3.189c0.013,0.29-0.089,0.578-0.289,0.863
		c-0.052,0.041-0.085,0.065-0.085,0.065l0.02,0.026C49.368,38.049,44.113,39.572,36.939,39.847z"/>
	<path fill="#006699" d="M38.087,25.482c0,0.39-0.315,0.705-0.705,0.705H35.43c-0.389,0-0.705-0.315-0.705-0.705l0,0
		c0-0.391,0.316-0.706,0.705-0.706h1.953C37.772,24.776,38.087,25.091,38.087,25.482L38.087,25.482z"/>
	<path fill="#006699" d="M37.909,24.901c-0.114-0.243-0.83-0.463-1.61-0.389c-0.779,0.074-1.391,0.352-1.365,0.618
		c0.025,0.268,0.677,0.425,1.458,0.35C37.169,25.405,38.524,26.202,37.909,24.901z"/>
</g>
<path opacity="0.6" fill="#006699" enable-background="new    " d="M1.831,71.907c0,0,7.132,0.126,18.467,13.817
	c0,0,6.75,7.705,6.432,21.27c0,0-7.96-5.285-13.118-11.398C13.612,95.596,12.592,79.422,1.831,71.907z"/>
<g id="Layer_2">
</g>
</svg>
