<?xml version="1.0" encoding="utf-8"?>
<!-- Generator: Adobe Illustrator 16.2.0, SVG Export Plug-In . SVG Version: 6.00 Build 0)  -->
<!DOCTYPE svg PUBLIC "-//W3C//DTD SVG 1.1//EN" "http://www.w3.org/Graphics/SVG/1.1/DTD/svg11.dtd" [
	<!ENTITY ns_flows "http://ns.adobe.com/Flows/1.0/">
	<!ENTITY ns_extend "http://ns.adobe.com/Extensibility/1.0/">
	<!ENTITY ns_ai "http://ns.adobe.com/AdobeIllustrator/10.0/">
	<!ENTITY ns_graphs "http://ns.adobe.com/Graphs/1.0/">
]>
<svg version="1.1" id="Layer_1" xmlns:x="&ns_extend;" xmlns:i="&ns_ai;" xmlns:graph="&ns_graphs;"
	 xmlns="http://www.w3.org/2000/svg" xmlns:xlink="http://www.w3.org/1999/xlink" xmlns:a="http://ns.adobe.com/AdobeSVGViewerExtensions/3.0/"
	 x="0px" y="0px" width="178px" height="11px" viewBox="0 0 178 11" enable-background="new 0 0 178 11" xml:space="preserve">
<path opacity="0.4" fill="#006699" enable-background="new    " d="M11.411,10.846c0,0,4.208-2.24,5.355-2.672
	c0,0,0.602-0.354,1.526-0.346c1.21,0.012,1.589,0.148,2.19,0.109c0,0,2.623-1.416,6.448-2.122c0,0,0.711-0.311,3.061-0.943
	c2.133-0.575,3.579-1.395,8.021-0.734c0.67,0.1,0.968-0.071,2.252,0.027c0,0,3.607-0.628,5.137-1.101c0,0,3.989-1.238,4.591-0.865
	l4.7,1.65c0,0,0.546,0.158,2.514-0.393c0,0,7.104-2.594,7.651-2.751c0,0,1.425-0.739,2.62-0.705
	c0.797,0.023,1.752,0.391,3.283,0.941c0,0,8.744,2.987,12.023,3.694c0,0,0.902,0.093,3.333,0.314
	c0.948,0.086,2.355-0.131,3.648,0.259c1.681,0.507,2.979,0.435,4.822,0.762c0,0,1.012-0.304,2.433-0.609
	c0.274-0.059,1.425-0.491,1.788-0.481c1.09,0.029,2.466,0.321,3.432,0.619c0,0,3.799-0.137,8.064-0.789
	c1.42-0.216,2.852,0.074,3.958,0.396c0,0,0.71,0.374,2.76-0.51c0,0,1.065-0.531,1.886-0.649c1.045-0.149,1.477,0.413,3.442,0.845
	c0,0,2.296,0.394,4.481-0.55c0,0,4.152-1.886,5.684-1.021c0,0,7.434,3.066,8.417,3.144c0,0,1.749,0.314,2.95,0.314
	c0,0,3.143,0.275,5.574,0.707c0,0,3.824,0.393,5.027,0.236c0,0,1.858-0.551,3.389-0.629c1.129-0.059,1.858,0.393,3.607,0.707
	c0,0,1.857,0.156,2.995,0.277c0.854,0.088,1.267,0.43,2.579,0.902c0,0,5.465,0.863,7.104,2.043L11.411,10.846z"/>
<g>
	<polygon fill="#006699" points="9.487,10.428 9.482,10.424 9.482,10.424 	"/>
	<path fill="#006699" d="M168.159,10.252c0.045,0,0.088,0.08,0.129,0.131c0.004-0.068,0.01-0.131,0.016-0.131
		C168.253,10.252,168.208,10.252,168.159,10.252z"/>
	<path fill="#006699" d="M170.706,10.984h4.767L175.491,11 M175.958,10.984h1.737h0.109h0.163c-0.032-0.024-0.055-0.045-0.055-0.045
		c0.044,0.002,0.087-0.019,0.087-0.019c-0.037-0.017-0.108-0.076-0.108-0.076c0.056,0,0.058-0.014,0.058-0.014
		c-0.048-0.023-0.099-0.076-0.099-0.076c0.018-0.004,0.02-0.015,0.02-0.015c-0.018-0.016-0.138-0.106-0.138-0.106
		c-0.063,0.038-0.141,0.111-0.141,0.111c0.015,0.009,0.031,0.01,0.031,0.01c-0.011,0.022-0.041,0.047-0.065,0.064
		c-0.046-0.028-0.09-0.058-0.112-0.083c0,0,0.116-0.003,0.141-0.015c0,0-0.197-0.094-0.211-0.132c0,0,0.059,0,0.119-0.017
		c0,0-0.105-0.034-0.131-0.077c0,0,0.025,0.002,0.058-0.012c0,0-0.114-0.051-0.137-0.093c0,0,0.022-0.002,0.04-0.01
		c0,0-0.101-0.08-0.186-0.12c0,0-0.159,0.099-0.182,0.113c0,0,0.003,0.013,0.024,0.015c0,0-0.064,0.058-0.129,0.082
		c0,0,0.004,0.016,0.074,0.016c0,0-0.094,0.063-0.143,0.079c0,0,0.056,0.023,0.113,0.021c0,0-0.064,0.048-0.157,0.092
		c-0.038-0.027-0.104-0.079-0.112-0.105c0,0,0.037,0,0.078-0.017c0,0-0.068-0.033-0.085-0.074c0,0,0.017,0.001,0.037-0.012
		c0,0-0.074-0.048-0.087-0.089c0,0,0.013-0.002,0.023-0.01c0,0-0.063-0.075-0.12-0.114c0,0-0.103,0.094-0.115,0.109
		c0,0,0.002,0.012,0.016,0.015c0,0-0.042,0.054-0.083,0.077c0,0,0.002,0.016,0.049,0.016c0,0-0.061,0.059-0.093,0.076
		c0,0,0.037,0.021,0.074,0.021c0,0-0.043,0.047-0.105,0.089c-0.022-0.014-0.057-0.033-0.067-0.058c0,0,0.019,0.001,0.042-0.012
		c0,0-0.083-0.046-0.098-0.082c0,0,0.015-0.004,0.027-0.01c0,0-0.073-0.071-0.132-0.108c0,0-0.114,0.089-0.13,0.103
		c0,0,0.002,0.012,0.018,0.016c0,0-0.046,0.051-0.093,0.073c0,0,0.003,0.015,0.056,0.015c0,0-0.067,0.056-0.104,0.072
		c0,0,0.042,0.021,0.082,0.018c0,0-0.048,0.042-0.111,0.079c-0.057-0.049-0.125-0.103-0.198-0.155
		c-0.008-0.007-0.075-0.06-0.134-0.088c0,0-0.057,0.037-0.098,0.063c-0.154-0.067-0.195-0.118-0.195-0.118
		c-0.072,0.062-0.128,0.082-0.17,0.091c-0.047-0.035-0.094-0.068-0.146-0.106c0.084-0.005,0.13-0.006,0.183-0.008
		c-0.104-0.072-0.201-0.136-0.299-0.198c0.033-0.012,0.052-0.017,0.057-0.019c-0.06-0.066-0.112-0.128-0.159-0.183
		c-0.068,0.049-0.146,0.104-0.225,0.156c-0.007,0.006-0.023,0.014-0.021,0.016c0.071,0.06-0.055,0.075-0.091,0.11
		c-0.019,0.019-0.054,0.032-0.096,0.055c0.066,0.004,0.107,0.008,0.193,0.014c-0.081,0.04-0.154,0.074-0.223,0.107
		c-0.063-0.073-0.13-0.168-0.134-0.229c0,0,0.098-0.029,0.171,0.009c0,0-0.188-0.157-0.198-0.271c0,0,0.082-0.021,0.135,0
		c0,0-0.078-0.04-0.145-0.192c0,0-0.048-0.094-0.089-0.138c0,0-0.065,0.096-0.105,0.188c0,0-0.068,0.126-0.099,0.137
		c0,0,0.01,0.023,0.084,0.015c0,0-0.006,0.1-0.155,0.261c0,0,0.11,0.025,0.147,0.014c0,0-0.064,0.171-0.159,0.271
		c-0.049-0.022-0.132-0.065-0.141-0.085c0,0,0.049,0,0.102-0.016c0,0-0.089-0.027-0.109-0.062c0,0,0.021,0.002,0.048-0.01
		c0,0-0.096-0.04-0.113-0.074c0,0,0.019-0.001,0.032-0.008c0,0-0.085-0.063-0.154-0.096c0,0-0.136,0.077-0.152,0.091
		c0,0,0.003,0.01,0.021,0.013c0,0-0.055,0.046-0.108,0.064c0,0,0.003,0.014,0.063,0.014c0,0-0.025,0.016-0.058,0.033
		c-0.175,0.055-0.324,0.014-0.324,0.014l0,0c-0.014-0.008-0.031-0.015-0.037-0.023c0,0,0.02-0.001,0.035-0.007
		c0,0-0.088-0.054-0.163-0.081c0,0-0.14,0.068-0.159,0.077c0,0,0.004,0.009,0.021,0.011c0,0-0.059,0.039-0.114,0.056
		c0,0,0.007,0.009,0.063,0.011c-0.11,0.043-0.23,0.084-0.314,0.113c-0.07-0.039-0.139-0.077-0.215-0.119
		c0.099-0.003,0.152-0.005,0.217-0.006c-0.128-0.063-0.239-0.12-0.354-0.177c0.039-0.009,0.06-0.015,0.064-0.016
		c-0.068-0.06-0.132-0.113-0.188-0.161c-0.068,0.037-0.146,0.077-0.225,0.118l-0.271-0.594l-0.172,0.549
		c0,0.008-0.001,0.058-0.005,0.058c0.001,0,0.003,0,0.004,0l-0.073,0.176l-0.108-0.078l-0.336,0.257l-0.13-0.095l-0.138,0.102
		l-0.398-0.426l-0.35,0.273l-0.126-0.062l0.11-0.004l-0.295-0.365l-0.282,0.365l0.125,0.005l-0.182,0.104l-0.137-0.082l-0.124,0.11
		l-0.033-0.03c0.001-0.044,0.002-0.08,0.002-0.08c-0.021,0.013-0.047-0.01-0.069-0.039c-0.002,0.02-0.003,0.036-0.004,0.053
		l-0.087-0.08l-0.125,0.239l-0.039,0.01l-0.285-0.2c0.002,0,0.006-0.002,0.006-0.002c-0.021-0.011-0.035-0.021-0.056-0.032
		l-0.125-0.09c0.185,0.047,0.197,0.012,0.197,0.012l-0.172-0.177l0.131,0.007l-0.372-0.287l-0.253,0.246l0.088-0.006l-0.226,0.181
		c-0.064-0.05-0.112-0.102-0.112-0.102c0.047,0.003,0.096-0.027,0.096-0.027c-0.042-0.023-0.118-0.104-0.118-0.104
		c0.059,0,0.062-0.02,0.062-0.02c-0.053-0.032-0.104-0.106-0.104-0.106c0.018-0.006,0.02-0.019,0.02-0.019
		c-0.016-0.021-0.147-0.148-0.147-0.148c-0.068,0.052-0.15,0.155-0.15,0.155c0.015,0.011,0.032,0.014,0.032,0.014
		c-0.019,0.054-0.113,0.12-0.113,0.12c0.026,0.017,0.049,0.016,0.049,0.016c-0.022,0.056-0.106,0.101-0.106,0.101
		c0.051,0.023,0.098,0.023,0.098,0.023c-0.01,0.032-0.088,0.1-0.137,0.138l-0.23-0.09l-0.159,0.186l-0.057-0.027v-0.112h-0.126
		l-0.067-0.048l-0.088,0.048h-0.234c-0.002-0.003-0.006-0.009-0.008-0.012c0,0,0.05,0,0.101-0.021c0,0-0.087-0.043-0.108-0.094
		c0,0,0.021,0.003,0.05-0.015c0,0-0.097-0.062-0.113-0.112c0,0,0.019-0.004,0.032-0.012c0,0-0.082-0.098-0.152-0.146
		c0,0-0.133,0.12-0.15,0.138c0,0,0.004,0.016,0.021,0.019c0,0-0.055,0.069-0.105,0.1c0,0,0.002,0.018,0.062,0.018
		c0,0-0.077,0.076-0.117,0.098c0,0,0.046,0.027,0.095,0.025c0,0-0.012,0.011-0.015,0.014h-0.207l-0.349-0.319l-0.293,0.32h-0.239
		v0.128c0-0.045-0.085-0.088-0.142-0.138c0.098-0.003,0.161-0.005,0.223-0.008c-0.124-0.097-0.23-0.181-0.339-0.268l0.064-0.024
		l-0.243-0.314l-0.364,0.401l0.098,0.005l-0.227,0.176l0.265-0.036c-0.094,0.054-0.175,0.098-0.257,0.144l-0.316-0.269l-0.239,0.2
		c-0.081-0.1-0.163-0.214-0.17-0.292c0,0,0.087,0.016,0.258,0.013c0,0-0.281-0.225-0.297-0.386c0,0,0.122-0.029,0.198,0
		c0,0-0.116-0.058-0.212-0.274c0,0-0.067-0.132-0.132-0.193c0,0-0.098,0.136-0.155,0.264c0,0-0.101,0.179-0.145,0.196
		c0,0,0.015,0.033,0.126,0.021c0,0-0.01,0.141-0.233,0.368c0,0,0.165,0.037,0.219,0.022c0,0-0.048,0.115-0.121,0.235l-0.293-0.37
		l-0.269,0.373c-0.043-0.046-0.084-0.095-0.104-0.137c0,0,0.116-0.007,0.142-0.027c0,0-0.193-0.163-0.212-0.229
		c0.006-0.001,0.01-0.003,0.016-0.004c0.011,0,0.027-0.006,0.053-0.012c0.053-0.016,0.104-0.017,0.156-0.04l-0.276-0.318
		c0.001,0,0.001,0,0.001,0s-0.103-0.141-0.187-0.213c0,0-0.105,0.114-0.153,0.171l-0.3,0.335c0,0,0.042,0.019,0.104,0.04
		c0.008,0.007,0.058,0.038,0.109,0.035c0,0-0.091,0.127-0.218,0.206c0,0,0.091,0.038,0.13,0.05c0,0-0.038,0.049-0.085,0.104
		c-0.05-0.037-0.191-0.138-0.203-0.186c0,0,0.061,0,0.123-0.025c0,0-0.107-0.055-0.136-0.118l0.189,0.045l-0.446-0.442l-0.392,0.275
		l0.13-0.002l-0.186,0.193l0.195,0.015c0.004,0.001,0.01,0.001,0.015,0.002c-0.095,0.049-0.211,0.119-0.313,0.184
		c-0.094-0.095-0.185-0.188-0.285-0.294c0.116-0.005,0.185-0.009,0.259-0.012c-0.116-0.109-0.219-0.205-0.322-0.303l0.253-0.013
		l-0.475-0.577c0,0-0.412,0.48-0.476,0.537c0,0,0.063,0.05,0.228,0l-0.441,0.265l0.254,0.045c-0.12,0.08-0.23,0.154-0.338,0.227
		l-0.307-0.386l-0.426,0.24c-0.109-0.078-0.251-0.188-0.269-0.247c0,0,0.106,0,0.219-0.046c0,0-0.189-0.089-0.237-0.199
		c0,0,0.024-0.002,0.058-0.012c0.062-0.006,0.112-0.014,0.141-0.026c0,0-0.152-0.186-0.443-0.428c-0.054-0.05-0.109-0.1-0.167-0.138
		c0,0-0.172,0.149-0.271,0.237l-0.294,0.258c0,0,0.003,0.04,0.057,0.067c0.001,0.001,0.003,0.001,0.005,0.001
		c0.021,0.012,0.057,0.016,0.104,0.017c0.005,0.001,0.005,0.003,0.011,0.003c0,0-0.171,0.161-0.265,0.204
		c0,0,0.106,0.061,0.211,0.055c0,0-0.138,0.148-0.335,0.261c-0.088,0.038-0.168,0.063-0.231,0.078
		c-0.044-0.034-0.083-0.07-0.083-0.07c0.071,0,0.075-0.021,0.075-0.021c-0.065-0.036-0.131-0.118-0.131-0.118
		c0.021-0.004,0.024-0.021,0.024-0.021c-0.021-0.022-0.181-0.164-0.181-0.164c-0.085,0.058-0.186,0.172-0.186,0.172
		c0.019,0.011,0.04,0.013,0.04,0.013c-0.021,0.062-0.138,0.134-0.138,0.134c0.031,0.02,0.058,0.017,0.058,0.017
		c-0.011,0.023-0.033,0.041-0.056,0.059l-0.161,0.066c-0.091-0.071-0.151-0.155-0.151-0.155c0.055,0.005,0.11-0.034,0.11-0.034
		c-0.05-0.029-0.138-0.133-0.138-0.133c0.067,0,0.07-0.026,0.07-0.026c-0.063-0.043-0.122-0.137-0.122-0.137
		c0.021-0.006,0.022-0.026,0.022-0.026c-0.021-0.025-0.173-0.189-0.173-0.189c-0.081,0.066-0.178,0.199-0.178,0.199
		c0.018,0.013,0.038,0.016,0.038,0.016c-0.021,0.071-0.131,0.156-0.131,0.156c0.031,0.022,0.056,0.019,0.056,0.019
		c-0.023,0.072-0.124,0.131-0.124,0.131c0.06,0.028,0.114,0.029,0.114,0.029c-0.011,0.043-0.102,0.126-0.157,0.177l-0.31-0.123
		l0.002,0.01l-0.208,0.23l-0.336-0.451l-0.218,0.396c-0.042-0.053-0.083-0.108-0.104-0.157c0,0,0.108-0.007,0.132-0.029
		c0,0-0.188-0.181-0.2-0.252c0,0,0.055,0,0.112-0.034c0,0-0.1-0.069-0.124-0.151c0,0,0.024,0.005,0.056-0.021
		c0,0-0.108-0.1-0.131-0.182c0,0,0.022-0.003,0.038-0.019c0,0-0.097-0.155-0.177-0.233c0,0-0.151,0.192-0.172,0.223
		c0,0,0.002,0.021,0.023,0.03c0,0-0.064,0.108-0.125,0.158c0,0,0.004,0.03,0.072,0.03c0,0-0.09,0.12-0.138,0.152
		c0,0,0.056,0.047,0.109,0.042c0,0-0.086,0.14-0.206,0.228c0,0,0.085,0.04,0.123,0.055c0,0-0.036,0.054-0.08,0.112
		c-0.048-0.038-0.183-0.15-0.195-0.201c0,0,0.059,0,0.12-0.028c0,0-0.104-0.058-0.131-0.13c0,0,0.025,0.004,0.06-0.019
		c0,0-0.116-0.085-0.138-0.155c0,0,0.021-0.003,0.039-0.015c0,0-0.101-0.132-0.185-0.2c0,0-0.16,0.164-0.183,0.19
		c0,0,0.004,0.02,0.025,0.025c0,0-0.064,0.095-0.131,0.137c0,0,0.004,0.024,0.076,0.024c0,0-0.095,0.104-0.144,0.134
		c0,0,0.057,0.038,0.113,0.035c0,0-0.074,0.096-0.181,0.168l-0.109-0.013c-0.094-0.11-0.184-0.218-0.283-0.338
		c0.11-0.006,0.173-0.011,0.246-0.015l-0.539-0.859l-0.319,0.355c-0.003,0.004-0.011,0.01-0.011,0.012c0,0,0,0,0,0.001l-0.316,0.354
		l0.298,0.055c-0.134,0.104-0.249,0.192-0.367,0.281l-0.294-0.436l-0.315,0.336l0.191-0.036l-0.114,0.278
		c0.037,0.005,0.062,0.008,0.112,0.016c-0.064,0.066-0.116,0.121-0.171,0.179l-0.268-0.291l-0.252,0.395
		c-0.043-0.046-0.086-0.096-0.105-0.138c0,0,0.108-0.008,0.133-0.025c0,0-0.171-0.143-0.195-0.209
		c0.034-0.011,0.068-0.021,0.105-0.038c0,0-0.092-0.382-0.332-0.552l-0.173,0.217c0,0.001-0.004,0.005-0.005,0.006l0,0l-0.215,0.27
		c0,0,0.019,0.021,0.053,0.046c0,0.001-0.002,0.004-0.002,0.004s0.014,0.01,0.033,0.02c0.018,0.012,0.039,0.021,0.063,0.032
		c-0.024,0.032-0.098,0.118-0.193,0.179c0,0,0.086,0.035,0.124,0.047c0,0-0.036,0.046-0.081,0.098
		c-0.048-0.034-0.182-0.132-0.193-0.175c0,0,0.059,0,0.118-0.024c0,0-0.104-0.05-0.129-0.111c0,0,0.024,0.002,0.058-0.016
		c0,0-0.115-0.073-0.138-0.133c0,0,0.021-0.003,0.04-0.015c0,0-0.102-0.113-0.187-0.172c0,0-0.158,0.142-0.18,0.164
		c0,0,0.002,0.017,0.024,0.022c0,0-0.065,0.08-0.13,0.115c0,0,0.003,0.022,0.075,0.022c0,0-0.096,0.09-0.145,0.113
		c0,0,0.057,0.033,0.114,0.03c0,0-0.06,0.057-0.135,0.109l-0.441-0.265c0.112-0.006,0.175-0.009,0.246-0.012
		c-0.144-0.135-0.271-0.252-0.399-0.372c0.043-0.018,0.067-0.028,0.075-0.031c-0.079-0.123-0.148-0.236-0.213-0.337
		c-0.092,0.089-0.107,0.063-0.212,0.162c-0.011,0.01-0.12,0.15-0.118,0.154c0.095,0.109-0.072,0.139-0.12,0.206
		c-0.023,0.032-0.07,0.058-0.128,0.101c0.089,0.009,0.143,0.014,0.26,0.023c-0.123,0.083-0.226,0.149-0.33,0.221l-0.524-0.399
		l-0.248,0.216c-0.078-0.086-0.154-0.167-0.237-0.259c0.123-0.007,0.194-0.011,0.274-0.016c-0.163-0.157-0.305-0.297-0.448-0.439
		c0.05-0.022,0.075-0.035,0.083-0.038c-0.087-0.148-0.167-0.281-0.237-0.4c-0.103,0.105-0.219,0.224-0.335,0.342
		c-0.012,0.011-0.037,0.028-0.034,0.032c0.55-0.064-0.017,0.158-0.067,0.235c-0.028,0.04-0.146,0.08-0.209,0.13
		c0.101,0.011,0.159,0.016,0.289,0.029c-0.138,0.097-0.254,0.182-0.373,0.264l-0.438-0.538l-0.516,0.421l-0.494-0.571
		c0,0,0,0,0.001,0c0,0-0.008-0.01-0.021-0.023l-0.227-0.262l-0.467,0.491l-0.158-0.127l0.15,0.003l-0.371-0.632l-0.325,0.592l0,0
		l0,0l-0.169,0.026l-0.008,0.008c0,0.002,0,0.004,0,0.006l-0.238,0.346c-0.063-0.102-0.037-0.205-0.043-0.281
		c0,0,0.207-0.057,0.336,0.016c0,0-0.308-0.305-0.324-0.523c0,0,0.151-0.04,0.24,0c0,0-0.13-0.079-0.242-0.373
		c0,0-0.076-0.181-0.149-0.265c0,0-0.109,0.185-0.179,0.36c0,0-0.118,0.243-0.169,0.266c0,0,0.019,0.045,0.146,0.028
		c0,0-0.011,0.191-0.271,0.501c0,0,0.14,0.035,0.219,0.032c-0.079,0.072-0.225,0.192-0.399,0.27l0.187,0.052l-0.433,0.131
		l-0.237-0.29l0.237,0.022l-0.441-0.407l-0.44,0.452l0.159-0.041l-0.269,0.199l0.262,0.022l-0.243,0.298l-0.102-0.096l-1.021-1.775
		c0,0-0.653,0.931-0.975,1.313l-0.293-0.522l-0.364,0.512c-0.063-0.021-0.125-0.05-0.187-0.081c-0.231-0.135-0.396-0.34-0.396-0.34
		c0.109,0.006,0.217-0.066,0.217-0.066c-0.094-0.052-0.272-0.236-0.272-0.236c0.138,0,0.144-0.048,0.144-0.048
		c-0.123-0.073-0.245-0.241-0.245-0.241c0.041-0.013,0.048-0.047,0.048-0.047c-0.042-0.046-0.343-0.34-0.343-0.34
		c-0.16,0.121-0.351,0.356-0.351,0.356c0.034,0.024,0.075,0.03,0.075,0.03c-0.041,0.126-0.261,0.276-0.261,0.276
		c0.063,0.041,0.109,0.035,0.109,0.035c-0.047,0.127-0.245,0.23-0.245,0.23c0.115,0.051,0.226,0.051,0.226,0.051
		c-0.021,0.091-0.277,0.291-0.37,0.362c-0.084-0.108-0.151-0.201-0.151-0.201c0.071-0.025,0.234-0.101,0.234-0.101
		c-0.228-0.154-0.392-0.404-0.392-0.404c0.104,0.007,0.208-0.074,0.208-0.074c-0.091-0.061-0.259-0.275-0.259-0.275
		c0.13,0,0.136-0.054,0.136-0.054s-0.19-0.528-0.522-0.791c0,0-0.514,0.549-0.504,0.831c0,0,0.011,0.027,0.067,0.034
		c0.021,0.006,0.036,0.006,0.036,0.006c-0.045,0.148-0.233,0.271-0.233,0.271c0.109,0.06,0.215,0.061,0.215,0.061
		c-0.025,0.127-0.384,0.451-0.384,0.451c0.046,0.04,0.254,0.055,0.254,0.055c-0.041,0.091-0.13,0.198-0.216,0.299l-0.525-0.669
		l-0.496,0.779c-0.079-0.091-0.17-0.194-0.252-0.288c-0.019-0.028-0.042-0.059-0.054-0.083c0,0,0.194-0.013,0.238-0.05
		c0,0-0.337-0.298-0.36-0.416c0,0,0.02-0.004,0.027-0.004l0.351,0.002l-0.47-0.665c0.004-0.001,0.004,0,0.007-0.003
		c0,0-0.066-0.097-0.146-0.198l-0.163-0.23c0,0-0.608,0.793-0.692,1.145l0.281,0.06c0.002,0,0.003,0,0.004,0
		c0,0-0.188,0.175-0.459,0.364c-0.16-0.282-0.397-0.774-0.414-1.055c0,0,0.236-0.122,0.417,0.019c0,0-0.456-0.592-0.479-1.018
		c0,0,0.195-0.079,0.321-0.004c0,0-0.189-0.154-0.346-0.719c0,0-0.109-0.349-0.212-0.512c0,0-0.157,0.358-0.25,0.695
		c0,0-0.165,0.467-0.235,0.511c0,0,0.022,0.087,0.204,0.053c0,0-0.016,0.371-0.378,0.969c0,0,0.269,0.098,0.355,0.054
		c0,0-0.132,0.543-0.328,0.915l-0.23-0.053l-0.262-0.184l0.127,0.002l-0.659-0.729l-0.567,0.744l0.195-0.024
		c-0.004,0.007-0.011,0.014-0.016,0.02c-0.096,0.069-0.216,0.147-0.332,0.207c-0.127-0.084-0.227-0.184-0.275-0.238
		c0.14-0.011,0.25-0.033,0.252-0.083c0.006-0.086-0.194-0.326-0.392-0.541c0-0.004,0.002-0.009,0.002-0.009
		c-0.037-0.043-0.311-0.317-0.311-0.317c-0.001,0.001-0.001,0.001-0.002,0.002c-0.035-0.035-0.063-0.063-0.063-0.063l-0.004-0.007
		l-0.708,0.866c0,0,0.076,0.033,0.168,0.065l0,0c0.002,0.002,0.004,0.001,0.008,0.003c0.061,0.023,0.123,0.04,0.188,0.057
		c-0.025,0.067-0.153,0.182-0.251,0.262l-0.814-0.229l-0.535,0.267c-0.133-0.15-0.307-0.359-0.374-0.522c0,0,0.249-0.019,0.304-0.07
		c0,0-0.428-0.412-0.458-0.578l0,0c0.097,0.046,0.252,0.093,0.496,0.077c0,0-0.814-1.454-1.005-1.535c0,0,0.061,0.084-0.036,0.208
		c-0.095,0.123-0.098,0.261-0.098,0.297v0.003c0,0.328-0.635,0.714-0.629,0.824c0,0,0.087,0.116,0.309,0.124
		c-0.01,0.015-0.23,0.318-0.493,0.51c0,0,0.177,0.094,0.263,0.129c0,0-0.393,0.555-0.878,0.825l-0.529-0.979l-0.334,0.681
		l-0.423-0.221l-0.104,0.079l-0.063-0.042l-0.359-0.232l0.444,0.015l-1.003-0.564l-0.74,0.677l0.441-0.143L117.8,9.239l-0.062-0.131
		c-0.002-0.004-0.004-0.01-0.006-0.014v0.001L117.7,9.027l-0.449,0.202c-0.118-0.181-0.27-0.435-0.279-0.595
		c0,0,0.182-0.069,0.318,0.021c0,0-0.349-0.37-0.367-0.64c0,0,0.15-0.047,0.248,0c0,0-0.145-0.095-0.266-0.453
		c0,0-0.085-0.219-0.162-0.321c0,0-0.121,0.227-0.191,0.44c0,0-0.128,0.293-0.183,0.322c0,0,0.02,0.054,0.156,0.034
		c0,0-0.012,0.155-0.16,0.413c-0.043-0.036-0.14-0.137-0.223-0.354c0,0-0.079-0.18-0.151-0.265c0,0-0.112,0.186-0.181,0.36
		c0,0-0.118,0.242-0.169,0.265c0,0,0.017,0.047,0.147,0.028c0,0-0.019,0.139-0.17,0.362l-0.455-0.402l-0.5,1.012
		c-0.146-0.118-0.313-0.244-0.408-0.332c0.045-0.02,0.55,0.001,0.557,0c-0.202-0.156-0.249-0.238-0.249-0.33V8.778l-0.237,0.009
		c-0.002-0.003-0.117-0.005-0.119-0.009c-0.007,0.007-0.064,0.014-0.068,0.019l-0.491,0.291l0.213-0.022l-0.479,0.276
		c-0.063-0.071-0.129-0.141-0.198-0.219c0.112-0.007,0.172-0.011,0.243-0.015c-0.144-0.145-0.271-0.274-0.399-0.406
		c0.043-0.021,0.064-0.033,0.072-0.036c-0.076-0.135-0.149-0.261-0.211-0.37c-0.094,0.099-0.195,0.208-0.301,0.317
		c-0.011,0.01-0.032,0.026-0.03,0.03c0.094,0.121-0.071,0.153-0.118,0.227c-0.025,0.037-0.072,0.064-0.128,0.11
		c0.089,0.009,0.142,0.016,0.258,0.027c-0.148,0.108-0.462,0.298-0.668,0.432l-0.358-0.595l-0.485,0.504l-0.291-0.284l-0.588,0.217
		c-0.095-0.082-0.188-0.163-0.274-0.239c0.038-0.016,0.061-0.025,0.064-0.026c-0.068-0.105-0.132-0.199-0.188-0.283
		c-0.083,0.074-0.175,0.158-0.27,0.241c-0.01,0.009-0.029,0.021-0.026,0.022c0.067,0.074-0.015,0.106-0.071,0.145l-0.488-0.353
		l-0.4,0.307c-0.074-0.068-0.151-0.139-0.225-0.207c0.044-0.02,0.066-0.029,0.073-0.032c-0.077-0.123-0.147-0.238-0.211-0.339
		c-0.093,0.09-0.196,0.189-0.3,0.29c-0.011,0.01-0.034,0.023-0.03,0.027c0.095,0.11-0.071,0.14-0.119,0.205
		c-0.025,0.033-0.073,0.06-0.128,0.102c0.088,0.008,0.143,0.015,0.258,0.025c-0.06,0.041-0.106,0.071-0.162,0.106l-0.164-0.043
		l-0.117-0.131l-0.033-0.24l-0.139,0.206l-0.146,0.078c-0.037-0.024-0.075-0.056-0.092-0.095c0,0,0.033,0.005,0.077-0.02
		c0,0-0.154-0.095-0.183-0.174c0,0,0.028-0.003,0.054-0.017c0,0-0.135-0.149-0.245-0.223c0,0-0.212,0.182-0.242,0.211
		c0,0,0.004,0.021,0.034,0.028c0,0-0.087,0.104-0.173,0.152c0,0,0.005,0.028,0.1,0.028c0,0-0.124,0.115-0.19,0.148
		c0,0,0.076,0.126,0.153,0.122c0,0-0.058,0.212-0.146,0.212h-0.107c-0.012,0-0.119-0.146-0.147-0.215c0,0,0.03-0.04,0.069-0.063
		c0,0-0.138-0.109-0.164-0.184c0,0,0.026-0.013,0.048-0.026c0,0-0.121-0.144-0.224-0.215c0,0-0.19,0.17-0.217,0.197
		c0,0,0.004,0.019,0.029,0.024c0,0-0.078,0.099-0.155,0.142c0,0,0.004,0.027,0.091,0.027c0,0-0.112,0.106-0.173,0.137
		c0,0,0.068,0.04,0.139,0.037c0,0-0.085,0.098-0.208,0.173c-0.102-0.149-0.375-0.576-0.389-0.811c0,0,0.18-0.075,0.317,0.022
		c0,0-0.349-0.399-0.367-0.689c0,0,0.149-0.051,0.246,0c0,0-0.146-0.103-0.265-0.487c0,0-0.084-0.236-0.163-0.348
		c0,0-0.118,0.243-0.191,0.473c0,0-0.126,0.319-0.181,0.349c0,0,0.018,0.058,0.156,0.036c0,0-0.013,0.252-0.288,0.659
		c0,0,0.203,0.067,0.271,0.037c0,0-0.079,0.287-0.199,0.529c-0.021-0.021-0.047-0.043-0.065-0.063
		c-0.034-0.04-0.081-0.098-0.139-0.169c-0.02-0.027-0.036-0.053-0.036-0.053l-0.004,0.003c-0.195-0.253-0.445-0.614-0.464-0.84
		c0,0,0.294-0.096,0.52,0.028c0,0-0.567-0.518-0.598-0.891c0,0,0.246-0.067,0.401,0c0,0-0.234-0.137-0.431-0.633
		c0,0-0.138-0.308-0.266-0.451c0,0-0.196,0.316-0.313,0.613c0,0-0.205,0.413-0.293,0.451c0,0,0.028,0.076,0.253,0.048
		c0,0-0.02,0.27-0.357,0.714c-0.021-0.043-0.041-0.089-0.061-0.144c0,0-0.087-0.205-0.168-0.302c0,0-0.121,0.212-0.195,0.412
		c0,0-0.13,0.277-0.184,0.302c0,0,0.019,0.052,0.159,0.033c0,0-0.014,0.219-0.295,0.573c0,0,0.208,0.058,0.275,0.032
		c0,0-0.095,0.29-0.236,0.51l-0.394-0.659l-0.368,0.67c-0.004,0.004-0.006,0.009-0.01,0.009c0.002,0,0.003,0,0.005,0l-0.02,0.035
		c-0.088-0.097-0.185-0.207-0.228-0.297c0,0,0.192-0.014,0.233-0.048c0,0-0.329-0.29-0.354-0.404c0,0,0.097,0,0.197-0.055
		c0,0-0.174-0.108-0.215-0.241c0,0,0.041,0.007,0.096-0.036c0,0-0.192-0.157-0.229-0.289c0,0,0.037-0.007,0.066-0.029
		c0,0-0.17-0.249-0.311-0.375c0,0-0.265,0.307-0.3,0.355c0,0,0.005,0.036,0.039,0.048c0,0-0.107,0.174-0.217,0.254
		c0,0,0.006,0.048,0.128,0.048c0,0-0.157,0.192-0.241,0.246c0,0,0.097,0.074,0.192,0.066c0,0-0.151,0.223-0.359,0.361
		c0,0,0.149,0.068,0.215,0.091c0,0-0.063,0.082-0.141,0.18c-0.084-0.063-0.32-0.243-0.342-0.323c0,0,0.103,0,0.208-0.046
		c0,0-0.183-0.093-0.226-0.207c0,0,0.043,0.007,0.1-0.031c0,0-0.2-0.134-0.239-0.247c0,0,0.039-0.007,0.07-0.026
		c0,0-0.177-0.211-0.324-0.32c0,0-0.278,0.263-0.316,0.305c0,0,0.006,0.032,0.044,0.042c0,0-0.112,0.15-0.227,0.216
		c0,0,0.006,0.041,0.132,0.041c0,0-0.163,0.167-0.252,0.212c0,0,0.102,0.063,0.2,0.058c0,0-0.156,0.189-0.375,0.31
		c0,0,0.155,0.056,0.226,0.076l-0.002,0.003l-0.463,0.108l-0.354,0.122c-0.072-0.071-0.154-0.157-0.165-0.199
		c0,0,0.075-0.015,0.155-0.052c0,0-0.137-0.082-0.169-0.172c0,0,0.032,0,0.074-0.029c0,0-0.15-0.108-0.181-0.198
		c0,0,0.03-0.006,0.054-0.021c0,0-0.133-0.169-0.243-0.256c0,0-0.209,0.21-0.236,0.243c0,0,0.004,0.024,0.033,0.032
		c0,0-0.087,0.119-0.172,0.172c0,0,0.005,0.033,0.099,0.033c0,0-0.121,0.132-0.188,0.168c0,0,0.075,0.05,0.148,0.045
		c0,0-0.115,0.148-0.276,0.244c-0.042-0.016-0.084-0.03-0.124-0.047c0.023-0.005,0.046-0.009,0.073-0.018
		c0,0-0.145-0.064-0.178-0.141c0,0,0.033,0.004,0.078-0.021c0,0-0.159-0.092-0.188-0.169c0,0,0.028-0.005,0.055-0.017
		c0,0-0.139-0.145-0.256-0.219c0,0-0.219,0.179-0.248,0.207c0,0,0.004,0.021,0.033,0.028c0,0-0.089,0.103-0.178,0.147
		c0,0,0.004,0.027,0.104,0.027c0,0-0.129,0.114-0.196,0.145c0,0,0.078,0.043,0.157,0.04c0,0-0.063,0.065-0.161,0.134
		c-0.199-0.221-0.394-0.437-0.586-0.651c0.019-0.02,0.035-0.039,0.054-0.06c0.084,0.006,0.168,0.012,0.243,0.018
		c-0.181-0.254-0.355-0.496-0.553-0.77c0.183-0.012,0.285-0.019,0.4-0.026c-0.233-0.294-0.441-0.557-0.649-0.822
		c0.069-0.043,0.108-0.064,0.121-0.071c-0.127-0.273-0.243-0.526-0.346-0.748c-0.151,0.198-0.318,0.419-0.485,0.639
		c-0.019,0.021-0.056,0.055-0.051,0.062c0.153,0.246-0.116,0.313-0.195,0.457c-0.041,0.076-0.116,0.13-0.206,0.226
		c0.144,0.019,0.23,0.03,0.42,0.055c-0.306,0.277-0.556,0.503-0.82,0.744c0.09,0.044,0.19,0.095,0.342,0.168
		c-0.137,0.153-0.269,0.303-0.4,0.453L92.374,9.42l-0.116,0.069l-0.255-0.2l-0.231,0.2c-0.051-0.048-0.105-0.106-0.112-0.138
		c0,0,0.055,0,0.112-0.028c0,0-0.1-0.059-0.123-0.131c0,0,0.023,0.004,0.055-0.019c0,0-0.11-0.085-0.132-0.155
		c0,0,0.021-0.003,0.039-0.017c0,0-0.096-0.133-0.177-0.2c0,0-0.152,0.165-0.173,0.191c0,0,0.004,0.02,0.023,0.025
		c0,0-0.063,0.094-0.125,0.137c0,0,0.005,0.025,0.072,0.025c0,0-0.089,0.105-0.138,0.133c0,0,0.055,0.039,0.11,0.036
		c0,0-0.087,0.12-0.207,0.195c0,0,0.087,0.035,0.124,0.048c0,0-0.036,0.045-0.081,0.097c-0.048-0.033-0.182-0.131-0.194-0.174
		c0,0,0.06,0,0.119-0.026c0,0-0.104-0.05-0.13-0.109c0,0,0.025,0.003,0.059-0.017c0,0-0.115-0.072-0.138-0.134
		c0,0,0.021-0.001,0.039-0.013c0,0-0.103-0.114-0.185-0.173c0,0-0.159,0.142-0.181,0.164c0,0,0.002,0.017,0.023,0.021
		c0,0-0.064,0.081-0.129,0.117c0,0,0.004,0.022,0.076,0.022c0,0-0.093,0.089-0.144,0.113c0,0,0.057,0.033,0.113,0.029
		c0,0-0.053,0.052-0.124,0.104L89.87,9.429c0.082-0.005,0.127-0.003,0.18-0.005c-0.105-0.098-0.198-0.182-0.291-0.27
		c0.031-0.015,0.049-0.021,0.053-0.021c-0.055-0.092-0.107-0.175-0.153-0.247c-0.067,0.064-0.144,0.139-0.216,0.211
		c-0.008,0.009-0.024,0.018-0.022,0.02c0.068,0.08-0.053,0.104-0.087,0.152c-0.019,0.024-0.053,0.043-0.093,0.074
		c0.063,0.006,0.103,0.01,0.188,0.018c-0.047,0.031-0.089,0.06-0.131,0.089c-0.105-0.103-0.247-0.25-0.301-0.361
		c0,0,0.194-0.01,0.237-0.046c0,0-0.334-0.277-0.358-0.387c0,0,0.098,0,0.201-0.053c0,0-0.176-0.104-0.218-0.231
		c0,0,0.042,0.006,0.097-0.035c0,0-0.194-0.15-0.23-0.279c0,0,0.036-0.004,0.067-0.028c0,0-0.171-0.236-0.314-0.357
		c0,0-0.269,0.294-0.305,0.342c0,0,0.005,0.034,0.042,0.045c0,0-0.111,0.169-0.219,0.244c0,0,0.005,0.046,0.127,0.046
		c0,0-0.158,0.186-0.244,0.238c0,0,0.098,0.069,0.194,0.063c0,0-0.152,0.216-0.365,0.35c0,0,0.152,0.063,0.219,0.086
		c0,0-0.063,0.078-0.144,0.173c-0.085-0.061-0.324-0.233-0.344-0.313c0,0,0.102,0,0.209-0.046c0,0-0.186-0.087-0.229-0.197
		c0,0,0.044,0.005,0.102-0.031c0,0-0.205-0.127-0.242-0.236c0,0,0.038-0.006,0.07-0.025c0,0-0.179-0.203-0.329-0.307
		c0,0-0.281,0.253-0.321,0.292c0,0,0.006,0.029,0.043,0.04c0,0-0.115,0.144-0.229,0.208c0,0,0.006,0.039,0.134,0.039
		c0,0-0.167,0.16-0.255,0.205c0,0,0.101,0.059,0.205,0.053c0,0-0.16,0.184-0.382,0.298c0,0,0.159,0.053,0.229,0.073
		c0,0-0.313,0.317-0.427,0.387c0,0,0.159,0.051,0.242,0.025c0,0-0.062,0.111-0.143,0.237c-0.143-0.141-0.282-0.28-0.421-0.418
		c0.014-0.012,0.026-0.026,0.041-0.04c0.063,0.005,0.125,0.008,0.182,0.011c-0.136-0.168-0.267-0.33-0.415-0.514
		c0.137-0.008,0.214-0.012,0.301-0.018c-0.175-0.196-0.331-0.372-0.489-0.549c0.053-0.028,0.083-0.044,0.091-0.047
		c-0.095-0.185-0.182-0.353-0.26-0.502c-0.112,0.133-0.238,0.281-0.367,0.429c-0.013,0.014-0.041,0.035-0.037,0.041
		c0.114,0.163-0.089,0.208-0.147,0.305c-0.031,0.05-0.088,0.088-0.156,0.149c0.107,0.014,0.173,0.021,0.315,0.038
		c-0.17,0.138-0.316,0.256-0.462,0.373l-0.262-0.14c0.05,0.003,0.103,0.008,0.148,0.01c-0.183-0.253-0.356-0.493-0.552-0.769
		c0.181-0.012,0.284-0.018,0.4-0.026c-0.234-0.295-0.441-0.558-0.651-0.821c0.071-0.043,0.11-0.064,0.121-0.071
		c-0.126-0.273-0.242-0.527-0.345-0.749c-0.15,0.199-0.318,0.42-0.487,0.641c-0.016,0.021-0.054,0.053-0.049,0.06
		c0.152,0.245-0.118,0.313-0.195,0.457c-0.041,0.075-0.118,0.131-0.207,0.225c0.143,0.021,0.23,0.032,0.42,0.055
		c-0.306,0.277-0.554,0.506-0.821,0.746c0.088,0.044,0.19,0.093,0.341,0.168c-0.208,0.234-0.408,0.462-0.613,0.694
		c-0.06-0.059-0.119-0.117-0.184-0.182c0.083-0.004,0.13-0.007,0.184-0.009c-0.107-0.097-0.203-0.182-0.298-0.27
		c0.032-0.014,0.05-0.02,0.055-0.022c-0.057-0.091-0.11-0.173-0.158-0.246c-0.068,0.065-0.146,0.139-0.222,0.21
		c-0.007,0.009-0.024,0.019-0.022,0.019c0.07,0.081-0.053,0.104-0.088,0.15c-0.019,0.024-0.055,0.044-0.095,0.075
		c0.065,0.006,0.104,0.01,0.191,0.017c-0.048,0.031-0.093,0.061-0.135,0.089c-0.108-0.102-0.252-0.248-0.308-0.358
		c0,0,0.199-0.012,0.244-0.045c0,0-0.343-0.276-0.367-0.386c0,0,0.099,0,0.205-0.052c0,0-0.18-0.102-0.223-0.229
		c0,0,0.043,0.008,0.099-0.034c0,0-0.199-0.148-0.237-0.275c0,0,0.039-0.006,0.069-0.029c0,0-0.175-0.234-0.32-0.355
		c0,0-0.277,0.293-0.314,0.339c0,0,0.005,0.034,0.043,0.046c0,0-0.112,0.167-0.224,0.241c0,0,0.006,0.046,0.13,0.046
		c0,0-0.162,0.184-0.25,0.235c0,0,0.1,0.068,0.199,0.063c0,0-0.156,0.213-0.374,0.346c0,0,0.156,0.063,0.224,0.085
		c0,0-0.065,0.079-0.146,0.172c-0.087-0.06-0.333-0.231-0.354-0.309c0,0,0.104,0,0.216-0.043c0,0-0.189-0.091-0.235-0.199
		c0,0,0.045,0.004,0.104-0.03c0,0-0.209-0.127-0.247-0.235c0,0,0.038-0.005,0.071-0.023c0,0-0.184-0.201-0.336-0.305
		c0,0-0.289,0.25-0.328,0.289c0,0,0.005,0.029,0.045,0.04c0,0-0.119,0.143-0.236,0.206c0,0,0.007,0.04,0.137,0.04
		c0,0-0.17,0.159-0.261,0.201c0,0,0.104,0.06,0.208,0.055c0,0-0.163,0.18-0.391,0.295c0,0,0.164,0.052,0.234,0.072
		c0,0-0.106,0.142-0.237,0.256l-0.284-0.161c0-0.001,0-0.001,0-0.001h-0.04l-0.182-0.076L76.929,9.49
		c-0.051-0.047-0.11-0.104-0.119-0.138c0,0,0.054,0,0.111-0.028c0,0-0.1-0.058-0.124-0.13c0,0,0.023,0.004,0.053-0.019
		c0,0-0.11-0.085-0.131-0.157c0,0,0.02-0.002,0.038-0.015c0,0-0.096-0.133-0.178-0.2c0,0-0.151,0.164-0.172,0.191
		c0,0,0.003,0.019,0.023,0.023c0,0-0.063,0.097-0.124,0.138c0,0,0.003,0.025,0.073,0.025c0,0-0.088,0.105-0.137,0.135
		c0,0,0.055,0.038,0.108,0.035c0,0-0.085,0.12-0.206,0.195c0,0,0.085,0.034,0.125,0.048c0,0-0.036,0.044-0.082,0.096
		c-0.049-0.034-0.183-0.131-0.195-0.173c0,0,0.059,0,0.119-0.026c0,0-0.104-0.05-0.128-0.11c0,0,0.025,0.004,0.057-0.016
		c0,0-0.116-0.072-0.137-0.134c0,0,0.021-0.003,0.039-0.015c0,0-0.101-0.112-0.185-0.171c0,0-0.159,0.141-0.182,0.163
		c0,0,0.003,0.017,0.026,0.022c0,0-0.065,0.08-0.13,0.117c0,0,0.003,0.021,0.075,0.021c0,0-0.092,0.09-0.144,0.114
		c0,0,0.058,0.034,0.116,0.031c0,0-0.091,0.103-0.217,0.166c0,0,0.09,0.03,0.129,0.041c0,0-0.158,0.161-0.229,0.209
		c-0.129-0.104-0.255-0.203-0.382-0.304c0.012-0.012,0.024-0.02,0.037-0.03c0.058,0.002,0.116,0.006,0.167,0.008
		c-0.125-0.126-0.244-0.245-0.379-0.38c0.126-0.006,0.196-0.011,0.276-0.015c-0.161-0.146-0.304-0.274-0.449-0.406
		c0.049-0.021,0.077-0.031,0.083-0.037c-0.086-0.135-0.167-0.26-0.237-0.371c-0.104,0.101-0.22,0.209-0.335,0.318
		c-0.011,0.012-0.038,0.026-0.034,0.03c0.105,0.121-0.082,0.154-0.134,0.227c-0.028,0.037-0.081,0.065-0.143,0.111
		c0.098,0.009,0.159,0.015,0.289,0.026c-0.21,0.139-0.381,0.25-0.565,0.369C73.457,9.5,73.526,9.523,73.63,9.56
		c-0.113,0.094-0.222,0.182-0.332,0.271c-0.195-0.188-0.388-0.371-0.577-0.553c-0.013-0.02-0.111-0.076-0.096-0.091
		c0.075,0.005,0.294,0.055,0.362,0.06c-0.163-0.199-0.319-0.383-0.496-0.597c0.164-0.01,0.256-0.016,0.359-0.021
		c-0.21-0.228-0.396-0.431-0.585-0.637c0.063-0.033,0.099-0.05,0.108-0.056c-0.114-0.213-0.219-0.408-0.31-0.58
		c-0.135,0.154-0.287,0.326-0.438,0.497c-0.015,0.016-0.048,0.041-0.044,0.046c0.609-0.016,0.06,0.19-0.106,0.335
		C71.42,8.283,71.3,8.355,71.221,8.429c0.128,0.016,0.208,0.022,0.377,0.043C71.323,8.687,71.1,8.862,70.86,9.049
		c0.079,0.034,0.17,0.073,0.306,0.13c-0.165,0.161-0.326,0.319-0.487,0.478c-0.053-0.041-0.101-0.081-0.125-0.117
		c0,0,0.189-0.01,0.23-0.033c0,0-0.326-0.18-0.349-0.252c0,0,0.094-0.001,0.195-0.034c0,0-0.172-0.067-0.213-0.15
		c0,0,0.041,0.005,0.096-0.022c0,0-0.189-0.098-0.226-0.179c0,0,0.036-0.004,0.064-0.019c0,0-0.166-0.153-0.305-0.231
		c0,0-0.262,0.19-0.297,0.221c0,0,0.005,0.023,0.042,0.03c0,0-0.107,0.108-0.214,0.156c0,0,0.005,0.031,0.125,0.031
		c0,0-0.154,0.119-0.236,0.152c0,0,0.095,0.045,0.189,0.041c0,0-0.148,0.139-0.355,0.227c0,0,0.148,0.041,0.212,0.055
		c0,0-0.29,0.239-0.396,0.291c0,0,0.132,0.108,0.209,0.091c0,0-0.052,0.046-0.052,0.101v0.238h-0.225
		c-0.071,0-0.148-0.281-0.148-0.281c0.04-0.01,0.129-0.111,0.129-0.111c-0.126-0.064-0.215-0.201-0.215-0.201
		c0.059,0.003,0.116-0.049,0.116-0.049c-0.05-0.023-0.144-0.121-0.144-0.121c0.071,0,0.075-0.028,0.075-0.028
		c-0.064-0.036-0.129-0.118-0.129-0.118c0.021-0.005,0.024-0.023,0.024-0.023c-0.021-0.022-0.181-0.163-0.181-0.163
		c-0.084,0.058-0.185,0.169-0.185,0.169c0.018,0.013,0.039,0.016,0.039,0.016c-0.021,0.061-0.137,0.133-0.137,0.133
		c0.034,0.019,0.059,0.017,0.059,0.017C68.326,9.55,68.22,9.599,68.22,9.599c0.063,0.026,0.12-0.108,0.12-0.108
		c-0.008,0.039-0.124,0.028-0.178,0.028h-0.022c-0.04,0-0.073,0.048-0.073,0.048c0.039-0.013,0.124,0.02,0.124,0.02
		c-0.12-0.075-0.207-0.161-0.207-0.161c0.055,0.003,0.11-0.02,0.11-0.02c-0.049-0.028-0.138-0.125-0.138-0.125
		c0.068,0,0.071-0.021,0.071-0.021c-0.061-0.042-0.123-0.134-0.123-0.134c0.02-0.007,0.023-0.025,0.023-0.025
		c-0.021-0.024-0.173-0.19-0.173-0.19c-0.081,0.068-0.177,0.2-0.177,0.2c0.017,0.015,0.039,0.017,0.039,0.017
		c-0.021,0.071-0.131,0.155-0.131,0.155c0.03,0.023,0.054,0.02,0.054,0.02c-0.024,0.071-0.123,0.13-0.123,0.13
		C67.475,9.46,67.53,9.46,67.53,9.46c-0.014,0.063-0.202,0.219-0.202,0.219c0.024,0.02,0.134,0.024,0.134,0.024
		c-0.03,0.063-0.11,0.146-0.169,0.202c-0.023-0.016-0.047-0.032-0.073-0.049c0.047-0.006,0.069-0.008,0.106-0.012
		c-0.023-0.017-0.042-0.026-0.053-0.041c-0.019-0.027-0.087-0.04-0.048-0.085c0.001,0-0.008-0.007-0.012-0.012
		c-0.042-0.04-0.084-0.08-0.124-0.118c-0.026,0.042-0.056,0.088-0.086,0.139c0.002,0.001,0.012,0.005,0.03,0.013
		c-0.054,0.048-0.105,0.099-0.165,0.15c0.029,0,0.056,0,0.101,0.005c-0.049,0.049-0.094,0.092-0.139,0.138
		c0.02-0.001,0.041-0.008,0.062-0.01c0.004,0.005,0.009,0.092,0.014,0.097c-0.045,0.039-0.09,0.132-0.137,0.132
		c-0.043,0-0.087,0-0.129,0c-0.146,0-0.345-0.453-0.345-0.453c0.074-0.028,0.243-0.124,0.243-0.124
		c-0.235-0.148-0.405-0.398-0.405-0.398c0.109,0.005,0.216-0.08,0.216-0.08c-0.094-0.057-0.27-0.268-0.27-0.268
		c0.135,0,0.142-0.052,0.142-0.052c-0.122-0.083-0.244-0.271-0.244-0.271c0.042-0.016,0.047-0.052,0.047-0.052
		c-0.042-0.052-0.339-0.383-0.339-0.383c-0.159,0.135-0.349,0.4-0.349,0.4c0.034,0.025,0.075,0.033,0.075,0.033
		c-0.041,0.141-0.257,0.31-0.257,0.31c0.061,0.045,0.107,0.038,0.107,0.038c-0.046,0.143-0.243,0.259-0.243,0.259
		c0.115,0.059,0.224,0.059,0.224,0.059c-0.022,0.1-0.275,0.327-0.366,0.406c-0.084-0.123-0.151-0.227-0.151-0.227
		c0.07-0.029,0.231-0.111,0.231-0.111C64.73,9.164,64.57,8.884,64.57,8.884c0.103,0.009,0.206-0.082,0.206-0.082
		c-0.089-0.068-0.258-0.309-0.258-0.309c0.129,0,0.135-0.062,0.135-0.062c-0.116-0.099-0.232-0.318-0.232-0.318
		c0.039-0.014,0.045-0.06,0.045-0.06c-0.04-0.061-0.324-0.445-0.324-0.445c-0.152,0.159-0.333,0.47-0.333,0.47
		c0.034,0.029,0.072,0.036,0.072,0.036c-0.039,0.167-0.246,0.363-0.246,0.363c0.059,0.053,0.104,0.046,0.104,0.046
		c-0.045,0.165-0.232,0.301-0.232,0.301c0.109,0.068,0.212,0.069,0.212,0.069c-0.025,0.143-0.379,0.505-0.379,0.505
		C63.384,9.444,63.59,9.46,63.59,9.46c-0.058,0.144-0.207,0.336-0.319,0.469c-0.044-0.038-0.09-0.075-0.139-0.115
		c0.089-0.012,0.13-0.015,0.198-0.022c-0.042-0.042-0.079-0.066-0.097-0.1c-0.037-0.061-0.165-0.09-0.093-0.196
		c0.002-0.003-0.016-0.016-0.023-0.025c-0.08-0.094-0.159-0.19-0.23-0.275c-0.048,0.095-0.104,0.203-0.163,0.321
		c0.005,0.002,0.024,0.013,0.058,0.03c-0.086,0.099-0.174,0.197-0.268,0.305c-0.139-0.021-0.222-0.039-0.27-0.052
		c0.026-0.002,0.195-0.012,0.235-0.042c0,0-0.347-0.254-0.373-0.354c0,0,0.102,0,0.208-0.046c0,0-0.183-0.095-0.228-0.211
		c0,0,0.044,0.005,0.102-0.03c0,0-0.202-0.139-0.239-0.254c0,0,0.038-0.006,0.069-0.026c0,0-0.177-0.216-0.325-0.326
		c0,0-0.28,0.269-0.317,0.311c0,0,0.005,0.032,0.043,0.042c0,0-0.114,0.153-0.229,0.223c0,0,0.007,0.042,0.132,0.042
		c0,0-0.164,0.167-0.251,0.214c0,0,0.101,0.065,0.201,0.059c0,0-0.158,0.195-0.377,0.317c0,0,0.144,0.052,0.216,0.074
		c-0.064,0.02-0.165,0.05-0.266,0.078c-0.102-0.069-0.216-0.152-0.23-0.2c0,0,0.105,0,0.218-0.04c0,0-0.191-0.081-0.238-0.181
		c0,0,0.046,0.005,0.106-0.027c0,0-0.212-0.116-0.251-0.215c0,0,0.04-0.005,0.074-0.023c0,0-0.186-0.185-0.342-0.278
		c0,0-0.292,0.229-0.332,0.265c0,0,0.006,0.027,0.046,0.037c0,0-0.12,0.13-0.239,0.188c0,0,0.006,0.035,0.139,0.035
		c0,0-0.037,0.03-0.083,0.068c-0.054,0.033-0.121,0.071-0.191,0.106c-0.091-0.195-0.223-0.506-0.23-0.696
		c0,0,0.133-0.074,0.235,0.022c0,0-0.258-0.404-0.272-0.694c0,0,0.112-0.051,0.183,0c0,0-0.107-0.104-0.197-0.492
		c0,0-0.063-0.239-0.12-0.351c0,0-0.089,0.247-0.142,0.479c0,0-0.074,0.25-0.118,0.327c-0.088-0.079-0.585-0.532-0.614-0.867
		c0,0,0.259-0.068,0.423,0c0,0-0.248-0.134-0.454-0.627c0,0-0.145-0.304-0.279-0.445c0,0-0.206,0.313-0.33,0.607
		c0,0-0.216,0.408-0.31,0.444c0,0,0.031,0.076,0.269,0.048c0,0-0.021,0.322-0.496,0.845c0,0,0.352,0.084,0.465,0.046
		c0,0-0.203,0.565-0.499,0.886c-0.07-0.083-0.136-0.17-0.145-0.225c0,0,0.09,0,0.185-0.057c0,0-0.163-0.114-0.202-0.255
		c0,0,0.039,0.006,0.09-0.039c0,0-0.181-0.166-0.214-0.305c0,0,0.034-0.006,0.062-0.033c0,0-0.158-0.26-0.291-0.396
		c0,0-0.249,0.326-0.283,0.378c0,0,0.005,0.039,0.04,0.051c0,0-0.102,0.184-0.204,0.266c0,0,0.006,0.054,0.119,0.054
		c0,0-0.147,0.202-0.227,0.26c0,0,0.087,0.072,0.176,0.069c-0.06,0.063-0.243,0.24-0.432,0.314c-0.16-0.11-0.399-0.288-0.425-0.38
		c0,0,0.154-0.001,0.318-0.063c0,0-0.278-0.129-0.347-0.285c0,0,0.069,0.006,0.154-0.044c0,0-0.309-0.185-0.368-0.34
		c0,0,0.059-0.007,0.106-0.037c0,0-0.271-0.291-0.498-0.439c0,0-0.428,0.362-0.486,0.419c0,0,0.009,0.043,0.066,0.057
		c0,0-0.174,0.206-0.348,0.298c0,0,0.009,0.057,0.204,0.057c0,0-0.252,0.228-0.388,0.291c0,0,0.155,0.084,0.31,0.076
		c0,0-0.182,0.189-0.442,0.348L53.261,9.09l-0.502,0.215c-0.095-0.092-0.198-0.2-0.211-0.263c0,0,0.103,0,0.212-0.056
		c0,0-0.187-0.11-0.231-0.248c0,0,0.045,0.007,0.104-0.037c0,0-0.207-0.162-0.246-0.296c0,0,0.039-0.008,0.07-0.03
		c0,0-0.18-0.256-0.332-0.386c0,0-0.286,0.316-0.324,0.366c0,0,0.005,0.038,0.045,0.05c0,0-0.117,0.178-0.232,0.259
		c0,0,0.006,0.05,0.135,0.05c0,0-0.168,0.197-0.258,0.253c0,0,0.103,0.075,0.207,0.069c0,0-0.161,0.229-0.387,0.371
		c0,0,0.162,0.069,0.231,0.093c0,0-0.066,0.086-0.151,0.185c-0.092-0.063-0.343-0.251-0.367-0.333c0,0,0.109,0,0.224-0.047
		c0,0-0.195-0.096-0.242-0.212c0,0,0.047,0.006,0.107-0.033c0,0-0.217-0.138-0.257-0.253c0,0,0.04-0.006,0.074-0.028
		c0,0-0.189-0.217-0.348-0.327c0,0-0.299,0.271-0.34,0.314c0,0,0.006,0.03,0.047,0.041c0,0-0.122,0.154-0.244,0.224
		c0,0,0.007,0.042,0.142,0.042c0,0-0.175,0.17-0.27,0.217c0,0,0.106,0.063,0.216,0.06c0,0-0.085,0.096-0.214,0.194l-0.085-0.115
		l-0.03-0.064l-0.453-0.294l0.23,0.007l-0.671-0.632l-0.015,0.013L48.193,9.07l0.27,0.036l-0.415,0.251l0.318,0.042l-0.249,0.132
		L47.91,9.34c-0.047-0.052-0.12-0.124-0.188-0.173c0,0-0.012,0.012-0.023,0.021l-0.488,0.417l0.192,0.025l-0.296,0.176l0.227,0.03
		l-0.28,0.145c-0.171-0.154-0.326-0.325-0.344-0.45c0,0,0.278-0.039,0.4-0.102c0,0-0.565-0.399-0.72-0.653
		c0,0,0.329-0.019,0.402-0.066c0,0-0.565-0.379-0.607-0.528c0,0,0.164-0.002,0.339-0.072c0,0-0.298-0.142-0.37-0.315
		c0,0,0.072,0.008,0.164-0.047c0,0-0.328-0.205-0.391-0.379c0,0,0.063-0.007,0.114-0.039c0,0-0.288-0.323-0.529-0.487
		c0,0-0.455,0.401-0.518,0.463c0,0,0.01,0.048,0.071,0.063c0,0-0.187,0.229-0.371,0.331c0,0,0.01,0.063,0.215,0.063
		c0,0-0.268,0.251-0.412,0.321c0,0,0.165,0.094,0.329,0.086c0,0-0.258,0.292-0.617,0.474c0,0,0.257,0.157,0.37,0.19
		c0,0-0.503,0.686-0.688,0.686h0.001l-0.06-0.063c-0.091-0.059-0.206-0.196-0.206-0.196c0.129,0,0.135-0.056,0.135-0.056
		C43.649,9.146,43.533,9,43.533,9c0.04-0.009,0.044-0.042,0.044-0.042c-0.04-0.037-0.324-0.277-0.324-0.277
		c-0.151,0.099-0.331,0.288-0.331,0.288c0.033,0.02,0.071,0.022,0.071,0.022c-0.039,0.104-0.245,0.223-0.245,0.223
		c0.058,0.033,0.103,0.028,0.103,0.028c-0.044,0.104-0.23,0.187-0.23,0.187c0.051,0.02,0.101,0.029,0.139,0.034
		c-0.063,0.02-0.133,0.038-0.209,0.049c-0.209-0.125-0.358-0.319-0.358-0.319c0.099,0.006,0.196-0.059,0.196-0.059
		c-0.086-0.05-0.246-0.224-0.246-0.224c0.124,0,0.129-0.044,0.129-0.044c-0.11-0.071-0.222-0.229-0.222-0.229
		c0.036-0.011,0.042-0.043,0.042-0.043c-0.036-0.045-0.309-0.32-0.309-0.32C41.64,8.387,41.468,8.61,41.468,8.61
		c0.03,0.021,0.067,0.026,0.067,0.026c-0.037,0.119-0.233,0.262-0.233,0.262C41.357,8.937,41.4,8.931,41.4,8.931
		c-0.043,0.12-0.221,0.218-0.221,0.218c0.104,0.048,0.203,0.048,0.203,0.048c-0.022,0.095-0.292,0.31-0.343,0.351
		c-0.657-0.213-1.625-1.17-1.625-1.17s0.31-0.094,0.547,0.028c0,0-0.599-0.511-0.63-0.882c0,0,0.257-0.064,0.422,0
		c0,0-0.248-0.132-0.453-0.626c0,0-0.145-0.303-0.278-0.445c0,0-0.207,0.313-0.331,0.606c0,0-0.216,0.409-0.31,0.446
		c0,0,0.031,0.077,0.269,0.047c0,0-0.021,0.322-0.495,0.844c0,0,0.351,0.086,0.464,0.048c0,0-0.258,0.717-0.617,0.992
		c-0.157-0.142-0.3-0.271-0.443-0.401c0.054-0.023,0.083-0.036,0.091-0.038c-0.095-0.149-0.183-0.286-0.26-0.406
		c-0.114,0.107-0.239,0.228-0.365,0.347c-0.013,0.013-0.042,0.03-0.039,0.032c0.115,0.134-0.087,0.168-0.146,0.248
		c-0.031,0.04-0.089,0.07-0.156,0.121c0.108,0.011,0.174,0.015,0.316,0.029c-0.226,0.147-0.411,0.268-0.606,0.395
		c-0.128-0.003-0.233-0.007-0.312-0.014c-0.039-0.027-0.401-0.299-0.508-0.478c0,0,0.238-0.034,0.292-0.069
		c0,0-0.409-0.417-0.44-0.417h0.006c0.003,0,0.006,0,0.009,0c0.015,0,0.06,0.012,0.125-0.003c0.156-0.036,0.281-0.089,0.281-0.089
		c-0.091-0.012-0.425-0.294-0.573-0.426c-0.012-0.017-0.028-0.033-0.034-0.051c0,0,0.044-0.004,0.083-0.028
		c0,0-0.209-0.241-0.384-0.364c0,0-0.33,0.302-0.375,0.35c0,0,0.007,0.035,0.053,0.047c0,0-0.034,0.042-0.082,0.092
		c-0.02,0.014-0.261,0.174-0.414,0.396c0,0,0.061,0.048,0.159,0.081l0,0c0.042,0.016,0.088,0.022,0.142,0.027
		c0.008,0,0.014,0.003,0.021,0.003c0,0-0.187,0.218-0.447,0.353c0,0,0.186,0.065,0.269,0.089c0,0-0.259,0.256-0.601,0.391
		c-0.021-0.022-0.043-0.044-0.065-0.065c0,0,0,0,0.001,0c0,0-0.003-0.003-0.004-0.003c-0.043-0.041-0.087-0.076-0.121-0.093
		l0.172,0.025c0,0-0.427-0.391-0.708-0.486c0,0-0.33,0.432-0.392,0.521c0,0,0.181-0.04,0.254-0.073
		c0.004-0.004,0.009-0.005,0.013-0.008c0.005-0.003-0.004,0.008-0.003,0.009c-0.049,0.041-0.5,0.388-1.166,0.413
		c-0.08-0.074-0.157-0.147-0.242-0.229c0.137-0.005,0.214-0.01,0.302-0.013c-0.176-0.15-0.333-0.285-0.491-0.419
		c0.053-0.022,0.083-0.033,0.09-0.037c-0.095-0.14-0.183-0.269-0.259-0.382c-0.114,0.102-0.241,0.215-0.368,0.326
		c-0.013,0.012-0.042,0.027-0.038,0.031c0.115,0.125-0.088,0.159-0.147,0.232c-0.031,0.038-0.088,0.067-0.157,0.116
		c0.108,0.009,0.174,0.015,0.317,0.027c-0.188,0.114-0.349,0.214-0.51,0.313l-0.519-0.172l-0.275,0.209
		c-0.029-0.034-0.052-0.066-0.056-0.089c0,0,0.055,0,0.112-0.033c0,0-0.099-0.065-0.124-0.146c0,0,0.024,0.004,0.056-0.021
		c0,0-0.11-0.096-0.13-0.176c0,0,0.021-0.003,0.038-0.019c0,0-0.097-0.149-0.177-0.227c0,0-0.151,0.187-0.172,0.216
		c0,0,0.003,0.021,0.023,0.029c0,0-0.063,0.107-0.124,0.153c0,0,0.003,0.028,0.071,0.028c0,0-0.089,0.119-0.137,0.151
		c0,0,0.054,0.044,0.109,0.04c0,0-0.05,0.078-0.127,0.154L28.432,9.65c0.001-0.001,0.001,0,0.002-0.001c0,0-0.1-0.128-0.186-0.194
		c0,0-0.159,0.16-0.181,0.186c0,0,0.003,0.019,0.025,0.024c0,0-0.025,0.034-0.059,0.069c-0.126-0.153-0.265-0.348-0.276-0.475
		c0,0,0.205-0.061,0.362,0.019c0,0-0.397-0.328-0.418-0.564c0,0,0.171-0.043,0.281,0c0,0-0.164-0.085-0.301-0.4
		c0,0-0.095-0.194-0.185-0.286c0,0-0.136,0.199-0.218,0.388c0,0-0.143,0.261-0.206,0.286c0,0,0.021,0.048,0.179,0.03
		c0,0-0.009,0.106-0.126,0.287c-0.016-0.032-0.032-0.068-0.047-0.11c0,0-0.062-0.152-0.118-0.223c0,0-0.089,0.156-0.141,0.304
		c0,0-0.091,0.203-0.132,0.224c0,0,0.013,0.036,0.115,0.023c0,0-0.009,0.161-0.21,0.422c0,0,0.149,0.043,0.198,0.023
		c0,0-0.119,0.415-0.281,0.538c0,0,0.003,0.028,0.004,0.028h-0.006c-0.038,0-0.078-0.106-0.097-0.14c0,0,0.133-0.021,0.162-0.044
		c0,0-0.228-0.178-0.245-0.246c0,0,0.066-0.005,0.137-0.037c0,0-0.12-0.064-0.149-0.144c0,0,0.029,0.002,0.066-0.022
		c0,0-0.132-0.093-0.157-0.172c0,0,0.024-0.004,0.045-0.018c0,0-0.117-0.147-0.213-0.222c0,0-0.183,0.182-0.208,0.21
		c0,0,0.003,0.022,0.028,0.029c0,0-0.076,0.104-0.149,0.149c0,0,0.004,0.028,0.086,0.028c0,0-0.106,0.114-0.166,0.147
		c0,0,0.066,0.042,0.132,0.04c0,0-0.104,0.132-0.25,0.214c0,0,0.105,0.04,0.15,0.053c0,0-0.14,0.157-0.23,0.237l-0.173-0.158
		c-0.036-0.037-0.071-0.073-0.11-0.112c0.078-0.004,0.121-0.006,0.169-0.009c-0.099-0.092-0.188-0.173-0.275-0.255
		c0.03-0.014,0.047-0.02,0.052-0.021c-0.055-0.086-0.104-0.165-0.147-0.233c-0.063,0.063-0.135,0.132-0.206,0.198
		c-0.007,0.008-0.022,0.017-0.021,0.02c0.064,0.076-0.051,0.096-0.083,0.141c-0.017,0.023-0.051,0.041-0.087,0.07
		c0.061,0.007,0.097,0.01,0.177,0.017c-0.126,0.083-0.229,0.153-0.339,0.226l-0.211-0.043c-0.094-0.096-0.185-0.189-0.287-0.293
		c0.112-0.007,0.175-0.009,0.247-0.014c-0.144-0.132-0.271-0.25-0.399-0.368c0.043-0.02,0.067-0.03,0.074-0.033
		c-0.077-0.124-0.149-0.237-0.211-0.337c-0.093,0.09-0.196,0.189-0.299,0.288c-0.01,0.01-0.034,0.024-0.032,0.026
		c0.095,0.11-0.071,0.141-0.119,0.207c-0.024,0.033-0.073,0.059-0.128,0.102c0.088,0.009,0.142,0.012,0.257,0.023
		c0,0-0.667,0.409-1.114,0.498c-0.055-0.047-0.161-0.146-0.172-0.191c0,0,0.055,0,0.113-0.029c0,0-0.1-0.059-0.124-0.129
		c0,0,0.024,0.002,0.054-0.02c0,0-0.108-0.084-0.129-0.155c0,0,0.021-0.003,0.037-0.017c0,0-0.095-0.132-0.176-0.201
		c0,0-0.152,0.167-0.172,0.192c0,0,0.003,0.02,0.023,0.026c0,0-0.063,0.094-0.125,0.136c0,0,0.003,0.025,0.072,0.025
		c0,0-0.089,0.104-0.137,0.134c0,0,0.054,0.039,0.11,0.034c0,0-0.063,0.105-0.153,0.176l-0.049,0.02h0.005l-0.117-0.156
		c0.002-0.002,0.002-0.011,0.004-0.012c0,0-0.012-0.015-0.015-0.016l-0.051-0.062l0.109,0.009l-0.158-0.191l0.124,0.015
		l-0.413-0.432l-0.406,0.331l0.171-0.035l-0.228,0.222l0.069,0.016l-0.195,0.085c0,0,0.054,0.051,0.138,0.089l-0.345-0.025
		c-0.021-0.015-0.045-0.033-0.055-0.056c0,0,0.018,0.001,0.042-0.012c0,0-0.084-0.051-0.102-0.093c0,0,0.016-0.002,0.029-0.01
		c0,0-0.073-0.08-0.135-0.12c0,0-0.117,0.1-0.133,0.113c0,0,0.002,0.013,0.018,0.017c0,0-0.048,0.054-0.095,0.08
		c0,0,0.002,0.015,0.055,0.015c0,0-0.068,0.062-0.106,0.079c0,0,0.042,0.023,0.084,0.021c0,0-0.036,0.033-0.084,0.067l-0.167-0.052
		c-0.073-0.077-0.147-0.154-0.228-0.24c0.104-0.006,0.162-0.009,0.228-0.011c-0.132-0.128-0.25-0.24-0.369-0.355
		c0.042-0.016,0.063-0.027,0.068-0.03c-0.071-0.117-0.137-0.226-0.195-0.321c-0.085,0.086-0.181,0.181-0.276,0.275
		c-0.01,0.011-0.031,0.021-0.029,0.026c0.086,0.104-0.065,0.135-0.11,0.196c-0.023,0.033-0.066,0.056-0.117,0.099
		c0.081,0.007,0.129,0.013,0.237,0.022c-0.149,0.103-0.273,0.188-0.403,0.278c-0.138-0.018-0.266-0.047-0.294-0.088l-0.015-0.012
		c0.058-0.009,0.109-0.031,0.109-0.031c-0.066-0.034-0.19-0.15-0.19-0.15c0.094,0,0.1-0.029,0.1-0.029
		c-0.086-0.047-0.171-0.154-0.171-0.154c0.028-0.007,0.032-0.03,0.032-0.03c-0.028-0.028-0.24-0.216-0.24-0.216
		c-0.111,0.076-0.245,0.229-0.245,0.229c0.024,0.013,0.052,0.018,0.052,0.018c-0.028,0.081-0.181,0.176-0.181,0.176
		c0.043,0.026,0.075,0.021,0.075,0.021c-0.015,0.011-0.086,0.098-0.255,0.188c-0.136-0.098-0.231-0.228-0.231-0.228
		c0.072,0.005,0.146-0.046,0.146-0.046C16.839,9.687,16.72,9.55,16.72,9.55c0.092,0,0.096-0.034,0.096-0.034
		c-0.082-0.056-0.165-0.18-0.165-0.18c0.027-0.009,0.031-0.035,0.031-0.035c-0.027-0.033-0.228-0.253-0.228-0.253
		c-0.106,0.091-0.235,0.267-0.235,0.267c0.023,0.017,0.051,0.021,0.051,0.021c-0.028,0.095-0.173,0.206-0.173,0.206
		c0.042,0.028,0.072,0.025,0.072,0.025c-0.024,0.071-0.092,0.122-0.129,0.146c-0.424-0.182-0.817-0.477-0.817-0.477l0.354-0.05
		l-0.465-0.4h0.002l-0.096,0.09l-0.047,0.042l0.156,0.061l-0.315-0.152l0.193,0.012l-0.566-0.283l-0.429,0.293l0.139,0.019
		l-0.263,0.146l0.16-0.024l-0.608,0.34l0.278-0.072l-0.057,0.04l0.092-0.028c-0.079,0.059-0.271,0.194-0.505,0.322
		c-0.085-0.072-0.306-0.267-0.326-0.357c0,0,0.1,0,0.205-0.053c0,0-0.18-0.104-0.224-0.233c0,0,0.043,0.006,0.1-0.034
		c0,0-0.198-0.153-0.235-0.282c0,0,0.037-0.004,0.068-0.028c0,0-0.173-0.238-0.318-0.362c0,0-0.274,0.298-0.312,0.346
		c0,0,0.005,0.035,0.042,0.045c0,0-0.112,0.171-0.223,0.246c0,0,0.006,0.046,0.129,0.046c0,0-0.161,0.188-0.249,0.24
		c0,0,0.099,0.07,0.198,0.064c0,0-0.155,0.217-0.372,0.352c0,0,0.155,0.064,0.223,0.088c0,0-0.064,0.079-0.146,0.173
		c-0.087-0.06-0.331-0.235-0.352-0.313c0,0,0.104,0,0.213-0.046c0,0-0.188-0.09-0.232-0.2c0,0,0.044,0.007,0.104-0.03
		c0,0-0.208-0.129-0.247-0.24c0,0,0.04-0.003,0.072-0.023c0,0-0.182-0.205-0.334-0.311c0,0-0.288,0.256-0.328,0.295
		c0,0,0.005,0.03,0.044,0.039c0,0-0.116,0.146-0.233,0.211c0,0,0.006,0.04,0.137,0.04c0,0-0.169,0.16-0.26,0.206
		c0,0,0.104,0.06,0.208,0.054c0,0-0.163,0.186-0.389,0.302c0,0,0.162,0.054,0.233,0.075c0,0-0.175,0.176-0.313,0.295
		c-0.063-0.066-0.163-0.188-0.17-0.284c0,0,0.09-0.026,0.148,0c0,0-0.086-0.051-0.159-0.239c0,0-0.05-0.116-0.098-0.17
		c0,0-0.072,0.118-0.116,0.231c0,0-0.076,0.155-0.107,0.17c0,0,0.011,0.029,0.093,0.017c0,0-0.007,0.123-0.173,0.321
		c0,0,0.333,0.034,0.372,0.019c0,0-0.021,0.095-0.021,0.188c0,0,0-0.011,0-0.021c0-0.018-0.267-0.029-0.294-0.045
		c0.04,0.016-0.026,0.04-0.021,0.045c0.004-0.047-0.095-0.172-0.087-0.172H9.446c-0.024,0-0.045,0.027-0.062,0.056
		c-0.049-0.025-0.142-0.102-0.142-0.102c0.072,0,0.075-0.016,0.075-0.016c-0.064-0.036-0.13-0.114-0.13-0.114
		c0.022-0.005,0.025-0.02,0.025-0.02c-0.021-0.022-0.181-0.164-0.181-0.164c-0.083,0.059-0.185,0.172-0.185,0.172
		c0.018,0.012,0.04,0.016,0.04,0.016c-0.021,0.06-0.137,0.132-0.137,0.132c0.033,0.02,0.058,0.017,0.058,0.017
		C8.783,10.29,8.679,10.34,8.679,10.34c0.062,0.024,0.119,0.024,0.119,0.024c-0.012,0.043-0.147,0.14-0.194,0.174
		c-0.044-0.052-0.081-0.097-0.081-0.097c0.039-0.013,0.124-0.049,0.124-0.049c-0.12-0.074-0.207-0.194-0.207-0.194
		c0.056,0.003,0.11-0.036,0.11-0.036c-0.049-0.029-0.138-0.132-0.138-0.132c0.069,0,0.072-0.025,0.072-0.025
		C8.422,9.961,8.361,9.868,8.361,9.868c0.021-0.007,0.024-0.026,0.024-0.026C8.364,9.816,8.211,9.65,8.211,9.65
		c-0.08,0.068-0.177,0.2-0.177,0.2c0.018,0.015,0.038,0.017,0.038,0.017c-0.021,0.071-0.129,0.155-0.129,0.155
		c0.03,0.022,0.054,0.02,0.054,0.02c-0.024,0.072-0.124,0.13-0.124,0.13c0.06,0.028,0.114,0.029,0.114,0.029
		c-0.008,0.031-0.052,0.079-0.098,0.123c-0.13-0.067-0.294-0.15-0.302-0.164c-0.01-0.019-0.157-0.048-0.235-0.062
		c0.075,0.011,0.229,0.027,0.416-0.009c0,0-0.38-0.121-0.408-0.206c0,0,0.042,0.029,0.268,0.024c0,0-0.461-0.25-0.461-0.351
		L6.845,9.823c0,0,0.426-0.09-0.063,0.196l0.186,0.03c0,0-0.248,0.09-0.351,0.105c-0.104,0.017,0.206,0.065,0.295,0.021
		c0,0-0.131,0.046-0.228,0.07l-0.001-0.001c0,0-0.002,0.002-0.004,0.003c-0.032,0.008-0.059,0.014-0.076,0.014l-0.178,0.121
		c-0.061-0.054-0.118-0.108-0.183-0.168c0.102-0.005,0.161-0.008,0.226-0.011c-0.133-0.11-0.25-0.207-0.369-0.308
		C6.142,9.881,6.164,9.872,6.17,9.871C6.099,9.768,6.033,9.673,5.975,9.59C5.889,9.665,5.793,9.748,5.699,9.829
		C5.69,9.839,5.668,9.85,5.67,9.852c0.087,0.091-0.066,0.117-0.11,0.171c-0.002,0.003-0.007,0.006-0.01,0.009
		C5.535,10.013,5.17,9.589,5.154,9.374c0,0,0.169-0.056,0.299,0.017c0,0-0.327-0.304-0.344-0.524c0,0,0.141-0.04,0.23,0
		c0,0-0.135-0.079-0.247-0.373c0,0-0.079-0.18-0.152-0.265c0,0-0.111,0.187-0.18,0.36c0,0-0.118,0.243-0.168,0.266
		c0,0,0.018,0.045,0.147,0.027c0,0-0.012,0.169-0.224,0.442c-0.037-0.043-0.086-0.116-0.13-0.23c0,0-0.062-0.142-0.119-0.207
		c0,0-0.087,0.145-0.141,0.281c0,0-0.092,0.189-0.131,0.208c0,0,0.013,0.033,0.115,0.021c0,0-0.009,0.149-0.211,0.391
		c0,0,0.149,0.04,0.197,0.021c0,0-0.093,0.283-0.229,0.428c-0.038-0.035-0.076-0.069-0.111-0.105
		c0.027-0.011,0.042-0.018,0.047-0.02c-0.049-0.078-0.094-0.151-0.134-0.214c-0.06,0.056-0.125,0.12-0.192,0.183
		c-0.006,0.006-0.021,0.016-0.02,0.018c0.06,0.07-0.046,0.09-0.077,0.131c-0.017,0.022-0.046,0.038-0.082,0.066
		c0.056,0.004,0.09,0.007,0.164,0.015c-0.077,0.051-0.144,0.096-0.209,0.14c-0.077-0.078-0.151-0.154-0.234-0.24
		c0.086-0.004,0.136-0.006,0.19-0.01c-0.111-0.103-0.209-0.193-0.31-0.286C2.932,9.899,2.95,9.892,2.956,9.89
		c-0.04-0.063-0.074-0.118-0.108-0.173c-0.02-0.112-0.148-0.315-0.148-0.315S2.354,9.713,2.216,9.788c0,0,0.145,0.021,0.296-0.035
		c0,0-0.372,0.275-0.517,0.281c0,0,0.138,0.035,0.31-0.03c0,0-0.068,0.025-0.174,0.08c-0.001-0.003-0.003-0.004-0.004-0.007
		c-0.006,0.005-0.013,0.014-0.02,0.019c-0.082,0.041-0.183,0.1-0.296,0.174c-0.022-0.027-0.045-0.055-0.058-0.079
		c0,0,0.109-0.008,0.133-0.026c0,0-0.188-0.155-0.202-0.216c0,0,0.056,0,0.112-0.029c0,0-0.099-0.059-0.123-0.131
		c0,0,0.024,0.003,0.055-0.02c0,0-0.109-0.084-0.13-0.155c0,0,0.021-0.004,0.038-0.016c0,0-0.097-0.133-0.176-0.2
		c0,0-0.153,0.166-0.173,0.19c0,0,0.003,0.021,0.023,0.026c0,0-0.062,0.094-0.124,0.137c0,0,0.003,0.025,0.073,0.025
		c0,0-0.089,0.104-0.138,0.133c0,0,0.055,0.039,0.109,0.037c0,0-0.085,0.118-0.206,0.193c0,0,0.085,0.036,0.124,0.049
		c0,0-0.036-0.028-0.08,0.021l-0.692,0.536l-0.538,0.238H10.86h0.259h1.231h0.248h13.349h0.166h8.63h0.298h116.757h5.031h7.083
		h2.008h3.746 M4.477,9.37C4.474,9.376,4.471,9.38,4.466,9.385c0,0,0.191,0.05,0.253,0.028c0,0-0.05,0.148-0.13,0.304
		C4.514,9.633,4.404,9.494,4.396,9.383C4.395,9.383,4.432,9.373,4.477,9.37z M4.564,9.766c-0.027,0.05-0.059,0.096-0.091,0.14
		c-0.022-0.047-0.04-0.09-0.042-0.126C4.43,9.779,4.493,9.76,4.564,9.766z M5.459,10.26c-0.081-0.112-0.141-0.213-0.133-0.243
		c0,0,0.142,0.042,0.217,0.018c-0.024,0.022-0.06,0.043-0.103,0.073c0.082,0.007,0.13,0.012,0.238,0.02
		C5.601,10.174,5.529,10.218,5.459,10.26z M9.385,10.308c-0.014,0.024-0.022,0.045-0.025,0.053
		c-0.051-0.028-0.088-0.048-0.088-0.048C9.329,10.314,9.384,10.308,9.385,10.308z M10.096,10.222L10.096,10.222
		C10.096,10.221,10.096,10.221,10.096,10.222C10.096,10.221,10.096,10.222,10.096,10.222z M22.192,10.624c0,0,0-0.001,0-0.002
		c0.002,0.001,0.004,0.002,0.006,0.002H22.192z M35.002,10.498v-0.002c0,0,0.004,0.002,0.011,0.002
		C35.01,10.498,35.006,10.498,35.002,10.498z M58.856,8.202c-0.004,0.006-0.008,0.014-0.012,0.014c0,0,0.013,0.061,0.117,0.04
		c0,0-0.012,0.247-0.208,0.646c-0.005,0.003-0.014,0.005-0.02,0.007c-0.188-0.236-0.389-0.533-0.406-0.728
		C58.329,8.182,58.622,8.093,58.856,8.202z M102.559,9.367c-0.002,0-0.002-0.001-0.002-0.003c0,0,0.003,0,0.004-0.001
		C102.561,9.363,102.56,9.366,102.559,9.367z M105.986,9.385v0.009c0-0.002-0.006-0.007-0.006-0.008L105.986,9.385z M116.358,8.465
		c-0.033,0.057-0.072,0.118-0.121,0.186c0,0,0.204,0.062,0.271,0.035c0,0-0.029,0.102-0.08,0.232
		c-0.099-0.103-0.256-0.295-0.269-0.446C116.159,8.472,116.271,8.442,116.358,8.465z M138.584,10.298c-0.002,0-0.005,0-0.007,0
		c0.003-0.002,0.006-0.002,0.008-0.004C138.584,10.296,138.584,10.296,138.584,10.298z M148.82,10.467L148.82,10.467
		C148.821,10.468,148.82,10.468,148.82,10.467L148.82,10.467z"/>
</g>
</svg>
