<?xml version="1.0" encoding="utf-8"?>
<!-- Generator: Adobe Illustrator 16.2.0, SVG Export Plug-In . SVG Version: 6.00 Build 0)  -->
<!DOCTYPE svg PUBLIC "-//W3C//DTD SVG 1.1//EN" "http://www.w3.org/Graphics/SVG/1.1/DTD/svg11.dtd">
<svg version="1.1" id="Layer_1" xmlns="http://www.w3.org/2000/svg" xmlns:xlink="http://www.w3.org/1999/xlink" x="0px" y="0px"
	 width="178px" height="11px" viewBox="0 0 178 11" enable-background="new 0 0 178 11" xml:space="preserve">
<path opacity="0.4" fill="#6a317f" enable-background="new    " d="M11.411,10.846c0,0,4.208-2.24,5.355-2.672
	c0,0,0.602-0.354,1.526-0.346c1.21,0.012,1.589,0.148,2.19,0.109c0,0,2.623-1.416,6.448-2.124c0,0,0.711-0.311,3.061-0.943
	c2.133-0.575,3.579-1.395,8.021-0.734c0.67,0.1,0.968-0.071,2.252,0.027c0,0,3.607-0.628,5.137-1.101c0,0,3.989-1.238,4.591-0.865
	l4.7,1.65c0,0,0.546,0.158,2.514-0.393c0,0,7.104-2.594,7.651-2.751c0,0,1.425-0.739,2.62-0.705
	c0.797,0.023,1.752,0.391,3.283,0.941c0,0,8.744,2.987,12.023,3.694c0,0,0.902,0.093,3.333,0.314
	c0.948,0.086,2.355-0.131,3.647,0.259c1.682,0.507,2.979,0.435,4.821,0.762c0,0,1.013-0.304,2.435-0.609
	c0.272-0.059,1.424-0.491,1.787-0.481c1.09,0.029,2.467,0.321,3.432,0.619c0,0,3.8-0.137,8.063-0.789
	c1.421-0.216,2.853,0.074,3.96,0.396c0,0,0.709,0.374,2.76-0.51c0,0,1.063-0.531,1.886-0.649c1.045-0.149,1.477,0.413,3.442,0.845
	c0,0,2.295,0.394,4.479-0.55c0,0,4.151-1.886,5.685-1.021c0,0,7.435,3.066,8.418,3.145c0,0,1.748,0.313,2.948,0.313
	c0,0,3.144,0.274,5.574,0.706c0,0,3.823,0.394,5.026,0.236c0,0,1.857-0.552,3.39-0.629c1.129-0.06,1.856,0.393,3.606,0.707
	c0,0,1.856,0.155,2.994,0.276c0.854,0.088,1.269,0.431,2.579,0.901c0,0,5.466,0.863,7.104,2.043L11.411,10.846z"/>
<g>
	<polygon fill="#6a317f" points="9.487,10.428 9.482,10.424 9.482,10.424 	"/>
	<path fill="#6a317f" d="M168.159,10.252c0.045,0,0.088,0.08,0.129,0.131c0.004-0.068,0.01-0.131,0.017-0.131
		C168.253,10.252,168.208,10.252,168.159,10.252z"/>
	<path fill="#6a317f" d="M170.706,10.984h4.767L175.491,11 M175.958,10.984h1.737h0.109h0.161c-0.03-0.024-0.055-0.045-0.055-0.045
		c0.044,0.002,0.087-0.021,0.087-0.021c-0.037-0.019-0.107-0.076-0.107-0.076c0.057,0,0.059-0.014,0.059-0.014
		c-0.049-0.022-0.1-0.076-0.1-0.076c0.019-0.004,0.021-0.015,0.021-0.015c-0.019-0.018-0.138-0.106-0.138-0.106
		c-0.063,0.038-0.143,0.111-0.143,0.111c0.016,0.009,0.031,0.01,0.031,0.01c-0.012,0.021-0.041,0.047-0.064,0.063
		c-0.047-0.027-0.091-0.059-0.111-0.084c0,0,0.115-0.002,0.141-0.015c0,0-0.197-0.094-0.211-0.132c0,0,0.059,0,0.119-0.018
		c0,0-0.105-0.033-0.131-0.076c0,0,0.025,0.002,0.058-0.012c0,0-0.114-0.051-0.137-0.095c0,0,0.022-0.002,0.04-0.01
		c0,0-0.102-0.08-0.186-0.12c0,0-0.16,0.1-0.184,0.113c0,0,0.003,0.013,0.023,0.015c0,0-0.063,0.06-0.129,0.082
		c0,0,0.004,0.017,0.073,0.017c0,0-0.094,0.063-0.144,0.08c0,0,0.057,0.021,0.113,0.021c0,0-0.063,0.048-0.156,0.092
		c-0.038-0.026-0.104-0.079-0.112-0.104c0,0,0.037,0,0.078-0.018c0,0-0.067-0.033-0.085-0.074c0,0,0.017,0.002,0.037-0.012
		c0,0-0.074-0.048-0.088-0.089c0,0,0.014-0.002,0.022-0.01c0,0-0.063-0.075-0.118-0.114c0,0-0.104,0.094-0.115,0.109
		c0,0,0.002,0.012,0.016,0.015c0,0-0.042,0.054-0.083,0.077c0,0,0.002,0.016,0.049,0.016c0,0-0.062,0.061-0.093,0.076
		c0,0,0.037,0.021,0.074,0.021c0,0-0.043,0.047-0.105,0.089c-0.021-0.015-0.057-0.033-0.066-0.058c0,0,0.02,0,0.041-0.014
		c0,0-0.082-0.046-0.098-0.082c0,0,0.016-0.004,0.027-0.01c0,0-0.073-0.071-0.133-0.108c0,0-0.113,0.091-0.129,0.104
		c0,0,0.002,0.012,0.018,0.016c0,0-0.046,0.051-0.094,0.073c0,0,0.004,0.015,0.057,0.015c0,0-0.066,0.057-0.104,0.072
		c0,0,0.041,0.021,0.082,0.018c0,0-0.049,0.043-0.111,0.08c-0.057-0.05-0.125-0.104-0.198-0.156
		c-0.008-0.006-0.075-0.06-0.134-0.088c0,0-0.057,0.037-0.098,0.063c-0.154-0.067-0.195-0.118-0.195-0.118
		c-0.072,0.063-0.128,0.082-0.17,0.092c-0.047-0.035-0.094-0.067-0.146-0.105c0.084-0.006,0.131-0.008,0.184-0.01
		c-0.104-0.07-0.2-0.135-0.299-0.196c0.033-0.013,0.053-0.019,0.058-0.021c-0.062-0.064-0.112-0.127-0.159-0.183
		c-0.066,0.049-0.146,0.104-0.227,0.156c-0.006,0.006-0.021,0.014-0.021,0.016c0.071,0.06-0.055,0.075-0.091,0.11
		c-0.02,0.019-0.055,0.031-0.096,0.055c0.066,0.004,0.107,0.008,0.193,0.014c-0.082,0.041-0.154,0.074-0.225,0.107
		c-0.063-0.072-0.13-0.168-0.135-0.229c0,0,0.099-0.029,0.172,0.008c0,0-0.188-0.156-0.198-0.271c0,0,0.082-0.021,0.136,0
		c0,0-0.078-0.04-0.146-0.192c0,0-0.05-0.094-0.089-0.137c0,0-0.065,0.096-0.105,0.188c0,0-0.066,0.126-0.099,0.137
		c0,0,0.01,0.022,0.084,0.017c0,0-0.007,0.1-0.155,0.261c0,0,0.11,0.024,0.146,0.014c0,0-0.063,0.171-0.158,0.271
		c-0.051-0.021-0.133-0.063-0.143-0.084c0,0,0.049,0,0.104-0.017c0,0-0.089-0.026-0.107-0.062c0,0,0.021,0.002,0.047-0.01
		c0,0-0.097-0.041-0.113-0.074c0,0,0.02-0.002,0.033-0.008c0,0-0.086-0.063-0.154-0.098c0,0-0.137,0.077-0.152,0.092
		c0,0,0.003,0.01,0.021,0.014c0,0-0.055,0.046-0.108,0.063c0,0,0.003,0.016,0.063,0.016c0,0-0.025,0.016-0.06,0.033
		c-0.175,0.055-0.323,0.014-0.323,0.014l0,0c-0.015-0.008-0.031-0.016-0.037-0.023c0,0,0.021-0.001,0.035-0.007
		c0,0-0.089-0.054-0.162-0.081c0,0-0.142,0.068-0.16,0.077c0,0,0.004,0.009,0.021,0.011c0,0-0.06,0.039-0.112,0.057
		c0,0,0.006,0.008,0.063,0.012c-0.109,0.043-0.23,0.084-0.314,0.111c-0.07-0.039-0.139-0.076-0.215-0.119
		c0.1-0.002,0.152-0.004,0.217-0.006c-0.127-0.063-0.238-0.119-0.354-0.177c0.039-0.009,0.061-0.015,0.064-0.016
		c-0.068-0.06-0.134-0.113-0.188-0.161c-0.067,0.037-0.146,0.077-0.226,0.118L171,9.646l-0.172,0.549
		c0,0.009-0.001,0.059-0.005,0.059c0.001,0,0.003,0,0.004,0l-0.073,0.176l-0.107-0.078l-0.336,0.258l-0.129-0.096l-0.14,0.104
		l-0.397-0.428l-0.351,0.273l-0.126-0.063l0.109-0.004l-0.295-0.364l-0.281,0.364l0.125,0.006l-0.184,0.104l-0.137-0.082
		l-0.124,0.11l-0.032-0.03c0-0.044,0.002-0.08,0.002-0.08c-0.021,0.014-0.047-0.01-0.068-0.039c-0.002,0.02-0.004,0.036-0.004,0.053
		l-0.088-0.08l-0.125,0.24l-0.039,0.01l-0.284-0.199c0.002,0,0.006-0.004,0.006-0.004c-0.021-0.01-0.035-0.021-0.058-0.03
		l-0.125-0.09c0.187,0.047,0.197,0.012,0.197,0.012l-0.172-0.177l0.131,0.007l-0.371-0.287l-0.254,0.246l0.088-0.006l-0.226,0.181
		c-0.063-0.05-0.112-0.102-0.112-0.102c0.047,0.003,0.096-0.027,0.096-0.027c-0.041-0.021-0.116-0.104-0.116-0.104
		c0.059,0,0.063-0.021,0.063-0.021c-0.055-0.03-0.104-0.104-0.104-0.104c0.019-0.006,0.021-0.021,0.021-0.021
		c-0.017-0.021-0.146-0.147-0.146-0.147c-0.068,0.053-0.15,0.156-0.15,0.156c0.016,0.01,0.032,0.014,0.032,0.014
		c-0.021,0.054-0.112,0.119-0.112,0.119c0.025,0.018,0.049,0.017,0.049,0.017c-0.021,0.056-0.105,0.101-0.105,0.101
		c0.051,0.023,0.098,0.023,0.098,0.023c-0.01,0.031-0.088,0.1-0.137,0.138l-0.23-0.09l-0.158,0.187l-0.057-0.026V10.26h-0.127
		l-0.066-0.048l-0.088,0.048h-0.233c-0.002-0.003-0.006-0.009-0.008-0.012c0,0,0.05,0,0.101-0.021c0,0-0.087-0.043-0.107-0.095
		c0,0,0.021,0.003,0.051-0.015c0,0-0.098-0.063-0.113-0.112c0,0,0.02-0.004,0.032-0.012c0,0-0.082-0.099-0.152-0.146
		c0,0-0.133,0.119-0.149,0.137c0,0,0.005,0.018,0.021,0.021c0,0-0.055,0.068-0.104,0.101c0,0,0.002,0.019,0.062,0.019
		c0,0-0.077,0.075-0.116,0.099c0,0,0.045,0.026,0.094,0.024c0,0-0.012,0.011-0.015,0.014h-0.206l-0.35-0.319l-0.293,0.32h-0.239
		v0.129c0-0.045-0.085-0.089-0.142-0.139c0.098-0.003,0.16-0.005,0.223-0.008c-0.124-0.098-0.23-0.182-0.339-0.268l0.063-0.024
		l-0.242-0.313l-0.364,0.4l0.099,0.005l-0.228,0.177l0.265-0.037c-0.094,0.055-0.175,0.099-0.257,0.146l-0.315-0.271l-0.24,0.2
		c-0.079-0.101-0.161-0.214-0.17-0.292c0,0,0.088,0.016,0.259,0.014c0,0-0.28-0.226-0.298-0.387c0,0,0.123-0.029,0.199,0
		c0,0-0.117-0.058-0.213-0.273c0,0-0.065-0.133-0.132-0.192c0,0-0.099,0.136-0.155,0.265c0,0-0.101,0.18-0.145,0.195
		c0,0,0.016,0.033,0.126,0.021c0,0-0.011,0.142-0.233,0.369c0,0,0.166,0.035,0.219,0.021c0,0-0.047,0.114-0.12,0.233l-0.294-0.369
		l-0.268,0.373c-0.044-0.047-0.085-0.096-0.104-0.137c0,0,0.116-0.008,0.143-0.026c0,0-0.192-0.164-0.212-0.229
		c0.006-0.001,0.01-0.003,0.018-0.004c0.01,0,0.025-0.006,0.053-0.012c0.053-0.018,0.104-0.018,0.156-0.04l-0.276-0.317
		c0.001,0,0.001,0,0.001,0s-0.104-0.142-0.188-0.214c0,0-0.104,0.114-0.152,0.171l-0.301,0.336c0,0,0.043,0.02,0.104,0.039
		c0.008,0.008,0.059,0.038,0.107,0.035c0,0-0.09,0.127-0.217,0.206c0,0,0.09,0.038,0.129,0.05c0,0-0.037,0.051-0.084,0.104
		c-0.051-0.037-0.19-0.14-0.203-0.188c0,0,0.062,0,0.123-0.024c0,0-0.106-0.055-0.137-0.117l0.189,0.045l-0.446-0.441l-0.392,0.274
		l0.13-0.002l-0.187,0.192l0.194,0.016c0.004,0.001,0.011,0.001,0.017,0.002c-0.097,0.049-0.213,0.118-0.313,0.184
		c-0.095-0.095-0.185-0.188-0.285-0.293c0.116-0.006,0.185-0.01,0.259-0.013c-0.115-0.108-0.219-0.205-0.322-0.304l0.254-0.014
		l-0.475-0.576c0,0-0.412,0.479-0.477,0.537c0,0,0.063,0.049,0.229,0l-0.44,0.265l0.254,0.046c-0.12,0.079-0.229,0.152-0.339,0.227
		l-0.307-0.386l-0.427,0.24c-0.108-0.078-0.251-0.188-0.269-0.247c0,0,0.104,0,0.219-0.046c0,0-0.189-0.091-0.237-0.199
		c0,0,0.024-0.002,0.058-0.013c0.063-0.006,0.113-0.014,0.143-0.025c0,0-0.152-0.188-0.443-0.429
		c-0.054-0.05-0.107-0.101-0.166-0.138c0,0-0.172,0.148-0.271,0.236l-0.294,0.258c0,0,0.003,0.041,0.057,0.067
		c0.001,0.001,0.003,0.001,0.005,0.001c0.021,0.012,0.059,0.016,0.104,0.018c0.005,0,0.005,0.002,0.011,0.002
		c0,0-0.171,0.162-0.266,0.205c0,0,0.105,0.062,0.212,0.055c0,0-0.14,0.147-0.337,0.262c-0.088,0.038-0.168,0.063-0.229,0.078
		c-0.044-0.034-0.083-0.07-0.083-0.07c0.071,0,0.075-0.021,0.075-0.021c-0.063-0.036-0.131-0.117-0.131-0.117
		c0.021-0.006,0.022-0.021,0.022-0.021c-0.021-0.021-0.181-0.162-0.181-0.162c-0.085,0.057-0.187,0.172-0.187,0.172
		c0.02,0.01,0.041,0.013,0.041,0.013c-0.021,0.062-0.14,0.134-0.14,0.134c0.031,0.02,0.06,0.018,0.06,0.018
		c-0.012,0.022-0.033,0.041-0.057,0.06l-0.16,0.065c-0.093-0.071-0.152-0.155-0.152-0.155c0.056,0.006,0.111-0.033,0.111-0.033
		c-0.052-0.028-0.14-0.133-0.14-0.133c0.065,0,0.07-0.026,0.07-0.026c-0.063-0.043-0.122-0.138-0.122-0.138
		c0.021-0.007,0.021-0.025,0.021-0.025c-0.021-0.024-0.174-0.188-0.174-0.188c-0.08,0.066-0.178,0.199-0.178,0.199
		c0.018,0.014,0.038,0.016,0.038,0.016c-0.021,0.072-0.132,0.156-0.132,0.156c0.031,0.021,0.057,0.02,0.057,0.02
		c-0.023,0.072-0.124,0.131-0.124,0.131c0.06,0.028,0.114,0.029,0.114,0.029c-0.012,0.043-0.102,0.126-0.157,0.177l-0.31-0.123
		l0.002,0.011l-0.209,0.229l-0.336-0.451l-0.217,0.396c-0.043-0.053-0.084-0.106-0.104-0.155c0,0,0.108-0.008,0.132-0.029
		c0,0-0.188-0.182-0.199-0.252c0,0,0.055,0,0.111-0.034c0,0-0.1-0.068-0.124-0.15c0,0,0.024,0.006,0.056-0.021
		c0,0-0.106-0.101-0.131-0.183c0,0,0.021-0.002,0.038-0.019c0,0-0.097-0.156-0.177-0.233c0,0-0.151,0.192-0.172,0.224
		c0,0,0.002,0.021,0.021,0.03c0,0-0.063,0.106-0.125,0.157c0,0,0.006,0.029,0.072,0.029c0,0-0.09,0.121-0.139,0.152
		c0,0,0.057,0.047,0.109,0.042c0,0-0.087,0.14-0.207,0.228c0,0,0.086,0.041,0.123,0.056c0,0-0.035,0.055-0.08,0.112
		c-0.048-0.039-0.183-0.149-0.195-0.201c0,0,0.061,0,0.121-0.027c0,0-0.104-0.059-0.131-0.13c0,0,0.024,0.004,0.061-0.021
		c0,0-0.116-0.084-0.139-0.153c0,0,0.021-0.005,0.039-0.017c0,0-0.102-0.132-0.186-0.199c0,0-0.16,0.164-0.184,0.189
		c0,0,0.004,0.02,0.024,0.025c0,0-0.063,0.095-0.131,0.137c0,0,0.004,0.023,0.076,0.023c0,0-0.097,0.104-0.146,0.135
		c0,0,0.059,0.037,0.113,0.035c0,0-0.074,0.096-0.181,0.168l-0.109-0.014c-0.094-0.109-0.184-0.219-0.282-0.339
		c0.109-0.006,0.172-0.011,0.246-0.016l-0.539-0.858l-0.32,0.354c-0.002,0.004-0.01,0.011-0.01,0.013c0,0,0,0,0,0.001l-0.315,0.354
		l0.298,0.056c-0.134,0.104-0.249,0.192-0.367,0.28l-0.294-0.437l-0.313,0.336l0.189-0.036l-0.113,0.278
		c0.037,0.005,0.063,0.008,0.111,0.017c-0.063,0.065-0.115,0.121-0.171,0.18L149.066,9.9l-0.252,0.395
		c-0.043-0.046-0.086-0.096-0.105-0.138c0,0,0.107-0.009,0.133-0.025c0,0-0.171-0.143-0.195-0.209
		c0.035-0.011,0.068-0.021,0.105-0.038c0,0-0.092-0.382-0.332-0.552l-0.173,0.217c0,0.001-0.004,0.005-0.005,0.007l0,0l-0.215,0.271
		c0,0,0.019,0.021,0.053,0.046c0,0.001-0.002,0.004-0.002,0.004s0.014,0.01,0.033,0.021c0.018,0.012,0.039,0.021,0.063,0.031
		c-0.023,0.031-0.098,0.117-0.193,0.18c0,0,0.086,0.035,0.125,0.047c0,0-0.037,0.046-0.082,0.098
		c-0.047-0.033-0.182-0.132-0.191-0.175c0,0,0.061,0,0.118-0.024c0,0-0.104-0.05-0.13-0.111c0,0,0.023,0.002,0.059-0.016
		c0,0-0.113-0.072-0.138-0.133c0,0,0.021-0.003,0.038-0.016c0,0-0.102-0.112-0.187-0.172c0,0-0.157,0.143-0.18,0.164
		c0,0,0.002,0.018,0.024,0.021c0,0-0.065,0.08-0.131,0.115c0,0,0.004,0.021,0.074,0.021c0,0-0.096,0.09-0.146,0.112
		c0,0,0.059,0.033,0.115,0.03c0,0-0.061,0.057-0.136,0.109l-0.44-0.267c0.111-0.006,0.176-0.009,0.246-0.013
		c-0.145-0.135-0.271-0.252-0.398-0.371c0.043-0.02,0.066-0.028,0.074-0.031c-0.078-0.123-0.147-0.234-0.213-0.337
		c-0.092,0.089-0.106,0.063-0.213,0.162c-0.011,0.01-0.119,0.149-0.117,0.153c0.096,0.108-0.071,0.14-0.119,0.205
		c-0.023,0.032-0.07,0.06-0.129,0.103c0.09,0.009,0.144,0.014,0.261,0.022c-0.123,0.082-0.228,0.148-0.33,0.221l-0.522-0.398
		l-0.248,0.217c-0.078-0.087-0.154-0.166-0.237-0.26c0.123-0.007,0.194-0.011,0.274-0.016c-0.164-0.157-0.307-0.299-0.449-0.439
		c0.051-0.021,0.076-0.033,0.084-0.037c-0.088-0.147-0.168-0.281-0.237-0.4c-0.103,0.104-0.22,0.225-0.335,0.343
		c-0.012,0.011-0.037,0.028-0.034,0.032c0.55-0.064-0.017,0.158-0.067,0.234c-0.026,0.039-0.146,0.079-0.209,0.131
		c0.103,0.01,0.16,0.016,0.289,0.027c-0.138,0.098-0.254,0.184-0.373,0.266l-0.438-0.539l-0.516,0.422l-0.494-0.571l0,0
		c0,0-0.008-0.011-0.021-0.022l-0.227-0.263l-0.469,0.491l-0.156-0.127l0.148,0.003l-0.371-0.632l-0.324,0.592l0,0l0,0l-0.17,0.025
		l-0.008,0.009c0,0.002,0,0.004,0,0.006l-0.238,0.346c-0.063-0.102-0.035-0.204-0.043-0.28c0,0,0.207-0.058,0.336,0.017
		c0,0-0.307-0.306-0.322-0.522c0,0,0.15-0.039,0.238,0c0,0-0.129-0.078-0.24-0.373c0,0-0.076-0.182-0.148-0.266
		c0,0-0.109,0.186-0.18,0.359c0,0-0.118,0.242-0.169,0.267c0,0,0.021,0.045,0.146,0.026c0,0-0.012,0.191-0.271,0.503
		c0,0,0.142,0.034,0.219,0.03c-0.077,0.072-0.225,0.192-0.397,0.271l0.187,0.052l-0.433,0.132l-0.237-0.289l0.237,0.021
		l-0.441-0.407l-0.439,0.452l0.158-0.041l-0.269,0.199l0.263,0.021l-0.244,0.299l-0.102-0.097l-1.021-1.774
		c0,0-0.651,0.932-0.975,1.313l-0.293-0.521l-0.363,0.512c-0.063-0.021-0.125-0.051-0.188-0.081c-0.23-0.136-0.396-0.34-0.396-0.34
		c0.109,0.006,0.217-0.066,0.217-0.066c-0.094-0.052-0.271-0.235-0.271-0.235c0.14,0,0.146-0.049,0.146-0.049
		c-0.123-0.072-0.246-0.24-0.246-0.24c0.041-0.014,0.049-0.047,0.049-0.047c-0.043-0.047-0.344-0.34-0.344-0.34
		c-0.16,0.12-0.352,0.355-0.352,0.355c0.034,0.023,0.075,0.029,0.075,0.029c-0.041,0.127-0.263,0.275-0.263,0.275
		c0.063,0.041,0.109,0.035,0.109,0.035c-0.047,0.127-0.244,0.229-0.244,0.229c0.114,0.053,0.226,0.053,0.226,0.053
		c-0.021,0.091-0.276,0.291-0.369,0.361c-0.084-0.107-0.151-0.201-0.151-0.201c0.071-0.024,0.234-0.102,0.234-0.102
		c-0.229-0.154-0.393-0.404-0.393-0.404c0.104,0.008,0.207-0.073,0.207-0.073c-0.09-0.062-0.259-0.274-0.259-0.274
		c0.13,0,0.136-0.054,0.136-0.054s-0.188-0.528-0.521-0.791c0,0-0.515,0.549-0.504,0.831c0,0,0.011,0.025,0.065,0.033
		c0.021,0.007,0.037,0.007,0.037,0.007c-0.045,0.147-0.233,0.271-0.233,0.271c0.108,0.061,0.216,0.063,0.216,0.063
		c-0.023,0.127-0.385,0.451-0.385,0.451c0.047,0.039,0.255,0.055,0.255,0.055c-0.041,0.091-0.132,0.197-0.218,0.299l-0.523-0.669
		l-0.496,0.778c-0.079-0.09-0.17-0.193-0.252-0.287c-0.02-0.028-0.042-0.059-0.054-0.083c0,0,0.192-0.013,0.237-0.05
		c0,0-0.338-0.299-0.359-0.416c0,0,0.021-0.004,0.025-0.004l0.353,0.002l-0.472-0.666c0.005,0,0.005,0,0.009-0.002
		c0,0-0.065-0.099-0.146-0.198l-0.162-0.23c0,0-0.609,0.794-0.693,1.146l0.281,0.06c0.002,0,0.004,0,0.004,0
		s-0.188,0.176-0.459,0.364c-0.16-0.282-0.396-0.772-0.414-1.056c0,0,0.236-0.123,0.418,0.02c0,0-0.457-0.592-0.479-1.02
		c0,0,0.195-0.077,0.321-0.004c0,0-0.189-0.152-0.346-0.719c0,0-0.109-0.349-0.213-0.512c0,0-0.156,0.357-0.25,0.695
		c0,0-0.164,0.467-0.234,0.511c0,0,0.021,0.087,0.203,0.053c0,0-0.016,0.371-0.377,0.97c0,0,0.269,0.099,0.354,0.054
		c0,0-0.132,0.544-0.328,0.916l-0.229-0.054l-0.262-0.185l0.127,0.002l-0.66-0.729l-0.566,0.744l0.195-0.022
		c-0.004,0.007-0.012,0.014-0.016,0.021c-0.098,0.068-0.217,0.146-0.332,0.207c-0.127-0.084-0.229-0.185-0.275-0.238
		c0.141-0.01,0.25-0.032,0.252-0.082c0.006-0.086-0.193-0.326-0.393-0.541c0-0.004,0.002-0.01,0.002-0.01
		c-0.037-0.043-0.312-0.316-0.312-0.316c-0.001,0.001-0.001,0.001-0.002,0.002c-0.034-0.035-0.063-0.063-0.063-0.063L125.729,7.8
		l-0.709,0.866c0,0,0.076,0.032,0.168,0.064l0,0c0.002,0.002,0.004,0,0.008,0.002c0.063,0.023,0.123,0.041,0.188,0.059
		c-0.024,0.066-0.153,0.182-0.251,0.262l-0.814-0.229l-0.534,0.268c-0.134-0.15-0.308-0.359-0.373-0.521c0,0,0.248-0.02,0.304-0.069
		c0,0-0.428-0.412-0.458-0.578l0,0c0.099,0.046,0.252,0.093,0.496,0.077c0,0-0.813-1.454-1.005-1.535c0,0,0.063,0.084-0.036,0.208
		c-0.096,0.123-0.099,0.263-0.099,0.297v0.003c0,0.328-0.635,0.715-0.629,0.824c0,0,0.086,0.116,0.31,0.124
		c-0.01,0.017-0.229,0.318-0.493,0.511c0,0,0.178,0.094,0.264,0.129c0,0-0.394,0.555-0.877,0.824L120.656,8.4l-0.334,0.682
		l-0.424-0.221l-0.104,0.078l-0.063-0.041l-0.358-0.232l0.442,0.016l-1.002-0.563l-0.739,0.677l0.44-0.145L117.8,9.239l-0.062-0.132
		c-0.002-0.004-0.004-0.01-0.006-0.015v0.001L117.7,9.027l-0.449,0.201c-0.118-0.182-0.271-0.436-0.278-0.596
		c0,0,0.182-0.068,0.317,0.021c0,0-0.349-0.37-0.367-0.641c0,0,0.15-0.048,0.248,0c0,0-0.146-0.096-0.267-0.453
		c0,0-0.084-0.22-0.161-0.32c0,0-0.121,0.227-0.191,0.439c0,0-0.128,0.293-0.183,0.321c0,0,0.02,0.054,0.156,0.034
		c0,0-0.012,0.154-0.16,0.413c-0.043-0.036-0.141-0.138-0.223-0.354c0,0-0.08-0.18-0.151-0.265c0,0-0.112,0.187-0.181,0.36
		c0,0-0.119,0.242-0.17,0.265c0,0,0.018,0.047,0.146,0.028c0,0-0.02,0.139-0.17,0.36l-0.455-0.401l-0.5,1.013
		c-0.146-0.118-0.313-0.244-0.408-0.332c0.045-0.021,0.551,0.001,0.559,0c-0.203-0.156-0.25-0.238-0.25-0.33V8.777l-0.236,0.01
		c-0.002-0.003-0.117-0.005-0.119-0.01c-0.007,0.008-0.064,0.015-0.068,0.02l-0.49,0.291l0.213-0.021l-0.479,0.275
		c-0.063-0.07-0.129-0.141-0.197-0.219c0.111-0.007,0.172-0.012,0.242-0.016c-0.144-0.146-0.271-0.273-0.398-0.405
		c0.043-0.021,0.063-0.033,0.072-0.036c-0.076-0.135-0.148-0.261-0.211-0.37c-0.095,0.099-0.195,0.208-0.302,0.317
		c-0.011,0.01-0.03,0.025-0.028,0.029c0.094,0.121-0.072,0.152-0.119,0.228c-0.024,0.037-0.071,0.063-0.127,0.11
		c0.088,0.009,0.142,0.016,0.258,0.025c-0.148,0.108-0.463,0.299-0.668,0.434l-0.358-0.597l-0.485,0.505l-0.291-0.283l-0.588,0.217
		c-0.095-0.082-0.188-0.163-0.272-0.239c0.036-0.017,0.062-0.024,0.063-0.026c-0.068-0.104-0.133-0.199-0.188-0.283
		c-0.083,0.074-0.176,0.158-0.271,0.242c-0.01,0.008-0.029,0.021-0.025,0.021c0.066,0.074-0.016,0.105-0.07,0.145l-0.488-0.353
		l-0.398,0.308c-0.074-0.068-0.151-0.14-0.227-0.207c0.045-0.021,0.066-0.029,0.073-0.033c-0.077-0.123-0.146-0.236-0.211-0.338
		c-0.095,0.09-0.196,0.188-0.3,0.289c-0.012,0.01-0.034,0.023-0.03,0.027c0.097,0.109-0.069,0.141-0.119,0.205
		c-0.024,0.033-0.071,0.061-0.128,0.102c0.088,0.008,0.145,0.017,0.26,0.025c-0.062,0.041-0.106,0.07-0.162,0.105l-0.164-0.043
		l-0.117-0.131l-0.033-0.24l-0.139,0.207l-0.146,0.078c-0.037-0.024-0.074-0.058-0.092-0.097c0,0,0.033,0.005,0.076-0.021
		c0,0-0.153-0.096-0.182-0.174c0,0,0.026-0.004,0.053-0.018c0,0-0.135-0.148-0.244-0.223c0,0-0.213,0.182-0.242,0.211
		c0,0,0.004,0.021,0.033,0.027c0,0-0.086,0.104-0.172,0.151c0,0,0.004,0.028,0.1,0.028c0,0-0.124,0.113-0.189,0.146
		c0,0,0.076,0.127,0.152,0.122c0,0-0.059,0.212-0.146,0.212h-0.105c-0.013,0-0.119-0.146-0.146-0.215c0,0,0.029-0.04,0.068-0.063
		c0,0-0.138-0.109-0.164-0.186c0,0,0.026-0.013,0.049-0.025c0,0-0.121-0.145-0.225-0.215c0,0-0.189,0.17-0.218,0.196
		c0,0,0.005,0.021,0.028,0.024c0,0-0.078,0.099-0.153,0.142c0,0,0.004,0.026,0.091,0.026c0,0-0.111,0.105-0.173,0.138
		c0,0,0.067,0.04,0.139,0.037c0,0-0.085,0.098-0.208,0.173c-0.104-0.148-0.375-0.575-0.389-0.813c0,0,0.18-0.073,0.316,0.022
		c0,0-0.35-0.399-0.367-0.688c0,0,0.148-0.051,0.246,0c0,0-0.146-0.104-0.266-0.486c0,0-0.084-0.235-0.162-0.35
		c0,0-0.119,0.244-0.191,0.475c0,0-0.127,0.318-0.182,0.349c0,0,0.019,0.06,0.156,0.036c0,0-0.014,0.253-0.288,0.659
		c0,0,0.203,0.065,0.271,0.037c0,0-0.077,0.286-0.197,0.528c-0.021-0.021-0.048-0.043-0.064-0.063
		c-0.033-0.04-0.08-0.098-0.14-0.169c-0.021-0.026-0.036-0.054-0.036-0.054l-0.004,0.004c-0.193-0.254-0.443-0.614-0.464-0.842
		c0,0,0.294-0.096,0.521,0.029c0,0-0.566-0.519-0.599-0.892c0,0,0.246-0.067,0.399,0c0,0-0.232-0.138-0.43-0.634
		c0,0-0.139-0.308-0.267-0.45c0,0-0.196,0.315-0.313,0.612c0,0-0.205,0.414-0.293,0.451c0,0,0.028,0.075,0.254,0.049
		c0,0-0.021,0.27-0.356,0.713c-0.021-0.043-0.041-0.088-0.062-0.144c0,0-0.088-0.204-0.168-0.303c0,0-0.121,0.212-0.195,0.412
		c0,0-0.131,0.276-0.184,0.302c0,0,0.018,0.053,0.158,0.033c0,0-0.014,0.22-0.295,0.572c0,0,0.208,0.059,0.275,0.031
		c0,0-0.096,0.291-0.236,0.512l-0.395-0.659l-0.367,0.67c-0.004,0.004-0.006,0.009-0.01,0.009c0.002,0,0.002,0,0.004,0l-0.021,0.035
		c-0.088-0.098-0.187-0.207-0.229-0.297c0,0,0.192-0.016,0.233-0.049c0,0-0.329-0.289-0.354-0.403c0,0,0.099,0,0.197-0.056
		c0,0-0.174-0.107-0.215-0.24c0,0,0.041,0.007,0.096-0.036c0,0-0.19-0.156-0.229-0.289c0,0,0.037-0.007,0.066-0.028
		c0,0-0.17-0.248-0.313-0.375c0,0-0.265,0.308-0.3,0.354c0,0,0.005,0.036,0.039,0.048c0,0-0.106,0.175-0.218,0.255
		c0,0,0.007,0.048,0.129,0.048c0,0-0.157,0.191-0.241,0.245c0,0,0.099,0.074,0.19,0.066c0,0-0.149,0.223-0.357,0.36
		c0,0,0.148,0.067,0.215,0.092c0,0-0.063,0.082-0.143,0.18c-0.084-0.063-0.318-0.243-0.342-0.323c0,0,0.104,0,0.209-0.046
		c0,0-0.184-0.093-0.227-0.206c0,0,0.043,0.007,0.1-0.03c0,0-0.199-0.136-0.237-0.248c0,0,0.038-0.006,0.069-0.025
		c0,0-0.178-0.211-0.324-0.32c0,0-0.277,0.264-0.315,0.305c0,0,0.006,0.033,0.044,0.043c0,0-0.111,0.149-0.229,0.217
		c0,0,0.008,0.041,0.134,0.041c0,0-0.163,0.166-0.252,0.212c0,0,0.102,0.063,0.198,0.059c0,0-0.154,0.188-0.375,0.31
		c0,0,0.156,0.057,0.228,0.076L98.124,9.48L97.66,9.592l-0.354,0.122c-0.072-0.071-0.154-0.157-0.166-0.198
		c0,0,0.074-0.016,0.154-0.053c0,0-0.137-0.082-0.169-0.172c0,0,0.032,0,0.074-0.029c0,0-0.15-0.107-0.183-0.197
		c0,0,0.03-0.006,0.056-0.021c0,0-0.134-0.169-0.243-0.256c0,0-0.209,0.21-0.234,0.243c0,0,0.004,0.023,0.031,0.031
		c0,0-0.087,0.119-0.172,0.172c0,0,0.005,0.033,0.1,0.033c0,0-0.121,0.131-0.188,0.168c0,0,0.073,0.049,0.147,0.045
		c0,0-0.115,0.147-0.275,0.244c-0.043-0.017-0.084-0.031-0.125-0.048c0.023-0.005,0.047-0.009,0.072-0.018
		c0,0-0.145-0.063-0.178-0.142c0,0,0.033,0.004,0.078-0.021c0,0-0.158-0.092-0.188-0.169c0,0,0.026-0.005,0.055-0.019
		c0,0-0.139-0.145-0.256-0.219c0,0-0.219,0.18-0.248,0.207c0,0,0.004,0.021,0.033,0.028c0,0-0.09,0.103-0.178,0.147
		c0,0,0.004,0.025,0.104,0.025c0,0-0.129,0.113-0.196,0.146c0,0,0.078,0.043,0.157,0.039c0,0-0.063,0.064-0.161,0.135
		c-0.198-0.221-0.394-0.438-0.586-0.651c0.019-0.021,0.035-0.039,0.054-0.06c0.084,0.006,0.168,0.012,0.243,0.018
		c-0.181-0.254-0.354-0.496-0.553-0.77c0.183-0.013,0.284-0.021,0.399-0.026c-0.232-0.294-0.44-0.558-0.648-0.822
		c0.068-0.043,0.107-0.063,0.121-0.071c-0.127-0.271-0.243-0.524-0.346-0.748c-0.151,0.199-0.318,0.42-0.485,0.641
		c-0.019,0.021-0.056,0.055-0.052,0.063c0.153,0.245-0.115,0.313-0.194,0.457c-0.041,0.075-0.116,0.131-0.206,0.227
		c0.145,0.019,0.23,0.029,0.42,0.055c-0.307,0.277-0.557,0.503-0.82,0.744c0.09,0.044,0.19,0.095,0.342,0.168
		c-0.137,0.152-0.269,0.303-0.398,0.453L92.374,9.42l-0.116,0.069l-0.255-0.2l-0.231,0.2c-0.051-0.048-0.104-0.106-0.11-0.138
		c0,0,0.055,0,0.11-0.028c0,0-0.1-0.06-0.123-0.132c0,0,0.023,0.004,0.057-0.02c0,0-0.109-0.085-0.132-0.154
		c0,0,0.021-0.002,0.038-0.018c0,0-0.096-0.133-0.178-0.2c0,0-0.15,0.165-0.172,0.191c0,0,0.004,0.02,0.022,0.024
		c0,0-0.063,0.094-0.125,0.137c0,0,0.005,0.025,0.071,0.025c0,0-0.088,0.104-0.139,0.133c0,0,0.057,0.039,0.11,0.035
		c0,0-0.087,0.12-0.207,0.195c0,0,0.087,0.035,0.124,0.048c0,0-0.036,0.045-0.081,0.097c-0.048-0.031-0.183-0.131-0.192-0.174
		c0,0,0.059,0,0.117-0.025c0,0-0.104-0.051-0.13-0.108c0,0,0.024,0.003,0.06-0.019c0,0-0.115-0.07-0.139-0.133
		c0,0,0.021-0.002,0.039-0.014c0,0-0.104-0.113-0.186-0.173c0,0-0.158,0.142-0.182,0.164c0,0,0.002,0.017,0.023,0.021
		c0,0-0.064,0.082-0.129,0.117c0,0,0.004,0.022,0.076,0.022c0,0-0.095,0.089-0.146,0.112c0,0,0.058,0.032,0.112,0.028
		c0,0-0.053,0.054-0.123,0.104l-0.37-0.18c0.082-0.006,0.127-0.004,0.18-0.006c-0.104-0.098-0.198-0.182-0.291-0.27
		c0.031-0.016,0.05-0.021,0.054-0.021c-0.056-0.092-0.106-0.175-0.152-0.247c-0.067,0.064-0.145,0.14-0.216,0.212
		c-0.008,0.008-0.024,0.019-0.022,0.021c0.068,0.08-0.053,0.104-0.087,0.151c-0.019,0.023-0.053,0.043-0.093,0.073
		c0.063,0.007,0.103,0.011,0.188,0.019c-0.047,0.031-0.089,0.061-0.131,0.09c-0.105-0.104-0.247-0.25-0.301-0.361
		c0,0,0.194-0.01,0.237-0.046c0,0-0.334-0.276-0.358-0.387c0,0,0.098,0,0.201-0.054c0,0-0.176-0.104-0.218-0.23
		c0,0,0.042,0.006,0.097-0.035c0,0-0.194-0.148-0.23-0.277c0,0,0.036-0.004,0.067-0.028c0,0-0.171-0.236-0.314-0.357
		c0,0-0.269,0.294-0.305,0.343c0,0,0.005,0.033,0.042,0.045c0,0-0.111,0.168-0.219,0.244c0,0,0.005,0.045,0.127,0.045
		c0,0-0.158,0.188-0.244,0.238c0,0,0.098,0.069,0.194,0.063c0,0-0.152,0.218-0.365,0.352c0,0,0.152,0.063,0.219,0.086
		c0,0-0.063,0.078-0.144,0.174C87.7,9.202,87.461,9.031,87.441,8.95c0,0,0.102,0,0.209-0.048c0,0-0.186-0.086-0.229-0.195
		c0,0,0.044,0.005,0.102-0.031c0,0-0.205-0.127-0.242-0.234c0,0,0.038-0.006,0.07-0.025c0,0-0.179-0.203-0.329-0.307
		c0,0-0.281,0.252-0.321,0.291c0,0,0.006,0.029,0.043,0.041c0,0-0.115,0.144-0.229,0.207c0,0,0.006,0.039,0.134,0.039
		c0,0-0.167,0.16-0.255,0.205c0,0,0.101,0.06,0.205,0.053c0,0-0.16,0.185-0.382,0.299c0,0,0.159,0.053,0.229,0.072
		c0,0-0.313,0.316-0.427,0.388c0,0,0.159,0.051,0.242,0.024c0,0-0.062,0.11-0.143,0.236c-0.143-0.142-0.282-0.279-0.421-0.418
		c0.014-0.012,0.026-0.025,0.041-0.04c0.063,0.005,0.125,0.009,0.182,0.013c-0.136-0.168-0.267-0.33-0.415-0.516
		c0.137-0.008,0.214-0.012,0.301-0.02c-0.175-0.194-0.331-0.37-0.489-0.549c0.053-0.026,0.083-0.043,0.091-0.047
		c-0.095-0.185-0.182-0.353-0.26-0.502c-0.112,0.133-0.238,0.281-0.367,0.43c-0.013,0.015-0.041,0.035-0.037,0.041
		c0.114,0.162-0.089,0.207-0.147,0.306c-0.031,0.05-0.088,0.088-0.156,0.147c0.107,0.016,0.173,0.021,0.315,0.039
		c-0.17,0.137-0.316,0.256-0.462,0.373L84.031,9.08c0.05,0.003,0.103,0.008,0.148,0.01c-0.183-0.253-0.356-0.492-0.552-0.77
		c0.181-0.012,0.284-0.019,0.4-0.025C83.793,8,83.586,7.736,83.376,7.475c0.071-0.043,0.11-0.063,0.121-0.072
		c-0.126-0.271-0.242-0.525-0.345-0.747c-0.15,0.198-0.318,0.42-0.487,0.641c-0.016,0.021-0.054,0.054-0.049,0.062
		c0.152,0.244-0.118,0.313-0.195,0.457c-0.041,0.074-0.118,0.131-0.207,0.225c0.143,0.021,0.23,0.031,0.42,0.055
		C82.328,8.371,82.08,8.6,81.813,8.84c0.088,0.044,0.19,0.094,0.341,0.168c-0.208,0.232-0.408,0.46-0.613,0.692
		c-0.06-0.06-0.119-0.117-0.184-0.183c0.083-0.004,0.13-0.008,0.184-0.01c-0.107-0.097-0.203-0.182-0.298-0.27
		c0.032-0.016,0.05-0.021,0.055-0.022c-0.057-0.091-0.11-0.173-0.158-0.246c-0.068,0.065-0.146,0.14-0.222,0.212
		C80.911,9.189,80.894,9.2,80.896,9.2c0.07,0.081-0.053,0.104-0.088,0.149c-0.019,0.023-0.055,0.045-0.095,0.074
		c0.065,0.008,0.104,0.012,0.191,0.018c-0.048,0.031-0.093,0.062-0.135,0.09c-0.108-0.102-0.252-0.248-0.308-0.358
		c0,0,0.199-0.012,0.244-0.045c0,0-0.343-0.276-0.367-0.386c0,0,0.099,0,0.205-0.053c0,0-0.18-0.103-0.223-0.229
		c0,0,0.043,0.008,0.099-0.034c0,0-0.199-0.146-0.237-0.273c0,0,0.039-0.006,0.069-0.029c0,0-0.175-0.234-0.32-0.355
		c0,0-0.277,0.293-0.314,0.34c0,0,0.005,0.033,0.043,0.045c0,0-0.112,0.168-0.224,0.242c0,0,0.006,0.045,0.13,0.045
		c0,0-0.162,0.186-0.25,0.235c0,0,0.1,0.068,0.199,0.063c0,0-0.156,0.213-0.374,0.346c0,0,0.156,0.063,0.224,0.085
		c0,0-0.065,0.079-0.146,0.172c-0.087-0.06-0.333-0.231-0.354-0.309c0,0,0.104,0,0.216-0.043c0,0-0.189-0.091-0.235-0.199
		c0,0,0.045,0.004,0.104-0.03c0,0-0.209-0.127-0.247-0.234c0,0,0.038-0.006,0.071-0.022c0,0-0.184-0.201-0.336-0.305
		c0,0-0.289,0.25-0.328,0.288c0,0,0.005,0.029,0.045,0.039c0,0-0.119,0.145-0.236,0.207c0,0,0.007,0.039,0.137,0.039
		c0,0-0.17,0.16-0.261,0.201c0,0,0.104,0.062,0.208,0.055c0,0-0.163,0.182-0.391,0.297c0,0,0.164,0.052,0.234,0.07
		c0,0-0.106,0.144-0.237,0.256l-0.284-0.159c0-0.001,0-0.001,0-0.001h-0.04l-0.182-0.076L76.929,9.49
		c-0.051-0.047-0.11-0.104-0.119-0.139c0,0,0.054,0,0.111-0.027c0,0-0.1-0.059-0.124-0.131c0,0,0.023,0.005,0.053-0.02
		c0,0-0.11-0.085-0.131-0.156c0,0,0.02-0.002,0.038-0.016c0,0-0.096-0.133-0.178-0.2c0,0-0.151,0.164-0.172,0.191
		c0,0,0.003,0.021,0.023,0.022c0,0-0.063,0.098-0.124,0.139c0,0,0.003,0.023,0.073,0.023c0,0-0.088,0.105-0.137,0.135
		c0,0,0.055,0.039,0.108,0.035c0,0-0.085,0.12-0.206,0.195c0,0,0.085,0.034,0.125,0.048c0,0-0.036,0.044-0.082,0.097
		c-0.049-0.033-0.183-0.131-0.195-0.174c0,0,0.059,0,0.119-0.024c0,0-0.104-0.052-0.128-0.11c0,0,0.025,0.004,0.057-0.016
		c0,0-0.116-0.072-0.137-0.135c0,0,0.021-0.004,0.039-0.016c0,0-0.101-0.111-0.185-0.171c0,0-0.159,0.142-0.182,0.163
		c0,0,0.003,0.018,0.026,0.021c0,0-0.065,0.08-0.13,0.116c0,0,0.003,0.021,0.075,0.021c0,0-0.092,0.09-0.144,0.112
		c0,0,0.058,0.035,0.116,0.031c0,0-0.091,0.104-0.217,0.166c0,0,0.09,0.03,0.129,0.041c0,0-0.158,0.161-0.229,0.209
		c-0.129-0.104-0.255-0.203-0.382-0.304c0.012-0.013,0.024-0.021,0.037-0.03c0.058,0.002,0.116,0.006,0.167,0.008
		c-0.125-0.125-0.244-0.244-0.379-0.379c0.126-0.007,0.196-0.012,0.276-0.016c-0.161-0.146-0.304-0.273-0.449-0.406
		c0.049-0.021,0.077-0.031,0.083-0.037c-0.086-0.135-0.167-0.26-0.237-0.371c-0.104,0.103-0.22,0.209-0.335,0.318
		c-0.011,0.012-0.038,0.025-0.034,0.029c0.105,0.121-0.082,0.154-0.134,0.228c-0.028,0.037-0.081,0.065-0.143,0.111
		c0.098,0.009,0.159,0.015,0.289,0.026c-0.21,0.139-0.381,0.25-0.565,0.369c0.062,0.024,0.131,0.049,0.235,0.086
		c-0.113,0.094-0.222,0.182-0.332,0.271c-0.195-0.188-0.388-0.371-0.577-0.554c-0.013-0.021-0.111-0.075-0.096-0.09
		c0.075,0.004,0.294,0.055,0.362,0.06c-0.163-0.199-0.319-0.384-0.496-0.597c0.164-0.011,0.256-0.018,0.359-0.021
		c-0.21-0.229-0.396-0.432-0.585-0.637c0.063-0.033,0.099-0.051,0.108-0.057c-0.114-0.214-0.219-0.408-0.31-0.58
		c-0.135,0.153-0.287,0.325-0.438,0.498c-0.015,0.016-0.048,0.041-0.044,0.045c0.609-0.017,0.06,0.189-0.106,0.336
		C71.42,8.283,71.3,8.355,71.221,8.43c0.128,0.016,0.208,0.021,0.377,0.043C71.323,8.688,71.1,8.861,70.86,9.049
		c0.079,0.034,0.17,0.073,0.306,0.131c-0.165,0.16-0.326,0.318-0.487,0.479c-0.053-0.041-0.101-0.081-0.125-0.117
		c0,0,0.189-0.01,0.23-0.033c0,0-0.326-0.18-0.349-0.252c0,0,0.094-0.001,0.195-0.033c0,0-0.172-0.066-0.213-0.15
		c0,0,0.041,0.006,0.096-0.021c0,0-0.189-0.098-0.226-0.179c0,0,0.036-0.004,0.064-0.019c0,0-0.166-0.153-0.305-0.231
		c0,0-0.262,0.19-0.297,0.221c0,0,0.005,0.023,0.042,0.03c0,0-0.107,0.107-0.214,0.156c0,0,0.005,0.031,0.125,0.031
		c0,0-0.154,0.117-0.236,0.15c0,0,0.095,0.045,0.189,0.041c0,0-0.148,0.141-0.355,0.229c0,0,0.148,0.041,0.212,0.055
		c0,0-0.29,0.238-0.396,0.291c0,0,0.132,0.107,0.209,0.091c0,0-0.052,0.046-0.052,0.101v0.238h-0.225
		c-0.071,0-0.148-0.281-0.148-0.281c0.04-0.01,0.129-0.11,0.129-0.11c-0.126-0.063-0.215-0.2-0.215-0.2
		c0.059,0.003,0.116-0.05,0.116-0.05c-0.05-0.022-0.144-0.12-0.144-0.12c0.071,0,0.075-0.028,0.075-0.028
		c-0.064-0.036-0.129-0.118-0.129-0.118c0.021-0.005,0.024-0.021,0.024-0.021c-0.021-0.021-0.181-0.163-0.181-0.163
		c-0.084,0.058-0.185,0.169-0.185,0.169c0.018,0.014,0.039,0.016,0.039,0.016C68.408,9.41,68.292,9.48,68.292,9.48
		c0.034,0.021,0.059,0.019,0.059,0.019C68.326,9.55,68.22,9.6,68.22,9.6c0.063,0.025,0.12-0.107,0.12-0.107
		c-0.008,0.037-0.124,0.027-0.178,0.027H68.14c-0.04,0-0.073,0.047-0.073,0.047c0.039-0.012,0.124,0.021,0.124,0.021
		c-0.12-0.074-0.207-0.161-0.207-0.161c0.055,0.005,0.11-0.02,0.11-0.02c-0.049-0.028-0.138-0.125-0.138-0.125
		c0.068,0,0.071-0.021,0.071-0.021c-0.061-0.042-0.123-0.134-0.123-0.134c0.02-0.007,0.023-0.023,0.023-0.023
		c-0.021-0.024-0.173-0.19-0.173-0.19c-0.081,0.067-0.177,0.2-0.177,0.2c0.017,0.015,0.039,0.017,0.039,0.017
		c-0.021,0.071-0.131,0.155-0.131,0.155c0.03,0.023,0.054,0.02,0.054,0.02c-0.024,0.071-0.123,0.131-0.123,0.131
		C67.475,9.46,67.53,9.46,67.53,9.46c-0.014,0.063-0.202,0.22-0.202,0.22c0.024,0.021,0.134,0.023,0.134,0.023
		c-0.03,0.063-0.11,0.146-0.169,0.201c-0.023-0.016-0.047-0.031-0.073-0.049c0.047-0.006,0.069-0.008,0.106-0.013
		c-0.023-0.017-0.042-0.024-0.053-0.041c-0.019-0.026-0.087-0.038-0.048-0.085c0.001,0-0.008-0.007-0.012-0.012
		c-0.042-0.04-0.084-0.08-0.124-0.118c-0.026,0.042-0.056,0.088-0.086,0.14c0.002,0.002,0.012,0.006,0.03,0.014
		c-0.054,0.048-0.105,0.099-0.165,0.15c0.029,0,0.056,0,0.101,0.004c-0.049,0.049-0.094,0.092-0.139,0.139
		c0.02-0.001,0.041-0.008,0.062-0.01c0.004,0.004,0.009,0.092,0.014,0.097c-0.045,0.039-0.09,0.132-0.137,0.132
		c-0.043,0-0.087,0-0.129,0c-0.146,0-0.345-0.453-0.345-0.453c0.074-0.027,0.243-0.124,0.243-0.124
		c-0.235-0.147-0.405-0.397-0.405-0.397c0.109,0.006,0.216-0.079,0.216-0.079c-0.094-0.058-0.27-0.269-0.27-0.269
		c0.135,0,0.142-0.053,0.142-0.053c-0.122-0.083-0.244-0.271-0.244-0.271c0.042-0.016,0.047-0.051,0.047-0.051
		c-0.042-0.053-0.339-0.384-0.339-0.384c-0.159,0.136-0.349,0.399-0.349,0.399c0.034,0.024,0.075,0.033,0.075,0.033
		c-0.041,0.142-0.257,0.311-0.257,0.311c0.061,0.045,0.107,0.038,0.107,0.038c-0.046,0.144-0.243,0.259-0.243,0.259
		c0.115,0.059,0.224,0.059,0.224,0.059c-0.022,0.102-0.275,0.328-0.366,0.406c-0.084-0.123-0.151-0.227-0.151-0.227
		c0.07-0.029,0.231-0.111,0.231-0.111C64.73,9.164,64.57,8.884,64.57,8.884c0.103,0.009,0.206-0.082,0.206-0.082
		c-0.089-0.067-0.258-0.309-0.258-0.309c0.129,0,0.135-0.062,0.135-0.062c-0.116-0.101-0.232-0.318-0.232-0.318
		c0.039-0.014,0.045-0.062,0.045-0.062c-0.04-0.061-0.324-0.444-0.324-0.444c-0.152,0.16-0.333,0.471-0.333,0.471
		c0.034,0.029,0.072,0.036,0.072,0.036c-0.039,0.167-0.246,0.362-0.246,0.362c0.059,0.054,0.104,0.047,0.104,0.047
		c-0.045,0.164-0.232,0.301-0.232,0.301c0.109,0.068,0.212,0.068,0.212,0.068c-0.025,0.144-0.379,0.506-0.379,0.506
		c0.044,0.045,0.25,0.062,0.25,0.062c-0.058,0.144-0.207,0.336-0.319,0.47c-0.044-0.039-0.09-0.076-0.139-0.115
		c0.089-0.013,0.13-0.016,0.198-0.021c-0.042-0.042-0.079-0.064-0.097-0.102c-0.037-0.061-0.165-0.09-0.093-0.194
		c0.002-0.003-0.016-0.017-0.023-0.024c-0.08-0.095-0.159-0.189-0.23-0.275C62.839,9.293,62.783,9.4,62.724,9.52
		c0.005,0.002,0.024,0.013,0.058,0.028c-0.086,0.101-0.174,0.197-0.268,0.306c-0.139-0.021-0.222-0.039-0.27-0.053
		c0.026-0.002,0.195-0.012,0.235-0.042c0,0-0.347-0.254-0.373-0.354c0,0,0.102,0,0.208-0.047c0,0-0.183-0.094-0.228-0.211
		c0,0,0.044,0.006,0.102-0.028c0,0-0.202-0.14-0.239-0.254c0,0,0.038-0.007,0.069-0.026c0,0-0.177-0.216-0.325-0.326
		c0,0-0.28,0.271-0.317,0.313c0,0,0.005,0.031,0.043,0.042c0,0-0.114,0.153-0.229,0.223c0,0,0.007,0.042,0.132,0.042
		c0,0-0.164,0.167-0.251,0.215c0,0,0.101,0.064,0.201,0.059c0,0-0.158,0.195-0.377,0.316c0,0,0.144,0.053,0.216,0.074
		c-0.064,0.02-0.165,0.051-0.266,0.078c-0.102-0.068-0.216-0.152-0.23-0.2c0,0,0.105,0,0.218-0.04c0,0-0.191-0.081-0.238-0.181
		c0,0,0.046,0.005,0.106-0.027c0,0-0.212-0.116-0.251-0.215c0,0,0.04-0.005,0.074-0.022c0,0-0.186-0.186-0.342-0.277
		c0,0-0.292,0.229-0.332,0.265c0,0,0.006,0.027,0.046,0.037c0,0-0.12,0.13-0.239,0.188c0,0,0.006,0.035,0.139,0.035
		c0,0-0.037,0.029-0.083,0.067c-0.054,0.033-0.121,0.07-0.191,0.104c-0.091-0.193-0.223-0.506-0.23-0.694
		c0,0,0.133-0.074,0.235,0.021c0,0-0.258-0.403-0.272-0.692c0,0,0.112-0.052,0.183,0c0,0-0.107-0.104-0.197-0.492
		c0,0-0.063-0.239-0.12-0.353c0,0-0.089,0.248-0.142,0.479c0,0-0.074,0.25-0.118,0.327c-0.088-0.079-0.585-0.532-0.614-0.867
		c0,0,0.259-0.068,0.423,0c0,0-0.248-0.134-0.454-0.627c0,0-0.145-0.305-0.279-0.445c0,0-0.206,0.313-0.33,0.607
		c0,0-0.216,0.408-0.31,0.443c0,0,0.031,0.076,0.269,0.049c0,0-0.021,0.322-0.496,0.845c0,0,0.352,0.084,0.465,0.046
		c0,0-0.203,0.564-0.499,0.887c-0.07-0.084-0.136-0.171-0.145-0.226c0,0,0.09,0,0.185-0.058c0,0-0.163-0.113-0.202-0.254
		c0,0,0.039,0.006,0.09-0.039c0,0-0.181-0.166-0.214-0.307c0,0,0.034-0.006,0.062-0.031c0,0-0.158-0.262-0.291-0.396
		c0,0-0.249,0.326-0.283,0.378c0,0,0.005,0.039,0.04,0.051c0,0-0.102,0.185-0.204,0.267c0,0,0.006,0.055,0.119,0.055
		c0,0-0.147,0.202-0.227,0.26c0,0,0.087,0.072,0.176,0.069c-0.06,0.063-0.243,0.239-0.432,0.313
		c-0.16-0.111-0.399-0.289-0.425-0.381c0,0,0.154-0.001,0.318-0.063c0,0-0.278-0.129-0.347-0.285c0,0,0.069,0.006,0.154-0.044
		c0,0-0.309-0.185-0.368-0.341c0,0,0.059-0.006,0.106-0.037c0,0-0.271-0.29-0.498-0.438c0,0-0.428,0.362-0.486,0.419
		c0,0,0.009,0.043,0.066,0.057c0,0-0.174,0.207-0.348,0.3c0,0,0.009,0.057,0.204,0.057c0,0-0.252,0.229-0.388,0.291
		c0,0,0.155,0.084,0.31,0.076c0,0-0.182,0.188-0.442,0.349L53.261,9.09l-0.502,0.215c-0.095-0.092-0.198-0.199-0.211-0.263
		c0,0,0.103,0,0.212-0.056c0,0-0.187-0.11-0.231-0.248c0,0,0.045,0.007,0.104-0.037c0,0-0.207-0.162-0.246-0.296
		c0,0,0.039-0.009,0.07-0.03c0,0-0.18-0.256-0.332-0.386c0,0-0.286,0.315-0.324,0.366c0,0,0.005,0.037,0.045,0.05
		c0,0-0.117,0.178-0.232,0.259c0,0,0.006,0.05,0.135,0.05c0,0-0.168,0.197-0.258,0.253c0,0,0.103,0.075,0.207,0.069
		c0,0-0.161,0.229-0.387,0.371c0,0,0.162,0.069,0.231,0.093c0,0-0.066,0.086-0.151,0.186c-0.092-0.063-0.343-0.252-0.367-0.334
		c0,0,0.109,0,0.224-0.047c0,0-0.195-0.096-0.242-0.212c0,0,0.047,0.007,0.107-0.032c0,0-0.217-0.139-0.257-0.254
		c0,0,0.04-0.006,0.074-0.026c0,0-0.189-0.218-0.348-0.327c0,0-0.299,0.271-0.34,0.313c0,0,0.006,0.03,0.047,0.041
		c0,0-0.122,0.154-0.244,0.226c0,0,0.007,0.042,0.142,0.042c0,0-0.175,0.17-0.27,0.217c0,0,0.106,0.063,0.216,0.061
		c0,0-0.085,0.096-0.214,0.193L49.834,9.43l-0.03-0.063L49.351,9.07l0.23,0.008L48.91,8.445l-0.015,0.014L48.193,9.07l0.27,0.035
		l-0.415,0.252l0.318,0.041l-0.249,0.133L47.91,9.34c-0.047-0.052-0.12-0.124-0.188-0.173c0,0-0.012,0.013-0.023,0.021l-0.488,0.418
		l0.192,0.024l-0.296,0.177l0.227,0.029l-0.28,0.145c-0.171-0.152-0.326-0.323-0.344-0.448c0,0,0.278-0.039,0.4-0.103
		c0,0-0.565-0.398-0.72-0.654c0,0,0.329-0.019,0.402-0.064c0,0-0.565-0.379-0.607-0.527c0,0,0.164-0.002,0.339-0.072
		c0,0-0.298-0.143-0.37-0.314c0,0,0.072,0.008,0.164-0.047c0,0-0.328-0.205-0.391-0.379c0,0,0.063-0.008,0.114-0.039
		c0,0-0.288-0.323-0.529-0.487c0,0-0.455,0.401-0.518,0.464c0,0,0.01,0.047,0.071,0.063c0,0-0.187,0.229-0.371,0.331
		c0,0,0.01,0.063,0.215,0.063c0,0-0.268,0.25-0.412,0.32c0,0,0.165,0.094,0.329,0.086c0,0-0.258,0.292-0.617,0.475
		c0,0,0.257,0.156,0.37,0.189c0,0-0.503,0.686-0.688,0.686h0.001l-0.06-0.063c-0.091-0.059-0.206-0.195-0.206-0.195
		c0.129,0,0.135-0.057,0.135-0.057C43.649,9.146,43.533,9,43.533,9c0.04-0.009,0.044-0.042,0.044-0.042
		c-0.04-0.037-0.324-0.276-0.324-0.276c-0.151,0.1-0.331,0.287-0.331,0.287c0.033,0.021,0.071,0.022,0.071,0.022
		c-0.039,0.104-0.245,0.223-0.245,0.223c0.058,0.033,0.103,0.028,0.103,0.028c-0.044,0.104-0.23,0.188-0.23,0.188
		c0.051,0.021,0.101,0.028,0.139,0.033c-0.063,0.02-0.133,0.038-0.209,0.049c-0.209-0.125-0.358-0.318-0.358-0.318
		c0.099,0.007,0.196-0.06,0.196-0.06c-0.086-0.05-0.246-0.224-0.246-0.224c0.124,0,0.129-0.044,0.129-0.044
		c-0.11-0.071-0.222-0.229-0.222-0.229c0.036-0.011,0.042-0.043,0.042-0.043c-0.036-0.045-0.309-0.32-0.309-0.32
		c-0.143,0.113-0.315,0.336-0.315,0.336c0.03,0.021,0.067,0.026,0.067,0.026c-0.037,0.119-0.233,0.263-0.233,0.263
		C41.357,8.938,41.4,8.932,41.4,8.932c-0.043,0.119-0.221,0.217-0.221,0.217c0.104,0.05,0.203,0.05,0.203,0.05
		c-0.022,0.095-0.292,0.31-0.343,0.351c-0.657-0.213-1.625-1.17-1.625-1.17s0.31-0.094,0.547,0.028c0,0-0.599-0.513-0.63-0.884
		c0,0,0.257-0.063,0.422,0c0,0-0.248-0.131-0.453-0.625c0,0-0.145-0.304-0.278-0.444c0,0-0.207,0.313-0.331,0.604
		c0,0-0.216,0.409-0.31,0.446c0,0,0.031,0.077,0.269,0.047c0,0-0.021,0.322-0.495,0.845c0,0,0.351,0.086,0.464,0.047
		c0,0-0.258,0.719-0.617,0.992c-0.157-0.142-0.3-0.271-0.443-0.399C37.613,9.014,37.642,9,37.65,8.998
		c-0.095-0.148-0.183-0.286-0.26-0.406c-0.114,0.107-0.239,0.229-0.365,0.348c-0.013,0.014-0.042,0.029-0.039,0.031
		c0.115,0.135-0.087,0.17-0.146,0.248c-0.031,0.04-0.089,0.07-0.156,0.121C36.792,9.35,36.858,9.354,37,9.368
		c-0.226,0.147-0.411,0.268-0.606,0.396c-0.128-0.004-0.233-0.008-0.312-0.015c-0.039-0.026-0.401-0.299-0.508-0.478
		c0,0,0.238-0.035,0.292-0.069c0,0-0.409-0.417-0.44-0.417h0.006c0.003,0,0.006,0,0.009,0c0.015,0,0.06,0.012,0.125-0.003
		c0.156-0.036,0.281-0.089,0.281-0.089c-0.091-0.012-0.425-0.295-0.573-0.426c-0.012-0.019-0.028-0.033-0.034-0.053
		c0,0,0.044-0.004,0.083-0.027c0,0-0.209-0.24-0.384-0.363c0,0-0.33,0.302-0.375,0.35c0,0,0.007,0.035,0.053,0.047
		c0,0-0.034,0.043-0.082,0.092c-0.02,0.016-0.261,0.174-0.414,0.396c0,0,0.061,0.048,0.159,0.081l0,0
		c0.042,0.017,0.088,0.022,0.142,0.026c0.008,0,0.014,0.004,0.021,0.004c0,0-0.187,0.218-0.447,0.353c0,0,0.186,0.065,0.269,0.089
		c0,0-0.259,0.256-0.601,0.391c-0.021-0.021-0.043-0.043-0.065-0.063c0,0,0,0,0.001,0c0,0-0.003-0.003-0.004-0.003
		c-0.043-0.041-0.087-0.076-0.121-0.093l0.172,0.024c0,0-0.427-0.392-0.708-0.485c0,0-0.33,0.432-0.392,0.521
		c0,0,0.181-0.039,0.254-0.072c0.004-0.004,0.009-0.004,0.013-0.008c0.005-0.004-0.004,0.008-0.003,0.01
		c-0.049,0.041-0.5,0.388-1.166,0.412c-0.08-0.074-0.157-0.146-0.242-0.229c0.137-0.005,0.214-0.011,0.302-0.015
		c-0.176-0.148-0.333-0.283-0.491-0.418c0.053-0.021,0.083-0.032,0.09-0.037c-0.095-0.141-0.183-0.27-0.259-0.383
		c-0.114,0.104-0.241,0.215-0.368,0.326c-0.013,0.012-0.042,0.027-0.038,0.031c0.115,0.125-0.088,0.159-0.147,0.232
		c-0.031,0.037-0.088,0.065-0.157,0.115c0.108,0.01,0.174,0.016,0.317,0.026c-0.188,0.114-0.349,0.214-0.51,0.313l-0.519-0.172
		l-0.275,0.209c-0.029-0.033-0.052-0.065-0.056-0.088c0,0,0.055,0,0.112-0.033c0,0-0.099-0.065-0.124-0.146
		c0,0,0.024,0.004,0.056-0.021c0,0-0.11-0.096-0.13-0.176c0,0,0.021-0.003,0.038-0.019c0,0-0.097-0.149-0.177-0.228
		c0,0-0.151,0.188-0.172,0.217c0,0,0.003,0.021,0.023,0.029c0,0-0.063,0.105-0.124,0.151c0,0,0.003,0.026,0.071,0.026
		c0,0-0.089,0.119-0.137,0.151c0,0,0.054,0.044,0.109,0.04c0,0-0.05,0.078-0.127,0.154L28.432,9.65c0.001-0.002,0.001,0,0.002-0.002
		c0,0-0.1-0.127-0.186-0.193c0,0-0.159,0.16-0.181,0.186c0,0,0.003,0.021,0.025,0.024c0,0-0.025,0.034-0.059,0.069
		c-0.126-0.153-0.265-0.35-0.276-0.477c0,0,0.205-0.061,0.362,0.02c0,0-0.397-0.327-0.418-0.563c0,0,0.171-0.043,0.281,0
		c0,0-0.164-0.085-0.301-0.399c0,0-0.095-0.193-0.185-0.287c0,0-0.136,0.199-0.218,0.39c0,0-0.143,0.261-0.206,0.286
		c0,0,0.021,0.048,0.179,0.029c0,0-0.009,0.105-0.126,0.287c-0.016-0.033-0.032-0.067-0.047-0.109c0,0-0.062-0.152-0.118-0.225
		c0,0-0.089,0.156-0.141,0.306c0,0-0.091,0.202-0.132,0.224c0,0,0.013,0.036,0.115,0.021c0,0-0.009,0.162-0.21,0.424
		c0,0,0.149,0.043,0.198,0.021c0,0-0.119,0.416-0.281,0.539c0,0,0.003,0.027,0.004,0.027h-0.006c-0.038,0-0.078-0.105-0.097-0.141
		c0,0,0.133-0.021,0.162-0.043c0,0-0.228-0.18-0.245-0.246c0,0,0.066-0.006,0.137-0.037c0,0-0.12-0.064-0.149-0.146
		c0,0,0.029,0.003,0.066-0.021c0,0-0.132-0.094-0.157-0.172c0,0,0.024-0.004,0.045-0.02c0,0-0.117-0.146-0.213-0.222
		c0,0-0.183,0.182-0.208,0.21c0,0,0.003,0.021,0.028,0.027c0,0-0.076,0.104-0.149,0.149c0,0,0.004,0.028,0.086,0.028
		c0,0-0.106,0.113-0.166,0.146c0,0,0.066,0.043,0.132,0.041c0,0-0.104,0.131-0.25,0.213c0,0,0.105,0.041,0.15,0.053
		c0,0-0.14,0.158-0.23,0.238l-0.173-0.158c-0.036-0.037-0.071-0.073-0.11-0.112c0.078-0.004,0.121-0.006,0.169-0.009
		c-0.099-0.092-0.188-0.174-0.275-0.256c0.03-0.015,0.047-0.021,0.052-0.021c-0.055-0.086-0.104-0.165-0.147-0.232
		c-0.063,0.063-0.135,0.133-0.206,0.197c-0.007,0.01-0.022,0.018-0.021,0.021c0.064,0.076-0.051,0.096-0.083,0.141
		c-0.017,0.023-0.051,0.041-0.087,0.07c0.061,0.007,0.097,0.01,0.177,0.017c-0.126,0.083-0.229,0.153-0.339,0.226l-0.211-0.043
		c-0.094-0.096-0.185-0.188-0.287-0.293c0.112-0.006,0.175-0.008,0.247-0.014c-0.144-0.132-0.271-0.25-0.399-0.367
		c0.043-0.021,0.067-0.031,0.074-0.033c-0.077-0.125-0.149-0.236-0.211-0.338c-0.093,0.09-0.196,0.189-0.299,0.289
		c-0.01,0.01-0.034,0.023-0.032,0.025c0.095,0.109-0.071,0.141-0.119,0.207c-0.024,0.033-0.073,0.059-0.128,0.102
		c0.088,0.01,0.142,0.014,0.257,0.023c0,0-0.667,0.409-1.114,0.498c-0.055-0.047-0.161-0.146-0.172-0.191c0,0,0.055,0,0.113-0.027
		c0,0-0.1-0.061-0.124-0.131c0,0,0.024,0.002,0.054-0.02c0,0-0.108-0.084-0.129-0.154c0,0,0.021-0.004,0.037-0.018
		c0,0-0.095-0.132-0.176-0.201c0,0-0.152,0.167-0.172,0.192c0,0,0.003,0.02,0.023,0.026c0,0-0.063,0.094-0.125,0.135
		c0,0,0.003,0.024,0.072,0.024c0,0-0.089,0.104-0.137,0.136c0,0,0.054,0.039,0.11,0.032c0,0-0.063,0.105-0.153,0.177l-0.049,0.021
		h0.005l-0.117-0.156c0.002-0.002,0.002-0.011,0.004-0.012c0,0-0.012-0.015-0.015-0.017l-0.051-0.063l0.109,0.009l-0.158-0.19
		l0.124,0.016l-0.413-0.432l-0.406,0.33L20.609,9.7l-0.228,0.222l0.069,0.016l-0.195,0.086c0,0,0.054,0.052,0.138,0.09l-0.345-0.025
		c-0.021-0.015-0.045-0.031-0.055-0.056c0,0,0.018,0.001,0.042-0.013c0,0-0.084-0.052-0.102-0.094c0,0,0.016-0.002,0.029-0.01
		c0,0-0.073-0.08-0.135-0.12c0,0-0.117,0.101-0.133,0.113c0,0,0.002,0.013,0.018,0.017c0,0-0.048,0.055-0.095,0.08
		c0,0,0.002,0.016,0.055,0.016c0,0-0.068,0.063-0.106,0.078c0,0,0.042,0.023,0.084,0.021c0,0-0.036,0.033-0.084,0.066l-0.167-0.052
		c-0.073-0.077-0.147-0.153-0.228-0.239c0.104-0.006,0.162-0.011,0.228-0.013c-0.132-0.128-0.25-0.239-0.369-0.354
		c0.042-0.016,0.063-0.026,0.068-0.029c-0.071-0.117-0.137-0.227-0.195-0.32c-0.085,0.086-0.181,0.18-0.276,0.274
		c-0.01,0.011-0.031,0.021-0.029,0.026c0.086,0.104-0.065,0.135-0.11,0.194c-0.023,0.033-0.066,0.058-0.117,0.101
		c0.081,0.007,0.129,0.013,0.237,0.021c-0.149,0.104-0.273,0.188-0.403,0.278c-0.138-0.02-0.266-0.047-0.294-0.088l-0.015-0.014
		c0.058-0.009,0.109-0.031,0.109-0.031c-0.066-0.032-0.19-0.148-0.19-0.148c0.094,0,0.1-0.027,0.1-0.027
		c-0.086-0.049-0.171-0.154-0.171-0.154c0.028-0.008,0.032-0.03,0.032-0.03c-0.028-0.028-0.24-0.216-0.24-0.216
		c-0.111,0.076-0.245,0.229-0.245,0.229c0.024,0.014,0.052,0.02,0.052,0.02c-0.028,0.08-0.181,0.176-0.181,0.176
		c0.043,0.025,0.075,0.021,0.075,0.021c-0.015,0.012-0.086,0.099-0.255,0.188c-0.136-0.1-0.231-0.229-0.231-0.229
		c0.072,0.004,0.146-0.047,0.146-0.047C16.839,9.688,16.72,9.55,16.72,9.55c0.092,0,0.096-0.034,0.096-0.034
		c-0.082-0.056-0.165-0.18-0.165-0.18c0.027-0.009,0.031-0.035,0.031-0.035c-0.027-0.033-0.228-0.253-0.228-0.253
		c-0.106,0.091-0.235,0.267-0.235,0.267c0.023,0.019,0.051,0.021,0.051,0.021c-0.028,0.096-0.173,0.206-0.173,0.206
		c0.042,0.028,0.072,0.024,0.072,0.024c-0.024,0.072-0.092,0.123-0.129,0.146c-0.424-0.183-0.817-0.478-0.817-0.478l0.354-0.051
		l-0.465-0.398h0.002l-0.096,0.09l-0.047,0.042l0.156,0.062l-0.315-0.151l0.193,0.012l-0.566-0.282L14.01,8.85l0.139,0.02
		l-0.263,0.146l0.16-0.023l-0.608,0.34l0.278-0.072L13.659,9.3l0.092-0.028c-0.079,0.061-0.271,0.194-0.505,0.322
		C13.161,9.52,12.94,9.325,12.92,9.234c0,0,0.1,0,0.205-0.053c0,0-0.18-0.104-0.224-0.232c0,0,0.043,0.006,0.1-0.034
		c0,0-0.198-0.153-0.235-0.282c0,0,0.037-0.004,0.068-0.027c0,0-0.173-0.237-0.318-0.361c0,0-0.274,0.298-0.312,0.346
		c0,0,0.005,0.035,0.042,0.045c0,0-0.112,0.172-0.223,0.246c0,0,0.006,0.046,0.129,0.046c0,0-0.161,0.188-0.249,0.24
		c0,0,0.099,0.069,0.198,0.063c0,0-0.155,0.218-0.372,0.353c0,0,0.155,0.063,0.223,0.088c0,0-0.064,0.079-0.146,0.173
		c-0.087-0.06-0.331-0.234-0.352-0.313c0,0,0.104,0,0.213-0.047c0,0-0.188-0.09-0.232-0.199c0,0,0.044,0.007,0.104-0.03
		c0,0-0.208-0.129-0.247-0.239c0,0,0.04-0.004,0.072-0.022c0,0-0.182-0.205-0.334-0.312c0,0-0.288,0.256-0.328,0.295
		c0,0,0.005,0.029,0.044,0.039c0,0-0.116,0.146-0.233,0.211c0,0,0.006,0.041,0.137,0.041c0,0-0.169,0.158-0.26,0.205
		c0,0,0.104,0.061,0.208,0.055c0,0-0.163,0.186-0.389,0.302c0,0,0.162,0.054,0.233,0.075c0,0-0.175,0.176-0.313,0.295
		c-0.063-0.066-0.163-0.188-0.17-0.284c0,0,0.09-0.026,0.148,0c0,0-0.086-0.052-0.159-0.239c0,0-0.05-0.115-0.098-0.17
		c0,0-0.072,0.118-0.116,0.23c0,0-0.076,0.156-0.107,0.171c0,0,0.011,0.028,0.093,0.017c0,0-0.007,0.123-0.173,0.321
		c0,0,0.333,0.034,0.372,0.019c0,0-0.021,0.096-0.021,0.188c0,0,0-0.011,0-0.021c0-0.02-0.267-0.029-0.294-0.047
		c0.04,0.018-0.026,0.04-0.021,0.047c0.004-0.049-0.095-0.174-0.087-0.174h-0.05c-0.024,0-0.045,0.027-0.062,0.057
		c-0.049-0.024-0.142-0.103-0.142-0.103c0.072,0,0.075-0.017,0.075-0.017c-0.064-0.035-0.13-0.113-0.13-0.113
		c0.022-0.005,0.025-0.021,0.025-0.021C9.191,10.04,9.031,9.896,9.031,9.896c-0.083,0.061-0.185,0.172-0.185,0.172
		c0.018,0.014,0.04,0.018,0.04,0.018c-0.021,0.061-0.137,0.132-0.137,0.132c0.033,0.021,0.058,0.019,0.058,0.019
		C8.783,10.29,8.679,10.34,8.679,10.34c0.062,0.024,0.119,0.024,0.119,0.024c-0.012,0.043-0.147,0.14-0.194,0.174
		c-0.044-0.052-0.081-0.097-0.081-0.097c0.039-0.015,0.124-0.049,0.124-0.049c-0.12-0.074-0.207-0.194-0.207-0.194
		c0.056,0.003,0.11-0.036,0.11-0.036c-0.049-0.029-0.138-0.133-0.138-0.133c0.069,0,0.072-0.024,0.072-0.024
		C8.422,9.961,8.361,9.868,8.361,9.868c0.021-0.007,0.024-0.026,0.024-0.026C8.364,9.816,8.211,9.65,8.211,9.65
		C8.131,9.718,8.034,9.85,8.034,9.85c0.018,0.017,0.038,0.019,0.038,0.019c-0.021,0.069-0.129,0.153-0.129,0.153
		c0.03,0.022,0.054,0.021,0.054,0.021c-0.024,0.072-0.124,0.13-0.124,0.13c0.06,0.028,0.114,0.029,0.114,0.029
		c-0.008,0.03-0.052,0.079-0.098,0.123c-0.13-0.067-0.294-0.15-0.302-0.164c-0.01-0.021-0.157-0.05-0.235-0.063
		c0.075,0.012,0.229,0.027,0.416-0.009c0,0-0.38-0.121-0.408-0.206c0,0,0.042,0.029,0.268,0.024c0,0-0.461-0.25-0.461-0.351
		L6.845,9.823c0,0,0.426-0.091-0.063,0.196l0.186,0.028c0,0-0.248,0.091-0.351,0.104c-0.104,0.018,0.206,0.064,0.295,0.021
		c0,0-0.131,0.047-0.228,0.07l-0.001-0.001c0,0-0.002,0.002-0.004,0.003C6.647,10.254,6.62,10.26,6.603,10.26l-0.178,0.121
		c-0.061-0.054-0.118-0.107-0.183-0.168c0.102-0.005,0.161-0.008,0.226-0.011c-0.133-0.11-0.25-0.207-0.369-0.31
		C6.142,9.881,6.164,9.872,6.17,9.871C6.099,9.768,6.033,9.673,5.975,9.59C5.889,9.665,5.793,9.748,5.699,9.829
		C5.69,9.839,5.668,9.85,5.67,9.852c0.087,0.092-0.066,0.117-0.11,0.172c-0.002,0.002-0.007,0.006-0.01,0.01
		c-0.015-0.02-0.38-0.443-0.396-0.658c0,0,0.169-0.057,0.299,0.018c0,0-0.327-0.305-0.344-0.523c0,0,0.141-0.04,0.23,0
		c0,0-0.135-0.079-0.247-0.373c0,0-0.079-0.18-0.152-0.266c0,0-0.111,0.188-0.18,0.359c0,0-0.118,0.243-0.168,0.268
		c0,0,0.018,0.045,0.147,0.025c0,0-0.012,0.169-0.224,0.442c-0.037-0.043-0.086-0.116-0.13-0.229c0,0-0.062-0.143-0.119-0.207
		c0,0-0.087,0.146-0.141,0.28c0,0-0.092,0.188-0.131,0.208c0,0,0.013,0.033,0.115,0.021c0,0-0.009,0.148-0.211,0.392
		c0,0,0.149,0.04,0.197,0.021c0,0-0.093,0.283-0.229,0.429c-0.038-0.034-0.076-0.068-0.111-0.104
		c0.027-0.011,0.042-0.018,0.047-0.021C3.753,10.037,3.708,9.964,3.668,9.9c-0.06,0.057-0.125,0.119-0.192,0.184
		c-0.006,0.006-0.021,0.018-0.02,0.02c0.06,0.068-0.046,0.09-0.077,0.131c-0.017,0.021-0.046,0.037-0.082,0.064
		c0.056,0.004,0.09,0.008,0.164,0.016c-0.077,0.051-0.144,0.097-0.209,0.141c-0.077-0.078-0.151-0.154-0.234-0.24
		c0.086-0.004,0.136-0.006,0.19-0.01c-0.111-0.104-0.209-0.193-0.31-0.286C2.932,9.898,2.95,9.893,2.956,9.891
		c-0.04-0.063-0.074-0.119-0.108-0.174C2.828,9.605,2.7,9.402,2.7,9.402S2.354,9.713,2.216,9.788c0,0,0.145,0.021,0.296-0.035
		c0,0-0.372,0.274-0.517,0.281c0,0,0.138,0.034,0.31-0.03c0,0-0.068,0.025-0.174,0.08c-0.001-0.003-0.003-0.004-0.004-0.007
		c-0.006,0.005-0.013,0.014-0.02,0.019c-0.082,0.041-0.183,0.1-0.296,0.174c-0.022-0.025-0.045-0.055-0.058-0.078
		c0,0,0.109-0.008,0.133-0.025c0,0-0.188-0.155-0.202-0.216c0,0,0.056,0,0.112-0.029c0,0-0.099-0.06-0.123-0.131
		c0,0,0.024,0.003,0.055-0.021c0,0-0.109-0.084-0.13-0.154c0,0,0.021-0.006,0.038-0.018c0,0-0.097-0.133-0.176-0.199
		c0,0-0.153,0.166-0.173,0.189c0,0,0.003,0.021,0.023,0.026c0,0-0.062,0.094-0.124,0.137c0,0,0.003,0.024,0.073,0.024
		c0,0-0.089,0.104-0.138,0.134c0,0,0.055,0.039,0.109,0.036c0,0-0.085,0.119-0.206,0.193c0,0,0.085,0.035,0.124,0.049
		c0,0-0.036-0.027-0.08,0.021l-0.692,0.536l-0.538,0.236H10.86h0.259h1.231h0.248h13.349h0.166h8.63h0.298h116.757h5.031h7.083
		h2.008h3.746 M4.477,9.37C4.474,9.376,4.471,9.38,4.466,9.385c0,0,0.191,0.051,0.253,0.028c0,0-0.05,0.147-0.13,0.304
		C4.514,9.633,4.404,9.494,4.396,9.383C4.395,9.383,4.432,9.373,4.477,9.37z M4.564,9.766C4.537,9.816,4.505,9.861,4.473,9.906
		c-0.022-0.047-0.04-0.09-0.042-0.127C4.43,9.779,4.493,9.76,4.564,9.766z M5.459,10.26c-0.081-0.111-0.141-0.213-0.133-0.242
		c0,0,0.142,0.041,0.217,0.019c-0.024,0.021-0.06,0.043-0.103,0.071c0.082,0.009,0.13,0.014,0.238,0.021
		C5.601,10.174,5.529,10.218,5.459,10.26z M9.385,10.309c-0.014,0.023-0.022,0.045-0.025,0.053
		c-0.051-0.027-0.088-0.049-0.088-0.049C9.329,10.314,9.384,10.309,9.385,10.309z M10.096,10.223L10.096,10.223
		C10.096,10.221,10.096,10.221,10.096,10.223C10.096,10.221,10.096,10.223,10.096,10.223z M22.192,10.624c0,0,0-0.001,0-0.002
		c0.002,0.001,0.004,0.002,0.006,0.002H22.192z M35.002,10.498v-0.002c0,0,0.004,0.002,0.011,0.002
		C35.01,10.498,35.006,10.498,35.002,10.498z M58.856,8.202c-0.004,0.006-0.008,0.014-0.012,0.014c0,0,0.013,0.062,0.117,0.04
		c0,0-0.012,0.247-0.208,0.646c-0.005,0.003-0.014,0.005-0.02,0.007c-0.188-0.236-0.389-0.533-0.406-0.728
		C58.329,8.182,58.622,8.093,58.856,8.202z M102.559,9.367c-0.002,0-0.002-0.001-0.002-0.003c0,0,0.004,0,0.004-0.001
		C102.561,9.363,102.561,9.366,102.559,9.367z M105.986,9.385v0.01c0-0.002-0.006-0.008-0.006-0.009L105.986,9.385z M116.357,8.465
		c-0.032,0.057-0.071,0.118-0.121,0.186c0,0,0.205,0.063,0.271,0.035c0,0-0.028,0.104-0.08,0.232
		c-0.099-0.104-0.256-0.295-0.269-0.445C116.159,8.473,116.271,8.441,116.357,8.465z M138.584,10.298c-0.002,0-0.005,0-0.007,0
		c0.003-0.002,0.006-0.002,0.008-0.004C138.584,10.296,138.584,10.296,138.584,10.298z M148.82,10.467L148.82,10.467
		C148.82,10.468,148.82,10.468,148.82,10.467L148.82,10.467z"/>
</g>
</svg>
