<?xml version="1.0" encoding="utf-8"?>
<svg version="1.1" id="Layer_1" xmlns="http://www.w3.org/2000/svg" xmlns:xlink="http://www.w3.org/1999/xlink" x="0px" y="0px" viewBox="0 0 340 82.1" xml:space="preserve">
  <style type="text/css">
    .c0 {fill:#FFFFFF;}
  </style>
  <path class="c0" d="M89.7,39.7c-0.2-0.4-0.5-0.8-0.8-1.2c-0.3-0.4-0.7-0.7-1.1-0.9c-0.4-0.3-0.9-0.4-1.2-0.5c-0.9-0.2-2.2-0.3-3.8-0.3c-4.3,0-8.7,0.4-13.4,1.2c1.2-3.7,2.2-6.7,2.8-8.9c0.1-0.3,0.3-0.5,0.4-0.6c0.1-0.2,0.2-0.3,0.3-0.5l0.1-0.1l0-0.1c0.1-0.3,0-0.9-0.4-1.4c-0.3-0.4-0.8-0.6-1.4-0.6c-0.1,0-0.1,0-0.2,0c-0.3,0-0.7,0.2-0.9,0.5c-0.2,0.2-0.4,0.5-0.6,0.8c-0.4,0.4-1,0.9-1.7,1.4c-0.8,0.6-1.7,1.2-2.7,2c-1.3,0.9-2.5,1.7-3.6,2.3c-1,0.6-1.9,1-2.6,1.3c-0.2,0.1-0.4,0-0.5,0c0,0-0.1,0-0.1-0.2c0-0.1,0-0.2,0.1-0.4c0.6-1.2,1.6-2.8,2.9-4.7c2-2.8,2.9-3.5,3.2-3.6l0.3-0.2l0-0.4c-0.1-1.1-0.9-1.2-1.2-1.2l-0.1,0c-0.2,0-0.7,0.2-2.3,0.9c-1.6,0.7-1.9,1-2.1,1.3c-0.1,0.3-0.2,0.7-0.1,1.2c0,0.4,0,0.5,0,0.5c-3.7,6.7-4.3,8.1-4.5,8.6c0,0.1,0,0.2,0,0.3c0,0,0,0,0,0c-0.7,0.9-1.8,1.9-3.3,3.1c-0.8,0.6-1.5,1.1-2.1,1.4c-0.6,0.3-1.1,0.5-1.5,0.7c-0.1,0-0.2,0-0.3,0c-0.2,0-0.6,0-0.6-1.1v-0.3c0,0,0-0.1,0-0.3c0.6-3.8,2.5-8.7,5.7-14.5c0.6-1.1,1.6-2.8,2.8-4.8c1.2-2,2.7-4.5,4.5-7.3c0.2-0.3,0.3-0.7,0.3-1.4c0-1-0.2-2-0.7-3c-0.6-1.1-1.4-1.7-2.3-1.7c-0.1,0-0.1,0-0.2,0c-2.9,0.2-7.7,3.5-14.6,10.1c-5.4,5.3-9.8,10.1-12.9,14.3c0,0.1-0.1,0.1-0.1,0.2c0,0,0,0,0,0c4-8.3,6.3-14.5,6.8-18.3c0.1-0.8-0.2-1.5-0.8-2.1c-0.6-0.6-1.3-1-2.1-1c-1.5,0-3.9,1.4-7.3,4.2c0.8-1.9,1.4-3.6,1.8-5.1c0.6-2.1,1-3.8,1-5.2c0-1-0.5-2-1.7-2.9C25.6,0.4,24.5,0,23.4,0l-0.2,0c-2.2,0.2-5.1,1.4-9,3.7c-3.7,2.2-6.9,4.7-9.7,7.5C1.5,14.3,0,16.9,0,19.1c0,0.8,0.2,1.5,0.7,2.1c0.5,0.6,0.9,1,1.4,1.2c0.7,0.2,1.4,0.2,2,0c0.5-0.2,1.1-0.4,1.1-0.9c0-0.1,0-0.6-0.8-0.6c-0.1,0-0.3,0-0.4,0l-0.1,0c-0.2,0-0.5-0.1-1.3-0.3c-0.6-0.2-0.9-0.5-0.9-0.7c0-2.7,2.9-6.3,8.5-10.7c5.5-4.3,10-6.7,13.4-7.1c1-0.1,1.8,0,2.2,0.3c0.5,0.4,0.6,1.2,0.6,1.8c0,1.1-0.4,3-1.3,5.7c-0.5,1.4-1,2.9-1.6,4.3c-0.6,1.4-1.2,2.7-1.9,4c-1.6,1.6-3.2,3.2-4.7,4.8c-1.5,1.7-3,3.5-4.4,5.3c-3.6,4.7-5.3,8-5.3,10c0,1,0.3,1.6,0.9,1.6c0.4,0,0.9-0.2,1.7-0.7c0.4-0.2,0.7-0.4,1-0.6c0.3-0.2,0.5-0.4,0.6-0.5c3.6-3.9,7.7-10.3,12.1-19.1c1.1-1.3,2.6-2.7,4.5-4.2c2.3-1.8,4-2.7,5.1-2.7c0.2,0,0.4,0.1,0.5,0.2c0.1,0.1,0.2,0.5,0.1,0.9c-0.4,2.2-1.4,5.2-3,8.9c-1.6,3.7-3.8,8.3-6.6,13.7L24,36c0,0.1-0.1,0.2-0.1,0.3c0,0.2,0.1,1,1.3,1c0.8,0,1.5-0.3,1.9-0.8c4.2-5.6,9.2-11.2,14.8-16.7c6.3-6.2,10.9-9.7,13.7-10.4c0.4-0.1,0.9-0.2,1.2-0.2c1,0,1,0.4,1,0.6c0,0.2,0,0.4-0.1,0.7c-0.1,0.3-0.2,0.5-0.5,0.9c-1.6,2.5-3.1,5-4.5,7.5c-1.4,2.5-2.6,4.9-3.8,7.3c-2.9,6.2-4.4,10.7-4.3,13.6c0,0.9,0.3,1.8,0.9,2.6c0.5,0.7,1,1.1,1.5,1.2c-2.8,0.9-5.5,1.9-8.2,2.9c-13.1,5.2-21,10.8-23.6,16.7c-0.5,1.2-0.8,2.5-0.8,3.8c0,4,2,7.6,6.1,10.7c3.6,2.9,7.6,4.4,11.9,4.4c0.4,0,0.8,0,1.2,0C47.4,81.2,59.2,67,68.7,39.9c3.6-0.7,8.3-1.1,14-1.1c0.7,0,1.4,0,2,0c0.6,0,1.1,0,1.6,0.1c1.7,0.1,1.9,0.8,1.9,1.4c0,1.2-0.9,2.7-2.6,4.4c-0.5,0.3-0.7,0.7-0.7,1c0,0.3,0.2,0.6,0.6,0.6c0.3,0,0.7-0.2,1-0.5c1.8-1.4,2.8-2.5,3.3-3.3c0.3-0.4,0.4-0.8,0.4-1.3C90.1,40.7,90,40.2,89.7,39.7z M16.9,66.3c0.1-0.5,0.3-1,0.4-1.5c2.1-5.2,8.4-10.3,18.8-15.1c8.5-3.9,18.6-7.1,29.8-9.5c-1.3,4-2.9,7.9-4.5,11.5c-1.8,3.9-3.8,7.6-5.9,11.1c-7,11.2-14.4,17-21.9,17.3c-4.4,0.2-8.3-1.1-11.8-3.7c-3.3-2.5-5-5.5-5-8.7C16.7,67.3,16.8,66.8,16.9,66.3z M9.9,36.9c0,0-0.1,0.1-0.1,0.1c0-0.1,0.1-0.3,0.2-0.4c0.9-2.4,2.6-5.4,5.2-8.8c1.4-1.9,2.8-3.6,4.1-4.9c-0.8,1.6-2,3.5-3.5,5.8c-1.2,1.9-2.3,3.5-3.3,4.9C11.5,34.9,10.7,36,9.9,36.9z M49.7,42.6c0.8-0.4,1.6-1,2.4-1.8c1.3-1.1,2.4-2.2,3.1-3.2c0.1,0,0.3,0.1,0.4,0.1c0.2,0,0.3,0,0.6-0.1c1.9-0.7,4.4-2.2,7.5-4.3c1.9-1.3,3.5-2.5,4.9-3.6c0,0.1-0.1,0.3-0.1,0.4c-0.1,0.7-0.3,1.7-0.6,2.8c-0.5,2.3-1.1,4.2-1.5,5.6c-4.7,0.9-9.4,2.1-14,3.4c-1.1,0.3-2.2,0.7-3.3,1C49.4,42.8,49.5,42.7,49.7,42.6z"/>
  <path class="c0" d="M92.5,26.7c0,1.3-0.2,2.4-0.7,3.4c-0.5,1-1.1,1.8-1.9,2.5c-0.8,0.7-1.8,1.2-2.9,1.5c-1.1,0.3-2.3,0.5-3.6,0.5c-0.9,0-1.7-0.1-2.5-0.2c-0.8-0.2-1.5-0.3-2.1-0.6c-0.6-0.2-1.1-0.4-1.5-0.7c-0.4-0.2-0.7-0.4-0.9-0.6c-0.2-0.2-0.3-0.4-0.4-0.6c-0.1-0.3-0.1-0.6-0.1-1c0-0.3,0-0.6,0-0.8c0-0.2,0.1-0.4,0.1-0.5c0.1-0.1,0.1-0.2,0.2-0.3c0.1,0,0.2-0.1,0.3-0.1c0.2,0,0.5,0.1,0.8,0.4c0.4,0.2,0.8,0.5,1.4,0.8c0.6,0.3,1.2,0.5,2,0.8c0.8,0.2,1.7,0.4,2.7,0.4c0.8,0,1.5-0.1,2.1-0.3c0.6-0.2,1.2-0.5,1.7-0.9c0.5-0.4,0.8-0.8,1.1-1.4c0.2-0.6,0.4-1.2,0.4-1.9c0-0.8-0.2-1.4-0.5-1.9c-0.3-0.5-0.8-1-1.4-1.4c-0.6-0.4-1.2-0.8-1.9-1.1c-0.7-0.3-1.5-0.7-2.2-1c-0.8-0.4-1.5-0.7-2.2-1.2c-0.7-0.4-1.4-0.9-1.9-1.5c-0.6-0.6-1-1.3-1.4-2c-0.4-0.8-0.5-1.7-0.5-2.8c0-1.1,0.2-2.1,0.6-3c0.4-0.9,1-1.6,1.7-2.2c0.7-0.6,1.6-1,2.6-1.4c1-0.3,2.1-0.5,3.2-0.5c0.6,0,1.2,0.1,1.8,0.2c0.6,0.1,1.2,0.2,1.7,0.4c0.5,0.2,1,0.4,1.4,0.6c0.4,0.2,0.7,0.4,0.8,0.5c0.1,0.1,0.2,0.2,0.3,0.3c0,0.1,0.1,0.2,0.1,0.3c0,0.1,0,0.3,0.1,0.4c0,0.2,0,0.4,0,0.6c0,0.3,0,0.5,0,0.7c0,0.2-0.1,0.4-0.1,0.5c0,0.1-0.1,0.2-0.2,0.3c-0.1,0.1-0.2,0.1-0.3,0.1c-0.2,0-0.4-0.1-0.7-0.3c-0.3-0.2-0.7-0.4-1.2-0.7c-0.5-0.2-1-0.5-1.7-0.7c-0.6-0.2-1.4-0.3-2.2-0.3c-0.7,0-1.4,0.1-1.9,0.3c-0.6,0.2-1,0.5-1.4,0.8c-0.4,0.3-0.6,0.7-0.8,1.2c-0.2,0.5-0.3,0.9-0.3,1.5c0,0.7,0.2,1.4,0.5,1.9c0.3,0.5,0.8,1,1.4,1.4c0.6,0.4,1.2,0.8,2,1.1c0.7,0.3,1.5,0.7,2.2,1c0.8,0.4,1.5,0.7,2.2,1.2c0.7,0.4,1.4,0.9,2,1.5c0.6,0.6,1,1.3,1.4,2C92.3,24.7,92.5,25.6,92.5,26.7z"/>
  <path class="c0" d="M113.8,24.1c0,1.6-0.2,3.1-0.5,4.4c-0.4,1.3-0.9,2.4-1.6,3.3c-0.7,0.9-1.5,1.6-2.5,2.1c-1,0.5-2.2,0.7-3.5,0.7c-0.6,0-1.1-0.1-1.5-0.2c-0.5-0.1-0.9-0.3-1.4-0.5c-0.4-0.2-0.9-0.5-1.3-0.9c-0.4-0.4-0.9-0.8-1.4-1.3v9.3c0,0.1,0,0.2-0.1,0.3c-0.1,0.1-0.1,0.2-0.3,0.2c-0.1,0.1-0.3,0.1-0.5,0.1c-0.2,0-0.5,0-0.9,0c-0.3,0-0.6,0-0.8,0c-0.2,0-0.4-0.1-0.5-0.1c-0.1-0.1-0.2-0.1-0.3-0.2c0-0.1-0.1-0.2-0.1-0.3V15c0-0.1,0-0.2,0.1-0.3c0-0.1,0.1-0.1,0.2-0.2c0.1-0.1,0.3-0.1,0.5-0.1c0.2,0,0.4,0,0.7,0c0.3,0,0.5,0,0.7,0c0.2,0,0.3,0.1,0.5,0.1c0.1,0.1,0.2,0.1,0.3,0.2c0,0.1,0.1,0.2,0.1,0.3v2.5c0.6-0.6,1.1-1.1,1.6-1.5c0.5-0.4,1.1-0.8,1.6-1.1c0.5-0.3,1.1-0.5,1.6-0.6c0.6-0.1,1.2-0.2,1.8-0.2c1.4,0,2.5,0.3,3.5,0.8c1,0.5,1.7,1.2,2.3,2.2c0.6,0.9,1,2,1.3,3.2C113.6,21.4,113.8,22.7,113.8,24.1z M110.2,24.5c0-1-0.1-1.9-0.2-2.8c-0.1-0.9-0.4-1.7-0.8-2.4c-0.4-0.7-0.8-1.2-1.4-1.7c-0.6-0.4-1.3-0.6-2.2-0.6c-0.4,0-0.9,0.1-1.3,0.2c-0.4,0.1-0.9,0.3-1.3,0.6c-0.4,0.3-0.9,0.7-1.4,1.1c-0.5,0.5-1,1-1.5,1.7v7.4c0.9,1.1,1.8,2,2.7,2.6c0.8,0.6,1.7,0.9,2.7,0.9c0.9,0,1.6-0.2,2.2-0.6c0.6-0.4,1.1-1,1.5-1.7c0.4-0.7,0.7-1.5,0.8-2.3C110.1,26.2,110.2,25.3,110.2,24.5z"/>
  <path class="c0" d="M135.9,24.2c0,1.5-0.2,2.9-0.6,4.2c-0.4,1.3-1,2.4-1.8,3.3c-0.8,0.9-1.8,1.6-3,2.2c-1.2,0.5-2.6,0.8-4.2,0.8c-1.5,0-2.9-0.2-4-0.7c-1.1-0.5-2.1-1.1-2.9-2c-0.8-0.9-1.3-1.9-1.7-3.2c-0.4-1.2-0.6-2.7-0.6-4.2c0-1.5,0.2-2.9,0.6-4.2c0.4-1.3,1-2.4,1.8-3.3c0.8-0.9,1.8-1.6,3-2.2c1.2-0.5,2.6-0.8,4.2-0.8c1.5,0,2.9,0.2,4,0.7c1.1,0.5,2.1,1.1,2.8,2c0.8,0.9,1.3,1.9,1.7,3.2C135.7,21.2,135.9,22.6,135.9,24.2z M132.3,24.4c0-1-0.1-2-0.3-2.9c-0.2-0.9-0.5-1.7-0.9-2.4c-0.4-0.7-1-1.2-1.8-1.6c-0.7-0.4-1.7-0.6-2.8-0.6c-1,0-1.9,0.2-2.6,0.5c-0.7,0.4-1.3,0.9-1.8,1.5c-0.5,0.7-0.8,1.4-1.1,2.3c-0.2,0.9-0.3,1.9-0.3,2.9c0,1,0.1,2,0.3,2.9c0.2,0.9,0.5,1.7,0.9,2.4c0.4,0.7,1,1.2,1.8,1.6c0.7,0.4,1.7,0.6,2.8,0.6c1,0,1.9-0.2,2.6-0.5c0.7-0.4,1.3-0.9,1.8-1.5c0.5-0.6,0.8-1.4,1-2.3C132.2,26.5,132.3,25.5,132.3,24.4z"/>
  <path class="c0" d="M155.6,33.7c0,0.1,0,0.2-0.1,0.3c-0.1,0.1-0.1,0.2-0.3,0.2c-0.1,0.1-0.3,0.1-0.5,0.1c-0.2,0-0.5,0-0.9,0c-0.4,0-0.7,0-0.9,0c-0.2,0-0.4-0.1-0.6-0.1c-0.2,0-0.3-0.1-0.4-0.2c-0.1-0.1-0.2-0.2-0.3-0.3l-7.9-10.3v10.3c0,0.1,0,0.2-0.1,0.3c-0.1,0.1-0.1,0.1-0.3,0.2c-0.1,0.1-0.3,0.1-0.5,0.1c-0.2,0-0.5,0-0.8,0c-0.3,0-0.6,0-0.8,0c-0.2,0-0.4-0.1-0.5-0.1c-0.1-0.1-0.2-0.1-0.3-0.2c0-0.1-0.1-0.2-0.1-0.3V6c0-0.1,0-0.2,0.1-0.3c0-0.1,0.1-0.2,0.3-0.2c0.1-0.1,0.3-0.1,0.5-0.1c0.2,0,0.5,0,0.8,0c0.3,0,0.6,0,0.8,0c0.2,0,0.4,0.1,0.5,0.1c0.1,0.1,0.2,0.1,0.3,0.2c0.1,0.1,0.1,0.2,0.1,0.3v16.9l7-7.8c0.1-0.1,0.2-0.3,0.4-0.3c0.1-0.1,0.3-0.2,0.4-0.2c0.2-0.1,0.4-0.1,0.6-0.1c0.2,0,0.5,0,0.8,0c0.3,0,0.6,0,0.9,0c0.2,0,0.4,0.1,0.6,0.1c0.1,0,0.2,0.1,0.3,0.2c0.1,0.1,0.1,0.2,0.1,0.3c0,0.2,0,0.3-0.1,0.5c-0.1,0.2-0.2,0.4-0.4,0.6l-6.8,6.8l7.6,9.8c0.2,0.2,0.3,0.4,0.4,0.6C155.6,33.4,155.6,33.6,155.6,33.7z"/>
  <path class="c0" d="M173.1,33.7c0,0.2-0.1,0.3-0.2,0.4c-0.1,0.1-0.3,0.1-0.5,0.2c-0.2,0-0.5,0.1-0.8,0.1c-0.4,0-0.6,0-0.9-0.1c-0.2,0-0.4-0.1-0.5-0.2c-0.1-0.1-0.1-0.2-0.1-0.4v-1.9c-0.8,0.9-1.7,1.5-2.7,2c-1,0.5-2.1,0.7-3.2,0.7c-1,0-1.9-0.1-2.7-0.4c-0.8-0.3-1.5-0.6-2-1.1c-0.6-0.5-1-1.1-1.3-1.8c-0.3-0.7-0.5-1.5-0.5-2.4c0-1.1,0.2-2,0.6-2.7c0.4-0.8,1-1.4,1.8-1.9c0.8-0.5,1.8-0.9,2.9-1.2c1.2-0.3,2.5-0.4,3.9-0.4h2.6v-1.5c0-0.7-0.1-1.4-0.2-1.9c-0.2-0.6-0.4-1-0.7-1.4c-0.3-0.4-0.8-0.6-1.3-0.8c-0.5-0.2-1.2-0.3-2-0.3c-0.8,0-1.6,0.1-2.3,0.3c-0.7,0.2-1.3,0.4-1.8,0.7c-0.5,0.2-0.9,0.5-1.3,0.7c-0.3,0.2-0.6,0.3-0.8,0.3c-0.1,0-0.2,0-0.3-0.1c-0.1-0.1-0.2-0.1-0.2-0.2c-0.1-0.1-0.1-0.3-0.1-0.4c0-0.2,0-0.4,0-0.6c0-0.3,0-0.6,0.1-0.8c0-0.2,0.2-0.4,0.4-0.6c0.2-0.2,0.5-0.4,1-0.6c0.5-0.2,1-0.5,1.6-0.7c0.6-0.2,1.2-0.4,1.9-0.5c0.7-0.1,1.4-0.2,2.1-0.2c1.3,0,2.5,0.2,3.4,0.5c0.9,0.3,1.7,0.7,2.3,1.3c0.6,0.6,1,1.3,1.3,2.2c0.3,0.9,0.4,1.9,0.4,3V33.7zM169.7,25.2h-2.9c-0.9,0-1.8,0.1-2.4,0.2c-0.7,0.2-1.3,0.4-1.7,0.7c-0.5,0.3-0.8,0.7-1,1.1c-0.2,0.4-0.3,0.9-0.3,1.5c0,1,0.3,1.7,0.9,2.3c0.6,0.6,1.5,0.9,2.6,0.9c0.9,0,1.7-0.2,2.5-0.7c0.8-0.5,1.6-1.2,2.4-2.1V25.2z"/>
  <path class="c0" d="M194.6,33.7c0,0.1,0,0.2-0.1,0.3c-0.1,0.1-0.1,0.1-0.3,0.2c-0.1,0.1-0.3,0.1-0.5,0.1c-0.2,0-0.5,0-0.8,0c-0.3,0-0.6,0-0.9,0c-0.2,0-0.4-0.1-0.5-0.1c-0.1-0.1-0.2-0.1-0.3-0.2c-0.1-0.1-0.1-0.2-0.1-0.3V22.8c0-1.1-0.1-1.9-0.3-2.6c-0.2-0.7-0.4-1.2-0.7-1.7c-0.3-0.5-0.7-0.8-1.2-1.1c-0.5-0.2-1.1-0.4-1.8-0.4c-0.9,0-1.7,0.3-2.6,0.9c-0.9,0.6-1.8,1.5-2.7,2.7v13c0,0.1,0,0.2-0.1,0.3c-0.1,0.1-0.1,0.1-0.3,0.2c-0.1,0.1-0.3,0.1-0.5,0.1c-0.2,0-0.5,0-0.9,0c-0.3,0-0.6,0-0.8,0c-0.2,0-0.4-0.1-0.5-0.1c-0.1-0.1-0.2-0.1-0.3-0.2c0-0.1-0.1-0.2-0.1-0.3V15c0-0.1,0-0.2,0.1-0.3c0-0.1,0.1-0.1,0.3-0.2c0.1-0.1,0.3-0.1,0.5-0.1c0.2,0,0.4,0,0.8,0c0.3,0,0.6,0,0.8,0c0.2,0,0.4,0.1,0.5,0.1s0.2,0.1,0.2,0.2c0,0.1,0.1,0.2,0.1,0.3v2.5c1.1-1.2,2.1-2,3.1-2.6c1-0.5,2.1-0.8,3.2-0.8c1.2,0,2.3,0.2,3.1,0.6c0.8,0.4,1.5,1,2.1,1.7c0.5,0.7,0.9,1.5,1.1,2.5c0.2,0.9,0.3,2.1,0.3,3.4V33.7z"/>
  <path class="c0" d="M216,23.6c0,0.5-0.1,0.9-0.4,1.2c-0.3,0.2-0.6,0.3-0.9,0.3h-12.3c0,1,0.1,2,0.3,2.8c0.2,0.8,0.6,1.5,1,2.1c0.5,0.6,1.1,1.1,1.9,1.4c0.8,0.3,1.7,0.5,2.9,0.5c0.9,0,1.7-0.1,2.4-0.2c0.7-0.1,1.3-0.3,1.8-0.5c0.5-0.2,0.9-0.3,1.3-0.5c0.3-0.1,0.6-0.2,0.7-0.2c0.1,0,0.2,0,0.3,0.1c0.1,0,0.1,0.1,0.2,0.2c0,0.1,0.1,0.2,0.1,0.4c0,0.2,0,0.4,0,0.6c0,0.2,0,0.3,0,0.5c0,0.1,0,0.2-0.1,0.4c0,0.1-0.1,0.2-0.1,0.3c0,0.1-0.1,0.2-0.2,0.2c-0.1,0.1-0.3,0.2-0.7,0.4c-0.4,0.2-0.9,0.3-1.4,0.5c-0.6,0.2-1.3,0.3-2.1,0.4c-0.8,0.1-1.6,0.2-2.5,0.2c-1.5,0-2.9-0.2-4-0.6c-1.2-0.4-2.1-1.1-2.9-1.9c-0.8-0.8-1.4-1.9-1.8-3.2c-0.4-1.3-0.6-2.8-0.6-4.4c0-1.6,0.2-3,0.6-4.3c0.4-1.3,1-2.4,1.8-3.3c0.8-0.9,1.7-1.6,2.8-2.1c1.1-0.5,2.3-0.7,3.7-0.7c1.5,0,2.7,0.2,3.7,0.7c1,0.5,1.9,1.1,2.5,1.9c0.7,0.8,1.2,1.7,1.5,2.8c0.3,1.1,0.5,2.2,0.5,3.4V23.6z M212.6,22.5c0-1.8-0.4-3.2-1.2-4.2c-0.8-1-2.1-1.5-3.7-1.5c-0.8,0-1.6,0.2-2.2,0.5c-0.6,0.3-1.2,0.7-1.6,1.3c-0.4,0.5-0.8,1.1-1,1.8c-0.2,0.7-0.4,1.4-0.4,2.2H212.6z"/>
  <path class="c0" d="M241,5c-9.9,0-18,8.1-18,18s8.1,18,18,18c9.9,0,18-8.1,18-18S250.9,5,241,5z M247.9,30.8c-0.4,0.9-1,1.6-1.8,2.2c-0.8,0.6-1.7,1.1-2.8,1.4c-1.1,0.3-2.3,0.5-3.5,0.5c-0.8,0-1.5-0.1-2.2-0.2c-0.7-0.1-1.3-0.2-1.8-0.4c-0.5-0.2-1-0.3-1.3-0.5c-0.3-0.2-0.6-0.3-0.7-0.4c-0.1-0.1-0.2-0.2-0.2-0.3c-0.1-0.1-0.1-0.3-0.1-0.4c0-0.2-0.1-0.4-0.1-0.6c0-0.2,0-0.5,0-0.9c0-0.6,0-1,0.1-1.2c0.1-0.2,0.2-0.3,0.4-0.3c0.1,0,0.3,0.1,0.6,0.2c0.3,0.2,0.7,0.3,1.1,0.5c0.4,0.2,1,0.4,1.6,0.5c0.6,0.2,1.3,0.2,2,0.2c0.6,0,1.2-0.1,1.7-0.2c0.5-0.2,0.9-0.4,1.3-0.6s0.6-0.6,0.8-1c0.2-0.4,0.3-0.8,0.3-1.3c0-0.5-0.1-1-0.3-1.4c-0.2-0.4-0.5-0.8-0.9-1.1c-0.4-0.3-0.9-0.5-1.5-0.7c-0.6-0.2-1.3-0.2-2.2-0.2h-2c-0.2,0-0.3,0-0.4-0.1c-0.1,0-0.2-0.1-0.3-0.3c-0.1-0.1-0.1-0.3-0.1-0.5c0-0.2,0-0.5,0-0.9c0-0.3,0-0.6,0-0.8s0.1-0.4,0.1-0.5c0.1-0.1,0.1-0.2,0.2-0.2c0.1,0,0.2-0.1,0.4-0.1h2c0.7,0,1.3-0.1,1.8-0.2c0.5-0.2,1-0.4,1.3-0.7c0.4-0.3,0.6-0.6,0.8-1.1c0.2-0.4,0.3-0.9,0.3-1.4c0-0.4-0.1-0.8-0.2-1.1s-0.3-0.6-0.6-0.9c-0.3-0.3-0.6-0.5-1-0.6s-0.9-0.2-1.4-0.2c-0.6,0-1.2,0.1-1.7,0.3c-0.5,0.2-1,0.4-1.5,0.6c-0.4,0.2-0.8,0.4-1.1,0.6c-0.3,0.2-0.5,0.3-0.7,0.3c-0.1,0-0.2,0-0.2-0.1c-0.1,0-0.1-0.1-0.2-0.2c0-0.1-0.1-0.3-0.1-0.5c0-0.2,0-0.5,0-0.9c0-0.3,0-0.5,0-0.7c0-0.2,0-0.4,0.1-0.5c0-0.1,0.1-0.2,0.1-0.3c0.1-0.1,0.1-0.2,0.3-0.3c0.1-0.1,0.4-0.3,0.7-0.5c0.4-0.2,0.8-0.4,1.4-0.7c0.6-0.2,1.2-0.4,1.9-0.5c0.7-0.1,1.5-0.2,2.3-0.2c1.1,0,2.1,0.1,2.9,0.4c0.8,0.3,1.6,0.6,2.1,1.1c0.6,0.5,1,1.1,1.3,1.8c0.3,0.7,0.4,1.5,0.4,2.4c0,0.7-0.1,1.3-0.3,1.9c-0.2,0.6-0.4,1.1-0.8,1.6s-0.8,0.9-1.3,1.2c-0.5,0.3-1.1,0.6-1.8,0.7v0.1c0.8,0.1,1.5,0.3,2.1,0.6c0.6,0.3,1.2,0.7,1.6,1.2c0.4,0.5,0.8,1,1,1.6c0.2,0.6,0.4,1.2,0.4,1.9C248.6,28.9,248.4,29.9,247.9,30.8z"/>
  <path class="c0" d="M281.5,5c-9.9,0-18,8.1-18,18c0,9.9,8.1,18,18,18c9.9,0,18-8.1,18-18C299.5,13.1,291.4,5,281.5,5z M288.4,33.5c0,0.2-0.1,0.4-0.1,0.5c-0.1,0.1-0.1,0.2-0.2,0.3c-0.1,0.1-0.2,0.1-0.3,0.1h-12.6c-0.1,0-0.2,0-0.3-0.1c-0.1-0.1-0.2-0.2-0.2-0.3c-0.1-0.1-0.1-0.3-0.1-0.5s-0.1-0.5-0.1-0.8c0-0.3,0-0.6,0-0.9c0-0.2,0.1-0.4,0.1-0.6c0.1-0.1,0.1-0.2,0.2-0.3c0.1-0.1,0.2-0.1,0.3-0.1h4.2V16.1l-3.7,2c-0.3,0.1-0.5,0.2-0.7,0.2c-0.2,0-0.3,0-0.4-0.1c-0.1-0.1-0.2-0.3-0.2-0.5c0-0.2-0.1-0.6-0.1-1c0-0.3,0-0.5,0-0.7c0-0.2,0-0.3,0.1-0.5c0-0.1,0.1-0.2,0.2-0.3c0.1-0.1,0.2-0.2,0.3-0.3l4.9-3.2c0.1,0,0.1-0.1,0.2-0.1s0.2-0.1,0.3-0.1c0.1,0,0.3,0,0.6,0c0.2,0,0.5,0,0.9,0c0.4,0,0.8,0,1.1,0c0.3,0,0.5,0,0.6,0.1c0.1,0,0.2,0.1,0.3,0.2c0,0.1,0.1,0.2,0.1,0.3v18.8h3.7c0.1,0,0.2,0,0.3,0.1c0.1,0.1,0.2,0.2,0.2,0.3c0.1,0.1,0.1,0.3,0.1,0.6c0,0.2,0,0.5,0,0.9C288.5,33,288.5,33.3,288.4,33.5z"/>
  <path class="c0" d="M322,5c-9.9,0-18,8.1-18,18c0,9.9,8.1,18,18,18s18-8.1,18-18C340,13.1,331.9,5,322,5z M328.9,33.5c0,0.2-0.1,0.4-0.1,0.5c-0.1,0.1-0.1,0.2-0.2,0.3c-0.1,0.1-0.2,0.1-0.3,0.1h-12.6c-0.1,0-0.2,0-0.3-0.1c-0.1-0.1-0.2-0.2-0.2-0.3c-0.1-0.1-0.1-0.3-0.1-0.5c0-0.2-0.1-0.5-0.1-0.8c0-0.3,0-0.6,0-0.9c0-0.2,0.1-0.4,0.1-0.6c0.1-0.1,0.1-0.2,0.2-0.3c0.1-0.1,0.2-0.1,0.3-0.1h4.2V16.1l-3.7,2c-0.3,0.1-0.5,0.2-0.7,0.2c-0.2,0-0.3,0-0.4-0.1c-0.1-0.1-0.2-0.3-0.2-0.5c0-0.2-0.1-0.6-0.1-1c0-0.3,0-0.5,0-0.7c0-0.2,0-0.3,0.1-0.5c0-0.1,0.1-0.2,0.2-0.3c0.1-0.1,0.2-0.2,0.3-0.3l4.9-3.2c0.1,0,0.1-0.1,0.2-0.1c0.1,0,0.2-0.1,0.3-0.1c0.1,0,0.3,0,0.6,0c0.2,0,0.5,0,0.9,0c0.4,0,0.8,0,1.1,0c0.3,0,0.5,0,0.6,0.1c0.1,0,0.2,0.1,0.3,0.2c0,0.1,0.1,0.2,0.1,0.3v18.8h3.7c0.1,0,0.2,0,0.3,0.1c0.1,0.1,0.2,0.2,0.2,0.3c0.1,0.1,0.1,0.3,0.1,0.6c0,0.2,0,0.5,0,0.9C329,33,329,33.3,328.9,33.5z"/>
  <path class="c0" d="M149.2,61.5c0,0.2,0,0.4,0,0.5c0,0.1,0,0.3,0,0.4c0,0.1,0,0.2-0.1,0.2c0,0.1-0.1,0.1-0.2,0.2s-0.3,0.2-0.5,0.3c-0.2,0.1-0.5,0.3-0.8,0.4c-0.3,0.1-0.6,0.2-1,0.3c-0.4,0.1-0.7,0.1-1.1,0.1c-0.8,0-1.6-0.1-2.2-0.4c-0.6-0.3-1.2-0.6-1.6-1.2c-0.4-0.5-0.8-1.1-1-1.9c-0.2-0.7-0.3-1.6-0.3-2.5c0-1.1,0.1-2,0.4-2.8c0.3-0.8,0.7-1.4,1.1-2c0.5-0.5,1.1-0.9,1.7-1.2c0.7-0.3,1.4-0.4,2.2-0.4c0.3,0,0.6,0,1,0.1c0.3,0.1,0.6,0.1,0.9,0.2c0.3,0.1,0.5,0.2,0.7,0.3c0.2,0.1,0.4,0.2,0.5,0.3s0.2,0.2,0.2,0.2c0,0.1,0.1,0.1,0.1,0.2s0,0.2,0,0.4c0,0.1,0,0.3,0,0.5c0,0.5,0,0.8-0.1,1c-0.1,0.2-0.2,0.3-0.3,0.3c-0.1,0-0.3-0.1-0.4-0.2c-0.2-0.1-0.3-0.2-0.5-0.4c-0.2-0.1-0.5-0.3-0.8-0.4s-0.6-0.2-1-0.2c-0.8,0-1.4,0.3-1.8,0.9c-0.4,0.6-0.6,1.5-0.6,2.7c0,0.6,0.1,1.1,0.2,1.5s0.3,0.8,0.5,1.1c0.2,0.3,0.5,0.5,0.8,0.7c0.3,0.2,0.7,0.2,1.1,0.2c0.4,0,0.8-0.1,1.1-0.2c0.3-0.1,0.6-0.3,0.8-0.4c0.2-0.2,0.4-0.3,0.6-0.4c0.2-0.1,0.3-0.2,0.4-0.2c0.1,0,0.1,0,0.2,0.1c0,0,0.1,0.1,0.1,0.2s0.1,0.3,0.1,0.4C149.2,61,149.2,61.2,149.2,61.5z"/>
  <path class="c0" d="M160.5,63.3c0,0.1,0,0.2-0.1,0.3c-0.1,0.1-0.2,0.1-0.4,0.1c-0.2,0-0.4,0-0.8,0c-0.4,0-0.6,0-0.8,0c-0.2,0-0.3-0.1-0.4-0.1c-0.1-0.1-0.1-0.2-0.1-0.3v-0.9c-0.4,0.5-1,0.9-1.5,1.1c-0.6,0.3-1.2,0.4-1.9,0.4c-0.6,0-1.1-0.1-1.6-0.2c-0.5-0.2-0.9-0.4-1.3-0.7c-0.4-0.3-0.6-0.7-0.8-1.1s-0.3-1-0.3-1.5c0-0.6,0.1-1.2,0.4-1.7s0.6-0.9,1.1-1.2s1.1-0.5,1.8-0.7c0.7-0.1,1.6-0.2,2.5-0.2h1.1V56c0-0.3,0-0.6-0.1-0.9c-0.1-0.3-0.2-0.5-0.3-0.6c-0.2-0.2-0.4-0.3-0.6-0.4c-0.3-0.1-0.6-0.1-1-0.1c-0.5,0-1,0.1-1.4,0.2s-0.8,0.2-1.1,0.4s-0.6,0.3-0.8,0.4s-0.4,0.2-0.5,0.2c-0.1,0-0.2,0-0.2-0.1c-0.1-0.1-0.1-0.1-0.2-0.2c0-0.1-0.1-0.2-0.1-0.4c0-0.2,0-0.3,0-0.5c0-0.3,0-0.5,0.1-0.6c0-0.1,0.1-0.3,0.2-0.4c0.1-0.1,0.3-0.2,0.6-0.4c0.3-0.1,0.6-0.3,1-0.4s0.8-0.2,1.3-0.3s0.9-0.1,1.4-0.1c0.9,0,1.6,0.1,2.2,0.3s1.1,0.4,1.5,0.8s0.7,0.8,0.9,1.3c0.2,0.5,0.3,1.2,0.3,1.9V63.3z M157.5,58.6h-1.2c-0.5,0-0.9,0-1.3,0.1s-0.6,0.2-0.9,0.3c-0.2,0.1-0.4,0.3-0.5,0.5c-0.1,0.2-0.2,0.4-0.2,0.7c0,0.5,0.1,0.8,0.4,1.1c0.3,0.3,0.7,0.4,1.2,0.4c0.4,0,0.8-0.1,1.2-0.3c0.4-0.2,0.7-0.5,1.1-1V58.6z"/>
  <path class="c0" d="M166.7,63.2c0,0.1,0,0.2-0.1,0.2c0,0.1-0.1,0.1-0.3,0.2c-0.1,0-0.3,0.1-0.5,0.1c-0.2,0-0.4,0-0.7,0s-0.5,0-0.7,0c-0.2,0-0.4-0.1-0.5-0.1s-0.2-0.1-0.3-0.2c0-0.1-0.1-0.1-0.1-0.2v-16c0-0.1,0-0.2,0.1-0.2c0-0.1,0.1-0.1,0.3-0.2s0.3-0.1,0.5-0.1c0.2,0,0.4,0,0.7,0s0.5,0,0.7,0c0.2,0,0.4,0.1,0.5,0.1c0.1,0,0.2,0.1,0.3,0.2c0,0.1,0.1,0.1,0.1,0.2V63.2z"/>
  <path class="c0" d="M172.8,63.2c0,0.1,0,0.2-0.1,0.2c0,0.1-0.1,0.1-0.3,0.2s-0.3,0.1-0.5,0.1s-0.4,0-0.7,0c-0.3,0-0.5,0-0.7,0s-0.4-0.1-0.5-0.1c-0.1,0-0.2-0.1-0.3-0.2c0-0.1-0.1-0.1-0.1-0.2v-16c0-0.1,0-0.2,0.1-0.2c0-0.1,0.1-0.1,0.3-0.2c0.1,0,0.3-0.1,0.5-0.1s0.4,0,0.7,0c0.3,0,0.5,0,0.7,0s0.4,0.1,0.5,0.1s0.2,0.1,0.3,0.2c0,0.1,0.1,0.1,0.1,0.2V63.2z"/>
  <path class="c0" d="M188.1,48.2c0,0.2,0,0.4,0,0.6s0,0.3-0.1,0.3c0,0.1-0.1,0.1-0.1,0.2c0,0-0.1,0-0.1,0c-0.1,0-0.1,0-0.2,0s-0.2-0.1-0.3-0.1c-0.1,0-0.2-0.1-0.4-0.1c-0.1,0-0.3,0-0.5,0c-0.2,0-0.4,0-0.6,0.1c-0.2,0.1-0.3,0.2-0.4,0.3c-0.1,0.2-0.2,0.3-0.2,0.6c0,0.2-0.1,0.5-0.1,0.9v1h2c0.1,0,0.1,0,0.2,0.1c0.1,0,0.1,0.1,0.2,0.2c0,0.1,0.1,0.2,0.1,0.4s0,0.4,0,0.6c0,0.4,0,0.8-0.1,1s-0.2,0.3-0.4,0.3h-2v8.8c0,0.1,0,0.2-0.1,0.2c0,0.1-0.1,0.1-0.2,0.2c-0.1,0-0.3,0.1-0.5,0.1s-0.5,0-0.7,0c-0.3,0-0.5,0-0.7,0c-0.2,0-0.4-0.1-0.5-0.1c-0.1,0-0.2-0.1-0.2-0.2c0-0.1-0.1-0.1-0.1-0.2v-8.8h-1.4c-0.2,0-0.3-0.1-0.3-0.3s-0.1-0.5-0.1-1c0-0.2,0-0.4,0-0.6c0-0.2,0-0.3,0.1-0.4s0.1-0.2,0.1-0.2c0.1,0,0.1-0.1,0.2-0.1h1.4V51c0-0.7,0.1-1.4,0.2-1.9s0.4-1,0.7-1.4s0.7-0.6,1.2-0.8c0.5-0.2,1.1-0.3,1.7-0.3c0.3,0,0.6,0,0.9,0.1c0.3,0.1,0.5,0.1,0.7,0.2c0.2,0.1,0.3,0.1,0.3,0.2c0.1,0.1,0.1,0.1,0.1,0.2c0,0.1,0.1,0.2,0.1,0.4S188.1,48,188.1,48.2z"/>
  <path class="c0" d="M200,57.7c0,0.9-0.1,1.8-0.4,2.5c-0.2,0.8-0.6,1.4-1.1,2c-0.5,0.6-1.1,1-1.9,1.3s-1.6,0.5-2.6,0.5c-1,0-1.8-0.1-2.5-0.4c-0.7-0.3-1.3-0.7-1.8-1.2s-0.8-1.1-1-1.9c-0.2-0.7-0.3-1.6-0.3-2.6c0-0.9,0.1-1.8,0.4-2.5c0.2-0.8,0.6-1.4,1.1-2c0.5-0.5,1.1-1,1.9-1.3c0.7-0.3,1.6-0.5,2.6-0.5c1,0,1.8,0.1,2.5,0.4s1.3,0.7,1.8,1.2c0.5,0.5,0.8,1.1,1,1.9C199.9,55.9,200,56.7,200,57.7z M196.9,57.8c0-0.5,0-1-0.1-1.5c-0.1-0.5-0.2-0.8-0.4-1.2s-0.5-0.6-0.8-0.8c-0.3-0.2-0.8-0.3-1.3-0.3c-0.5,0-0.9,0.1-1.2,0.3c-0.3,0.2-0.6,0.4-0.8,0.7c-0.2,0.3-0.4,0.7-0.5,1.2c-0.1,0.5-0.2,1-0.2,1.5c0,0.5,0,1,0.1,1.5c0.1,0.5,0.2,0.8,0.4,1.2c0.2,0.3,0.5,0.6,0.8,0.8s0.8,0.3,1.3,0.3c0.5,0,0.9-0.1,1.2-0.3s0.6-0.4,0.8-0.7c0.2-0.3,0.4-0.7,0.5-1.2S196.9,58.4,196.9,57.8z"/>
  <path class="c0" d="M209.5,53.4c0,0.3,0,0.5,0,0.7c0,0.2,0,0.3-0.1,0.4c0,0.1-0.1,0.2-0.1,0.2s-0.1,0.1-0.2,0.1c-0.1,0-0.1,0-0.2,0c-0.1,0-0.2-0.1-0.3-0.1c-0.1,0-0.2-0.1-0.3-0.1s-0.3,0-0.4,0c-0.2,0-0.3,0-0.5,0.1c-0.2,0.1-0.3,0.2-0.5,0.3c-0.2,0.1-0.4,0.3-0.6,0.6c-0.2,0.2-0.4,0.5-0.6,0.9v6.8c0,0.1,0,0.2-0.1,0.2c0,0.1-0.1,0.1-0.3,0.2c-0.1,0-0.3,0.1-0.5,0.1s-0.4,0-0.7,0c-0.3,0-0.5,0-0.7,0s-0.4-0.1-0.5-0.1s-0.2-0.1-0.3-0.2c0-0.1-0.1-0.1-0.1-0.2V52.4c0-0.1,0-0.2,0.1-0.2c0-0.1,0.1-0.1,0.2-0.2s0.2-0.1,0.4-0.1s0.4,0,0.6,0c0.3,0,0.5,0,0.6,0s0.3,0.1,0.4,0.1c0.1,0,0.2,0.1,0.2,0.2c0,0.1,0.1,0.1,0.1,0.2v1.4c0.3-0.4,0.6-0.7,0.8-1c0.3-0.3,0.5-0.5,0.7-0.6c0.2-0.2,0.5-0.3,0.7-0.3c0.2-0.1,0.5-0.1,0.7-0.1c0.1,0,0.2,0,0.3,0c0.1,0,0.2,0,0.4,0.1c0.1,0,0.2,0.1,0.3,0.1c0.1,0,0.2,0.1,0.2,0.1c0,0,0.1,0.1,0.1,0.1c0,0,0,0.1,0.1,0.2c0,0.1,0,0.2,0,0.4C209.5,52.8,209.5,53.1,209.5,53.4z"/>
  <path class="c0" d="M225.2,61.5c0,0.2,0,0.4,0,0.5c0,0.1,0,0.3,0,0.4c0,0.1,0,0.2-0.1,0.2c0,0.1-0.1,0.1-0.2,0.2s-0.3,0.2-0.5,0.3c-0.2,0.1-0.5,0.3-0.8,0.4c-0.3,0.1-0.6,0.2-1,0.3c-0.4,0.1-0.7,0.1-1.1,0.1c-0.8,0-1.6-0.1-2.2-0.4s-1.2-0.6-1.6-1.2c-0.4-0.5-0.8-1.1-1-1.9c-0.2-0.7-0.3-1.6-0.3-2.5c0-1.1,0.1-2,0.4-2.8c0.3-0.8,0.7-1.4,1.1-2c0.5-0.5,1.1-0.9,1.7-1.2s1.4-0.4,2.2-0.4c0.3,0,0.6,0,1,0.1c0.3,0.1,0.6,0.1,0.9,0.2c0.3,0.1,0.5,0.2,0.7,0.3c0.2,0.1,0.4,0.2,0.5,0.3s0.2,0.2,0.2,0.2c0,0.1,0.1,0.1,0.1,0.2s0,0.2,0,0.4c0,0.1,0,0.3,0,0.5c0,0.5,0,0.8-0.1,1c-0.1,0.2-0.2,0.3-0.3,0.3c-0.1,0-0.3-0.1-0.4-0.2c-0.2-0.1-0.3-0.2-0.5-0.4c-0.2-0.1-0.5-0.3-0.8-0.4c-0.3-0.1-0.6-0.2-1-0.2c-0.8,0-1.4,0.3-1.8,0.9c-0.4,0.6-0.6,1.5-0.6,2.7c0,0.6,0.1,1.1,0.2,1.5s0.3,0.8,0.5,1.1c0.2,0.3,0.5,0.5,0.8,0.7c0.3,0.2,0.7,0.2,1.1,0.2c0.4,0,0.8-0.1,1.1-0.2c0.3-0.1,0.6-0.3,0.8-0.4s0.4-0.3,0.6-0.4c0.2-0.1,0.3-0.2,0.4-0.2c0.1,0,0.1,0,0.2,0.1c0,0,0.1,0.1,0.1,0.2c0,0.1,0.1,0.3,0.1,0.4C225.2,61,225.2,61.2,225.2,61.5z"/>
  <path class="c0" d="M230.8,48.7c0,0.6-0.1,1-0.4,1.3c-0.3,0.2-0.7,0.4-1.4,0.4c-0.7,0-1.2-0.1-1.4-0.3s-0.4-0.6-0.4-1.2c0-0.6,0.1-1,0.4-1.3c0.2-0.2,0.7-0.4,1.4-0.4c0.7,0,1.1,0.1,1.4,0.3C230.6,47.7,230.8,48.1,230.8,48.7z M230.5,63.2c0,0.1,0,0.2-0.1,0.2c0,0.1-0.1,0.1-0.3,0.2c-0.1,0-0.3,0.1-0.5,0.1s-0.4,0-0.7,0c-0.3,0-0.5,0-0.7,0s-0.4-0.1-0.5-0.1s-0.2-0.1-0.3-0.2c0-0.1-0.1-0.1-0.1-0.2V52.4c0-0.1,0-0.2,0.1-0.2c0-0.1,0.1-0.1,0.3-0.2s0.3-0.1,0.5-0.1c0.2,0,0.4,0,0.7,0c0.3,0,0.5,0,0.7,0c0.2,0,0.4,0.1,0.5,0.1c0.1,0,0.2,0.1,0.3,0.2c0,0.1,0.1,0.1,0.1,0.2V63.2z"/>
  <path class="c0" d="M240,62.2c0,0.4,0,0.6-0.1,0.8c0,0.2-0.1,0.3-0.2,0.4c-0.1,0.1-0.2,0.1-0.3,0.2c-0.1,0.1-0.3,0.1-0.5,0.2c-0.2,0-0.4,0.1-0.6,0.1s-0.4,0-0.7,0c-0.6,0-1.1-0.1-1.6-0.2c-0.4-0.2-0.8-0.4-1.1-0.7s-0.5-0.7-0.6-1.2c-0.1-0.5-0.2-1.1-0.2-1.7v-5.6h-1.3c-0.2,0-0.3-0.1-0.4-0.3s-0.1-0.5-0.1-1c0-0.2,0-0.4,0-0.6s0.1-0.3,0.1-0.4c0-0.1,0.1-0.2,0.2-0.2c0.1,0,0.1-0.1,0.2-0.1h1.3v-2.4c0-0.1,0-0.2,0.1-0.2s0.1-0.1,0.2-0.2s0.3-0.1,0.5-0.1c0.2,0,0.4,0,0.7,0c0.3,0,0.6,0,0.8,0c0.2,0,0.4,0.1,0.5,0.1c0.1,0,0.2,0.1,0.2,0.2c0,0.1,0.1,0.1,0.1,0.2v2.4h2.4c0.1,0,0.2,0,0.2,0.1c0.1,0,0.1,0.1,0.2,0.2c0,0.1,0.1,0.2,0.1,0.4c0,0.2,0,0.4,0,0.6c0,0.4,0,0.8-0.1,1c-0.1,0.2-0.2,0.3-0.4,0.3h-2.4v5.1c0,0.6,0.1,1,0.3,1.3c0.2,0.3,0.5,0.4,1,0.4c0.2,0,0.3,0,0.4,0c0.1,0,0.2-0.1,0.3-0.1c0.1,0,0.2-0.1,0.3-0.1c0.1,0,0.1,0,0.2,0c0,0,0.1,0,0.1,0c0,0,0.1,0.1,0.1,0.2s0,0.2,0.1,0.3C240,61.7,240,61.9,240,62.2z"/>
  <path class="c0" d="M248.5,63.6l-1.3,3.9c-0.1,0.2-0.3,0.3-0.6,0.4c-0.3,0.1-0.8,0.1-1.4,0.1c-0.3,0-0.6,0-0.8,0c-0.2,0-0.3-0.1-0.4-0.1c-0.1-0.1-0.2-0.1-0.2-0.2s0-0.2,0.1-0.4l1.5-3.6c-0.1,0-0.2-0.1-0.3-0.2c-0.1-0.1-0.1-0.2-0.2-0.3l-3.7-10c-0.1-0.3-0.2-0.5-0.2-0.7c0-0.2,0-0.3,0.1-0.4c0.1-0.1,0.3-0.1,0.5-0.2s0.5,0,0.9,0c0.3,0,0.6,0,0.8,0c0.2,0,0.4,0,0.5,0.1c0.1,0,0.2,0.1,0.3,0.2c0.1,0.1,0.1,0.2,0.2,0.4l2.6,7.3h0l2.3-7.4c0-0.2,0.1-0.4,0.2-0.4s0.2-0.1,0.4-0.2s0.5,0,0.9,0c0.3,0,0.6,0,0.9,0s0.4,0.1,0.5,0.2s0.2,0.2,0.2,0.4c0,0.2,0,0.3-0.1,0.5L248.5,63.6z"/>
  <path class="c0" d="M267.4,60.2c0,0.6-0.1,1.2-0.3,1.6c-0.2,0.5-0.6,0.9-1,1.2c-0.4,0.3-0.9,0.6-1.5,0.7c-0.6,0.2-1.2,0.2-1.9,0.2c-0.4,0-0.8,0-1.2-0.1c-0.4-0.1-0.7-0.1-1-0.2c-0.3-0.1-0.5-0.2-0.7-0.3s-0.3-0.2-0.4-0.3s-0.2-0.2-0.2-0.4c0-0.2-0.1-0.5-0.1-0.8c0-0.2,0-0.4,0-0.6c0-0.1,0-0.3,0.1-0.3c0-0.1,0.1-0.1,0.1-0.2c0,0,0.1,0,0.2,0c0.1,0,0.2,0.1,0.4,0.2s0.4,0.2,0.7,0.3c0.3,0.1,0.6,0.2,0.9,0.3c0.3,0.1,0.7,0.2,1.2,0.2c0.3,0,0.5,0,0.7-0.1c0.2-0.1,0.4-0.1,0.6-0.2c0.2-0.1,0.3-0.2,0.4-0.4c0.1-0.2,0.1-0.3,0.1-0.6c0-0.2-0.1-0.5-0.2-0.6c-0.2-0.2-0.3-0.3-0.6-0.5c-0.2-0.1-0.5-0.3-0.8-0.4s-0.6-0.2-1-0.4s-0.7-0.3-1-0.5c-0.3-0.2-0.6-0.4-0.8-0.7s-0.4-0.6-0.6-0.9c-0.2-0.4-0.2-0.8-0.2-1.3c0-0.5,0.1-1,0.3-1.4c0.2-0.4,0.5-0.8,0.9-1.1c0.4-0.3,0.8-0.5,1.4-0.7s1.2-0.3,1.8-0.3c0.3,0,0.7,0,1,0.1s0.6,0.1,0.9,0.2c0.3,0.1,0.5,0.2,0.7,0.2c0.2,0.1,0.3,0.2,0.4,0.2c0.1,0.1,0.1,0.1,0.2,0.2c0,0.1,0.1,0.1,0.1,0.2s0,0.2,0,0.3c0,0.1,0,0.3,0,0.5c0,0.2,0,0.4,0,0.5s0,0.2-0.1,0.3c0,0.1-0.1,0.1-0.1,0.2c0,0-0.1,0-0.2,0c-0.1,0-0.2,0-0.3-0.1c-0.2-0.1-0.3-0.2-0.6-0.3S265,54,264.7,54c-0.3-0.1-0.7-0.1-1-0.1c-0.3,0-0.5,0-0.7,0.1c-0.2,0.1-0.4,0.1-0.5,0.2c-0.1,0.1-0.2,0.2-0.3,0.4c-0.1,0.1-0.1,0.3-0.1,0.5c0,0.3,0.1,0.5,0.2,0.6c0.2,0.2,0.4,0.3,0.6,0.5c0.3,0.1,0.5,0.3,0.9,0.4s0.6,0.2,1,0.4c0.3,0.1,0.7,0.3,1,0.5s0.6,0.4,0.9,0.7c0.3,0.3,0.5,0.6,0.6,0.9C267.3,59.2,267.4,59.7,267.4,60.2z"/>
  <path class="c0" d="M279.7,57.5c0,0.4-0.1,0.7-0.3,0.8c-0.2,0.2-0.4,0.3-0.7,0.3h-6.6c0,0.5,0.1,0.9,0.2,1.3s0.3,0.7,0.5,1c0.2,0.3,0.5,0.5,0.9,0.6c0.4,0.1,0.8,0.2,1.4,0.2c0.5,0,1,0,1.4-0.1c0.4-0.1,0.8-0.2,1.1-0.3c0.3-0.1,0.5-0.2,0.7-0.3c0.2-0.1,0.4-0.1,0.5-0.1c0.1,0,0.1,0,0.2,0c0,0,0.1,0.1,0.1,0.2c0,0.1,0.1,0.2,0.1,0.3c0,0.1,0,0.3,0,0.5c0,0.2,0,0.3,0,0.5c0,0.1,0,0.2,0,0.3c0,0.1,0,0.2-0.1,0.2c0,0.1-0.1,0.1-0.1,0.2c-0.1,0.1-0.2,0.1-0.4,0.2s-0.5,0.2-0.9,0.3c-0.4,0.1-0.8,0.2-1.3,0.2c-0.5,0.1-1,0.1-1.5,0.1c-1,0-1.8-0.1-2.5-0.4c-0.7-0.2-1.3-0.6-1.8-1.1c-0.5-0.5-0.9-1.1-1.1-1.9c-0.2-0.8-0.4-1.6-0.4-2.7c0-1,0.1-1.8,0.4-2.6c0.3-0.8,0.6-1.4,1.1-2c0.5-0.5,1.1-1,1.8-1.2c0.7-0.3,1.5-0.4,2.3-0.4c0.9,0,1.7,0.1,2.3,0.4c0.6,0.3,1.2,0.6,1.6,1.1c0.4,0.5,0.7,1,0.9,1.7c0.2,0.7,0.3,1.4,0.3,2.1V57.5z M276.8,56.6c0-0.9-0.1-1.5-0.5-2c-0.4-0.5-0.9-0.7-1.7-0.7c-0.4,0-0.7,0.1-1,0.2s-0.5,0.3-0.7,0.6c-0.2,0.2-0.3,0.5-0.4,0.9c-0.1,0.3-0.2,0.7-0.2,1.1H276.8z"/>
  <path class="c0" d="M289.2,53.4c0,0.3,0,0.5,0,0.7c0,0.2,0,0.3-0.1,0.4c0,0.1-0.1,0.2-0.1,0.2s-0.1,0.1-0.2,0.1c-0.1,0-0.1,0-0.2,0c-0.1,0-0.2-0.1-0.3-0.1c-0.1,0-0.2-0.1-0.3-0.1s-0.3,0-0.4,0c-0.2,0-0.3,0-0.5,0.1c-0.2,0.1-0.3,0.2-0.5,0.3c-0.2,0.1-0.4,0.3-0.6,0.6c-0.2,0.2-0.4,0.5-0.6,0.9v6.8c0,0.1,0,0.2-0.1,0.2c0,0.1-0.1,0.1-0.3,0.2c-0.1,0-0.3,0.1-0.5,0.1c-0.2,0-0.4,0-0.7,0s-0.5,0-0.7,0s-0.4-0.1-0.5-0.1c-0.1,0-0.2-0.1-0.3-0.2c0-0.1-0.1-0.1-0.1-0.2V52.4c0-0.1,0-0.2,0.1-0.2c0-0.1,0.1-0.1,0.2-0.2s0.2-0.1,0.4-0.1c0.2,0,0.4,0,0.6,0c0.3,0,0.5,0,0.6,0c0.2,0,0.3,0.1,0.4,0.1c0.1,0,0.2,0.1,0.2,0.2c0,0.1,0.1,0.1,0.1,0.2v1.4c0.3-0.4,0.6-0.7,0.8-1s0.5-0.5,0.7-0.6c0.2-0.2,0.5-0.3,0.7-0.3c0.2-0.1,0.5-0.1,0.7-0.1c0.1,0,0.2,0,0.3,0c0.1,0,0.2,0,0.4,0.1c0.1,0,0.2,0.1,0.3,0.1c0.1,0,0.2,0.1,0.2,0.1c0,0,0.1,0.1,0.1,0.1c0,0,0,0.1,0.1,0.2s0,0.2,0,0.4C289.2,52.8,289.2,53.1,289.2,53.4z"/>
  <path class="c0" d="M301.4,52.3c0,0,0,0.1,0,0.1c0,0.1,0,0.1,0,0.2c0,0.1,0,0.1,0,0.2s0,0.2-0.1,0.3l-3.3,9.8c0,0.1-0.1,0.3-0.2,0.3c-0.1,0.1-0.2,0.2-0.3,0.2s-0.4,0.1-0.6,0.1c-0.3,0-0.6,0-1.1,0c-0.4,0-0.8,0-1.1,0c-0.3,0-0.5-0.1-0.6-0.1c-0.2,0-0.3-0.1-0.3-0.2c-0.1-0.1-0.1-0.2-0.2-0.3l-3.3-9.8c0-0.2-0.1-0.3-0.1-0.4c0-0.1,0-0.2,0-0.3c0-0.1,0-0.1,0-0.2c0-0.1,0-0.2,0.1-0.2c0-0.1,0.1-0.1,0.2-0.2c0.1,0,0.3-0.1,0.5-0.1s0.4,0,0.8,0c0.3,0,0.6,0,0.8,0c0.2,0,0.4,0,0.5,0.1c0.1,0,0.2,0.1,0.3,0.2c0,0.1,0.1,0.2,0.1,0.3l2.5,8l0.1,0.3l0.1-0.3l2.4-8c0-0.1,0.1-0.2,0.1-0.3s0.1-0.1,0.3-0.2c0.1,0,0.3-0.1,0.5-0.1c0.2,0,0.4,0,0.8,0c0.3,0,0.5,0,0.7,0c0.2,0,0.3,0,0.4,0.1c0.1,0,0.2,0.1,0.2,0.2C301.4,52.2,301.4,52.3,301.4,52.3z"/>
  <path class="c0" d="M306.5,48.7c0,0.6-0.1,1-0.4,1.3c-0.3,0.2-0.7,0.4-1.4,0.4c-0.7,0-1.2-0.1-1.4-0.3c-0.2-0.2-0.4-0.6-0.4-1.2c0-0.6,0.1-1,0.4-1.3c0.2-0.2,0.7-0.4,1.4-0.4c0.7,0,1.1,0.1,1.4,0.3C306.4,47.7,306.5,48.1,306.5,48.7z M306.3,63.2c0,0.1,0,0.2-0.1,0.2c0,0.1-0.1,0.1-0.3,0.2s-0.3,0.1-0.5,0.1s-0.4,0-0.7,0c-0.3,0-0.5,0-0.7,0s-0.4-0.1-0.5-0.1s-0.2-0.1-0.3-0.2c0-0.1-0.1-0.1-0.1-0.2V52.4c0-0.1,0-0.2,0.1-0.2c0-0.1,0.1-0.1,0.3-0.2s0.3-0.1,0.5-0.1c0.2,0,0.4,0,0.7,0c0.3,0,0.5,0,0.7,0c0.2,0,0.4,0.1,0.5,0.1s0.2,0.1,0.3,0.2c0,0.1,0.1,0.1,0.1,0.2V63.2z"/>
  <path class="c0" d="M317.5,61.5c0,0.2,0,0.4,0,0.5c0,0.1,0,0.3,0,0.4s0,0.2-0.1,0.2c0,0.1-0.1,0.1-0.2,0.2s-0.3,0.2-0.5,0.3s-0.5,0.3-0.8,0.4c-0.3,0.1-0.6,0.2-1,0.3c-0.4,0.1-0.7,0.1-1.1,0.1c-0.8,0-1.6-0.1-2.2-0.4s-1.2-0.6-1.6-1.2c-0.4-0.5-0.8-1.1-1-1.9c-0.2-0.7-0.3-1.6-0.3-2.5c0-1.1,0.1-2,0.4-2.8c0.3-0.8,0.7-1.4,1.1-2c0.5-0.5,1.1-0.9,1.7-1.2c0.7-0.3,1.4-0.4,2.2-0.4c0.3,0,0.6,0,1,0.1c0.3,0.1,0.6,0.1,0.9,0.2c0.3,0.1,0.5,0.2,0.7,0.3c0.2,0.1,0.4,0.2,0.5,0.3s0.2,0.2,0.2,0.2c0,0.1,0.1,0.1,0.1,0.2c0,0.1,0,0.2,0,0.4c0,0.1,0,0.3,0,0.5c0,0.5,0,0.8-0.1,1c-0.1,0.2-0.2,0.3-0.3,0.3c-0.1,0-0.3-0.1-0.4-0.2c-0.2-0.1-0.3-0.2-0.5-0.4s-0.5-0.3-0.8-0.4c-0.3-0.1-0.6-0.2-1-0.2c-0.8,0-1.4,0.3-1.8,0.9c-0.4,0.6-0.6,1.5-0.6,2.7c0,0.6,0.1,1.1,0.2,1.5s0.3,0.8,0.5,1.1c0.2,0.3,0.5,0.5,0.8,0.7c0.3,0.2,0.7,0.2,1.1,0.2c0.4,0,0.8-0.1,1.1-0.2c0.3-0.1,0.6-0.3,0.8-0.4c0.2-0.2,0.4-0.3,0.6-0.4c0.2-0.1,0.3-0.2,0.4-0.2c0.1,0,0.1,0,0.2,0.1c0,0,0.1,0.1,0.1,0.2c0,0.1,0.1,0.3,0.1,0.4C317.5,61,317.5,61.2,317.5,61.5z"/>
  <path class="c0" d="M329.8,57.5c0,0.4-0.1,0.7-0.3,0.8c-0.2,0.2-0.4,0.3-0.7,0.3h-6.6c0,0.5,0.1,0.9,0.2,1.3c0.1,0.4,0.3,0.7,0.5,1c0.2,0.3,0.5,0.5,0.9,0.6c0.4,0.1,0.8,0.2,1.4,0.2c0.5,0,1,0,1.4-0.1c0.4-0.1,0.8-0.2,1.1-0.3c0.3-0.1,0.5-0.2,0.7-0.3c0.2-0.1,0.4-0.1,0.5-0.1c0.1,0,0.1,0,0.2,0c0,0,0.1,0.1,0.1,0.2c0,0.1,0.1,0.2,0.1,0.3c0,0.1,0,0.3,0,0.5c0,0.2,0,0.3,0,0.5c0,0.1,0,0.2,0,0.3c0,0.1,0,0.2-0.1,0.2c0,0.1-0.1,0.1-0.1,0.2c-0.1,0.1-0.2,0.1-0.4,0.2s-0.5,0.2-0.9,0.3c-0.4,0.1-0.8,0.2-1.3,0.2c-0.5,0.1-1,0.1-1.5,0.1c-1,0-1.8-0.1-2.5-0.4c-0.7-0.2-1.3-0.6-1.8-1.1c-0.5-0.5-0.9-1.1-1.1-1.9c-0.2-0.8-0.4-1.6-0.4-2.7c0-1,0.1-1.8,0.4-2.6c0.3-0.8,0.6-1.4,1.1-2c0.5-0.5,1.1-1,1.8-1.2c0.7-0.3,1.5-0.4,2.3-0.4c0.9,0,1.7,0.1,2.3,0.4c0.6,0.3,1.2,0.6,1.6,1.1c0.4,0.5,0.7,1,0.9,1.7c0.2,0.7,0.3,1.4,0.3,2.1V57.5z M326.8,56.6c0-0.9-0.1-1.5-0.5-2c-0.4-0.5-0.9-0.7-1.7-0.7c-0.4,0-0.7,0.1-1,0.2s-0.5,0.3-0.7,0.6c-0.2,0.2-0.3,0.5-0.4,0.9c-0.1,0.3-0.2,0.7-0.2,1.1H326.8z"/>
  <path class="c0" d="M340,60.2c0,0.6-0.1,1.2-0.3,1.6c-0.2,0.5-0.6,0.9-1,1.2c-0.4,0.3-0.9,0.6-1.5,0.7c-0.6,0.2-1.2,0.2-1.9,0.2c-0.4,0-0.8,0-1.2-0.1c-0.4-0.1-0.7-0.1-1-0.2c-0.3-0.1-0.5-0.2-0.7-0.3s-0.3-0.2-0.4-0.3s-0.2-0.2-0.2-0.4c0-0.2-0.1-0.5-0.1-0.8c0-0.2,0-0.4,0-0.6c0-0.1,0-0.3,0.1-0.3c0-0.1,0.1-0.1,0.1-0.2c0,0,0.1,0,0.2,0c0.1,0,0.2,0.1,0.4,0.2c0.2,0.1,0.4,0.2,0.7,0.3c0.3,0.1,0.6,0.2,0.9,0.3c0.3,0.1,0.7,0.2,1.2,0.2c0.3,0,0.5,0,0.7-0.1c0.2-0.1,0.4-0.1,0.6-0.2c0.2-0.1,0.3-0.2,0.4-0.4c0.1-0.2,0.1-0.3,0.1-0.6c0-0.2-0.1-0.5-0.2-0.6c-0.2-0.2-0.3-0.3-0.6-0.5c-0.2-0.1-0.5-0.3-0.8-0.4c-0.3-0.1-0.6-0.2-1-0.4c-0.3-0.1-0.7-0.3-1-0.5c-0.3-0.2-0.6-0.4-0.8-0.7c-0.2-0.3-0.4-0.6-0.6-0.9c-0.2-0.4-0.2-0.8-0.2-1.3c0-0.5,0.1-1,0.3-1.4c0.2-0.4,0.5-0.8,0.9-1.1c0.4-0.3,0.8-0.5,1.4-0.7s1.2-0.3,1.8-0.3c0.3,0,0.7,0,1,0.1s0.6,0.1,0.9,0.2c0.3,0.1,0.5,0.2,0.7,0.2c0.2,0.1,0.3,0.2,0.4,0.2c0.1,0.1,0.1,0.1,0.2,0.2c0,0.1,0.1,0.1,0.1,0.2s0,0.2,0,0.3c0,0.1,0,0.3,0,0.5c0,0.2,0,0.4,0,0.5c0,0.1,0,0.2-0.1,0.3c0,0.1-0.1,0.1-0.1,0.2s-0.1,0-0.2,0c-0.1,0-0.2,0-0.3-0.1c-0.2-0.1-0.3-0.2-0.6-0.3s-0.5-0.2-0.8-0.3s-0.7-0.1-1-0.1c-0.3,0-0.5,0-0.7,0.1c-0.2,0.1-0.4,0.1-0.5,0.2c-0.1,0.1-0.2,0.2-0.3,0.4c-0.1,0.1-0.1,0.3-0.1,0.5c0,0.3,0.1,0.5,0.2,0.6c0.2,0.2,0.4,0.3,0.6,0.5s0.5,0.3,0.9,0.4s0.6,0.2,1,0.4c0.3,0.1,0.7,0.3,1,0.5s0.6,0.4,0.9,0.7c0.3,0.3,0.5,0.6,0.6,0.9C339.9,59.2,340,59.7,340,60.2z"/>
</svg>
