<?xml version="1.0" encoding="UTF-8"?> <svg xmlns="http://www.w3.org/2000/svg" width="179.93" height="39.72" viewBox="0 0 179.93 39.72"><defs><style>.cls-1{fill:#15589f;}.cls-2{fill:#91ca6b;}.cls-3{fill:#fff;}.cls-4{fill:#8fc96a;stroke:#569146;stroke-miterlimit:10;stroke-width:0.08px;}</style></defs><title>color-horizontal</title><g id="Graphics"><path id="Bay" class="cls-1" d="M2.57,29.47a19.73,19.73,0,0,0,34.37-.08A53.89,53.89,0,0,0,19.86,26.7,53.79,53.79,0,0,0,2.57,29.47Z"></path><path id="Ground" class="cls-2" d="M.53,24.3a19.6,19.6,0,0,0,2,5.16,53.79,53.79,0,0,1,17.3-2.76,53.89,53.89,0,0,1,17.07,2.69,19.6,19.6,0,0,0,2-5.17,57.52,57.52,0,0,0-19.09-3.16A57.43,57.43,0,0,0,.53,24.3Z"></path><path id="Mountain" class="cls-3" d="M27.37,13.51l-6.11-2.94a3.1,3.1,0,0,0-2.69,0L0,19.5c0,.07,0,.15,0,.22A19.78,19.78,0,0,0,.53,24.3a57.43,57.43,0,0,1,19.33-3.25,57.52,57.52,0,0,1,19.09,3.16,19.85,19.85,0,0,0,.39-6.67L29.16,12.65Z"></path><path id="Sky" class="cls-1" d="M19.73,0A19.73,19.73,0,0,0,0,19.5l18.56-8.93a3.1,3.1,0,0,1,2.69,0l6.11,2.94,1.8-.86,10.18,4.89A19.73,19.73,0,0,0,19.73,0Z"></path></g><g id="Text"><g id="WASHINGTON"><path class="cls-4" d="M124.11,35.25c-.41,1.2-1.13,3.08-1.5,4.32a3.87,3.87,0,0,0-.45,0,4,4,0,0,0-.46,0c-.38-1.54-1.63-5.69-1.77-6.06a7.22,7.22,0,0,0,.74,0,6.45,6.45,0,0,0,.71,0c.36,1.5.82,3.21,1.15,4.44h0c.52-1.48,1.27-3.62,1.51-4.44a2.22,2.22,0,0,0,.88,0c.16.78,1.07,3.28,1.39,4.44h0c.45-1.48,1.14-3.74,1.3-4.44a1.84,1.84,0,0,0,.37,0,2.19,2.19,0,0,0,.4,0c-.24.68-1.44,4.12-2,6.06a3.87,3.87,0,0,0-.45,0,4,4,0,0,0-.46,0c-.38-1.44-.86-2.87-1.39-4.32Z"></path><path class="cls-4" d="M133.8,39.56c-.28,0-.53,0-.77,0s-.5,0-.75,0c-.18-.6-.39-1.2-.61-1.8l-1.12,0-.91,0a17.29,17.29,0,0,0-.6,1.8,3.29,3.29,0,0,0-.41,0,4.37,4.37,0,0,0-.44,0c.43-1,1.75-4.1,2.5-6.11a1.29,1.29,0,0,0,.67,0C132.11,35.46,133.14,38.13,133.8,39.56Zm-2.33-2.32c-.25-.71-.5-1.41-.78-2.09-.3.69-.57,1.38-.83,2.09Z"></path><path class="cls-4" d="M137.31,34.68a1,1,0,0,0-1.06-.76.85.85,0,0,0-.91.79c0,1.3,2.67,1,2.67,3a2.06,2.06,0,0,1-2.33,2,2.51,2.51,0,0,1-1.42-.38,8.84,8.84,0,0,0,.25-1.12h.17a1.15,1.15,0,0,0,1.21.95.9.9,0,0,0,1-.9c0-1.33-2.62-1-2.62-3a1.85,1.85,0,0,1,2-1.88,2.27,2.27,0,0,1,1.44.43c-.11.27-.17.48-.28.87Z"></path><path class="cls-4" d="M143.08,36.63c-.45,0-.89,0-1.34,0s-.89,0-1.34,0v.5c0,1,0,1.66.07,2.43-.19,0-.43,0-.72,0s-.53,0-.72,0c.05-.77.07-1.45.07-2.43v-1.2c0-1,0-1.66-.07-2.43.19,0,.43,0,.72,0s.53,0,.72,0c-.05.76-.07,1.44-.07,2.42l1.34,0,1.33,0c0-1,0-1.65-.07-2.42.19,0,.43,0,.72,0s.53,0,.72,0c-.05.77-.07,1.45-.07,2.43v1.2c0,1,0,1.66.07,2.43-.19,0-.43,0-.72,0s-.53,0-.72,0c.05-.77.07-1.45.07-2.43Z"></path><path class="cls-4" d="M146,35.93c0-1,0-1.66-.07-2.43.19,0,.43,0,.72,0s.53,0,.72,0c-.05.77-.07,1.45-.07,2.43v1.2c0,1,0,1.66.07,2.43-.19,0-.43,0-.72,0s-.53,0-.72,0c.05-.77.07-1.45.07-2.43Z"></path><path class="cls-4" d="M148.92,33.5a1.8,1.8,0,0,0,.79,0c1.27,1.4,2.52,2.79,3.81,4.18,0-1.4,0-3.79-.06-4.18a1.8,1.8,0,0,0,.79,0c-.14,2.56-.14,3.73-.14,6.06a1.68,1.68,0,0,0-.36,0,1.41,1.41,0,0,0-.34,0q-1.81-2.14-3.84-4.27c0,.66,0,1.39,0,2,0,1.41,0,1.9.05,2.22a2.28,2.28,0,0,0-.41,0,2.11,2.11,0,0,0-.4,0c0-.25.18-2.52.18-4.32C149,34.46,148.93,33.92,148.92,33.5Z"></path><path class="cls-4" d="M160.74,34.81a2,2,0,0,0-1.73-.88c-1.09,0-2.21.91-2.21,2.75a2.18,2.18,0,0,0,2.14,2.45,2.59,2.59,0,0,0,1-.16,4,4,0,0,0,0-.62c0-.95-.05-1.34-.06-1.51a3.83,3.83,0,0,0,.65,0,4.17,4.17,0,0,0,.71,0,11.36,11.36,0,0,0-.07,1.48c0,.37,0,.83,0,1a8.68,8.68,0,0,1-2.35.39c-2,0-3.47-1.15-3.47-2.94,0-2.23,1.57-3.35,3.64-3.35a4.18,4.18,0,0,1,2.12.53,6.81,6.81,0,0,0-.25.9Z"></path><path class="cls-4" d="M163.61,34.93a5.71,5.71,0,0,0,0-.77c-.34,0-1.08.05-1.61.11a1.72,1.72,0,0,0,0-.77c.8,0,1.2,0,2.29,0s1.49,0,2.23,0a1.72,1.72,0,0,0,0,.77,15.61,15.61,0,0,0-1.56-.11c0,.12,0,.44,0,.77v2.2c0,1,0,1.66.07,2.43-.19,0-.43,0-.72,0s-.53,0-.72,0c.05-.77.07-1.45.07-2.43Z"></path><path class="cls-4" d="M170.1,33.38a3,3,0,0,1,3.33,3.14,3.2,3.2,0,0,1-3.36,3.16c-1.85,0-3.35-.95-3.35-3.15A3.16,3.16,0,0,1,170.1,33.38Zm0,.5c-1.2,0-1.91,1.21-1.91,2.72,0,1.87.86,2.52,1.85,2.52s2-.88,2-2.79C172,34.82,171.2,33.88,170.07,33.88Z"></path><path class="cls-4" d="M174.56,33.5a1.8,1.8,0,0,0,.79,0c1.27,1.4,2.52,2.79,3.81,4.18,0-1.4,0-3.79-.06-4.18a1.8,1.8,0,0,0,.79,0c-.14,2.56-.14,3.73-.14,6.06a1.68,1.68,0,0,0-.36,0,1.41,1.41,0,0,0-.34,0q-1.81-2.14-3.84-4.27c0,.66,0,1.39,0,2,0,1.41,0,1.9.05,2.22a2.28,2.28,0,0,0-.41,0,2.11,2.11,0,0,0-.4,0c0-.25.18-2.52.18-4.32C174.6,34.46,174.57,33.92,174.56,33.5Z"></path></g><g id="Bellingham"><path class="cls-1" d="M46.72,21.51V20c0-3-.13-4.17-2.13-4.34a.27.27,0,0,1-.21-.25.22.22,0,0,1,.21-.26,25.23,25.23,0,0,1,3.38.43,18.31,18.31,0,0,1,4.21-.54c3.22,0,4.95,1.31,4.95,3.53,0,1.78-1.27,3.12-3.59,3.61,0,0-.09,0-.09.07a.09.09,0,0,0,.09.08c3.14.28,4.82,1.76,4.82,4.15,0,2.73-2.13,4.43-6.09,4.43a18.05,18.05,0,0,1-4.21-.52,27.23,27.23,0,0,1-3.46.43.25.25,0,0,1-.25-.26.26.26,0,0,1,.25-.27c2-.11,2.13-1.22,2.13-4.17V21.51ZM49.63,26c0,3,0,4.15,2.21,4.15,2,0,3.2-1.31,3.2-3.48,0-2.58-1.53-3.83-4.62-3.83a4.68,4.68,0,0,0-.79,0C49.56,22.88,49.63,26,49.63,26Zm1.05-3.91c2.3,0,3.4-1,3.4-3.1a3,3,0,0,0-3.25-3.12,5,5,0,0,0-1.12.11A18.36,18.36,0,0,0,49.65,18s-.05,3.95,0,4A6.14,6.14,0,0,0,50.68,22.06Z"></path><path class="cls-1" d="M69.54,24.6H63.71c-.58,0-.75.22-.75.88a4.06,4.06,0,0,0,4,4.32,4.23,4.23,0,0,0,2.9-1.12.24.24,0,0,1,.31.09.44.44,0,0,1-.05.4,5.9,5.9,0,0,1-4.66,1.91A4.79,4.79,0,0,1,60.22,26a5.36,5.36,0,0,1,5.2-5.65c2.62,0,4.39,1.74,4.39,3.68,0,.1,0,.2,0,.32a.24.24,0,0,1-.26.27Zm-2.89-.71c.47,0,.6-.09.6-.43a2.17,2.17,0,1,0-4.3.17.29.29,0,0,0,.06.23C63.09,23.95,66.65,23.89,66.65,23.89Z"></path><path class="cls-1" d="M72.82,19.07c0-.63,0-1,0-1.12,0-1.72-.22-2.28-1.42-2.28h-.22s-.17,0-.22-.25.22-.27.22-.27a23.12,23.12,0,0,1,3-.34,9,9,0,0,1,1.1-.73s.17-.11.28,0a.24.24,0,0,1,.08.23,30.48,30.48,0,0,0-.17,3.55v8.93c0,2.62,0,3.5,1.77,3.57a.27.27,0,0,1,.23.26c0,.23-.23.26-.23.26a21,21,0,0,1-3.08-.39,21,21,0,0,1-3.05.39s-.26,0-.23-.27a.29.29,0,0,1,.23-.25c1.76-.06,1.76-1,1.76-3.76Z"></path><path class="cls-1" d="M79.77,19.07c0-.63,0-1,0-1.12,0-1.72-.21-2.28-1.42-2.28h-.21s-.17,0-.22-.25.22-.27.22-.27a23.08,23.08,0,0,1,3-.34,8.94,8.94,0,0,1,1.09-.73s.17-.11.28,0a.25.25,0,0,1,.08.23,30.87,30.87,0,0,0-.17,3.55v8.93c0,2.62,0,3.5,1.76,3.57a.27.27,0,0,1,.23.26c0,.23-.23.26-.23.26a20.89,20.89,0,0,1-3.07-.39,21,21,0,0,1-3.05.39s-.27,0-.24-.27a.29.29,0,0,1,.24-.25c1.76-.06,1.76-1,1.76-3.76Z"></path><path class="cls-1" d="M94,24.9c0-2.26,0-3-1.42-3h-.22a.36.36,0,0,1-.2-.25c0-.17.2-.25.2-.25a19.16,19.16,0,0,1,2.88-.32,4.2,4.2,0,0,1,.88-.69s.17-.12.28-.06.09.26.09.26c-.09.73-.13,1.42-.15,2.06,0,0,0,.1,0,.13s.11-.06.11-.06a3.76,3.76,0,0,1,3.7-2.26c2.73,0,3.61,1.63,3.61,4.93V27c0,2.43,0,3.27,1.63,3.38a.28.28,0,0,1,.21.26.23.23,0,0,1-.21.25,15.84,15.84,0,0,1-2.75-.37,10.62,10.62,0,0,1-1.42.32c-.08,0-.17.06-.21,0s0-.17,0-.29c.08-1,.1-2.39.1-4.07,0-3.18-.22-4.86-2.11-4.86-1.59,0-2.41,1.23-2.41,3.68V27c0,2.41,0,3.27,1.64,3.38a.35.35,0,0,1,.23.28c0,.2-.23.24-.23.24a20.37,20.37,0,0,1-2.95-.41,20.18,20.18,0,0,1-3,.41s-.23-.07-.23-.25.23-.26.23-.26c1.63-.11,1.66-1,1.66-3.57V24.9Z"></path><path class="cls-1" d="M117.21,20.85l-.16.74c-.11.45-.34.54-1,.54a3.37,3.37,0,0,1-.75,0l-.13,0a.54.54,0,0,0,.06.12,3.54,3.54,0,0,1,.55,2c0,2-1.46,3.48-4,3.78-1.05.13-2,.22-2,1.05s1.07.95,3,1.2c2.9.41,4.36,1.05,4.36,3.25s-2.37,3.93-6,3.93c-3.05,0-4.86-1.25-4.86-3.07,0-1.44,1.38-2.49,4-2.69,0,0,.08,0,.1,0s-.1-.06-.1-.06c-1.64-.19-2.5-.82-2.5-1.79s.75-1.59,2.13-1.87a3.56,3.56,0,0,1-3-3.59c0-2.3,1.74-3.94,4.39-3.94,1.51,0,2.69.62,3.63.62a9.6,9.6,0,0,0,2.06-.31s.2-.07.25,0S117.21,20.85,117.21,20.85Zm-5.69,11.32c-2.13,0-3.33.88-3.33,2.26s1.2,2.26,3.18,2.26c2.21,0,3.57-1.05,3.57-2.41S113.72,32.17,111.52,32.17Zm-2.06-8.25c0,2.17.77,3.42,2,3.42s1.85-1,1.85-2.82c0-2.21-.78-3.46-2-3.46S109.46,22.06,109.46,23.91Z"></path><path class="cls-1" d="M119.54,19.07c0-.58,0-.95,0-1.12,0-1.7-.24-2.28-1.48-2.28a.56.56,0,0,1-.15,0c-.07,0-.16,0-.21-.24s.21-.27.21-.27a19.57,19.57,0,0,1,3-.34,9,9,0,0,1,1.1-.73s.2-.15.32,0a.22.22,0,0,1,0,.25,30.55,30.55,0,0,0-.17,3.55v4.59a3.75,3.75,0,0,1,3.59-2c2.75,0,3.61,1.63,3.61,4.93v1.42c0,2.58,0,3.46,1.66,3.57a.28.28,0,0,1,.23.25.22.22,0,0,1-.23.27,15,15,0,0,1-2.77-.37,13.14,13.14,0,0,1-1.34.3c-.12,0-.23.1-.31,0s0-.23,0-.38c.08-.94.11-2.26.11-4,0-3.16-.24-4.84-2.11-4.84-1.51,0-2.43,1.18-2.43,3.46V27c0,2.41,0,3.27,1.66,3.38a.32.32,0,0,1,.21.28.24.24,0,0,1-.21.24,20.15,20.15,0,0,1-3-.41,21.63,21.63,0,0,1-2.95.41.24.24,0,0,1-.19-.24.28.28,0,0,1,.19-.27c1.64-.11,1.66-1,1.66-3.57v-7.7Z"></path><path class="cls-1" d="M141.13,26.92c0,1.74.13,2.67,1,2.67a1.6,1.6,0,0,0,.71-.26.22.22,0,0,1,.32,0c.14.19-.06.4-.06.4A3.69,3.69,0,0,1,140.63,31a1.79,1.79,0,0,1-1.91-1.63,4.51,4.51,0,0,1-3.61,1.72c-1.83,0-2.86-.92-2.86-2.41,0-2.22,2-2.56,4.54-3.25,1.57-.43,1.76-.73,1.76-2.13s-.52-2.24-1.61-2.24a1.57,1.57,0,0,0-1.63,1.72,1.91,1.91,0,0,0,.15.8c0,.06.05.11,0,.15a.15.15,0,0,1-.09.1,2.2,2.2,0,0,1-1.07.33,1.18,1.18,0,0,1-1.21-1.29c0-1.35,1.62-2.5,4-2.5,3,0,4,1.55,4,4.58Zm-3.26-1.08c-1.8.61-3,.77-3,2.35a1.47,1.47,0,0,0,1.55,1.63c1.25,0,2.13-.75,2.13-2.36v-1.2a2.32,2.32,0,0,0,0-.6C138.43,25.6,138.06,25.78,137.87,25.84Z"></path><path class="cls-1" d="M145.45,25.09c0-2.41,0-3.22-1.44-3.22h-.21a.24.24,0,0,1-.17-.24.23.23,0,0,1,.17-.25,16.09,16.09,0,0,1,2.88-.32,7.45,7.45,0,0,1,.9-.69s.19-.14.3-.07.06.26.06.26c-.09.82-.13,1.46-.17,2,0,0,0,.1,0,.12a.1.1,0,0,0,.12-.06,3.76,3.76,0,0,1,3.46-2.15,3.15,3.15,0,0,1,3.16,2.3,3.9,3.9,0,0,1,3.63-2.28c2.62,0,3.44,1.63,3.44,4.88v1.42c0,2.58,0,3.46,1.65,3.57a.37.37,0,0,1,.22.25c0,.17-.08.24-.22.27a14.85,14.85,0,0,1-2.77-.37c-.44.11-.89.22-1.39.32-.09,0-.19.06-.24,0s0-.15,0-.24c.09-1.07.13-2.46.13-4.21,0-3.12-.28-4.71-2-4.71-1.38,0-2.2,1.2-2.2,3.63v1.8c0,2.3.07,3.12,1.63,3.23a.37.37,0,0,1,.22.25c0,.17-.09.24-.22.27a17.54,17.54,0,0,1-2.77-.39,11.59,11.59,0,0,1-1.15.3c-.09,0-.26.1-.37,0s0-.27,0-.39c.09-.95.14-2.28.14-4.21,0-3-.49-4.52-2.06-4.52-1.31,0-2.17,1.16-2.17,3.38v1.51c0,2.66,0,3.65,1.59,3.76,0,0,.2.12.2.28s-.2.24-.2.24a16.22,16.22,0,0,1-2.88-.41,23.55,23.55,0,0,1-2.94.41s-.28-.07-.26-.27.26-.25.26-.25c1.61-.09,1.65-1,1.65-3.38V25.09Z"></path><path class="cls-1" d="M87,24.19c0-1.68-.18-2.32-1.39-2.32h-.22s-.17,0-.22-.25.19-.26.19-.26A26.32,26.32,0,0,1,88.43,21a7.68,7.68,0,0,1,.95-.72s.17-.11.28,0a.25.25,0,0,1,.08.23,30.81,30.81,0,0,0-.17,3.55l0,2.69c0,2.62,0,3.5,1.76,3.57a.27.27,0,0,1,.23.26c0,.23-.23.26-.23.26a20.87,20.87,0,0,1-3.07-.39,21,21,0,0,1-3.05.39s-.26,0-.24-.27a.29.29,0,0,1,.24-.25c1.76-.06,1.76-1,1.76-3.76C86.93,26.58,87,24.3,87,24.19Z"></path><path class="cls-1" d="M86.93,17.86a1.61,1.61,0,0,1-.54-.94,3.28,3.28,0,0,1,1.71-1.53A2.7,2.7,0,0,1,89.63,17,2.43,2.43,0,0,1,89,18c-.38.45-.78.83-1,.83C87.49,18.8,87.43,18.4,86.93,17.86Z"></path></g><g id="City_of" data-name="City of"><path class="cls-1" d="M50.84,6.57a.1.1,0,0,1,.06.12c-.06.24-.13.46-.2.66,0,.41.08,1,.07,1.23,0,.06,0,.13-.16.13s-.17-.07-.17-.13a1.76,1.76,0,0,0-1.92-1.76C47,6.82,46.06,8,46.06,9.91S47.14,13,48.63,13a1.72,1.72,0,0,0,1.94-1.46c0-.08,0-.14.18-.14a.14.14,0,0,1,.15.14,8.7,8.7,0,0,1-.16,1c0,.09,0,.17,0,.26s0,.08,0,.13-.06,0-.1.06a5.26,5.26,0,0,1-2.2.43C46,13.39,44.55,12,44.55,10s1.52-3.5,3.91-3.5a12.72,12.72,0,0,1,2,.24.27.27,0,0,0,.26-.13A.14.14,0,0,1,50.84,6.57Z"></path><path class="cls-1" d="M56.21,7.63c.17,0,.22.17.22.25s0,1.21,0,1.21l1.11,0a.2.2,0,0,1,.15.21.22.22,0,0,1-.15.22l-1.11,0v2c0,.91.21,1.34.83,1.34a1.1,1.1,0,0,0,.73-.3.19.19,0,0,1,.15,0,.14.14,0,0,1,0,.18,2,2,0,0,1-1.48.59c-1.23,0-1.36-.75-1.36-2.1V9.49h-.64a.15.15,0,0,1-.12-.14.14.14,0,0,1,.12-.13c.78-.07,1.19-.52,1.34-1.39C56,7.83,56,7.64,56.21,7.63Z"></path><path class="cls-1" d="M59.88,12.22l-.7-1.51c-.43-.93-.72-1.46-1.29-1.56,0,0-.07,0-.08-.11s.08-.1.08-.1a11.83,11.83,0,0,1,1.21.15,8.37,8.37,0,0,1,1.22-.15.12.12,0,0,1,.09.11.11.11,0,0,1-.09.1c-.26,0-.4.14-.4.34a7.39,7.39,0,0,0,.7,1.91l.41.88.57-1.4a3.7,3.7,0,0,0,.33-1.18c0-.36-.16-.51-.57-.55A.12.12,0,0,1,61.25,9c0-.09.09-.1.09-.1a11.06,11.06,0,0,1,1.1.14,9,9,0,0,1,.91-.14s.1,0,.1.1-.1.11-.1.11c-.73.06-1.14,1.22-2.09,3.4S59.79,16,58.78,16c-.32,0-.51-.17-.51-.43a.69.69,0,0,1,.09-.32s0-.08.08-.09.09,0,.13,0a.73.73,0,0,0,.28.05c.68,0,1.11-.57,1.6-1.75C60.27,13.07,60.07,12.64,59.88,12.22Z"></path><path class="cls-1" d="M68.84,13.38a2.3,2.3,0,1,1,2.45-2.3A2.29,2.29,0,0,1,68.84,13.38ZM67.65,11c0,1.37.42,2.06,1.19,2.06s1.19-.68,1.19-2-.45-2-1.19-2S67.65,9.76,67.65,11Z"></path><path class="cls-1" d="M72.56,9.51H72a.17.17,0,0,1-.13-.17A.12.12,0,0,1,72,9.22c.6,0,.55-.24.61-.78a2.07,2.07,0,0,1,2.08-2c.48,0,.8.24.8.56s-.15.37-.43.45c0,0-.06,0-.1,0s0-.06-.06-.1c-.14-.36-.36-.54-.61-.54-.48,0-.59.53-.59,1.54V9.1l1.23,0a.21.21,0,0,1,.19.23.2.2,0,0,1-.19.22l-1.23,0v2.09c0,.84,0,1.17,0,1.37s0,.18,0,.21-.09,0-.13,0l-.41-.07a10.5,10.5,0,0,1-1.26.16.13.13,0,0,1-.1-.12.09.09,0,0,1,.1-.1c.7,0,.7-.42.7-1.52v-2Z"></path><path class="cls-1" d="M52.37,10.45c0-.72-.08-1-.59-1h-.09s-.08,0-.09-.11.08-.11.08-.11A11.23,11.23,0,0,1,53,9.11a3.06,3.06,0,0,1,.4-.31s.07,0,.12,0a.1.1,0,0,1,0,.1,13.37,13.37,0,0,0-.07,1.51l0,1.14c0,1.12,0,1.49.75,1.52a.12.12,0,0,1,.1.11.11.11,0,0,1-.1.11,8.93,8.93,0,0,1-1.31-.17,8.91,8.91,0,0,1-1.3.17s-.11,0-.1-.12a.12.12,0,0,1,.1-.1c.75,0,.75-.41.75-1.6C52.36,11.47,52.37,10.5,52.37,10.45Z"></path><path class="cls-1" d="M52.36,7.75a.69.69,0,0,1-.23-.4,1.4,1.4,0,0,1,.73-.65,1.15,1.15,0,0,1,.65.7,1,1,0,0,1-.26.4c-.16.19-.33.35-.44.35S52.57,8,52.36,7.75Z"></path></g></g></svg> 